#VRML V2.0 utf8
# 3D model generated by kicad-lcsc-manager
# Based on easyeda2kicad.py v1.0.1

Shape{
    appearance Appearance {
        material  Material {
            diffuseColor 0.5019607843137255 0.5019607843137255 0.5019607843137255
            specularColor 0.25098039215686274 0.25098039215686274 0.25098039215686274
            ambientIntensity 0.502
            transparency 0.0
            shininess 0.5
        }
    }
    geometry IndexedFaceSet {
        ccw TRUE
        solid FALSE
        coord DEF co Coordinate {
            point [
                0.6143 3.1299 0.1969, 0.6335 0.0216 0.1969, 0.6143 -0.0012 0.1969, 0.6335 0.0 0.1969, 0.7391 0.0 0.1969, 0.6383 0.1752 0.1969, 0.7127 0.1752 0.1969, 0.7127 0.1104 0.1969, 0.7776 0.0102 0.1969, 0.7776 0.0318 0.1969, 0.7391 0.1969 0.1969, 0.7127 0.0888 0.1969, 0.7127 0.0216 0.1969, 0.6431 0.0888 0.1969, 0.6431 0.1104 0.1969, 0.8751 0.0067 0.1969, 0.9408 0.0 0.1969, 0.856 0.0001 0.1969, 0.8433 -0.0012 0.1969, 4.9661 -0.0012 0.1969, 1.0416 0.0 0.1969, 4.9661 3.1299 0.1969, 1.0416 0.1969 0.1969, 1.0152 0.1969 0.1969, 0.6383 0.1969 0.1969, 0.843 0.1755 0.1969, 0.8578 0.1702 0.1969, 0.7811 0.0299 0.1969, 0.8714 0.161 0.1969, 0.8833 0.1479 0.1969, 0.8976 0.0963 0.1969, 0.8956 0.075 0.1969, 0.8902 0.0581 0.1969, 0.8464 0.0213 0.1969, 0.8281 0.0192 0.1969, 0.8608 0.0265 0.1969, 0.8729 0.0347 0.1969, 0.8821 0.0444 0.1969, 0.8019 0.0221 0.1969, 0.8914 0.1327 0.1969, 0.8966 0.1116 0.1969, 0.8843 0.1805 0.1969, 0.9021 0.1634 0.1969, 0.9136 0.145 0.1969, 0.8909 0.0168 0.1969, 0.9057 0.0324 0.1969, 0.9408 0.0216 0.1969, 0.9162 0.0511 0.1969, 1.0152 0.0216 0.1969, 0.9221 0.0719 0.1969, 0.924 0.0947 0.1969, 0.9212 0.1227 0.1969, 0.8656 0.1913 0.1969, 0.8436 0.1976 0.1969, 0.8239 0.1993 0.1969, 0.8003 0.1976 0.1969, 0.7776 0.1914 0.1969, 0.7776 0.165 0.1969, 0.7997 0.1745 0.1969, 0.8237 0.1776 0.1969, 0.8317 -0.0024 0.1969, 4.9661 -3.1299 0.1969, 0.8263 -0.0023 0.1969, 0.6143 -3.1299 0.1969, 0.8184 -0.0012 0.1969, -3.6559 -3.1299 0.1969, -3.6559 -0.0012 0.1969, 0.7985 0.0016 0.1969, 0.4223 0.0 0.1969, 0.4465 0.054 0.1969, 0.4578 0.0363 0.1969, 0.474 0.0208 0.1969, 0.4945 0.0089 0.1969, 0.5172 0.0021 0.1969, 0.2734 0.0 0.1969, 0.2446 0.0 0.1969, 0.3214 0.1969 0.1969, -3.6559 3.1299 0.1969, 0.3478 0.1969 0.1969, 0.5416 0.0 0.1969, 0.3935 0.0 0.1969, 0.3747 0.0552 0.1969, 0.2933 0.0552 0.1969, 0.5951 0.0 0.1969, 0.5951 0.1969 0.1969, 0.5396 0.1969 0.1969, 0.4665 0.1712 0.1969, 0.4525 0.1557 0.1969, 0.4434 0.1388 0.1969, 0.5111 0.1938 0.1969, 0.4881 0.1857 0.1969, 0.4667 0.1714 0.1969, 0.4381 0.1194 0.1969, 0.4367 0.1009 0.1969, 0.4394 0.0746 0.1969, 5.0843 3.248 0.0, 5.0843 3.248 7.4803, 5.0843 -3.248 0.0, 5.0843 -3.248 7.4803, -3.774 3.248 0.0, -3.774 3.248 7.4803, -3.774 -3.248 0.0, -3.774 -3.248 7.4803, 4.9661 3.1299 0.0, 4.9661 -3.1299 0.0, -3.6559 -3.1299 0.0, -3.6559 3.1299 0.0
            ]
        }
        coordIndex [
            0,1,2,-1,2,1,3,-1,2,3,4,-1,5,6,7,-1,8,4,9,-1,9,4,10,-1,11,12,13,-1,13,12,1,-1,13,1,14,-1,15,16,17,-1,17,16,18,-1,19,20,21,-1,21,20,22,-1,21,22,0,-1,0,22,23,-1,7,14,5,-1,5,14,1,-1,5,1,24,-1,24,1,0,-1,24,0,10,-1,25,26,27,-1,27,26,28,-1,27,28,29,-1,30,31,27,-1,27,31,32,-1,33,34,35,-1,35,34,36,-1,32,37,27,-1,27,37,36,-1,27,36,38,-1,38,36,34,-1,29,39,27,-1,27,39,40,-1,27,40,30,-1,41,0,42,-1,42,0,23,-1,42,23,43,-1,15,44,16,-1,16,44,45,-1,16,45,46,-1,46,45,47,-1,46,47,48,-1,47,49,48,-1,48,49,50,-1,48,50,23,-1,23,50,51,-1,23,51,43,-1,41,52,0,-1,0,52,53,-1,0,53,54,-1,54,55,0,-1,0,55,56,-1,0,56,10,-1,10,56,57,-1,10,57,9,-1,9,57,58,-1,9,58,27,-1,27,58,59,-1,27,59,25,-1,16,20,18,-1,18,20,19,-1,18,19,60,-1,60,19,61,-1,60,61,62,-1,62,61,63,-1,62,63,64,-1,65,66,63,-1,63,66,2,-1,63,2,64,-1,64,2,4,-1,64,4,67,-1,67,4,8,-1,68,69,70,-1,70,71,68,-1,68,71,72,-1,68,72,73,-1,74,2,75,-1,75,2,66,-1,75,66,76,-1,76,66,77,-1,76,77,78,-1,78,77,0,-1,73,79,68,-1,68,79,2,-1,68,2,80,-1,80,2,74,-1,80,74,81,-1,81,74,82,-1,79,83,2,-1,2,83,84,-1,2,84,0,-1,0,84,85,-1,86,87,78,-1,78,87,88,-1,85,89,0,-1,0,89,90,-1,0,90,78,-1,78,90,91,-1,78,91,86,-1,88,92,78,-1,78,92,93,-1,78,93,68,-1,68,93,94,-1,68,94,69,-1,95,96,97,-1,97,96,98,-1,99,100,95,-1,95,100,96,-1,101,102,99,-1,99,102,100,-1,97,98,101,-1,101,98,102,-1,100,102,96,-1,96,102,98,-1,103,95,104,-1,104,95,97,-1,104,97,105,-1,105,97,101,-1,105,101,106,-1,106,101,99,-1,106,99,103,-1,103,99,95,-1,21,103,19,-1,19,103,104,-1,19,104,61,-1,61,104,63,-1,63,104,105,-1,63,105,65,-1,65,105,66,-1,66,105,106,-1,66,106,77,-1,77,106,0,-1,0,106,103,-1,0,103,21,-1,
        ]
    }
}
Shape{
    appearance Appearance {
        material  Material {
            diffuseColor 1.0 1.0 1.0
            specularColor 0.8784313725490196 0.8784313725490196 0.8784313725490196
            ambientIntensity 1.0
            transparency 0.0
            shininess 0.5
        }
    }
    geometry IndexedFaceSet {
        ccw TRUE
        solid FALSE
        coord DEF co Coordinate {
            point [
                0.9408 0.0216 0.189, 0.9408 0.0 0.189, 0.9408 0.0216 0.1969, 0.9408 0.0 0.1969, 1.0152 0.0216 0.189, 1.0152 0.0216 0.1969, 1.0152 0.1969 0.189, 1.0152 0.1969 0.1969, 1.0416 0.1969 0.189, 1.0416 0.1969 0.1969, 1.0416 0.0 0.189, 1.0416 0.0 0.1969, 0.7776 0.0318 0.189, 0.7776 0.0102 0.189, 0.7776 0.0318 0.1969, 0.7776 0.0102 0.1969, 0.7811 0.0299 0.1969, 0.7811 0.0299 0.189, 0.8019 0.0221 0.1969, 0.8019 0.0221 0.189, 0.8281 0.0192 0.1969, 0.8281 0.0192 0.189, 0.8464 0.0213 0.1969, 0.8464 0.0213 0.189, 0.8608 0.0265 0.1969, 0.8608 0.0265 0.189, 0.8729 0.0347 0.1969, 0.8729 0.0347 0.189, 0.8821 0.0444 0.1969, 0.8821 0.0444 0.189, 0.8902 0.0581 0.1969, 0.8902 0.0581 0.189, 0.8956 0.075 0.1969, 0.8956 0.075 0.189, 0.8976 0.0963 0.1969, 0.8976 0.0963 0.189, 0.8966 0.1116 0.1969, 0.8966 0.1116 0.189, 0.8914 0.1327 0.1969, 0.8914 0.1327 0.189, 0.8833 0.1479 0.1969, 0.8833 0.1479 0.189, 0.8714 0.161 0.1969, 0.8714 0.161 0.189, 0.8578 0.1702 0.1969, 0.8578 0.1702 0.189, 0.843 0.1755 0.1969, 0.843 0.1755 0.189, 0.8237 0.1776 0.1969, 0.8237 0.1776 0.189, 0.7997 0.1745 0.1969, 0.7997 0.1745 0.189, 0.7776 0.165 0.1969, 0.7776 0.165 0.189, 0.7776 0.1914 0.189, 0.7776 0.1914 0.1969, 0.8003 0.1976 0.1969, 0.8003 0.1976 0.189, 0.8239 0.1993 0.1969, 0.8239 0.1993 0.189, 0.8436 0.1976 0.1969, 0.8436 0.1976 0.189, 0.8656 0.1913 0.1969, 0.8656 0.1913 0.189, 0.8843 0.1805 0.1969, 0.8843 0.1805 0.189, 0.9021 0.1634 0.1969, 0.9021 0.1634 0.189, 0.9136 0.145 0.1969, 0.9136 0.145 0.189, 0.9212 0.1227 0.1969, 0.9212 0.1227 0.189, 0.924 0.0947 0.1969, 0.924 0.0947 0.189, 0.9221 0.0719 0.1969, 0.9221 0.0719 0.189, 0.9162 0.0511 0.1969, 0.9162 0.0511 0.189, 0.9057 0.0324 0.1969, 0.9057 0.0324 0.189, 0.8909 0.0168 0.1969, 0.8909 0.0168 0.189, 0.8751 0.0067 0.1969, 0.8751 0.0067 0.189, 0.856 0.0001 0.1969, 0.856 0.0001 0.189, 0.8317 -0.0024 0.189, 0.8433 -0.0012 0.1969, 0.8317 -0.0024 0.1969, 0.7985 0.0016 0.189, 0.8263 -0.0023 0.1969, 0.8263 -0.0023 0.189, 0.8184 -0.0012 0.1969, 0.7985 0.0016 0.1969, 0.6335 0.0216 0.189, 0.6335 0.0 0.189, 0.6335 0.0216 0.1969, 0.6335 0.0 0.1969, 0.7127 0.0216 0.189, 0.7127 0.0216 0.1969, 0.7127 0.0888 0.189, 0.7127 0.0888 0.1969, 0.6431 0.0888 0.189, 0.6431 0.0888 0.1969, 0.6431 0.1104 0.189, 0.6431 0.1104 0.1969, 0.7127 0.1104 0.189, 0.7127 0.1104 0.1969, 0.7127 0.1752 0.189, 0.7127 0.1752 0.1969, 0.6383 0.1752 0.189, 0.6383 0.1752 0.1969, 0.6383 0.1969 0.189, 0.6383 0.1969 0.1969, 0.7391 0.1969 0.189, 0.7391 0.1969 0.1969, 0.7391 0.0 0.189, 0.7391 0.0 0.1969, 0.4434 0.1388 0.189, 0.4525 0.1557 0.189, 0.4762 0.1476 0.189, 0.4665 0.1712 0.189, 0.4857 0.1578 0.189, 0.4667 0.1714 0.189, 0.5001 0.1671 0.189, 0.4881 0.1857 0.189, 0.5164 0.1728 0.189, 0.5111 0.1938 0.189, 0.5397 0.1752 0.189, 0.5396 0.1969 0.189, 0.5687 0.1752 0.189, 0.5951 0.1969 0.189, 0.5687 0.0216 0.189, 0.5951 0.0 0.189, 0.5408 0.0216 0.189, 0.5416 0.0 0.189, 0.52 0.0235 0.189, 0.5172 0.0021 0.189, 0.5034 0.0287 0.189, 0.4945 0.0089 0.189, 0.49 0.0367 0.189, 0.474 0.0208 0.189, 0.479 0.0476 0.189, 0.4578 0.0363 0.189, 0.4707 0.0612 0.189, 0.4465 0.054 0.189, 0.4649 0.0797 0.189, 0.4394 0.0746 0.189, 0.4631 0.1003 0.189, 0.4367 0.1009 0.189, 0.4647 0.1199 0.189, 0.4381 0.1194 0.189, 0.4693 0.1355 0.189, 0.5416 0.0 0.1969, 0.5951 0.0 0.1969, 0.5172 0.0021 0.1969, 0.4945 0.0089 0.1969, 0.474 0.0208 0.1969, 0.4578 0.0363 0.1969, 0.4465 0.054 0.1969, 0.4394 0.0746 0.1969, 0.4367 0.1009 0.1969, 0.4381 0.1194 0.1969, 0.4434 0.1388 0.1969, 0.4525 0.1557 0.1969, 0.4665 0.1712 0.1969, 0.4667 0.1714 0.1969, 0.4881 0.1857 0.1969, 0.5111 0.1938 0.1969, 0.5396 0.1969 0.1969, 0.5951 0.1969 0.1969, 0.5397 0.1752 0.1969, 0.5687 0.1752 0.1969, 0.5687 0.0216 0.1969, 0.5408 0.0216 0.1969, 0.4631 0.1003 0.1969, 0.4649 0.0797 0.1969, 0.4707 0.0612 0.1969, 0.479 0.0476 0.1969, 0.49 0.0367 0.1969, 0.5034 0.0287 0.1969, 0.52 0.0235 0.1969, 0.5164 0.1728 0.1969, 0.5001 0.1671 0.1969, 0.4857 0.1578 0.1969, 0.4762 0.1476 0.1969, 0.4693 0.1355 0.1969, 0.4647 0.1199 0.1969
            ]
        }
        coordIndex [
            0,1,2,-1,2,1,3,-1,4,0,5,-1,5,0,2,-1,6,4,7,-1,7,4,5,-1,8,6,9,-1,9,6,7,-1,10,8,11,-1,11,8,9,-1,1,10,3,-1,3,10,11,-1,6,8,4,-1,4,8,10,-1,4,10,0,-1,0,10,1,-1,12,13,14,-1,14,13,15,-1,12,14,16,-1,12,16,17,-1,17,16,18,-1,17,18,19,-1,19,18,20,-1,19,20,21,-1,21,20,22,-1,21,22,23,-1,23,22,24,-1,23,24,25,-1,25,24,26,-1,25,26,27,-1,27,26,28,-1,27,28,29,-1,29,28,30,-1,29,30,31,-1,31,30,32,-1,31,32,33,-1,33,32,34,-1,33,34,35,-1,35,34,36,-1,35,36,37,-1,37,36,38,-1,37,38,39,-1,39,38,40,-1,39,40,41,-1,41,40,42,-1,41,42,43,-1,43,42,44,-1,43,44,45,-1,45,44,46,-1,45,46,47,-1,47,46,48,-1,47,48,49,-1,49,48,50,-1,49,50,51,-1,51,50,52,-1,51,52,53,-1,54,53,55,-1,55,53,52,-1,54,55,56,-1,54,56,57,-1,57,56,58,-1,57,58,59,-1,59,58,60,-1,59,60,61,-1,61,60,62,-1,61,62,63,-1,63,62,64,-1,63,64,65,-1,65,64,66,-1,65,66,67,-1,67,66,68,-1,67,68,69,-1,69,68,70,-1,69,70,71,-1,71,70,72,-1,71,72,73,-1,73,72,74,-1,73,74,75,-1,75,74,76,-1,75,76,77,-1,77,76,78,-1,77,78,79,-1,79,78,80,-1,79,80,81,-1,81,80,82,-1,81,82,83,-1,83,82,84,-1,83,84,85,-1,85,84,86,-1,86,84,87,-1,86,87,88,-1,15,13,89,-1,86,88,90,-1,86,90,91,-1,91,90,92,-1,91,92,89,-1,89,92,93,-1,89,93,15,-1,23,86,21,-1,21,86,91,-1,21,91,19,-1,19,91,89,-1,19,89,17,-1,17,89,13,-1,17,13,12,-1,53,54,51,-1,51,54,57,-1,51,57,49,-1,49,57,59,-1,49,59,47,-1,47,59,61,-1,47,61,45,-1,45,61,63,-1,45,63,43,-1,43,63,65,-1,43,65,41,-1,41,65,67,-1,41,67,39,-1,39,67,69,-1,39,69,37,-1,37,69,71,-1,37,71,35,-1,35,71,73,-1,35,73,33,-1,33,73,75,-1,33,75,31,-1,31,75,77,-1,31,77,29,-1,29,77,79,-1,29,79,27,-1,27,79,81,-1,27,81,25,-1,25,81,83,-1,25,83,23,-1,23,83,85,-1,23,85,86,-1,94,95,96,-1,96,95,97,-1,98,94,99,-1,99,94,96,-1,100,98,101,-1,101,98,99,-1,102,100,103,-1,103,100,101,-1,104,102,105,-1,105,102,103,-1,106,104,107,-1,107,104,105,-1,108,106,109,-1,109,106,107,-1,110,108,111,-1,111,108,109,-1,112,110,113,-1,113,110,111,-1,114,112,115,-1,115,112,113,-1,116,114,117,-1,117,114,115,-1,95,116,97,-1,97,116,117,-1,116,95,94,-1,94,98,116,-1,116,98,100,-1,116,100,114,-1,110,112,108,-1,108,112,114,-1,108,114,106,-1,106,114,100,-1,106,100,104,-1,104,100,102,-1,118,119,120,-1,120,119,121,-1,120,121,122,-1,122,121,123,-1,122,123,124,-1,124,123,125,-1,124,125,126,-1,126,125,127,-1,126,127,128,-1,128,127,129,-1,128,129,130,-1,130,129,131,-1,130,131,132,-1,132,131,133,-1,132,133,134,-1,134,133,135,-1,134,135,136,-1,136,135,137,-1,136,137,138,-1,138,137,139,-1,138,139,140,-1,140,139,141,-1,140,141,142,-1,142,141,143,-1,142,143,144,-1,144,143,145,-1,144,145,146,-1,146,145,147,-1,146,147,148,-1,148,147,149,-1,148,149,150,-1,150,149,151,-1,150,151,152,-1,152,151,118,-1,152,118,120,-1,135,133,153,-1,153,133,154,-1,135,153,155,-1,135,155,137,-1,137,155,156,-1,137,156,139,-1,139,156,157,-1,139,157,141,-1,141,157,158,-1,141,158,143,-1,143,158,159,-1,143,159,145,-1,145,159,160,-1,145,160,147,-1,147,160,161,-1,147,161,149,-1,149,161,162,-1,149,162,151,-1,151,162,163,-1,151,163,118,-1,118,163,164,-1,118,164,119,-1,119,164,165,-1,119,165,121,-1,121,165,166,-1,121,166,123,-1,123,166,167,-1,123,167,125,-1,125,167,168,-1,125,168,127,-1,127,168,169,-1,127,169,129,-1,131,129,170,-1,170,129,169,-1,133,131,154,-1,154,131,170,-1,128,130,171,-1,171,130,172,-1,130,132,172,-1,172,132,173,-1,132,134,173,-1,173,134,174,-1,148,175,176,-1,148,176,146,-1,146,176,177,-1,146,177,144,-1,144,177,178,-1,144,178,142,-1,142,178,179,-1,142,179,140,-1,140,179,180,-1,140,180,138,-1,138,180,181,-1,138,181,136,-1,136,181,174,-1,136,174,134,-1,128,171,182,-1,128,182,126,-1,126,182,183,-1,126,183,124,-1,124,183,184,-1,124,184,122,-1,122,184,185,-1,122,185,120,-1,120,185,186,-1,120,186,152,-1,152,186,187,-1,152,187,150,-1,150,187,175,-1,150,175,148,-1,
        ]
    }
}
Shape{
    appearance Appearance {
        material  Material {
            diffuseColor 0.5019607843137255 0.5019607843137255 0.5019607843137255
            specularColor 0.25098039215686274 0.25098039215686274 0.25098039215686274
            ambientIntensity 0.502
            transparency 0.0
            shininess 0.5
        }
    }
    geometry IndexedFaceSet {
        ccw TRUE
        solid FALSE
        coord DEF co Coordinate {
            point [
                0.5687 0.1752 0.1969, 0.5687 0.0216 0.1969, 0.5397 0.1752 0.1969, 0.5408 0.0216 0.1969, 0.52 0.0235 0.1969, 0.4631 0.1003 0.1969, 0.4647 0.1199 0.1969, 0.4693 0.1355 0.1969, 0.5164 0.1728 0.1969, 0.5034 0.0287 0.1969, 0.49 0.0367 0.1969, 0.479 0.0476 0.1969, 0.4707 0.0612 0.1969, 0.4649 0.0797 0.1969, 0.4762 0.1476 0.1969, 0.4857 0.1578 0.1969, 0.5001 0.1671 0.1969
            ]
        }
        coordIndex [
            0,1,2,-1,2,1,3,-1,2,3,4,-1,5,6,2,-1,2,6,7,-1,2,7,8,-1,4,9,2,-1,2,9,10,-1,2,10,11,-1,11,12,2,-1,2,12,13,-1,2,13,5,-1,14,15,7,-1,7,15,16,-1,7,16,8,-1,
        ]
    }
}
Shape{
    appearance Appearance {
        material  Material {
            diffuseColor 1.0 1.0 1.0
            specularColor 0.8784313725490196 0.8784313725490196 0.8784313725490196
            ambientIntensity 1.0
            transparency 0.0
            shininess 0.5
        }
    }
    geometry IndexedFaceSet {
        ccw TRUE
        solid FALSE
        coord DEF co Coordinate {
            point [
                0.368 0.0768 0.189, 0.3747 0.0552 0.189, 0.3022 0.0768 0.189, 0.2933 0.0552 0.189, 0.3387 0.159 0.189, 0.3478 0.1969 0.189, 0.4223 0.0 0.189, 0.3935 0.0 0.189, 0.3368 0.1659 0.189, 0.3355 0.1728 0.189, 0.3214 0.1969 0.189, 0.3349 0.1728 0.189, 0.3336 0.1659 0.189, 0.3318 0.159 0.189, 0.2446 0.0 0.189, 0.2734 0.0 0.189, 0.3214 0.1969 0.1969, 0.2446 0.0 0.1969, 0.3478 0.1969 0.1969, 0.4223 0.0 0.1969, 0.3935 0.0 0.1969, 0.3747 0.0552 0.1969, 0.2933 0.0552 0.1969, 0.2734 0.0 0.1969, 0.368 0.0768 0.1969, 0.3022 0.0768 0.1969, 0.3318 0.159 0.1969, 0.3349 0.1728 0.1969, 0.3336 0.1659 0.1969, 0.3355 0.1728 0.1969, 0.3387 0.159 0.1969, 0.3368 0.1659 0.1969
            ]
        }
        coordIndex [
            0,1,2,-1,2,1,3,-1,4,5,0,-1,0,5,6,-1,0,6,1,-1,1,6,7,-1,4,8,5,-1,5,8,9,-1,5,9,10,-1,10,9,11,-1,10,11,12,-1,12,13,10,-1,10,13,2,-1,10,2,14,-1,14,2,3,-1,14,3,15,-1,10,14,16,-1,16,14,17,-1,5,10,18,-1,18,10,16,-1,6,5,19,-1,19,5,18,-1,7,6,20,-1,20,6,19,-1,1,7,21,-1,21,7,20,-1,3,1,22,-1,22,1,21,-1,15,3,23,-1,23,3,22,-1,14,15,17,-1,17,15,23,-1,0,2,24,-1,24,2,25,-1,2,13,25,-1,25,13,26,-1,11,27,28,-1,11,28,12,-1,12,28,26,-1,12,26,13,-1,11,9,27,-1,27,9,29,-1,4,30,31,-1,4,31,8,-1,8,31,29,-1,8,29,9,-1,4,0,30,-1,30,0,24,-1,
        ]
    }
}
Shape{
    appearance Appearance {
        material  Material {
            diffuseColor 0.5019607843137255 0.5019607843137255 0.5019607843137255
            specularColor 0.25098039215686274 0.25098039215686274 0.25098039215686274
            ambientIntensity 0.502
            transparency 0.0
            shininess 0.5
        }
    }
    geometry IndexedFaceSet {
        ccw TRUE
        solid FALSE
        coord DEF co Coordinate {
            point [
                0.368 0.0768 0.1969, 0.3022 0.0768 0.1969, 0.3387 0.159 0.1969, 0.3318 0.159 0.1969, 0.3368 0.1659 0.1969, 0.3336 0.1659 0.1969, 0.3355 0.1728 0.1969, 0.3349 0.1728 0.1969
            ]
        }
        coordIndex [
            0,1,2,-1,2,1,3,-1,2,3,4,-1,4,3,5,-1,4,5,6,-1,6,5,7,-1,
        ]
    }
}
Shape{
    appearance Appearance {
        material  Material {
            diffuseColor 1.0 1.0 1.0
            specularColor 0.5019607843137255 0.5019607843137255 0.5019607843137255
            ambientIntensity 1.0
            transparency 0.0
            shininess 0.5
        }
    }
    geometry IndexedFaceSet {
        ccw TRUE
        solid FALSE
        coord DEF co Coordinate {
            point [
                -1.6874 2.4409 -0.7874, -1.6874 2.4409 0.1969, -1.6874 2.2835 -0.7874, -1.6874 2.2835 0.1969, -1.963 2.2835 -1.2598, -1.8055 2.2835 -1.2598, -2.0811 2.2835 -0.7874, -2.0811 2.2835 0.1969, -2.0811 2.4409 -0.7874, -2.0811 2.4409 0.1969, -1.963 2.4409 -1.2598, -1.8055 2.4409 -1.2598, -2.8488 0.2362 0.1969, -2.8488 -0.2362 0.1969, -2.8488 0.2362 -0.7874, -2.8488 -0.2362 -0.7874, -2.8488 0.1181 -1.2598, -2.8488 -0.1181 -1.2598, -2.9276 -0.2362 -0.7874, -2.9276 -0.2362 0.1969, -2.9276 0.1181 -1.2598, -2.9276 -0.1181 -1.2598, -2.9276 0.2362 -0.7874, -2.9276 0.2362 0.1969, -1.6874 -2.2835 -0.7874, -1.6874 -2.2835 0.1969, -1.6874 -2.4409 -0.7874, -1.6874 -2.4409 0.1969, -2.0811 -2.4409 0.1969, -2.0811 -2.4409 -0.7874, -1.8055 -2.4409 -1.2598, -1.963 -2.4409 -1.2598, -2.0811 -2.2835 -0.7874, -2.0811 -2.2835 0.1969, -1.8055 -2.2835 -1.2598, -1.963 -2.2835 -1.2598, 3.1158 -2.2835 -0.7874, 3.1158 -2.2835 0.1969, 3.1158 -2.4409 -0.7874, 3.1158 -2.4409 0.1969, 2.7221 -2.4409 0.1969, 2.7221 -2.4409 -0.7874, 2.9976 -2.4409 -1.2598, 2.8402 -2.4409 -1.2598, 2.7221 -2.2835 -0.7874, 2.7221 -2.2835 0.1969, 2.9976 -2.2835 -1.2598, 2.8402 -2.2835 -1.2598, 3.1158 2.4409 -0.7874, 3.1158 2.4409 0.1969, 3.1158 2.2835 -0.7874, 3.1158 2.2835 0.1969, 2.7221 2.2835 0.1969, 2.7221 2.2835 -0.7874, 2.9976 2.2835 -1.2598, 2.8402 2.2835 -1.2598, 2.7221 2.4409 -0.7874, 2.7221 2.4409 0.1969, 2.9976 2.4409 -1.2598, 2.8402 2.4409 -1.2598
            ]
        }
        coordIndex [
            0,1,2,-1,2,1,3,-1,4,5,6,-1,6,5,2,-1,6,2,7,-1,7,2,3,-1,6,7,8,-1,8,7,9,-1,9,1,8,-1,8,1,0,-1,8,0,10,-1,10,0,11,-1,10,11,4,-1,4,11,5,-1,9,7,1,-1,1,7,3,-1,2,5,0,-1,0,5,11,-1,4,6,10,-1,10,6,8,-1,12,13,14,-1,14,13,15,-1,14,15,16,-1,16,15,17,-1,15,13,18,-1,18,13,19,-1,20,21,22,-1,22,21,18,-1,22,18,23,-1,23,18,19,-1,22,23,14,-1,14,23,12,-1,16,17,20,-1,20,17,21,-1,23,19,12,-1,12,19,13,-1,17,15,21,-1,21,15,18,-1,14,16,22,-1,22,16,20,-1,24,25,26,-1,26,25,27,-1,27,28,26,-1,26,28,29,-1,26,29,30,-1,30,29,31,-1,29,28,32,-1,32,28,33,-1,34,35,24,-1,24,35,32,-1,24,32,25,-1,25,32,33,-1,35,34,31,-1,31,34,30,-1,33,28,25,-1,25,28,27,-1,26,30,24,-1,24,30,34,-1,31,29,35,-1,35,29,32,-1,36,37,38,-1,38,37,39,-1,39,40,38,-1,38,40,41,-1,38,41,42,-1,42,41,43,-1,41,40,44,-1,44,40,45,-1,46,47,36,-1,36,47,44,-1,36,44,37,-1,37,44,45,-1,47,46,43,-1,43,46,42,-1,45,40,37,-1,37,40,39,-1,38,42,36,-1,36,42,46,-1,43,41,47,-1,47,41,44,-1,48,49,50,-1,50,49,51,-1,51,52,50,-1,50,52,53,-1,50,53,54,-1,54,53,55,-1,53,52,56,-1,56,52,57,-1,58,59,48,-1,48,59,56,-1,48,56,49,-1,49,56,57,-1,54,55,58,-1,58,55,59,-1,57,52,49,-1,49,52,51,-1,55,53,59,-1,59,53,56,-1,50,54,48,-1,48,54,58,-1,
        ]
    }
}