#VRML V2.0 utf8
# 3D model generated by kicad-lcsc-manager
# Based on easyeda2kicad.py v1.0.1

Shape{
    appearance Appearance {
        material  Material {
            diffuseColor 0.25098039215686274 0.25098039215686274 0.25098039215686274
            specularColor 0.12549019607843137 0.12549019607843137 0.12549019607843137
            ambientIntensity 0.251
            transparency 0.0
            shininess 0.5
        }
    }
    geometry IndexedFaceSet {
        ccw TRUE
        solid FALSE
        coord DEF co Coordinate {
            point [
                -0.8415 -3.061 0.4724, -3.937 -3.061 0.4724, -3.937 -2.6811 0.4724, -8.2097 6.1516 0.4724, -8.1929 6.1516 0.4724, -8.4497 6.067 0.4724, -3.937 5.7579 0.4724, -3.937 6.1516 0.4724, -0.8415 6.1516 0.4724, 3.937 -2.6673 0.4724, 3.937 -2.6811 0.4724, 1.1702 -2.6811 0.4724, 1.5015 1.577 0.4724, 1.5015 1.1952 0.4724, 1.1702 1.577 0.4724, 1.2039 1.1952 0.4724, 1.1702 1.104 0.4724, 1.2039 1.1088 0.4724, 1.6072 1.1088 0.4724, -0.1021 1.577 0.4724, 0.2916 1.577 0.4724, 0.0132 1.5505 0.4724, 0.2916 1.5505 0.4724, 0.2916 1.4641 0.4724, 0.2916 1.1952 0.4724, 0.0132 1.4641 0.4724, -0.0253 1.1952 0.4724, 0.3973 1.577 0.4724, 0.4741 1.577 0.4724, 0.3973 1.1088 0.4724, 0.4741 1.104 0.4724, -0.0253 1.1088 0.4724, -0.1021 1.104 0.4724, 0.3973 1.8962 0.4724, 0.4741 1.9184 0.4724, -0.0061 1.8962 0.4724, 0.2916 1.8098 0.4724, -0.0061 1.8098 0.4724, -0.1021 1.9184 0.4724, -1.4656 1.1088 0.4724, -1.386 1.3296 0.4724, -1.0607 1.3296 0.4724, -1.1679 1.8962 0.4724, -0.8415 1.9184 0.4724, -1.0473 1.577 0.4724, -0.8415 1.577 0.4724, -0.8703 1.1088 0.4724, -0.8415 1.104 0.4724, -0.9855 1.1088 0.4724, -1.5809 1.1088 0.4724, -4.4774 1.104 0.4724, -1.3981 1.577 0.4724, -4.4774 1.577 0.4724, -1.2736 1.8962 0.4724, -4.4774 1.9184 0.4724, 4.4906 -0.5216 0.4724, 4.4906 1.104 0.4724, 7.374 1.0532 0.4724, 7.6317 0.8554 0.4724, 7.6811 0.8759 0.4724, 8.6024 -0.5216 0.4724, 7.381 1.0002 0.4724, 7.4014 0.9508 0.4724, 7.434 0.9084 0.4724, 7.4764 0.8759 0.4724, 7.5258 0.8554 0.4724, 7.5787 0.8484 0.4724, 7.7235 0.9084 0.4724, 7.756 0.9508 0.4724, 8.6024 1.104 0.4724, 7.7765 1.0002 0.4724, 4.4906 1.577 0.4724, 7.381 1.1061 0.4724, 7.3807 1.104 0.4724, 7.5258 1.2509 0.4724, 7.4764 1.2305 0.4724, 7.756 1.1555 0.4724, 7.7235 1.1979 0.4724, 8.6024 1.577 0.4724, 7.434 1.1979 0.4724, 7.4014 1.1555 0.4724, 7.7835 1.0532 0.4724, 7.7768 1.104 0.4724, 7.7765 1.1061 0.4724, 7.6811 1.2305 0.4724, 7.6317 1.2509 0.4724, 7.5787 1.2579 0.4724, 7.4764 -1.9192 0.4724, 7.434 -1.9517 0.4724, 7.5787 -2.3012 0.4724, 7.6317 -2.2942 0.4724, 8.6008 -2.6811 0.4724, 7.6811 -2.2737 0.4724, 7.7235 -2.2412 0.4724, 7.756 -2.1988 0.4724, 8.6024 -2.6684 0.4724, 7.756 -1.9941 0.4724, 7.7235 -1.9517 0.4724, 7.6811 -1.9192 0.4724, 7.4014 -1.9941 0.4724, 7.381 -2.0435 0.4724, 4.4906 -2.6673 0.4724, 7.374 -2.0964 0.4724, 5.5118 -2.6673 0.4724, 7.381 -2.1494 0.4724, 5.5118 -2.6811 0.4724, 7.4014 -2.1988 0.4724, 7.434 -2.2412 0.4724, 7.4764 -2.2737 0.4724, 7.5258 -2.2942 0.4724, 7.7765 -2.1494 0.4724, 7.7835 -2.0964 0.4724, 7.7765 -2.0435 0.4724, 7.6317 -1.8987 0.4724, 7.5787 -1.8917 0.4724, 7.5258 -1.8987 0.4724, 8.5904 -2.7651 0.4724, 8.5551 -2.8553 0.4724, 8.5548 -2.856 0.4724, 8.4987 -2.9343 0.4724, 8.5905 -2.7645 0.4724, 8.498 -2.9352 0.4724, 8.4497 -2.9764 0.4724, 8.4285 -2.9945 0.4724, 8.3689 -3.0243 0.4724, 8.3415 -3.038 0.4724, 8.2753 -3.0527 0.4724, 8.2451 -3.0594 0.4724, 8.2097 -3.061 0.4724, 5.5118 -3.061 0.4724, 4.4906 5.7579 0.4724, 5.5118 5.7579 0.4724, 8.6024 1.9184 0.4724, 5.5118 6.1516 0.4724, 8.2097 6.1516 0.4724, 8.3059 6.1397 0.4724, 8.3065 6.1396 0.4724, 8.5657 5.9181 0.4724, 8.5794 5.8907 0.4724, 8.594 5.8245 0.4724, 8.5358 5.9777 0.4724, 8.6024 5.759 0.4724, 8.6008 5.7943 0.4724, 8.3966 6.1043 0.4724, 8.3974 6.104 0.4724, 8.4756 6.0479 0.4724, 8.4766 6.0472 0.4724, 8.5177 5.999 0.4724, 4.4906 1.9184 0.4724, 3.937 5.7579 0.4724, 1.1702 1.9184 0.4724, 3.937 6.1516 0.4724, -7.4014 2.2382 0.4724, -5.5118 5.7579 0.4724, -7.381 2.1888 0.4724, -7.374 2.1358 0.4724, -7.7765 2.0828 0.4724, -7.756 2.0335 0.4724, -8.1929 1.9184 0.4724, -7.7235 1.9911 0.4724, -7.5787 1.9311 0.4724, -7.5258 1.9381 0.4724, -7.756 2.2382 0.4724, -7.7765 2.1888 0.4724, -7.7835 2.1358 0.4724, -7.6811 1.9585 0.4724, -7.6317 1.9381 0.4724, -7.4764 1.9585 0.4724, -7.434 1.9911 0.4724, -7.4014 2.0335 0.4724, -4.4774 5.7579 0.4724, -7.381 2.0828 0.4724, -7.434 2.2806 0.4724, -7.4764 2.3131 0.4724, -5.5118 6.1516 0.4724, -7.5258 2.3336 0.4724, -7.5787 2.3406 0.4724, -7.6317 2.3336 0.4724, -7.6811 2.3131 0.4724, -7.7235 2.2806 0.4724, -8.498 6.0258 0.4724, -8.6024 1.9184 0.4724, -8.6024 5.759 0.4724, -8.3689 6.1149 0.4724, -8.3415 6.1286 0.4724, -8.2753 6.1433 0.4724, -8.5905 5.8551 0.4724, -8.5904 5.8557 0.4724, -8.5551 5.9458 0.4724, -8.5548 5.9466 0.4724, -8.4987 6.0249 0.4724, -8.4285 6.0851 0.4724, -8.2451 6.15 0.4724, -8.6008 -2.7037 0.4724, -8.6018 -2.6811 0.4724, -8.1929 -2.6811 0.4724, -8.6024 -2.6684 0.4724, -8.1929 -0.5216 0.4724, -8.2097 -3.061 0.4724, -8.3059 -3.0491 0.4724, -8.3065 -3.049 0.4724, -8.3966 -3.0138 0.4724, -8.3974 -3.0135 0.4724, -8.4756 -2.9574 0.4724, -8.4766 -2.9567 0.4724, -8.5177 -2.9084 0.4724, -8.5358 -2.8872 0.4724, -8.5657 -2.8275 0.4724, -8.5794 -2.8001 0.4724, -8.594 -2.734 0.4724, -5.5118 -2.6811 0.4724, -5.5118 -3.061 0.4724, -8.1929 -3.061 0.4724, -7.7835 -2.0964 0.4724, -7.7765 -2.1494 0.4724, -7.756 -2.1988 0.4724, -7.7235 -2.2412 0.4724, -7.6811 -2.2737 0.4724, -7.7765 -2.0435 0.4724, -7.756 -1.9941 0.4724, -5.5118 -2.6673 0.4724, -7.374 -2.0964 0.4724, -7.381 -2.0435 0.4724, -7.6317 -1.8987 0.4724, -7.5787 -1.8917 0.4724, -7.5258 -1.8987 0.4724, -7.6317 -2.2942 0.4724, -7.5787 -2.3012 0.4724, -7.5258 -2.2942 0.4724, -7.4764 -2.2737 0.4724, -7.4014 -1.9941 0.4724, -7.434 -1.9517 0.4724, -7.4764 -1.9192 0.4724, -7.6811 -1.9192 0.4724, -7.7235 -1.9517 0.4724, -7.434 -2.2412 0.4724, -7.4014 -2.1988 0.4724, -7.381 -2.1494 0.4724, -4.4774 -2.6673 0.4724, -4.4774 -0.5216 0.4724, -3.937 -2.6673 0.4724, -0.8415 -0.5216 0.4724, -0.7282 1.2542 0.4724, -0.6634 1.1921 0.4724, -0.5812 1.1443 0.4724, -0.8077 1.577 0.4724, -0.8127 1.5124 0.4724, -0.8016 1.407 0.4724, -0.7733 1.3246 0.4724, -0.5149 1.884 0.4724, -0.4011 1.8962 0.4724, -0.4904 1.1173 0.4724, -0.393 1.1088 0.4724, -0.1789 1.1088 0.4724, -0.1789 1.577 0.4724, -0.1789 1.8962 0.4724, -0.607 1.8517 0.4724, -0.6927 1.7942 0.4724, -0.6935 1.7935 0.4724, -0.7492 1.7318 0.4724, -0.7858 1.664 0.4724, -0.8069 1.5865 0.4724, 0.565 1.2282 0.4724, 0.5509 1.236 0.4724, 0.5509 1.1496 0.4724, 0.6348 1.1151 0.4724, 1.031 1.4941 0.4724, 1.023 1.4088 0.4724, 1.0016 1.3411 0.4724, 0.8264 1.1938 0.4724, 0.753 1.1856 0.4724, 0.8838 1.215 0.4724, 0.9321 1.2475 0.4724, 0.9691 1.2865 0.4724, 0.6485 1.1972 0.4724, 0.5509 1.8746 0.4724, 0.5509 1.7689 0.4724, 0.6396 1.8069 0.4724, 0.7353 1.8194 0.4724, 0.8128 1.8106 0.4724, 1.0951 1.6888 0.4724, 1.0489 1.7624 0.4724, 0.9778 1.8308 0.4724, 0.9031 1.8738 0.4724, 0.8718 1.7894 0.4724, 0.9263 1.7529 0.4724, 0.9738 1.7004 0.4724, 1.1253 1.5996 0.4724, 1.1276 1.577 0.4724, 1.0063 1.6396 0.4724, 1.0219 1.577 0.4724, 1.0273 1.5553 0.4724, 0.8153 1.8993 0.4724, 0.7362 1.9058 0.4724, 0.6419 1.8993 0.4724, 1.0042 1.1759 0.4724, 1.0634 1.2382 0.4724, 0.9409 1.1355 0.4724, 1.1053 1.3131 0.4724, 1.129 1.3964 0.4724, 1.1366 1.4876 0.4724, 0.7144 1.104 0.4724, 0.746 1.0995 0.4724, 0.4741 -0.5216 0.4724, 1.1702 -0.5216 0.4724, 0.7675 1.0992 0.4724, 0.8139 1.104 0.4724, 0.8646 1.1092 0.4724, -0.8415 -2.6811 0.4724, -0.1021 -3.061 0.4724, -0.1021 -2.6811 0.4724, 0.4741 -3.061 0.4724, 0.4741 -2.6811 0.4724, 1.1702 -3.061 0.4724, 3.937 -3.061 0.4724, -0.1021 -0.5216 0.4724, 1.5015 1.8962 0.4724, 1.6072 1.8962 0.4724, 1.6072 1.577 0.4724, -8.1929 1.577 0.4724, -8.1929 1.104 0.4724, -8.6024 1.577 0.4724, -8.6024 1.104 0.4724, -8.6024 -0.5216 0.4724, -0.1021 6.1516 0.4724, 0.4741 6.1516 0.4724, 1.1702 6.1516 0.4724, 3.937 -3.061 0.0787, -3.937 -3.061 0.0787, 8.2097 -3.061 0.0787, 5.5118 -3.061 0.0787, 8.2097 6.1516 0.0787, 5.5118 6.1516 0.0787, 3.937 6.1516 0.0787, -3.937 6.1516 0.0787, -8.2097 6.1516 0.0787, -5.5118 6.1516 0.0787, -5.5118 -3.061 0.0787, -8.2097 -3.061 0.0787, 8.5916 5.3545 7.7971, 8.5916 -2.2639 7.7971, 8.9961 5.759 0.0787, 8.9961 -2.6684 0.0787, -7.8052 6.1408 7.7971, 7.8052 6.1408 7.7971, -8.2097 6.5453 0.0787, 8.2097 6.5453 0.0787, -8.9961 5.759 0.0787, -8.9961 -2.6684 0.0787, -8.5916 5.3545 7.7971, -8.5916 -2.2639 7.7971, 7.8052 -3.0502 7.7971, -7.8052 -3.0502 7.7971, 8.2097 -3.4547 0.0787, -8.2097 -3.4547 0.0787, -7.2031 4.1557 8.5433, -7.2456 4.2582 8.5433, -7.8052 -2.2639 8.5433, -7.8052 5.3545 8.5433, -7.2601 4.3682 8.5433, -7.2456 4.4782 8.5433, -7.2031 4.5807 8.5433, -7.1356 4.6687 8.5433, -7.0476 4.7363 8.5433, -6.945 4.7787 8.5433, -6.835 3.9431 8.5433, -6.945 3.9576 8.5433, -6.835 4.7932 8.5433, -6.725 4.7787 8.5433, 7.8052 5.3545 8.5433, -6.6225 4.7363 8.5433, -6.5345 4.6687 8.5433, -6.4669 4.5807 8.5433, -6.4245 4.4782 8.5433, -6.41 4.3682 8.5433, 7.8052 -2.2639 8.5433, -6.4245 4.2582 8.5433, -6.4669 4.1557 8.5433, -7.0476 4.0001 8.5433, -7.1356 4.0676 8.5433, -6.5345 4.0676 8.5433, -6.6225 4.0001 8.5433, -6.725 3.9576 8.5433, -5.5118 -2.6673 0.0787, -3.937 -2.6673 0.0787, 3.937 -2.6673 0.0787, 5.5118 -2.6673 0.0787, -8.4134 -3.4279 0.0787, -8.3059 -3.0491 0.0787, -8.5108 -3.3949 0.0787, -8.3966 -3.0138 0.0787, 5.5118 5.7579 0.0787, 3.937 5.7579 0.0787, -8.6031 -3.3494 0.0787, -8.6886 -3.2923 0.0787, -8.4757 -2.9575 0.0787, -8.7659 -3.2245 0.0787, -8.5194 -2.9098 0.0787, 8.4134 6.5185 0.0787, 8.3059 6.1397 0.0787, 8.5108 6.4855 0.0787, 8.3966 6.1044 0.0787, 8.9362 -2.9695 0.0787, 8.5552 -2.8553 0.0787, 8.5905 -2.7645 0.0787, 8.8908 -3.0617 0.0787, 8.8337 -3.1472 0.0787, 8.4988 -2.9344 0.0787, 8.7659 -3.2245 0.0787, 8.4512 -2.9781 0.0787, 8.4134 -3.4279 0.0787, 8.2759 -3.0553 0.0787, 8.5108 -3.3949 0.0787, 8.37 -3.0266 0.0787, 8.6031 -3.3494 0.0787, 8.6886 -3.2923 0.0787, 8.6031 6.44 0.0787, 8.6886 6.3829 0.0787, 8.4757 6.048 0.0787, 8.7659 6.3151 0.0787, 8.5194 6.0004 0.0787, -8.9362 6.06 0.0787, -8.5552 5.9459 0.0787, -8.5905 5.8551 0.0787, -8.8337 -3.1472 0.0787, -8.8908 -3.0617 0.0787, -8.5679 -2.8287 0.0787, -8.9362 -2.9695 0.0787, -8.5966 -2.7345 0.0787, -8.9693 -2.872 0.0787, -8.6024 -2.6684 0.0787, -8.6024 5.759 0.0787, -8.9693 5.9626 0.0787, -8.8908 6.1523 0.0787, -8.8337 6.2378 0.0787, -8.4988 6.0249 0.0787, -8.7659 6.3151 0.0787, -8.4512 6.0687 0.0787, 8.8337 6.2378 0.0787, 8.8908 6.1523 0.0787, 8.5679 5.9192 0.0787, 8.9362 6.06 0.0787, 8.5966 5.8251 0.0787, 8.9693 5.9626 0.0787, 8.6024 5.759 0.0787, 8.6024 -2.6684 0.0787, 8.9693 -2.872 0.0787, -3.937 5.7579 0.0787, -5.5118 5.7579 0.0787, -8.4134 6.5185 0.0787, -8.2759 6.1458 0.0787, -8.5108 6.4855 0.0787, -8.37 6.1171 0.0787, -8.6031 6.44 0.0787, -8.6886 6.3829 0.0787, -8.5643 5.5576 7.8063, -8.5642 5.5578 7.8063, -8.4855 5.747 7.8121, -8.4854 5.7471 7.8121, -8.3605 5.9097 7.8141, -8.1979 6.0346 7.8121, -8.1978 6.0347 7.8121, -8.0086 6.1134 7.8063, -8.0084 6.1135 7.8063, 7.8052 6.1072 7.987, -7.8052 6.1072 7.987, 7.8052 6.1047 7.9924, -7.8052 6.1047 7.9924, 7.8052 6.0247 8.1691, -7.8052 6.0247 8.1691, 7.8052 6.0218 8.1728, -7.8052 6.0218 8.1728, 7.8052 5.8991 8.3246, -7.8052 5.8991 8.3246, 7.8052 5.8962 8.3267, -7.8052 5.8962 8.3267, 7.8052 5.7383 8.4434, -7.8052 5.7383 8.4434, 7.8052 5.7361 8.4443, -7.8052 5.7361 8.4443, 7.8052 5.5528 8.5179, -7.8052 5.5528 8.5179, 7.8052 5.5516 8.5181, -7.8052 5.5516 8.5181, 8.0084 6.1135 7.8063, 8.0086 6.1134 7.8063, 8.1978 6.0347 7.8121, 8.1979 6.0346 7.8121, 8.3605 5.9097 7.8141, 8.4854 5.7471 7.8121, 8.4855 5.747 7.8121, 8.5642 5.5578 7.8063, 8.5643 5.5576 7.8063, -8.4725 5.3545 8.1728, -8.3498 5.3545 8.3246, -8.3313 5.4954 8.3246, -8.176 5.4538 8.4434, -7.9968 5.4058 8.5179, -7.977 5.4536 8.5179, -7.9044 5.5262 8.5179, -7.9455 5.4947 8.5179, -7.8566 5.546 8.5179, -8.0024 5.3545 8.5181, -8.5323 5.5493 7.987, -8.4571 5.7308 7.987, -8.3375 5.8867 7.987, -8.1816 6.0063 7.987, -8.0001 6.0815 7.987, -8.347 5.3545 8.3267, -8.1891 5.3545 8.4434, -8.1869 5.3545 8.4443, -8.0035 5.3545 8.5179, -8.1376 5.5464 8.4434, -8.0766 5.6259 8.4434, -7.9972 5.6869 8.4434, -7.9046 5.7252 8.4434, -8.2769 5.6268 8.3246, -8.1903 5.7396 8.3246, -8.0775 5.8261 8.3246, -7.9462 5.8805 8.3246, -8.5555 5.3545 7.9924, -8.4755 5.3545 8.1691, -8.4527 5.5279 8.1691, -8.3857 5.6896 8.1691, -8.2792 5.8284 8.1691, -8.1404 5.9349 8.1691, -7.9787 6.0019 8.1691, -8.558 5.3545 7.987, 7.9462 5.8805 8.3246, 7.9046 5.7252 8.4434, 7.8566 5.546 8.5179, 7.9044 5.5262 8.5179, 7.977 5.4536 8.5179, 7.9455 5.4947 8.5179, 7.9968 5.4058 8.5179, 8.0001 6.0815 7.987, 8.1816 6.0063 7.987, 8.3375 5.8867 7.987, 8.4571 5.7308 7.987, 8.5323 5.5493 7.987, 8.558 5.3545 7.987, 8.0024 5.3545 8.5181, 7.9972 5.6869 8.4434, 8.0766 5.6259 8.4434, 8.1376 5.5464 8.4434, 8.176 5.4538 8.4434, 8.0035 5.3545 8.5179, 8.1869 5.3545 8.4443, 8.1891 5.3545 8.4434, 8.347 5.3545 8.3267, 8.0775 5.8261 8.3246, 8.1903 5.7396 8.3246, 8.2769 5.6268 8.3246, 8.3313 5.4954 8.3246, 7.9787 6.0019 8.1691, 8.1404 5.9349 8.1691, 8.2792 5.8284 8.1691, 8.3857 5.6896 8.1691, 8.4527 5.5279 8.1691, 8.3498 5.3545 8.3246, 8.4725 5.3545 8.1728, 8.4755 5.3545 8.1691, 8.5555 5.3545 7.9924, -8.0084 -3.023 7.8063, -8.0086 -3.0229 7.8063, -8.1978 -2.9442 7.8121, -8.1979 -2.944 7.8121, -8.3605 -2.8191 7.8141, -8.4854 -2.6566 7.8121, -8.4855 -2.6564 7.8121, -8.5642 -2.4673 7.8063, -8.5643 -2.4671 7.8063, -8.558 -2.2639 7.987, -8.5555 -2.2639 7.9924, -8.4755 -2.2639 8.1691, -8.4725 -2.2639 8.1728, -8.3498 -2.2639 8.3246, -8.347 -2.2639 8.3267, -8.1891 -2.2639 8.4434, -8.1869 -2.2639 8.4443, -8.0035 -2.2639 8.5179, -8.0024 -2.2639 8.5181, 8.558 -2.2639 7.987, 8.5555 -2.2639 7.9924, 8.4755 -2.2639 8.1691, 8.4725 -2.2639 8.1728, 8.3498 -2.2639 8.3246, 8.347 -2.2639 8.3267, 8.1891 -2.2639 8.4434, 8.1869 -2.2639 8.4443, 8.0035 -2.2639 8.5179, 8.0024 -2.2639 8.5181, 8.5643 -2.4671 7.8063, 8.5642 -2.4673 7.8063, 8.4855 -2.6564 7.8121, 8.4854 -2.6566 7.8121, 8.3605 -2.8191 7.8141, 8.1979 -2.944 7.8121, 8.1978 -2.9442 7.8121, 8.0086 -3.0229 7.8063, 8.0084 -3.023 7.8063, -7.8052 -2.9312 8.1728, -7.8052 -2.8085 8.3246, -7.9462 -2.7899 8.3246, -7.9046 -2.6346 8.4434, -7.8566 -2.4554 8.5179, -7.9044 -2.4356 8.5179, -7.977 -2.363 8.5179, -7.9455 -2.4041 8.5179, -7.9968 -2.3152 8.5179, -7.8052 -2.461 8.5181, -8.0001 -2.991 7.987, -8.1816 -2.9158 7.987, -8.3375 -2.7962 7.987, -8.4571 -2.6403 7.987, -8.5323 -2.4587 7.987, -7.8052 -2.8056 8.3267, -7.8052 -2.6477 8.4434, -7.8052 -2.6455 8.4443, -7.8052 -2.4622 8.5179, -7.9972 -2.5963 8.4434, -8.0766 -2.5353 8.4434, -8.1376 -2.4558 8.4434, -8.176 -2.3632 8.4434, -8.0775 -2.7355 8.3246, -8.1903 -2.649 8.3246, -8.2769 -2.5362 8.3246, -8.3313 -2.4048 8.3246, -7.8052 -3.0142 7.9924, -7.8052 -2.9342 8.1691, -7.9787 -2.9113 8.1691, -8.1404 -2.8444 8.1691, -8.2792 -2.7378 8.1691, -8.3857 -2.599 8.1691, -8.4527 -2.4374 8.1691, -7.8052 -3.0166 7.987, 8.3313 -2.4048 8.3246, 8.176 -2.3632 8.4434, 7.9968 -2.3152 8.5179, 7.977 -2.363 8.5179, 7.9044 -2.4356 8.5179, 7.9455 -2.4041 8.5179, 7.8566 -2.4554 8.5179, 8.5323 -2.4587 7.987, 8.4571 -2.6403 7.987, 8.3375 -2.7962 7.987, 8.1816 -2.9158 7.987, 8.0001 -2.991 7.987, 7.8052 -3.0166 7.987, 7.8052 -2.461 8.5181, 8.1376 -2.4558 8.4434, 8.0766 -2.5353 8.4434, 7.9972 -2.5963 8.4434, 7.9046 -2.6346 8.4434, 7.8052 -2.4622 8.5179, 7.8052 -2.6455 8.4443, 7.8052 -2.6477 8.4434, 7.8052 -2.8056 8.3267, 8.2769 -2.5362 8.3246, 8.1903 -2.649 8.3246, 8.0775 -2.7355 8.3246, 7.9462 -2.7899 8.3246, 8.4527 -2.4374 8.1691, 8.3857 -2.599 8.1691, 8.2792 -2.7378 8.1691, 8.1404 -2.8444 8.1691, 7.9787 -2.9113 8.1691, 7.8052 -2.8085 8.3246, 7.8052 -2.9312 8.1728, 7.8052 -2.9342 8.1691, 7.8052 -3.0142 7.9924
            ]
        }
        coordIndex [
            0,1,2,-1,3,4,5,-1,6,7,8,-1,9,10,11,-1,12,13,14,-1,14,13,15,-1,14,15,16,-1,16,15,17,-1,16,17,18,-1,19,20,21,-1,21,20,22,-1,23,24,25,-1,25,24,26,-1,27,28,29,-1,29,28,30,-1,29,30,31,-1,31,30,32,-1,31,32,26,-1,26,32,19,-1,26,19,25,-1,25,19,21,-1,27,33,34,-1,34,33,35,-1,36,20,37,-1,37,20,19,-1,37,19,35,-1,35,19,38,-1,35,38,34,-1,39,40,41,-1,42,43,44,-1,44,43,45,-1,44,45,46,-1,46,45,47,-1,46,47,48,-1,41,48,39,-1,39,48,47,-1,39,47,49,-1,49,47,50,-1,49,50,51,-1,51,50,52,-1,51,52,53,-1,53,52,54,-1,55,56,57,-1,58,59,60,-1,57,61,55,-1,55,61,62,-1,55,62,63,-1,63,64,55,-1,55,64,65,-1,55,65,60,-1,60,65,66,-1,60,66,58,-1,59,67,60,-1,60,67,68,-1,60,68,69,-1,69,68,70,-1,71,72,56,-1,56,72,73,-1,56,73,57,-1,71,74,75,-1,76,77,78,-1,75,79,71,-1,71,79,80,-1,71,80,72,-1,70,81,69,-1,69,81,82,-1,69,82,78,-1,78,82,83,-1,78,83,76,-1,77,84,78,-1,78,84,85,-1,78,85,86,-1,87,88,55,-1,89,90,91,-1,91,90,92,-1,92,93,91,-1,91,93,94,-1,91,94,95,-1,96,97,60,-1,60,97,98,-1,88,99,55,-1,55,99,100,-1,55,100,101,-1,101,100,102,-1,101,102,103,-1,103,102,104,-1,103,104,105,-1,105,104,106,-1,105,106,107,-1,107,108,105,-1,105,108,109,-1,105,109,89,-1,94,110,95,-1,95,110,111,-1,95,111,60,-1,60,111,112,-1,60,112,96,-1,98,113,60,-1,60,113,114,-1,60,114,55,-1,55,114,115,-1,55,115,87,-1,116,117,105,-1,105,117,118,-1,105,118,119,-1,89,91,105,-1,105,91,120,-1,105,120,116,-1,119,121,105,-1,105,121,122,-1,105,122,123,-1,123,124,105,-1,105,124,125,-1,105,125,126,-1,126,127,105,-1,105,127,128,-1,105,128,129,-1,130,131,132,-1,132,131,133,-1,133,134,132,-1,132,134,135,-1,132,135,136,-1,137,138,139,-1,140,137,132,-1,132,137,139,-1,132,139,141,-1,141,139,142,-1,136,143,132,-1,132,143,144,-1,132,144,145,-1,145,146,132,-1,132,146,147,-1,132,147,140,-1,130,148,149,-1,149,148,150,-1,149,150,151,-1,152,153,154,-1,154,153,155,-1,156,157,158,-1,158,157,159,-1,160,161,54,-1,162,163,158,-1,158,163,164,-1,158,164,156,-1,159,165,158,-1,158,165,166,-1,158,166,160,-1,161,167,54,-1,54,167,168,-1,54,168,169,-1,42,53,43,-1,43,53,54,-1,43,54,170,-1,170,54,169,-1,170,169,153,-1,153,169,171,-1,153,171,155,-1,152,172,153,-1,153,172,173,-1,153,173,174,-1,174,173,175,-1,174,175,4,-1,4,175,176,-1,176,177,4,-1,4,177,178,-1,4,178,179,-1,5,4,180,-1,181,182,4,-1,183,184,185,-1,182,186,4,-1,4,186,187,-1,4,187,188,-1,188,189,4,-1,4,189,190,-1,4,190,180,-1,5,191,183,-1,183,185,5,-1,5,185,192,-1,5,192,3,-1,193,194,195,-1,195,194,196,-1,195,196,197,-1,198,199,195,-1,195,199,200,-1,195,200,201,-1,201,202,195,-1,195,202,203,-1,195,203,204,-1,204,205,195,-1,195,205,206,-1,195,206,207,-1,207,208,195,-1,195,208,209,-1,195,209,193,-1,210,211,195,-1,195,211,212,-1,195,212,198,-1,195,213,214,-1,214,215,195,-1,195,215,216,-1,195,216,217,-1,213,195,218,-1,218,195,197,-1,218,197,219,-1,220,221,222,-1,223,197,224,-1,224,197,225,-1,217,226,195,-1,195,226,227,-1,195,227,210,-1,210,227,228,-1,210,228,229,-1,222,230,220,-1,220,230,231,-1,220,231,197,-1,197,231,232,-1,197,232,225,-1,223,233,197,-1,197,233,234,-1,197,234,219,-1,229,235,210,-1,210,235,236,-1,210,236,220,-1,220,236,237,-1,220,237,221,-1,238,239,240,-1,240,239,241,-1,240,241,2,-1,242,243,47,-1,47,243,244,-1,245,246,45,-1,45,246,247,-1,45,247,47,-1,47,247,248,-1,47,248,242,-1,249,43,250,-1,250,43,38,-1,244,251,47,-1,47,251,252,-1,47,252,32,-1,32,252,253,-1,32,253,19,-1,19,253,254,-1,19,254,38,-1,38,254,255,-1,38,255,250,-1,249,256,43,-1,43,256,257,-1,43,257,258,-1,258,259,43,-1,43,259,260,-1,43,260,45,-1,45,260,261,-1,45,261,245,-1,262,263,28,-1,28,263,30,-1,30,263,264,-1,30,264,265,-1,266,267,262,-1,262,267,268,-1,269,270,271,-1,271,270,272,-1,268,273,262,-1,262,273,272,-1,262,272,274,-1,274,272,270,-1,27,34,28,-1,28,34,275,-1,28,275,276,-1,276,277,28,-1,28,277,278,-1,28,278,279,-1,280,281,150,-1,150,281,282,-1,150,282,283,-1,279,284,28,-1,28,284,285,-1,28,285,286,-1,280,150,287,-1,287,150,14,-1,287,14,288,-1,286,289,28,-1,28,289,290,-1,28,290,262,-1,262,290,291,-1,262,291,266,-1,283,292,150,-1,150,292,293,-1,150,293,34,-1,34,293,294,-1,34,294,275,-1,295,296,16,-1,295,16,297,-1,296,298,16,-1,16,298,299,-1,16,299,14,-1,14,299,300,-1,14,300,288,-1,301,302,303,-1,303,302,304,-1,302,305,304,-1,304,305,306,-1,304,306,16,-1,16,306,307,-1,16,307,297,-1,0,308,309,-1,309,308,310,-1,309,310,311,-1,311,310,312,-1,311,312,313,-1,313,312,11,-1,313,11,314,-1,314,11,10,-1,0,2,308,-1,308,2,241,-1,308,241,310,-1,310,241,315,-1,310,315,312,-1,312,315,303,-1,312,303,11,-1,11,303,304,-1,11,304,9,-1,12,14,316,-1,316,14,150,-1,316,150,317,-1,317,150,148,-1,317,148,318,-1,318,148,71,-1,318,71,18,-1,18,71,56,-1,18,56,16,-1,16,56,55,-1,16,55,304,-1,304,55,101,-1,304,101,9,-1,239,50,241,-1,241,50,47,-1,241,47,315,-1,315,47,32,-1,315,32,303,-1,303,32,30,-1,303,30,301,-1,301,30,265,-1,130,132,148,-1,148,132,78,-1,148,78,71,-1,71,78,86,-1,71,86,74,-1,160,54,158,-1,158,54,52,-1,158,52,319,-1,319,52,50,-1,319,50,320,-1,320,50,239,-1,320,239,197,-1,197,239,238,-1,197,238,220,-1,179,162,4,-1,4,162,158,-1,4,158,181,-1,181,158,319,-1,181,319,321,-1,321,319,320,-1,321,320,322,-1,322,320,197,-1,322,197,323,-1,323,197,196,-1,170,6,43,-1,43,6,8,-1,43,8,38,-1,38,8,324,-1,38,324,34,-1,34,324,325,-1,34,325,150,-1,150,325,326,-1,150,326,151,-1,313,314,327,-1,1,0,328,-1,328,0,309,-1,328,309,327,-1,327,309,311,-1,327,311,313,-1,128,329,129,-1,129,329,330,-1,331,134,332,-1,332,134,133,-1,333,151,326,-1,326,325,333,-1,333,325,324,-1,333,324,334,-1,334,324,8,-1,334,8,7,-1,3,335,4,-1,4,335,336,-1,4,336,174,-1,211,337,212,-1,212,337,338,-1,212,338,198,-1,339,340,341,-1,341,340,342,-1,343,344,345,-1,345,344,346,-1,347,348,349,-1,349,348,350,-1,351,352,353,-1,353,352,354,-1,355,356,357,-1,357,356,358,-1,356,359,358,-1,358,359,360,-1,358,360,361,-1,361,362,358,-1,358,362,363,-1,358,363,364,-1,357,365,366,-1,364,367,358,-1,358,367,368,-1,358,368,369,-1,368,370,369,-1,369,370,371,-1,369,371,372,-1,372,373,369,-1,369,373,374,-1,369,374,375,-1,375,374,376,-1,375,376,377,-1,366,378,357,-1,357,378,379,-1,357,379,355,-1,377,380,375,-1,375,380,381,-1,375,381,357,-1,357,381,382,-1,357,382,365,-1,337,383,384,-1,385,386,327,-1,327,386,330,-1,354,387,388,-1,388,387,389,-1,388,389,390,-1,391,392,332,-1,332,392,333,-1,389,393,390,-1,390,393,394,-1,390,394,395,-1,395,394,396,-1,395,396,397,-1,388,338,354,-1,354,338,337,-1,354,337,328,-1,328,337,384,-1,346,398,399,-1,399,398,400,-1,399,400,401,-1,402,403,404,-1,399,331,346,-1,346,331,332,-1,346,332,345,-1,345,332,333,-1,345,333,334,-1,402,405,403,-1,403,405,406,-1,403,406,407,-1,407,406,408,-1,407,408,409,-1,328,327,354,-1,354,327,330,-1,354,330,353,-1,353,330,329,-1,353,329,410,-1,410,329,411,-1,410,411,412,-1,412,411,413,-1,412,413,414,-1,414,413,409,-1,414,409,415,-1,415,409,408,-1,400,416,401,-1,401,416,417,-1,401,417,418,-1,418,417,419,-1,418,419,420,-1,421,422,423,-1,396,424,397,-1,397,424,425,-1,397,425,426,-1,426,425,427,-1,426,427,428,-1,428,427,429,-1,428,429,430,-1,430,429,348,-1,430,348,431,-1,431,348,347,-1,431,347,423,-1,423,347,432,-1,423,432,421,-1,421,433,422,-1,422,433,434,-1,422,434,435,-1,435,434,436,-1,435,436,437,-1,419,438,420,-1,420,438,439,-1,420,439,440,-1,440,439,441,-1,440,441,442,-1,442,441,443,-1,442,443,444,-1,444,443,341,-1,444,341,445,-1,445,341,342,-1,445,342,404,-1,404,342,446,-1,404,446,402,-1,447,448,334,-1,334,448,336,-1,334,336,345,-1,345,336,335,-1,345,335,449,-1,449,335,450,-1,449,450,451,-1,451,450,452,-1,451,452,453,-1,453,452,437,-1,453,437,454,-1,454,437,436,-1,349,455,347,-1,347,455,432,-1,432,455,421,-1,421,455,456,-1,421,456,433,-1,433,456,457,-1,433,457,434,-1,434,457,458,-1,434,458,436,-1,436,458,459,-1,436,459,454,-1,454,459,460,-1,454,460,453,-1,453,460,461,-1,453,461,451,-1,451,461,462,-1,451,462,449,-1,462,463,449,-1,449,463,343,-1,449,343,345,-1,344,343,464,-1,464,343,465,-1,464,465,466,-1,466,465,467,-1,466,467,468,-1,468,467,469,-1,468,469,470,-1,470,469,471,-1,470,471,472,-1,472,471,473,-1,472,473,474,-1,474,473,475,-1,474,475,476,-1,476,475,477,-1,476,477,478,-1,478,477,479,-1,478,479,480,-1,480,479,481,-1,480,481,482,-1,481,483,482,-1,482,483,358,-1,482,358,369,-1,344,484,346,-1,346,484,398,-1,398,484,400,-1,400,484,485,-1,400,485,416,-1,416,485,486,-1,416,486,417,-1,417,486,487,-1,417,487,419,-1,419,487,488,-1,419,488,438,-1,438,488,489,-1,438,489,439,-1,439,489,490,-1,439,490,441,-1,441,490,491,-1,441,491,443,-1,491,492,443,-1,443,492,339,-1,443,339,341,-1,493,494,495,-1,496,497,498,-1,358,499,500,-1,501,499,358,-1,498,497,358,-1,502,358,497,-1,503,456,455,-1,456,503,457,-1,457,503,504,-1,457,504,458,-1,458,504,505,-1,458,505,459,-1,459,505,506,-1,459,506,460,-1,460,506,461,-1,461,506,507,-1,461,507,462,-1,462,507,463,-1,463,507,465,-1,463,465,343,-1,483,501,358,-1,508,509,496,-1,496,509,510,-1,496,510,497,-1,497,510,511,-1,497,511,502,-1,512,500,513,-1,513,500,499,-1,513,499,514,-1,514,499,501,-1,514,501,515,-1,483,481,501,-1,501,481,479,-1,501,479,515,-1,515,479,477,-1,515,477,475,-1,495,512,516,-1,516,512,513,-1,516,513,517,-1,517,513,514,-1,517,514,518,-1,518,514,515,-1,518,515,519,-1,519,515,475,-1,520,521,522,-1,522,521,493,-1,493,495,522,-1,522,495,516,-1,522,516,523,-1,523,516,517,-1,523,517,524,-1,524,517,518,-1,524,518,525,-1,525,518,519,-1,525,519,526,-1,494,508,495,-1,495,508,496,-1,495,496,512,-1,512,496,498,-1,512,498,500,-1,500,498,358,-1,520,503,527,-1,527,503,455,-1,527,455,349,-1,475,473,519,-1,519,473,471,-1,519,471,526,-1,526,471,469,-1,526,469,467,-1,520,522,503,-1,503,522,523,-1,503,523,504,-1,504,523,524,-1,504,524,505,-1,505,524,525,-1,505,525,506,-1,506,525,526,-1,506,526,507,-1,507,526,467,-1,507,467,465,-1,470,472,528,-1,529,530,531,-1,369,532,533,-1,534,532,369,-1,531,530,369,-1,482,369,530,-1,535,485,484,-1,485,535,486,-1,486,535,536,-1,486,536,487,-1,487,536,537,-1,487,537,488,-1,488,537,538,-1,488,538,489,-1,489,538,490,-1,490,538,539,-1,490,539,491,-1,491,539,492,-1,492,539,540,-1,492,540,339,-1,541,534,369,-1,474,476,529,-1,529,476,478,-1,529,478,530,-1,530,478,480,-1,530,480,482,-1,542,533,543,-1,543,533,532,-1,543,532,544,-1,544,532,534,-1,544,534,545,-1,541,546,534,-1,534,546,547,-1,534,547,545,-1,545,547,548,-1,545,548,549,-1,528,542,550,-1,550,542,543,-1,550,543,551,-1,551,543,544,-1,551,544,552,-1,552,544,545,-1,552,545,553,-1,553,545,549,-1,466,468,554,-1,554,468,470,-1,470,528,554,-1,554,528,550,-1,554,550,555,-1,555,550,551,-1,555,551,556,-1,556,551,552,-1,556,552,557,-1,557,552,553,-1,557,553,558,-1,472,474,528,-1,528,474,529,-1,528,529,542,-1,542,529,531,-1,542,531,533,-1,533,531,369,-1,466,535,464,-1,464,535,484,-1,464,484,344,-1,549,559,553,-1,553,559,560,-1,553,560,558,-1,558,560,561,-1,558,561,562,-1,466,554,535,-1,535,554,555,-1,535,555,536,-1,536,555,556,-1,536,556,537,-1,537,556,557,-1,537,557,538,-1,538,557,558,-1,538,558,539,-1,539,558,562,-1,539,562,540,-1,352,563,354,-1,354,563,387,-1,387,563,389,-1,389,563,564,-1,389,564,393,-1,393,564,565,-1,393,565,394,-1,394,565,566,-1,394,566,396,-1,396,566,567,-1,396,567,424,-1,424,567,568,-1,424,568,425,-1,425,568,569,-1,425,569,427,-1,427,569,570,-1,427,570,429,-1,570,571,429,-1,429,571,350,-1,429,350,348,-1,349,350,527,-1,527,350,572,-1,527,572,520,-1,520,572,573,-1,520,573,521,-1,521,573,574,-1,521,574,493,-1,493,574,575,-1,493,575,494,-1,494,575,576,-1,494,576,508,-1,508,576,577,-1,508,577,509,-1,509,577,578,-1,509,578,510,-1,510,578,579,-1,510,579,511,-1,511,579,580,-1,511,580,502,-1,580,581,502,-1,502,581,357,-1,502,357,358,-1,340,339,582,-1,582,339,540,-1,582,540,583,-1,583,540,562,-1,583,562,584,-1,584,562,561,-1,584,561,585,-1,585,561,560,-1,585,560,586,-1,586,560,559,-1,586,559,587,-1,587,559,549,-1,587,549,588,-1,588,549,548,-1,588,548,589,-1,589,548,547,-1,589,547,590,-1,590,547,546,-1,590,546,591,-1,546,541,591,-1,591,541,369,-1,591,369,375,-1,340,592,342,-1,342,592,446,-1,446,592,402,-1,402,592,593,-1,402,593,405,-1,405,593,594,-1,405,594,406,-1,406,594,595,-1,406,595,408,-1,408,595,596,-1,408,596,415,-1,415,596,597,-1,415,597,414,-1,414,597,598,-1,414,598,412,-1,412,598,599,-1,412,599,410,-1,599,600,410,-1,410,600,351,-1,410,351,353,-1,601,602,603,-1,604,605,606,-1,357,607,608,-1,609,607,357,-1,606,605,357,-1,610,357,605,-1,611,564,563,-1,564,611,565,-1,565,611,612,-1,565,612,566,-1,566,612,613,-1,566,613,567,-1,567,613,614,-1,567,614,568,-1,568,614,569,-1,569,614,615,-1,569,615,570,-1,570,615,571,-1,571,615,572,-1,571,572,350,-1,581,609,357,-1,616,617,604,-1,604,617,618,-1,604,618,605,-1,605,618,619,-1,605,619,610,-1,620,608,621,-1,621,608,607,-1,621,607,622,-1,622,607,609,-1,622,609,623,-1,581,580,609,-1,609,580,579,-1,609,579,623,-1,623,579,578,-1,623,578,577,-1,603,620,624,-1,624,620,621,-1,624,621,625,-1,625,621,622,-1,625,622,626,-1,626,622,623,-1,626,623,627,-1,627,623,577,-1,628,629,630,-1,630,629,601,-1,601,603,630,-1,630,603,624,-1,630,624,631,-1,631,624,625,-1,631,625,632,-1,632,625,626,-1,632,626,633,-1,633,626,627,-1,633,627,634,-1,602,616,603,-1,603,616,604,-1,603,604,620,-1,620,604,606,-1,620,606,608,-1,608,606,357,-1,628,611,635,-1,635,611,563,-1,635,563,352,-1,577,576,627,-1,627,576,575,-1,627,575,634,-1,634,575,574,-1,634,574,573,-1,628,630,611,-1,611,630,631,-1,611,631,612,-1,612,631,632,-1,612,632,613,-1,613,632,633,-1,613,633,614,-1,614,633,634,-1,614,634,615,-1,615,634,573,-1,615,573,572,-1,585,586,636,-1,637,638,639,-1,375,640,641,-1,642,640,375,-1,639,638,375,-1,591,375,638,-1,643,593,592,-1,593,643,594,-1,594,643,644,-1,594,644,595,-1,595,644,645,-1,595,645,596,-1,596,645,646,-1,596,646,597,-1,597,646,598,-1,598,646,647,-1,598,647,599,-1,599,647,600,-1,600,647,648,-1,600,648,351,-1,649,642,375,-1,587,588,637,-1,637,588,589,-1,637,589,638,-1,638,589,590,-1,638,590,591,-1,650,641,651,-1,651,641,640,-1,651,640,652,-1,652,640,642,-1,652,642,653,-1,649,654,642,-1,642,654,655,-1,642,655,653,-1,653,655,656,-1,653,656,657,-1,636,650,658,-1,658,650,651,-1,658,651,659,-1,659,651,652,-1,659,652,660,-1,660,652,653,-1,660,653,661,-1,661,653,657,-1,583,584,662,-1,662,584,585,-1,585,636,662,-1,662,636,658,-1,662,658,663,-1,663,658,659,-1,663,659,664,-1,664,659,660,-1,664,660,665,-1,665,660,661,-1,665,661,666,-1,586,587,636,-1,636,587,637,-1,636,637,650,-1,650,637,639,-1,650,639,641,-1,641,639,375,-1,583,643,582,-1,582,643,592,-1,582,592,340,-1,657,667,661,-1,661,667,668,-1,661,668,666,-1,666,668,669,-1,666,669,670,-1,583,662,643,-1,643,662,663,-1,643,663,644,-1,644,663,664,-1,644,664,645,-1,645,664,665,-1,645,665,646,-1,646,665,666,-1,646,666,647,-1,647,666,670,-1,647,670,648,-1,352,351,635,-1,635,351,648,-1,635,648,628,-1,628,648,670,-1,628,670,629,-1,629,670,669,-1,629,669,601,-1,601,669,668,-1,601,668,602,-1,602,668,667,-1,602,667,616,-1,616,667,657,-1,616,657,617,-1,617,657,656,-1,617,656,618,-1,618,656,655,-1,618,655,619,-1,619,655,654,-1,619,654,610,-1,654,649,610,-1,610,649,375,-1,610,375,357,-1,186,182,423,-1,423,182,431,-1,186,423,187,-1,187,423,422,-1,187,422,188,-1,188,422,189,-1,189,422,435,-1,189,435,190,-1,190,435,180,-1,180,435,437,-1,180,437,5,-1,5,437,191,-1,191,437,452,-1,191,452,183,-1,183,452,184,-1,184,452,450,-1,184,450,185,-1,185,450,192,-1,192,450,335,-1,192,335,3,-1,323,196,430,-1,182,181,431,-1,431,181,321,-1,431,321,430,-1,430,321,322,-1,430,322,323,-1,198,338,388,-1,390,200,388,-1,388,200,199,-1,388,199,198,-1,395,202,390,-1,390,202,201,-1,390,201,200,-1,397,204,395,-1,395,204,203,-1,395,203,202,-1,426,206,397,-1,397,206,205,-1,397,205,204,-1,428,208,426,-1,426,208,207,-1,426,207,206,-1,196,194,430,-1,430,194,193,-1,430,193,428,-1,428,193,209,-1,428,209,208,-1,95,445,91,-1,91,445,404,-1,91,404,120,-1,120,404,116,-1,116,404,403,-1,116,403,117,-1,117,403,118,-1,118,403,407,-1,118,407,119,-1,119,407,121,-1,121,407,409,-1,121,409,122,-1,122,409,123,-1,123,409,413,-1,123,413,124,-1,124,413,125,-1,125,413,411,-1,125,411,126,-1,126,411,127,-1,127,411,329,-1,127,329,128,-1,445,95,60,-1,60,69,445,-1,445,69,78,-1,445,78,444,-1,444,78,132,-1,444,132,141,-1,135,134,399,-1,399,134,331,-1,135,399,136,-1,136,399,401,-1,136,401,143,-1,143,401,144,-1,144,401,418,-1,144,418,145,-1,145,418,146,-1,146,418,420,-1,146,420,147,-1,147,420,140,-1,140,420,440,-1,140,440,137,-1,137,440,138,-1,138,440,442,-1,138,442,139,-1,139,442,142,-1,142,442,444,-1,142,444,141,-1,220,383,210,-1,210,383,337,-1,210,337,211,-1,383,220,384,-1,384,220,238,-1,384,238,240,-1,1,328,2,-1,2,328,384,-1,2,384,240,-1,447,334,6,-1,6,334,7,-1,153,448,170,-1,170,448,447,-1,170,447,6,-1,336,448,174,-1,174,448,153,-1,391,332,131,-1,131,332,133,-1,391,131,392,-1,392,131,130,-1,392,130,149,-1,333,392,151,-1,151,392,149,-1,9,385,10,-1,10,385,327,-1,10,327,314,-1,103,386,101,-1,101,386,385,-1,101,385,9,-1,129,330,105,-1,105,330,386,-1,105,386,103,-1,
        ]
    }
}
Shape{
    appearance Appearance {
        material  Material {
            diffuseColor 1.0 1.0 1.0
            specularColor 0.5019607843137255 0.5019607843137255 0.5019607843137255
            ambientIntensity 1.0
            transparency 0.0
            shininess 0.5
        }
    }
    geometry IndexedFaceSet {
        ccw TRUE
        solid FALSE
        coord DEF co Coordinate {
            point [
                -7.374 -2.0964 0.4724, -7.381 -2.0435 -1.2992, -7.381 -2.0435 0.4724, -7.4014 -1.9941 -1.2992, -7.4014 -1.9941 0.4724, -7.434 -1.9517 -1.2992, -7.434 -1.9517 0.4724, -7.4764 -1.9192 -1.2992, -7.4764 -1.9192 0.4724, -7.5258 -1.8987 -1.2992, -7.5258 -1.8987 0.4724, -7.5787 -1.8917 -1.2992, -7.5787 -1.8917 0.4724, -7.6317 -1.8987 -1.2992, -7.6317 -1.8987 0.4724, -7.6811 -1.9192 -1.2992, -7.6811 -1.9192 0.4724, -7.7235 -1.9517 -1.2992, -7.7235 -1.9517 0.4724, -7.756 -1.9941 -1.2992, -7.756 -1.9941 0.4724, -7.7765 -2.0435 -1.2992, -7.7765 -2.0435 0.4724, -7.7835 -2.0964 -1.2992, -7.7835 -2.0964 0.4724, -7.7765 -2.1494 -1.2992, -7.7765 -2.1494 0.4724, -7.756 -2.1988 -1.2992, -7.756 -2.1988 0.4724, -7.7235 -2.2412 -1.2992, -7.7235 -2.2412 0.4724, -7.6811 -2.2737 -1.2992, -7.6811 -2.2737 0.4724, -7.6317 -2.2942 -1.2992, -7.6317 -2.2942 0.4724, -7.5787 -2.3012 -1.2992, -7.5787 -2.3012 0.4724, -7.5258 -2.2942 -1.2992, -7.5258 -2.2942 0.4724, -7.4764 -2.2737 -1.2992, -7.4764 -2.2737 0.4724, -7.434 -2.2412 -1.2992, -7.434 -2.2412 0.4724, -7.4014 -2.1988 -1.2992, -7.4014 -2.1988 0.4724, -7.381 -2.1494 -1.2992, -7.381 -2.1494 0.4724, -7.374 -2.0964 -1.2992, -7.5787 -2.0964 -1.2992, -7.374 2.1358 0.4724, -7.381 2.1888 -1.2992, -7.381 2.1888 0.4724, -7.4014 2.2382 -1.2992, -7.4014 2.2382 0.4724, -7.434 2.2806 -1.2992, -7.434 2.2806 0.4724, -7.4764 2.3131 -1.2992, -7.4764 2.3131 0.4724, -7.5258 2.3336 -1.2992, -7.5258 2.3336 0.4724, -7.5787 2.3406 -1.2992, -7.5787 2.3406 0.4724, -7.6317 2.3336 -1.2992, -7.6317 2.3336 0.4724, -7.6811 2.3131 -1.2992, -7.6811 2.3131 0.4724, -7.7235 2.2806 -1.2992, -7.7235 2.2806 0.4724, -7.756 2.2382 -1.2992, -7.756 2.2382 0.4724, -7.7765 2.1888 -1.2992, -7.7765 2.1888 0.4724, -7.7835 2.1358 -1.2992, -7.7835 2.1358 0.4724, -7.7765 2.0828 -1.2992, -7.7765 2.0828 0.4724, -7.756 2.0335 -1.2992, -7.756 2.0335 0.4724, -7.7235 1.9911 -1.2992, -7.7235 1.9911 0.4724, -7.6811 1.9585 -1.2992, -7.6811 1.9585 0.4724, -7.6317 1.9381 -1.2992, -7.6317 1.9381 0.4724, -7.5787 1.9311 -1.2992, -7.5787 1.9311 0.4724, -7.5258 1.9381 -1.2992, -7.5258 1.9381 0.4724, -7.4764 1.9585 -1.2992, -7.4764 1.9585 0.4724, -7.434 1.9911 -1.2992, -7.434 1.9911 0.4724, -7.4014 2.0335 -1.2992, -7.4014 2.0335 0.4724, -7.381 2.0828 -1.2992, -7.381 2.0828 0.4724, -7.374 2.1358 -1.2992, -7.5787 2.1358 -1.2992, 7.7835 -2.0964 0.4724, 7.7765 -2.0435 -1.2992, 7.7765 -2.0435 0.4724, 7.756 -1.9941 -1.2992, 7.756 -1.9941 0.4724, 7.7235 -1.9517 -1.2992, 7.7235 -1.9517 0.4724, 7.6811 -1.9192 -1.2992, 7.6811 -1.9192 0.4724, 7.6317 -1.8987 -1.2992, 7.6317 -1.8987 0.4724, 7.5787 -1.8917 -1.2992, 7.5787 -1.8917 0.4724, 7.5258 -1.8987 -1.2992, 7.5258 -1.8987 0.4724, 7.4764 -1.9192 -1.2992, 7.4764 -1.9192 0.4724, 7.434 -1.9517 -1.2992, 7.434 -1.9517 0.4724, 7.4014 -1.9941 -1.2992, 7.4014 -1.9941 0.4724, 7.381 -2.0435 -1.2992, 7.381 -2.0435 0.4724, 7.374 -2.0964 -1.2992, 7.374 -2.0964 0.4724, 7.381 -2.1494 -1.2992, 7.381 -2.1494 0.4724, 7.4014 -2.1988 -1.2992, 7.4014 -2.1988 0.4724, 7.434 -2.2412 -1.2992, 7.434 -2.2412 0.4724, 7.4764 -2.2737 -1.2992, 7.4764 -2.2737 0.4724, 7.5258 -2.2942 -1.2992, 7.5258 -2.2942 0.4724, 7.5787 -2.3012 -1.2992, 7.5787 -2.3012 0.4724, 7.6317 -2.2942 -1.2992, 7.6317 -2.2942 0.4724, 7.6811 -2.2737 -1.2992, 7.6811 -2.2737 0.4724, 7.7235 -2.2412 -1.2992, 7.7235 -2.2412 0.4724, 7.756 -2.1988 -1.2992, 7.756 -2.1988 0.4724, 7.7765 -2.1494 -1.2992, 7.7765 -2.1494 0.4724, 7.7835 -2.0964 -1.2992, 7.5787 -2.0964 -1.2992, 7.7835 1.0532 -1.2992, 7.7835 1.0532 0.4724, 7.7765 1.0002 0.4724, 7.7765 1.0002 -1.2992, 7.756 0.9508 0.4724, 7.756 0.9508 -1.2992, 7.7235 0.9084 0.4724, 7.7235 0.9084 -1.2992, 7.6811 0.8759 0.4724, 7.6811 0.8759 -1.2992, 7.6317 0.8554 0.4724, 7.6317 0.8554 -1.2992, 7.5787 0.8484 0.4724, 7.5787 0.8484 -1.2992, 7.5258 0.8554 0.4724, 7.5258 0.8554 -1.2992, 7.4764 0.8759 0.4724, 7.4764 0.8759 -1.2992, 7.434 0.9084 0.4724, 7.434 0.9084 -1.2992, 7.4014 0.9508 0.4724, 7.4014 0.9508 -1.2992, 7.381 1.0002 0.4724, 7.381 1.0002 -1.2992, 7.374 1.0532 0.4724, 7.374 1.0532 -1.2992, 7.3807 1.104 0.4724, 7.381 1.1061 -1.2992, 7.381 1.1061 0.4724, 7.4014 1.1555 0.4724, 7.4014 1.1555 -1.2992, 7.434 1.1979 0.4724, 7.434 1.1979 -1.2992, 7.4764 1.2305 0.4724, 7.4764 1.2305 -1.2992, 7.5258 1.2509 0.4724, 7.5258 1.2509 -1.2992, 7.5787 1.2579 0.4724, 7.5787 1.2579 -1.2992, 7.6317 1.2509 0.4724, 7.6317 1.2509 -1.2992, 7.6811 1.2305 0.4724, 7.6811 1.2305 -1.2992, 7.7235 1.1979 0.4724, 7.7235 1.1979 -1.2992, 7.756 1.1555 0.4724, 7.756 1.1555 -1.2992, 7.7765 1.1061 0.4724, 7.7765 1.1061 -1.2992, 7.7768 1.104 0.4724, 7.5787 1.0532 -1.2992
            ]
        }
        coordIndex [
            0,1,2,-1,2,1,3,-1,2,3,4,-1,4,3,5,-1,4,5,6,-1,6,5,7,-1,6,7,8,-1,8,7,9,-1,8,9,10,-1,10,9,11,-1,10,11,12,-1,12,11,13,-1,12,13,14,-1,14,13,15,-1,14,15,16,-1,16,15,17,-1,16,17,18,-1,18,17,19,-1,18,19,20,-1,20,19,21,-1,20,21,22,-1,22,21,23,-1,22,23,24,-1,24,23,25,-1,24,25,26,-1,26,25,27,-1,26,27,28,-1,28,27,29,-1,28,29,30,-1,30,29,31,-1,30,31,32,-1,32,31,33,-1,32,33,34,-1,34,33,35,-1,34,35,36,-1,36,35,37,-1,36,37,38,-1,38,37,39,-1,38,39,40,-1,40,39,41,-1,40,41,42,-1,42,41,43,-1,42,43,44,-1,44,43,45,-1,44,45,46,-1,46,45,47,-1,46,47,0,-1,0,47,1,-1,3,1,48,-1,48,1,47,-1,48,47,45,-1,9,7,48,-1,48,7,5,-1,48,5,3,-1,15,13,48,-1,48,13,11,-1,48,11,9,-1,21,19,48,-1,48,19,17,-1,48,17,15,-1,27,25,48,-1,48,25,23,-1,48,23,21,-1,33,31,48,-1,48,31,29,-1,48,29,27,-1,39,37,48,-1,48,37,35,-1,48,35,33,-1,45,43,48,-1,48,43,41,-1,48,41,39,-1,49,50,51,-1,51,50,52,-1,51,52,53,-1,53,52,54,-1,53,54,55,-1,55,54,56,-1,55,56,57,-1,57,56,58,-1,57,58,59,-1,59,58,60,-1,59,60,61,-1,61,60,62,-1,61,62,63,-1,63,62,64,-1,63,64,65,-1,65,64,66,-1,65,66,67,-1,67,66,68,-1,67,68,69,-1,69,68,70,-1,69,70,71,-1,71,70,72,-1,71,72,73,-1,73,72,74,-1,73,74,75,-1,75,74,76,-1,75,76,77,-1,77,76,78,-1,77,78,79,-1,79,78,80,-1,79,80,81,-1,81,80,82,-1,81,82,83,-1,83,82,84,-1,83,84,85,-1,85,84,86,-1,85,86,87,-1,87,86,88,-1,87,88,89,-1,89,88,90,-1,89,90,91,-1,91,90,92,-1,91,92,93,-1,93,92,94,-1,93,94,95,-1,95,94,96,-1,95,96,49,-1,49,96,50,-1,52,50,97,-1,97,50,96,-1,97,96,94,-1,58,56,97,-1,97,56,54,-1,97,54,52,-1,64,62,97,-1,97,62,60,-1,97,60,58,-1,70,68,97,-1,97,68,66,-1,97,66,64,-1,76,74,97,-1,97,74,72,-1,97,72,70,-1,82,80,97,-1,97,80,78,-1,97,78,76,-1,88,86,97,-1,97,86,84,-1,97,84,82,-1,94,92,97,-1,97,92,90,-1,97,90,88,-1,98,99,100,-1,100,99,101,-1,100,101,102,-1,102,101,103,-1,102,103,104,-1,104,103,105,-1,104,105,106,-1,106,105,107,-1,106,107,108,-1,108,107,109,-1,108,109,110,-1,110,109,111,-1,110,111,112,-1,112,111,113,-1,112,113,114,-1,114,113,115,-1,114,115,116,-1,116,115,117,-1,116,117,118,-1,118,117,119,-1,118,119,120,-1,120,119,121,-1,120,121,122,-1,122,121,123,-1,122,123,124,-1,124,123,125,-1,124,125,126,-1,126,125,127,-1,126,127,128,-1,128,127,129,-1,128,129,130,-1,130,129,131,-1,130,131,132,-1,132,131,133,-1,132,133,134,-1,134,133,135,-1,134,135,136,-1,136,135,137,-1,136,137,138,-1,138,137,139,-1,138,139,140,-1,140,139,141,-1,140,141,142,-1,142,141,143,-1,142,143,144,-1,144,143,145,-1,144,145,98,-1,98,145,99,-1,101,99,146,-1,146,99,145,-1,146,145,143,-1,107,105,146,-1,146,105,103,-1,146,103,101,-1,113,111,146,-1,146,111,109,-1,146,109,107,-1,119,117,146,-1,146,117,115,-1,146,115,113,-1,125,123,146,-1,146,123,121,-1,146,121,119,-1,131,129,146,-1,146,129,127,-1,146,127,125,-1,137,135,146,-1,146,135,133,-1,146,133,131,-1,143,141,146,-1,146,141,139,-1,146,139,137,-1,147,148,149,-1,147,149,150,-1,150,149,151,-1,150,151,152,-1,152,151,153,-1,152,153,154,-1,154,153,155,-1,154,155,156,-1,156,155,157,-1,156,157,158,-1,158,157,159,-1,158,159,160,-1,160,159,161,-1,160,161,162,-1,162,161,163,-1,162,163,164,-1,164,163,165,-1,164,165,166,-1,166,165,167,-1,166,167,168,-1,168,167,169,-1,168,169,170,-1,170,169,171,-1,170,171,172,-1,172,171,173,-1,172,173,174,-1,173,175,174,-1,174,175,176,-1,174,176,177,-1,177,176,178,-1,177,178,179,-1,179,178,180,-1,179,180,181,-1,181,180,182,-1,181,182,183,-1,183,182,184,-1,183,184,185,-1,185,184,186,-1,185,186,187,-1,187,186,188,-1,187,188,189,-1,189,188,190,-1,189,190,191,-1,191,190,192,-1,191,192,193,-1,193,192,194,-1,193,194,195,-1,195,194,147,-1,147,194,196,-1,147,196,148,-1,193,195,197,-1,197,195,147,-1,197,147,150,-1,187,189,197,-1,197,189,191,-1,197,191,193,-1,181,183,197,-1,197,183,185,-1,197,185,187,-1,174,177,197,-1,197,177,179,-1,197,179,181,-1,168,170,197,-1,197,170,172,-1,197,172,174,-1,162,164,197,-1,197,164,166,-1,197,166,168,-1,156,158,197,-1,197,158,160,-1,197,160,162,-1,150,152,197,-1,197,152,154,-1,197,154,156,-1,
        ]
    }
}
Shape{
    appearance Appearance {
        material  Material {
            diffuseColor 0.7529411764705882 0.7529411764705882 0.7529411764705882
            specularColor 0.3764705882352941 0.3764705882352941 0.3764705882352941
            ambientIntensity 0.7529
            transparency 0.0
            shininess 0.5
        }
    }
    geometry IndexedFaceSet {
        ccw TRUE
        solid FALSE
        coord DEF co Coordinate {
            point [
                -1.2736 1.8962 0.4724, -1.2736 1.8962 0.4728, -1.3981 1.577 0.4724, -1.5809 1.1088 0.4728, -1.5809 1.1088 0.4724, -1.4656 1.1088 0.4728, -1.4656 1.1088 0.4724, -1.386 1.3296 0.4728, -1.386 1.3296 0.4724, -1.0607 1.3296 0.4728, -1.0607 1.3296 0.4724, -0.9855 1.1088 0.4728, -0.9855 1.1088 0.4724, -0.8703 1.1088 0.4728, -0.8703 1.1088 0.4724, -1.0473 1.577 0.4724, -1.1679 1.8962 0.4728, -1.1679 1.8962 0.4724, -1.0872 1.4161 0.4728, -1.3505 1.4161 0.4728, -1.2047 1.7449 0.4728, -1.2123 1.7722 0.4728, -1.2173 1.8001 0.4728, -1.2199 1.8001 0.4728, -1.225 1.7723 0.4728, -1.232 1.7449 0.4728, -1.0872 1.4161 0.4724, -1.3505 1.4161 0.4724, -1.2047 1.7449 0.4724, -1.2123 1.7722 0.4724, -1.2173 1.8001 0.4724, -1.2199 1.8001 0.4724, -1.225 1.7723 0.4724, -1.232 1.7449 0.4724, -0.393 1.1088 0.4728, -0.1789 1.1088 0.4728, -0.393 1.1088 0.4724, -0.1789 1.1088 0.4724, -0.1789 1.577 0.4724, -0.1789 1.8962 0.4728, -0.1789 1.8962 0.4724, -0.4011 1.8962 0.4728, -0.4011 1.8962 0.4724, -0.8069 1.5865 0.4728, -0.8127 1.5124 0.4728, -0.8077 1.577 0.4724, -0.8127 1.5124 0.4724, -0.8069 1.5865 0.4724, -0.7858 1.664 0.4724, -0.7858 1.664 0.4728, -0.7492 1.7318 0.4724, -0.7492 1.7318 0.4728, -0.6935 1.7935 0.4724, -0.6935 1.7935 0.4728, -0.6927 1.7942 0.4724, -0.6927 1.7942 0.4728, -0.607 1.8517 0.4724, -0.607 1.8517 0.4728, -0.5149 1.884 0.4724, -0.5149 1.884 0.4728, -0.4904 1.1173 0.4724, -0.4904 1.1173 0.4728, -0.5812 1.1443 0.4724, -0.5812 1.1443 0.4728, -0.6634 1.1921 0.4724, -0.6634 1.1921 0.4728, -0.7282 1.2542 0.4724, -0.7282 1.2542 0.4728, -0.7733 1.3246 0.4724, -0.7733 1.3246 0.4728, -0.8016 1.407 0.4724, -0.8016 1.407 0.4728, -0.6546 1.6993 0.4728, -0.6164 1.7399 0.4728, -0.5588 1.7771 0.4728, -0.4938 1.7998 0.4728, -0.4007 1.8098 0.4728, -0.2845 1.8098 0.4728, -0.2845 1.1952 0.4728, -0.3963 1.1952 0.4728, -0.4794 1.2029 0.4728, -0.5456 1.2236 0.4728, -0.5993 1.2555 0.4728, -0.6435 1.2991 0.4728, -0.6767 1.3534 0.4728, -0.6998 1.4274 0.4728, -0.707 1.5101 0.4728, -0.7003 1.5885 0.4728, -0.682 1.6508 0.4728, -0.4007 1.8098 0.4724, -0.2845 1.8098 0.4724, -0.4938 1.7998 0.4724, -0.5588 1.7771 0.4724, -0.6164 1.7399 0.4724, -0.6546 1.6993 0.4724, -0.682 1.6508 0.4724, -0.7003 1.5885 0.4724, -0.707 1.5101 0.4724, -0.6998 1.4274 0.4724, -0.6767 1.3534 0.4724, -0.6435 1.2991 0.4724, -0.5993 1.2555 0.4724, -0.5456 1.2236 0.4724, -0.4794 1.2029 0.4724, -0.3963 1.1952 0.4724, -0.2845 1.1952 0.4724, -0.0253 1.1952 0.4728, -0.0253 1.1088 0.4728, -0.0253 1.1952 0.4724, -0.0253 1.1088 0.4724, 0.3973 1.1088 0.4728, 0.3973 1.1088 0.4724, 0.3973 1.577 0.4724, 0.3973 1.8962 0.4728, 0.3973 1.8962 0.4724, -0.0061 1.8962 0.4728, -0.0061 1.8962 0.4724, -0.0061 1.8098 0.4728, -0.0061 1.8098 0.4724, 0.2916 1.8098 0.4728, 0.2916 1.8098 0.4724, 0.2916 1.577 0.4724, 0.2916 1.5505 0.4728, 0.2916 1.5505 0.4724, 0.0132 1.5505 0.4728, 0.0132 1.5505 0.4724, 0.0132 1.4641 0.4728, 0.0132 1.4641 0.4724, 0.2916 1.4641 0.4728, 0.2916 1.4641 0.4724, 0.2916 1.1952 0.4728, 0.2916 1.1952 0.4724, 0.5509 1.236 0.4728, 0.5509 1.1496 0.4728, 0.5509 1.236 0.4724, 0.5509 1.1496 0.4724, 0.6348 1.1151 0.4728, 0.7675 1.0992 0.4728, 0.7675 1.0992 0.4724, 0.746 1.0995 0.4724, 0.746 1.0995 0.4728, 0.7144 1.104 0.4724, 0.6348 1.1151 0.4724, 0.8139 1.104 0.4724, 0.8646 1.1092 0.4728, 0.8646 1.1092 0.4724, 0.9409 1.1355 0.4728, 0.9409 1.1355 0.4724, 1.0042 1.1759 0.4728, 1.0042 1.1759 0.4724, 1.0634 1.2382 0.4728, 1.0634 1.2382 0.4724, 1.1053 1.3131 0.4728, 1.1053 1.3131 0.4724, 1.129 1.3964 0.4728, 1.129 1.3964 0.4724, 1.1366 1.4876 0.4728, 1.1366 1.4876 0.4724, 1.1276 1.577 0.4724, 1.1253 1.5996 0.4728, 1.1253 1.5996 0.4724, 1.0951 1.6888 0.4728, 1.0951 1.6888 0.4724, 1.0489 1.7624 0.4728, 1.0489 1.7624 0.4724, 0.9778 1.8308 0.4728, 0.9778 1.8308 0.4724, 0.9031 1.8738 0.4728, 0.9031 1.8738 0.4724, 0.8153 1.8993 0.4728, 0.8153 1.8993 0.4724, 0.7362 1.9058 0.4728, 0.7362 1.9058 0.4724, 0.5509 1.8746 0.4728, 0.5509 1.8746 0.4724, 0.6419 1.8993 0.4724, 0.6419 1.8993 0.4728, 0.5509 1.7689 0.4728, 0.5509 1.7689 0.4724, 0.7353 1.8194 0.4728, 0.7353 1.8194 0.4724, 0.6396 1.8069 0.4724, 0.6396 1.8069 0.4728, 1.031 1.4941 0.4728, 1.031 1.4941 0.4724, 1.0273 1.5553 0.4724, 1.0273 1.5553 0.4728, 1.0219 1.577 0.4724, 1.0063 1.6396 0.4728, 1.0063 1.6396 0.4724, 0.9738 1.7004 0.4724, 0.9738 1.7004 0.4728, 0.9263 1.7529 0.4724, 0.9263 1.7529 0.4728, 0.8718 1.7894 0.4724, 0.8718 1.7894 0.4728, 0.8128 1.8106 0.4724, 0.8128 1.8106 0.4728, 0.753 1.1856 0.4728, 0.753 1.1856 0.4724, 0.8264 1.1938 0.4724, 0.8264 1.1938 0.4728, 0.8838 1.215 0.4724, 0.8838 1.215 0.4728, 0.9321 1.2475 0.4724, 0.9321 1.2475 0.4728, 0.9691 1.2865 0.4724, 0.9691 1.2865 0.4728, 1.0016 1.3411 0.4724, 1.0016 1.3411 0.4728, 1.023 1.4088 0.4724, 1.023 1.4088 0.4728, 0.565 1.2282 0.4724, 0.565 1.2282 0.4728, 0.6485 1.1972 0.4724, 0.6485 1.1972 0.4728, 1.2039 1.1952 0.4728, 1.2039 1.1088 0.4728, 1.2039 1.1952 0.4724, 1.2039 1.1088 0.4724, 1.6072 1.1088 0.4728, 1.6072 1.1088 0.4724, 1.6072 1.577 0.4724, 1.6072 1.8962 0.4728, 1.6072 1.8962 0.4724, 1.5015 1.8962 0.4728, 1.5015 1.8962 0.4724, 1.5015 1.577 0.4724, 1.5015 1.1952 0.4728, 1.5015 1.1952 0.4724
            ]
        }
        coordIndex [
            0,1,2,-1,2,1,3,-1,2,3,4,-1,3,5,4,-1,4,5,6,-1,5,7,6,-1,6,7,8,-1,7,9,8,-1,8,9,10,-1,9,11,10,-1,10,11,12,-1,11,13,12,-1,12,13,14,-1,14,13,15,-1,15,13,16,-1,15,16,17,-1,16,1,17,-1,17,1,0,-1,18,9,19,-1,19,9,7,-1,20,16,18,-1,18,16,13,-1,18,13,9,-1,9,13,11,-1,20,21,16,-1,16,21,22,-1,16,22,1,-1,1,22,23,-1,1,23,24,-1,24,25,1,-1,1,25,19,-1,1,19,3,-1,3,19,7,-1,3,7,5,-1,18,19,26,-1,26,19,27,-1,20,18,28,-1,28,18,26,-1,20,28,29,-1,20,29,21,-1,21,29,30,-1,21,30,22,-1,23,22,31,-1,31,22,30,-1,23,31,32,-1,23,32,24,-1,24,32,33,-1,24,33,25,-1,19,25,27,-1,27,25,33,-1,34,35,36,-1,36,35,37,-1,37,35,38,-1,38,35,39,-1,38,39,40,-1,39,41,40,-1,40,41,42,-1,43,44,45,-1,45,44,46,-1,45,47,43,-1,43,47,48,-1,43,48,49,-1,49,48,50,-1,49,50,51,-1,51,50,52,-1,51,52,53,-1,53,52,54,-1,53,54,55,-1,55,54,56,-1,55,56,57,-1,57,56,58,-1,57,58,59,-1,59,58,42,-1,59,42,41,-1,34,36,60,-1,34,60,61,-1,61,60,62,-1,61,62,63,-1,63,62,64,-1,63,64,65,-1,65,64,66,-1,65,66,67,-1,67,66,68,-1,67,68,69,-1,69,68,70,-1,69,70,71,-1,71,70,46,-1,71,46,44,-1,49,51,72,-1,72,51,53,-1,72,53,73,-1,73,53,55,-1,73,55,74,-1,74,55,57,-1,74,57,75,-1,75,57,59,-1,75,59,76,-1,76,59,41,-1,76,41,77,-1,77,41,39,-1,77,39,78,-1,78,39,35,-1,78,35,79,-1,79,35,34,-1,79,34,80,-1,80,34,61,-1,80,61,81,-1,81,61,63,-1,81,63,82,-1,82,63,65,-1,82,65,83,-1,83,65,67,-1,83,67,84,-1,84,67,69,-1,84,69,85,-1,85,69,71,-1,85,71,86,-1,86,71,44,-1,86,44,87,-1,87,44,43,-1,87,43,88,-1,88,43,49,-1,88,49,72,-1,76,77,89,-1,89,77,90,-1,76,89,91,-1,76,91,75,-1,75,91,92,-1,75,92,74,-1,74,92,93,-1,74,93,73,-1,73,93,94,-1,73,94,72,-1,72,94,95,-1,72,95,88,-1,88,95,96,-1,88,96,87,-1,87,96,97,-1,87,97,86,-1,86,97,98,-1,86,98,85,-1,85,98,99,-1,85,99,84,-1,84,99,100,-1,84,100,83,-1,83,100,101,-1,83,101,82,-1,82,101,102,-1,82,102,81,-1,81,102,103,-1,81,103,80,-1,80,103,104,-1,80,104,79,-1,78,79,105,-1,105,79,104,-1,77,78,90,-1,90,78,105,-1,106,107,108,-1,108,107,109,-1,107,110,109,-1,109,110,111,-1,111,110,112,-1,112,110,113,-1,112,113,114,-1,113,115,114,-1,114,115,116,-1,115,117,116,-1,116,117,118,-1,117,119,118,-1,118,119,120,-1,120,119,121,-1,121,119,122,-1,121,122,123,-1,122,124,123,-1,123,124,125,-1,124,126,125,-1,125,126,127,-1,126,128,127,-1,127,128,129,-1,128,130,129,-1,129,130,131,-1,130,106,131,-1,131,106,108,-1,110,107,106,-1,106,130,110,-1,110,130,128,-1,110,128,113,-1,117,115,119,-1,119,115,113,-1,119,113,122,-1,122,113,128,-1,122,128,124,-1,124,128,126,-1,132,133,134,-1,134,133,135,-1,135,133,136,-1,137,138,139,-1,137,139,140,-1,140,139,141,-1,140,141,136,-1,136,141,142,-1,136,142,135,-1,138,137,143,-1,143,137,144,-1,143,144,145,-1,145,144,146,-1,145,146,147,-1,147,146,148,-1,147,148,149,-1,149,148,150,-1,149,150,151,-1,151,150,152,-1,151,152,153,-1,153,152,154,-1,153,154,155,-1,155,154,156,-1,155,156,157,-1,157,156,158,-1,158,156,159,-1,158,159,160,-1,160,159,161,-1,160,161,162,-1,162,161,163,-1,162,163,164,-1,164,163,165,-1,164,165,166,-1,166,165,167,-1,166,167,168,-1,168,167,169,-1,168,169,170,-1,170,169,171,-1,170,171,172,-1,173,174,175,-1,173,175,176,-1,176,175,172,-1,176,172,171,-1,173,177,174,-1,174,177,178,-1,179,180,181,-1,179,181,182,-1,182,181,178,-1,182,178,177,-1,183,184,185,-1,183,185,186,-1,186,185,187,-1,186,187,188,-1,187,189,188,-1,188,189,190,-1,188,190,191,-1,191,190,192,-1,191,192,193,-1,193,192,194,-1,193,194,195,-1,195,194,196,-1,195,196,197,-1,197,196,180,-1,197,180,179,-1,198,199,200,-1,198,200,201,-1,201,200,202,-1,201,202,203,-1,203,202,204,-1,203,204,205,-1,205,204,206,-1,205,206,207,-1,207,206,208,-1,207,208,209,-1,209,208,210,-1,209,210,211,-1,211,210,184,-1,211,184,183,-1,132,134,212,-1,132,212,213,-1,213,212,214,-1,213,214,215,-1,215,214,199,-1,215,199,198,-1,201,137,198,-1,198,137,140,-1,198,140,215,-1,215,140,136,-1,215,136,213,-1,213,136,133,-1,213,133,132,-1,177,173,182,-1,182,173,176,-1,182,176,179,-1,179,176,171,-1,179,171,197,-1,197,171,169,-1,197,169,195,-1,195,169,167,-1,195,167,193,-1,193,167,165,-1,193,165,191,-1,191,165,163,-1,191,163,188,-1,188,163,161,-1,188,161,186,-1,186,161,159,-1,186,159,183,-1,183,159,156,-1,183,156,211,-1,211,156,154,-1,211,154,209,-1,209,154,152,-1,209,152,207,-1,207,152,150,-1,207,150,205,-1,205,150,148,-1,205,148,203,-1,203,148,146,-1,203,146,201,-1,201,146,144,-1,201,144,137,-1,216,217,218,-1,218,217,219,-1,217,220,219,-1,219,220,221,-1,221,220,222,-1,222,220,223,-1,222,223,224,-1,223,225,224,-1,224,225,226,-1,226,225,227,-1,227,225,228,-1,227,228,229,-1,228,216,229,-1,229,216,218,-1,225,223,228,-1,228,223,220,-1,228,220,216,-1,216,220,217,-1,
        ]
    }
}
Shape{
    appearance Appearance {
        material  Material {
            diffuseColor 0.25098039215686274 0.25098039215686274 0.25098039215686274
            specularColor 0.12549019607843137 0.12549019607843137 0.12549019607843137
            ambientIntensity 0.251
            transparency 0.0
            shininess 0.5
        }
    }
    geometry IndexedFaceSet {
        ccw TRUE
        solid FALSE
        coord DEF co Coordinate {
            point [
                -1.0872 1.4161 0.4724, -1.3505 1.4161 0.4724, -1.2047 1.7449 0.4724, -1.232 1.7449 0.4724, -1.2123 1.7722 0.4724, -1.225 1.7723 0.4724, -1.2173 1.8001 0.4724, -1.2199 1.8001 0.4724, -0.2845 1.8098 0.4724, -0.2845 1.1952 0.4724, -0.4007 1.8098 0.4724, -0.3963 1.1952 0.4724, -0.4794 1.2029 0.4724, -0.707 1.5101 0.4724, -0.7003 1.5885 0.4724, -0.682 1.6508 0.4724, -0.4938 1.7998 0.4724, -0.5456 1.2236 0.4724, -0.5993 1.2555 0.4724, -0.6435 1.2991 0.4724, -0.6767 1.3534 0.4724, -0.6998 1.4274 0.4724, -0.6546 1.6993 0.4724, -0.6164 1.7399 0.4724, -0.5588 1.7771 0.4724
            ]
        }
        coordIndex [
            0,1,2,-1,2,1,3,-1,2,3,4,-1,4,3,5,-1,4,5,6,-1,6,5,7,-1,8,9,10,-1,10,9,11,-1,10,11,12,-1,13,14,10,-1,10,14,15,-1,10,15,16,-1,12,17,10,-1,10,17,18,-1,10,18,19,-1,19,20,10,-1,10,20,21,-1,10,21,13,-1,22,23,15,-1,15,23,24,-1,15,24,16,-1,
        ]
    }
}
Shape{
    appearance Appearance {
        material  Material {
            diffuseColor 0.5019607843137255 0.5019607843137255 0.5019607843137255
            specularColor 0.25098039215686274 0.25098039215686274 0.25098039215686274
            ambientIntensity 0.502
            transparency 0.0
            shininess 0.5
        }
    }
    geometry IndexedFaceSet {
        ccw TRUE
        solid FALSE
        coord DEF co Coordinate {
            point [
                -6.41 4.3682 8.5429, -6.41 4.3682 8.5433, -6.4245 4.4782 8.5429, -6.4245 4.4782 8.5433, -6.4669 4.5807 8.5429, -6.4669 4.5807 8.5433, -6.5345 4.6687 8.5429, -6.5345 4.6687 8.5433, -6.6225 4.7363 8.5429, -6.6225 4.7363 8.5433, -6.725 4.7787 8.5429, -6.725 4.7787 8.5433, -6.835 4.7932 8.5429, -6.835 4.7932 8.5433, -6.945 4.7787 8.5429, -6.945 4.7787 8.5433, -7.0476 4.7363 8.5429, -7.0476 4.7363 8.5433, -7.1356 4.6687 8.5429, -7.1356 4.6687 8.5433, -7.2031 4.5807 8.5429, -7.2031 4.5807 8.5433, -7.2456 4.4782 8.5429, -7.2456 4.4782 8.5433, -7.2601 4.3682 8.5429, -7.2601 4.3682 8.5433, -7.2456 4.2582 8.5429, -7.2456 4.2582 8.5433, -7.2031 4.1557 8.5429, -7.2031 4.1557 8.5433, -7.1356 4.0676 8.5429, -7.1356 4.0676 8.5433, -7.0476 4.0001 8.5429, -7.0476 4.0001 8.5433, -6.945 3.9576 8.5429, -6.945 3.9576 8.5433, -6.835 3.9431 8.5429, -6.835 3.9431 8.5433, -6.725 3.9576 8.5429, -6.725 3.9576 8.5433, -6.6225 4.0001 8.5429, -6.6225 4.0001 8.5433, -6.5345 4.0676 8.5429, -6.5345 4.0676 8.5433, -6.4669 4.1557 8.5429, -6.4669 4.1557 8.5433, -6.4245 4.2582 8.5429, -6.4245 4.2582 8.5433, -6.835 4.3682 8.5429
            ]
        }
        coordIndex [
            0,1,2,-1,2,1,3,-1,2,3,4,-1,4,3,5,-1,4,5,6,-1,6,5,7,-1,6,7,8,-1,8,7,9,-1,8,9,10,-1,10,9,11,-1,10,11,12,-1,12,11,13,-1,12,13,14,-1,14,13,15,-1,14,15,16,-1,16,15,17,-1,16,17,18,-1,18,17,19,-1,18,19,20,-1,20,19,21,-1,20,21,22,-1,22,21,23,-1,22,23,24,-1,24,23,25,-1,24,25,26,-1,26,25,27,-1,26,27,28,-1,28,27,29,-1,28,29,30,-1,30,29,31,-1,30,31,32,-1,32,31,33,-1,32,33,34,-1,34,33,35,-1,34,35,36,-1,36,35,37,-1,36,37,38,-1,38,37,39,-1,38,39,40,-1,40,39,41,-1,40,41,42,-1,42,41,43,-1,42,43,44,-1,44,43,45,-1,44,45,46,-1,46,45,47,-1,46,47,0,-1,0,47,1,-1,44,46,48,-1,48,46,0,-1,48,0,2,-1,38,40,48,-1,48,40,42,-1,48,42,44,-1,32,34,48,-1,48,34,36,-1,48,36,38,-1,26,28,48,-1,48,28,30,-1,48,30,32,-1,20,22,48,-1,48,22,24,-1,48,24,26,-1,14,16,48,-1,48,16,18,-1,48,18,20,-1,8,10,48,-1,48,10,12,-1,48,12,14,-1,2,4,48,-1,48,4,6,-1,48,6,8,-1,
        ]
    }
}