#VRML V2.0 utf8
# 3D model generated by kicad-lcsc-manager
# Based on easyeda2kicad.py v1.0.1

Shape{
    appearance Appearance {
        material  Material {
            diffuseColor 0.7529411764705882 1.0 0.7529411764705882
            specularColor 0.3764705882352941 0.5019607843137255 0.3764705882352941
            ambientIntensity 0.898
            transparency 0.0
            shininess 0.5
        }
    }
    geometry IndexedFaceSet {
        ccw TRUE
        solid FALSE
        coord DEF co Coordinate {
            point [
                0.3183 1.3555 -0.0, 0.3183 1.1802 -0.0, 0.2439 1.1802 -0.0, -0.2675 -1.6339 -0.0, -0.4732 -1.6339 -0.0, -0.4732 1.1574 -0.0, 0.4135 -1.9488 -0.0, 0.2355 -1.9488 -0.0, 0.2355 -1.6339 -0.0, -0.4941 1.1574 -0.0, -0.4941 -1.3189 -0.0, -1.5177 -1.3189 -0.0, -1.874 -1.6339 -0.0, -1.5177 1.1574 -0.0, -0.4732 2.0669 -0.0, -0.4941 1.437 -0.0, -1.874 2.0669 -0.0, -1.5177 1.437 -0.0, 1.7864 -1.5772 -0.0, 1.7982 -1.5866 -0.0, 0.4135 -1.6339 -0.0, 1.8121 -1.5927 -0.0, 1.827 -1.5951 -0.0, 1.8421 -1.5936 -0.0, 1.9941 -1.6339 -0.0, 1.8562 -1.5883 -0.0, 1.9941 -1.5157 -0.0, 1.9941 -1.437 -0.0, 1.8562 -1.3645 -0.0, 1.9941 1.1574 -0.0, 1.8421 -1.3592 -0.0, 1.827 -1.3577 -0.0, 1.7864 -1.3756 -0.0, 1.5059 -1.3189 -0.0, 1.7982 -1.3662 -0.0, 1.5059 1.1574 -0.0, 1.8121 -1.3601 -0.0, 1.7773 -1.3877 -0.0, 1.7716 -1.4017 -0.0, 1.7697 -1.4167 -0.0, 1.7697 -1.536 -0.0, 1.7716 -1.551 -0.0, 1.7773 -1.5651 -0.0, 0.4823 1.437 -0.0, 0.4823 1.3567 -0.0, 0.4135 1.3567 -0.0, 0.4823 1.1574 -0.0, 0.4135 1.1574 -0.0, 0.4823 -1.3189 -0.0, 1.8562 1.4826 -0.0, 1.9941 1.5551 -0.0, 1.9941 1.3567 -0.0, 1.7982 1.4843 -0.0, 1.8121 1.4782 -0.0, 1.5059 1.3567 -0.0, 1.8421 1.7117 -0.0, 1.9941 2.0669 -0.0, 1.8562 1.7064 -0.0, 1.9941 1.6339 -0.0, 1.5059 1.437 -0.0, 1.7716 1.6692 -0.0, 1.7697 1.6542 -0.0, 1.7864 1.4937 -0.0, 1.827 1.4758 -0.0, 1.8421 1.4773 -0.0, 1.827 1.7132 -0.0, 1.8121 1.7108 -0.0, 0.4135 2.0669 -0.0, 1.7982 1.7047 -0.0, 1.7864 1.6953 -0.0, 1.7697 1.5348 -0.0, 1.7716 1.5198 -0.0, 1.7773 1.5058 -0.0, -1.874 1.3567 -0.0, -2.0059 1.6339 -0.0, -2.0059 2.0669 -0.0, -2.1579 1.4773 -0.0, -2.173 1.4758 -0.0, -2.1879 1.4782 -0.0, -2.2018 1.4843 -0.0, -2.2136 1.4937 -0.0, -2.2227 1.5058 -0.0, -2.0059 1.5551 -0.0, -2.1438 1.4826 -0.0, -2.2303 1.5348 -0.0, -2.2284 1.5198 -0.0, -2.2136 1.6953 -0.0, -2.2018 1.7047 -0.0, -2.1879 1.7108 -0.0, -2.2284 1.6692 -0.0, -2.1579 1.7117 -0.0, -2.2303 1.6542 -0.0, -2.1438 1.7064 -0.0, -2.2227 1.6832 -0.0, -2.173 1.7132 -0.0, -2.0059 -1.437 -0.0, -2.0059 1.1574 -0.0, -1.874 1.1574 -0.0, -2.0059 1.3567 -0.0, -2.1438 -1.3645 -0.0, -2.2303 -1.4167 -0.0, -2.0059 -1.6339 -0.0, -2.0059 -1.5157 -0.0, -2.1879 -1.5927 -0.0, -2.2018 -1.5866 -0.0, -2.2136 -1.5772 -0.0, -2.2303 -1.536 -0.0, -2.173 -1.5951 -0.0, -1.5177 1.3567 -0.0, -2.1438 -1.5883 -0.0, -2.2284 -1.551 -0.0, -2.2227 -1.5651 -0.0, -2.2227 -1.3877 -0.0, -2.2136 -1.3756 -0.0, -2.1579 -1.3592 -0.0, -2.1579 -1.5936 -0.0, -2.2284 -1.4017 -0.0, -2.2018 -1.3662 -0.0, -2.1879 -1.3601 -0.0, -2.173 -1.3577 -0.0, 0.0614 1.3567 -0.0, 0.0806 1.1904 -0.0, 0.0614 1.1574 -0.0, 0.0806 1.1688 -0.0, 0.1016 1.1602 -0.0, 0.1095 1.3567 -0.0, 0.1034 1.3562 -0.0, 0.0806 1.3501 -0.0, 0.0806 1.3237 -0.0, 0.1028 1.3332 -0.0, 0.0841 1.1885 -0.0, 0.1267 1.3363 -0.0, 0.1461 1.3341 -0.0, 0.1608 1.3288 -0.0, 0.1745 1.3197 -0.0, 0.1863 1.3065 -0.0, 0.2006 1.2549 -0.0, 0.1986 1.2336 -0.0, 0.1933 1.2167 -0.0, 0.1495 1.1799 -0.0, 0.1311 1.1778 -0.0, 0.1638 1.1852 -0.0, 0.1759 1.1933 -0.0, 0.1852 1.2031 -0.0, 0.105 1.1807 -0.0, 0.1945 1.2913 -0.0, 0.1997 1.2703 -0.0, 0.1269 1.3579 -0.0, 0.0614 2.0669 -0.0, 0.1416 1.3567 -0.0, 0.2355 2.0669 -0.0, 0.2167 1.3036 -0.0, 0.2051 1.322 -0.0, 0.2355 1.3567 -0.0, 0.1781 1.1653 -0.0, 0.1939 1.1754 -0.0, 0.2355 1.1574 -0.0, 0.2087 1.191 -0.0, 0.2192 1.2097 -0.0, 0.1874 1.3391 -0.0, 0.1687 1.3499 -0.0, 0.1467 1.3563 -0.0, 0.2251 1.2305 -0.0, 0.227 1.2533 -0.0, 0.2242 1.2813 -0.0, 0.1215 1.1574 -0.0, 0.1294 1.1563 -0.0, 0.0614 -1.6339 -0.0, 0.1348 1.1562 -0.0, 0.1464 1.1574 -0.0, 0.159 1.1587 -0.0, 1.9941 -1.9488 -0.0, 0.0614 -1.9488 -0.0, -0.0826 -1.6339 -0.0, -2.0059 -1.9488 -0.0, -1.874 -1.9488 -0.0, -0.4732 -1.9488 -0.0, -0.2675 -1.9488 -0.0, -0.0826 -1.9488 -0.0, -0.0826 1.1574 -0.0, -0.2675 1.1574 -0.0, 0.3447 1.1586 -0.0, 0.3447 1.3555 -0.0, 0.2439 1.1586 -0.0, -0.0586 1.3555 -0.0, -0.0826 1.3567 -0.0, -0.0586 1.3339 -0.0, -0.0634 1.1802 -0.0, -0.0634 1.1586 -0.0, 0.0422 1.1586 -0.0, 0.0422 1.3555 -0.0, 0.0158 1.2474 -0.0, 0.0158 1.1802 -0.0, -0.0538 1.2474 -0.0, -0.0538 1.269 -0.0, 0.0158 1.269 -0.0, 0.0158 1.3339 -0.0, -0.2504 1.2126 -0.0, -0.2575 1.2332 -0.0, -0.2603 1.2595 -0.0, -0.2392 1.195 -0.0, -0.223 1.1795 -0.0, -0.2024 1.1675 -0.0, -0.1858 1.3524 -0.0, -0.2675 1.3567 -0.0, -0.1574 1.3555 -0.0, -0.2089 1.3443 -0.0, -0.2303 1.33 -0.0, -0.2305 1.3298 -0.0, -0.2444 1.3144 -0.0, -0.2536 1.2974 -0.0, -0.2588 1.278 -0.0, -0.1797 1.1607 -0.0, -0.1554 1.1586 -0.0, -0.1018 1.1586 -0.0, -0.1018 1.3555 -0.0, -0.3035 1.1586 -0.0, -0.2747 1.1586 -0.0, -0.3755 1.3555 -0.0, -0.4523 1.1586 -0.0, -0.4235 1.1586 -0.0, -0.4036 1.2138 -0.0, -0.3223 1.2138 -0.0, -0.3491 1.3555 -0.0, -0.4732 1.3567 -0.0, -0.4941 1.3567 -0.0, 1.7773 1.6832 -0.0, -0.2675 2.0669 -0.0, -0.0826 2.0669 -0.0, -2.0059 -0.9646 5.5118, -2.0059 1.2795 5.5118, -2.0059 1.6732 2.7559, -2.0059 -1.437 1.5748, -2.0059 1.5551 1.5748, -2.0059 -1.5157 1.5748, -2.0059 -1.9488 2.7559, -2.0059 1.7751 2.7425, -2.0059 1.8701 2.7032, -2.0059 2.0669 2.3622, -2.0059 1.6339 1.5748, -2.0059 2.0535 2.4641, -2.0059 1.9516 2.6406, -2.0059 2.0142 2.5591, -0.4941 1.6732 1.1024, -0.6122 1.4888 1.1024, -0.6122 0.771 1.1024, -0.5531 1.6732 1.1024, -1.4587 1.6732 1.1024, -1.3996 1.4888 1.1024, -1.5177 1.6732 1.1024, -1.3996 0.771 1.1024, -1.5177 -1.5551 1.1024, -0.4941 -1.5551 1.1024, -0.5531 1.6732 0.7874, -1.4587 1.6732 0.7874
            ]
        }
        coordIndex [
            0,1,2,-1,3,4,5,-1,6,7,8,-1,9,5,10,-1,10,5,4,-1,10,4,11,-1,11,4,12,-1,11,12,13,-1,14,15,16,-1,16,15,17,-1,18,19,20,-1,20,19,21,-1,20,21,22,-1,22,23,24,-1,24,23,25,-1,24,25,26,-1,27,28,29,-1,29,28,30,-1,29,30,31,-1,32,33,34,-1,34,33,35,-1,34,35,36,-1,32,37,33,-1,33,37,38,-1,33,38,39,-1,39,40,33,-1,33,40,41,-1,33,41,42,-1,43,44,45,-1,45,44,46,-1,45,46,47,-1,47,46,48,-1,47,48,20,-1,20,48,33,-1,20,33,18,-1,18,33,42,-1,49,50,51,-1,52,53,54,-1,55,56,57,-1,57,56,58,-1,59,60,61,-1,52,54,62,-1,53,63,51,-1,51,63,64,-1,51,64,49,-1,55,65,56,-1,56,65,66,-1,56,66,67,-1,67,66,68,-1,67,68,69,-1,61,70,59,-1,59,70,71,-1,59,71,54,-1,54,71,72,-1,54,72,62,-1,53,51,54,-1,54,51,29,-1,54,29,35,-1,35,29,31,-1,35,31,36,-1,17,73,16,-1,16,73,74,-1,16,74,75,-1,76,77,78,-1,78,79,76,-1,76,79,80,-1,76,80,81,-1,82,83,84,-1,84,83,76,-1,84,76,85,-1,85,76,81,-1,86,87,88,-1,89,90,91,-1,91,90,92,-1,91,92,74,-1,89,93,90,-1,90,93,86,-1,90,86,94,-1,94,86,88,-1,95,96,97,-1,97,96,98,-1,97,98,73,-1,73,98,82,-1,73,82,74,-1,74,82,84,-1,74,84,91,-1,99,95,100,-1,12,101,102,-1,103,104,105,-1,100,95,106,-1,103,105,107,-1,17,108,73,-1,73,108,13,-1,73,13,97,-1,97,13,12,-1,97,12,95,-1,95,12,102,-1,95,102,106,-1,106,102,109,-1,106,109,110,-1,110,109,111,-1,112,113,114,-1,111,109,105,-1,105,109,115,-1,105,115,107,-1,99,100,114,-1,114,100,116,-1,114,116,112,-1,113,117,114,-1,114,117,118,-1,114,118,119,-1,120,121,122,-1,122,121,123,-1,122,123,124,-1,120,125,126,-1,126,127,120,-1,120,127,128,-1,120,128,121,-1,121,128,129,-1,121,129,130,-1,130,129,131,-1,130,131,132,-1,132,133,130,-1,130,133,134,-1,130,134,135,-1,136,137,130,-1,130,137,138,-1,139,140,141,-1,141,140,142,-1,138,143,130,-1,130,143,142,-1,130,142,144,-1,144,142,140,-1,135,145,130,-1,130,145,146,-1,130,146,136,-1,147,148,149,-1,149,148,150,-1,151,152,153,-1,154,155,156,-1,156,155,157,-1,156,157,158,-1,152,159,153,-1,153,159,160,-1,153,160,161,-1,158,162,156,-1,156,162,163,-1,156,163,153,-1,153,163,164,-1,153,164,151,-1,165,166,167,-1,167,166,8,-1,166,168,8,-1,8,168,169,-1,8,169,156,-1,156,169,170,-1,156,170,154,-1,22,24,20,-1,20,24,171,-1,20,171,6,-1,8,7,167,-1,167,7,172,-1,167,172,173,-1,174,101,175,-1,175,101,12,-1,175,12,176,-1,176,12,4,-1,176,4,177,-1,177,4,3,-1,177,3,178,-1,124,165,122,-1,122,165,167,-1,122,167,179,-1,179,167,173,-1,179,173,180,-1,6,8,20,-1,20,8,156,-1,20,156,47,-1,47,156,181,-1,47,181,45,-1,181,182,45,-1,45,182,0,-1,45,0,153,-1,153,0,2,-1,153,2,156,-1,156,2,183,-1,156,183,181,-1,184,185,120,-1,184,186,185,-1,185,186,187,-1,185,187,179,-1,179,187,188,-1,179,188,122,-1,122,188,189,-1,122,189,120,-1,120,189,190,-1,120,190,184,-1,191,192,193,-1,193,192,187,-1,193,187,194,-1,194,187,186,-1,194,186,195,-1,195,186,196,-1,197,180,198,-1,198,180,199,-1,197,200,180,-1,180,200,201,-1,180,201,202,-1,203,204,205,-1,205,204,185,-1,203,206,204,-1,204,206,207,-1,204,207,208,-1,208,209,204,-1,204,209,210,-1,204,210,211,-1,202,212,180,-1,180,212,213,-1,180,213,179,-1,179,213,214,-1,179,214,185,-1,185,214,215,-1,185,215,205,-1,216,217,180,-1,180,217,204,-1,180,204,199,-1,199,204,211,-1,218,219,5,-1,5,219,220,-1,221,222,220,-1,220,222,216,-1,220,216,5,-1,5,216,180,-1,5,180,3,-1,3,180,173,-1,3,173,178,-1,178,173,172,-1,217,223,204,-1,204,223,218,-1,204,218,224,-1,224,218,5,-1,224,5,225,-1,225,5,9,-1,161,149,153,-1,153,149,150,-1,153,150,45,-1,45,150,67,-1,45,67,43,-1,43,67,69,-1,43,69,59,-1,59,69,226,-1,59,226,60,-1,225,15,224,-1,224,15,14,-1,224,14,204,-1,204,14,227,-1,204,227,185,-1,185,227,228,-1,185,228,120,-1,120,228,148,-1,120,148,125,-1,125,148,147,-1,229,230,231,-1,95,232,82,-1,82,232,233,-1,102,174,234,-1,234,174,235,-1,234,235,232,-1,232,235,229,-1,232,229,233,-1,229,231,233,-1,233,231,236,-1,233,236,237,-1,75,74,238,-1,238,74,239,-1,238,239,240,-1,240,239,233,-1,237,241,233,-1,233,241,242,-1,233,242,240,-1,243,244,245,-1,243,246,244,-1,244,246,247,-1,244,247,248,-1,248,247,249,-1,248,249,250,-1,250,249,251,-1,250,251,245,-1,245,251,252,-1,245,252,243,-1,246,253,247,-1,247,253,254,-1,
        ]
    }
}
Shape{
    appearance Appearance {
        material  Material {
            diffuseColor 1.0 1.0 1.0
            specularColor 0.5019607843137255 0.5019607843137255 0.5019607843137255
            ambientIntensity 1.0
            transparency 0.0
            shininess 0.5
        }
    }
    geometry IndexedFaceSet {
        ccw TRUE
        solid FALSE
        coord DEF co Coordinate {
            point [
                -0.9469 0.6071 5.4331, -0.9469 -0.4889 5.4331, -0.8632 0.5915 5.4331, -0.8632 -0.4733 5.4331, -0.7303 -0.4183 5.4331, -0.6162 -0.3307 5.4331, -0.5286 -0.2165 5.4331, -0.5286 0.3347 5.4331, -0.6162 0.4488 5.4331, -0.4735 0.2017 5.4331, -0.4547 0.0591 5.4331, -0.7303 0.5364 5.4331, -0.4735 -0.0836 5.4331
            ]
        }
        coordIndex [
            0,1,2,-1,2,1,3,-1,3,4,2,-1,2,4,5,-1,2,5,6,-1,7,8,9,-1,9,8,10,-1,8,11,10,-1,10,11,2,-1,10,2,12,-1,12,2,6,-1,
        ]
    }
}
Shape{
    appearance Appearance {
        material  Material {
            diffuseColor 0.7529411764705882 1.0 0.7529411764705882
            specularColor 0.3764705882352941 0.5019607843137255 0.3764705882352941
            ambientIntensity 0.898
            transparency 0.0
            shininess 0.5
        }
    }
    geometry IndexedFaceSet {
        ccw TRUE
        solid FALSE
        coord DEF co Coordinate {
            point [
                1.5059 1.6732 1.1024, 1.3878 1.4888 1.1024, 1.3878 0.771 1.1024, 1.4469 1.6732 1.1024, 0.5413 1.6732 1.1024, 0.6004 1.4888 1.1024, 0.4823 1.6732 1.1024, 0.6004 0.771 1.1024, 0.4823 -1.5551 1.1024, 1.5059 -1.5551 1.1024, 1.4469 1.6732 0.7874, 0.5413 1.6732 0.7874
            ]
        }
        coordIndex [
            0,1,2,-1,0,3,1,-1,1,3,4,-1,1,4,5,-1,5,4,6,-1,5,6,7,-1,7,6,8,-1,7,8,2,-1,2,8,9,-1,2,9,0,-1,3,10,4,-1,4,10,11,-1,
        ]
    }
}
Shape{
    appearance Appearance {
        material  Material {
            diffuseColor 1.0 1.0 1.0
            specularColor 0.5019607843137255 0.5019607843137255 0.5019607843137255
            ambientIntensity 1.0
            transparency 0.0
            shininess 0.5
        }
    }
    geometry IndexedFaceSet {
        ccw TRUE
        solid FALSE
        coord DEF co Coordinate {
            point [
                1.0531 0.6071 5.4331, 1.0531 -0.4889 5.4331, 1.1368 0.5915 5.4331, 1.1368 -0.4733 5.4331, 1.2697 -0.4183 5.4331, 1.5265 0.2017 5.4331, 1.4714 0.3347 5.4331, 1.3838 0.4488 5.4331, 1.3838 -0.3307 5.4331, 1.4714 -0.2165 5.4331, 1.5265 -0.0836 5.4331, 1.5453 0.0591 5.4331, 1.2697 0.5364 5.4331
            ]
        }
        coordIndex [
            0,1,2,-1,2,1,3,-1,2,3,4,-1,5,6,7,-1,4,8,2,-1,2,8,9,-1,2,9,10,-1,10,11,2,-1,2,11,5,-1,2,5,12,-1,12,5,7,-1,
        ]
    }
}
Shape{
    appearance Appearance {
        material  Material {
            diffuseColor 0.7529411764705882 1.0 0.7529411764705882
            specularColor 0.3764705882352941 0.5019607843137255 0.3764705882352941
            ambientIntensity 0.898
            transparency 0.0
            shininess 0.5
        }
    }
    geometry IndexedFaceSet {
        ccw TRUE
        solid FALSE
        coord DEF co Coordinate {
            point [
                1.9941 -1.9488 2.7559, 1.9941 -1.9488 -0.0, 1.9941 -1.5157 -0.0, 1.9941 1.2795 5.5118, 1.9941 -0.9646 5.5118, 1.9941 1.5551 -0.0, 1.9941 1.5551 1.5748, 1.9941 -1.437 -0.0, 1.9941 -1.437 1.5748, 1.9941 -1.5157 1.5748, 1.9941 1.6732 2.7559, 1.9941 1.7751 2.7425, 1.9941 1.6339 -0.0, 1.9941 2.0669 -0.0, 1.9941 1.6339 1.5748, 1.9941 2.0669 2.3622, 1.9941 2.0535 2.4641, 1.9941 2.0142 2.5591, 1.9941 1.9516 2.6406, 1.9941 1.8701 2.7032, -2.0059 2.0669 -0.0, -2.0059 2.0669 2.3622, -1.4453 2.0669 2.3622, -1.4453 2.0669 0.7874, -0.5665 2.0669 0.7874, 1.4335 2.0669 2.3622, 1.4335 2.0669 0.7874, 0.5547 2.0669 0.7874, 0.5547 2.0669 2.3622, -0.5665 2.0669 2.3622, -1.745 -1.9488 0.8751, -1.745 -1.9488 2.7559, -2.0059 -1.9488 2.7559, 1.7332 -1.9488 2.7559, 1.7332 -1.9488 0.8751, 0.255 -1.9488 2.7559, -0.2668 -1.9488 2.7559, 0.255 -1.9488 0.8751, -0.2668 -1.9488 0.8751, -0.0826 -1.9488 -0.0, 0.0614 -1.9488 -0.0, -2.0059 -1.9488 -0.0, -1.874 -1.9488 -0.0, -0.4732 -1.9488 -0.0, -0.2675 -1.9488 -0.0, 0.2355 -1.9488 -0.0, 0.4135 -1.9488 -0.0, -1.5763 0.2119 5.5118, -1.5173 0.3543 5.5118, -2.0059 1.2795 5.5118, -1.4235 0.4766 5.5118, -1.3012 0.5705 5.5118, -1.5965 0.0591 5.5118, -2.0059 -0.9646 5.5118, -1.5763 -0.0938 5.5118, -0.8531 0.6295 5.5118, -1.0059 0.6496 5.5118, -1.1588 0.6295 5.5118, -0.7106 0.5705 5.5118, -0.5883 0.4766 5.5118, -0.4945 0.3543 5.5118, 0.4827 0.3543 5.5118, 0.5765 0.4766 5.5118, 1.2894 -0.4524 5.5118, 1.4117 -0.3585 5.5118, 1.5055 -0.2362 5.5118, 0.6988 -0.4524 5.5118, 0.5765 -0.3585 5.5118, 0.4827 -0.2362 5.5118, 0.4237 -0.0938 5.5118, 0.6988 0.5705 5.5118, 0.8412 0.6295 5.5118, 0.9941 0.6496 5.5118, 1.1469 0.6295 5.5118, -0.4945 -0.2362 5.5118, -0.5883 -0.3585 5.5118, -1.1588 -0.5114 5.5118, -1.3012 -0.4524 5.5118, 1.1469 -0.5114 5.5118, 0.9941 -0.5315 5.5118, 0.8412 -0.5114 5.5118, 0.4237 0.2119 5.5118, -0.4355 0.2119 5.5118, 0.4035 0.0591 5.5118, -0.4154 0.0591 5.5118, -0.4355 -0.0938 5.5118, -1.4235 -0.3585 5.5118, -1.5173 -0.2362 5.5118, 1.2894 0.5705 5.5118, 1.4117 0.4766 5.5118, 1.5055 0.3543 5.5118, -0.7106 -0.4524 5.5118, -0.8531 -0.5114 5.5118, -1.0059 -0.5315 5.5118, 1.5645 0.2119 5.5118, 1.5846 0.0591 5.5118, 1.5645 -0.0938 5.5118, -1.4587 1.6732 2.7559, -2.0059 1.6732 2.7559, 1.4469 1.6732 2.7559, 0.5413 1.6732 2.7559, -0.5531 1.6732 2.7559, 1.5846 0.0591 5.315, 1.5645 0.2119 5.315, 1.5055 0.3543 5.315, 1.4117 0.4766 5.315, 1.2894 0.5705 5.315, 1.1469 0.6295 5.315, 0.9941 0.6496 5.315, 0.8412 0.6295 5.315, 0.6988 0.5705 5.315, 0.5765 0.4766 5.315, 0.4827 0.3543 5.315, 0.4237 0.2119 5.315, 0.4035 0.0591 5.315, 0.4237 -0.0938 5.315, 0.4827 -0.2362 5.315, 0.5765 -0.3585 5.315, 0.6988 -0.4524 5.315, 0.8412 -0.5114 5.315, 0.9941 -0.5315 5.315, 1.1469 -0.5114 5.315, 1.2894 -0.4524 5.315, 1.4117 -0.3585 5.315, 1.5055 -0.2362 5.315, 1.5645 -0.0938 5.315, 0.6044 0.4488 5.315, 0.5168 0.3347 5.315, 0.4617 0.2017 5.315, 0.4429 0.0591 5.315, 0.4617 -0.0836 5.315, 0.5168 -0.2165 5.315, 0.6044 -0.3307 5.315, 0.7185 -0.4183 5.315, 0.8514 -0.4733 5.315, 0.9941 -0.4921 5.315, 1.1368 -0.4733 5.315, 1.2697 -0.4183 5.315, 1.3838 -0.3307 5.315, 1.4714 -0.2165 5.315, 1.5265 -0.0836 5.315, 1.5453 0.0591 5.315, 1.5265 0.2017 5.315, 1.4714 0.3347 5.315, 1.3838 0.4488 5.315, 1.2697 0.5364 5.315, 1.1368 0.5915 5.315, 0.9941 0.6102 5.315, 0.8514 0.5915 5.315, 0.7185 0.5364 5.315
            ]
        }
        coordIndex [
            0,1,2,-1,3,4,0,-1,5,6,7,-1,7,6,8,-1,2,9,0,-1,0,9,8,-1,0,8,3,-1,3,8,6,-1,3,6,10,-1,10,6,11,-1,12,13,14,-1,14,13,15,-1,14,15,6,-1,6,15,16,-1,6,16,17,-1,17,18,6,-1,6,18,19,-1,6,19,11,-1,20,21,22,-1,22,23,20,-1,20,23,24,-1,20,24,13,-1,25,15,26,-1,26,15,13,-1,26,13,27,-1,27,13,24,-1,27,24,28,-1,28,24,29,-1,30,31,32,-1,0,33,34,-1,35,36,37,-1,37,36,38,-1,37,39,40,-1,32,41,30,-1,30,41,42,-1,30,42,38,-1,38,42,43,-1,38,43,37,-1,37,43,44,-1,37,44,39,-1,40,45,37,-1,37,45,46,-1,37,46,34,-1,34,46,1,-1,34,1,0,-1,47,48,49,-1,49,48,50,-1,49,50,51,-1,47,49,52,-1,52,49,53,-1,52,53,54,-1,55,3,56,-1,56,3,49,-1,56,49,57,-1,57,49,51,-1,55,58,3,-1,3,58,59,-1,3,59,60,-1,60,61,62,-1,63,4,64,-1,64,4,65,-1,66,67,53,-1,53,67,68,-1,53,68,69,-1,62,70,60,-1,60,70,71,-1,60,71,3,-1,3,71,72,-1,3,72,73,-1,74,75,69,-1,53,76,77,-1,63,78,4,-1,4,78,79,-1,4,79,53,-1,53,79,80,-1,53,80,66,-1,61,60,81,-1,81,60,82,-1,81,82,83,-1,83,82,84,-1,83,84,69,-1,69,84,85,-1,69,85,74,-1,77,86,53,-1,53,86,87,-1,53,87,54,-1,73,88,3,-1,3,88,89,-1,3,89,90,-1,75,91,69,-1,69,91,92,-1,69,92,53,-1,53,92,93,-1,53,93,76,-1,90,94,3,-1,3,94,95,-1,3,95,4,-1,4,95,96,-1,4,96,65,-1,97,98,49,-1,10,99,3,-1,3,99,100,-1,3,100,49,-1,49,100,101,-1,49,101,97,-1,33,0,4,-1,32,31,53,-1,53,31,36,-1,53,36,4,-1,4,36,35,-1,4,35,33,-1,102,95,103,-1,103,95,94,-1,103,94,104,-1,104,94,90,-1,104,90,105,-1,105,90,89,-1,105,89,106,-1,106,89,88,-1,106,88,107,-1,107,88,73,-1,107,73,108,-1,108,73,72,-1,108,72,109,-1,109,72,71,-1,109,71,110,-1,110,71,70,-1,110,70,111,-1,111,70,62,-1,111,62,112,-1,112,62,61,-1,112,61,113,-1,113,61,81,-1,113,81,114,-1,114,81,83,-1,114,83,115,-1,115,83,69,-1,115,69,116,-1,116,69,68,-1,116,68,117,-1,117,68,67,-1,117,67,118,-1,118,67,66,-1,118,66,119,-1,119,66,80,-1,119,80,120,-1,120,80,79,-1,120,79,121,-1,121,79,78,-1,121,78,122,-1,122,78,63,-1,122,63,123,-1,123,63,64,-1,123,64,124,-1,124,64,65,-1,124,65,125,-1,125,65,96,-1,125,96,102,-1,102,96,95,-1,126,111,127,-1,127,111,112,-1,127,112,128,-1,128,112,113,-1,128,113,129,-1,129,113,114,-1,129,114,130,-1,130,114,115,-1,130,115,131,-1,131,115,116,-1,131,116,132,-1,132,116,117,-1,132,117,133,-1,133,117,118,-1,133,118,134,-1,134,118,119,-1,134,119,135,-1,135,119,120,-1,135,120,136,-1,136,120,121,-1,136,121,137,-1,137,121,122,-1,137,122,138,-1,138,122,123,-1,138,123,139,-1,139,123,124,-1,139,124,140,-1,140,124,125,-1,140,125,141,-1,141,125,102,-1,141,102,142,-1,142,102,103,-1,142,103,143,-1,143,103,104,-1,143,104,144,-1,144,104,105,-1,144,105,145,-1,145,105,106,-1,145,106,146,-1,146,106,107,-1,146,107,147,-1,147,107,108,-1,147,108,148,-1,148,108,109,-1,148,109,149,-1,149,109,110,-1,149,110,126,-1,126,110,111,-1,
        ]
    }
}
Shape{
    appearance Appearance {
        material  Material {
            diffuseColor 1.0 1.0 1.0
            specularColor 0.5019607843137255 0.5019607843137255 0.5019607843137255
            ambientIntensity 1.0
            transparency 0.0
            shininess 0.5
        }
    }
    geometry IndexedFaceSet {
        ccw TRUE
        solid FALSE
        coord DEF co Coordinate {
            point [
                1.0531 0.6071 5.3937, 1.0531 0.6071 5.4331, 1.1368 0.5915 5.4331, 0.935 -0.4889 5.3937, 0.935 -0.4889 5.4331, 0.8514 -0.4733 5.4331, 0.8514 -0.4733 5.315, 0.9941 -0.4921 5.3937, 0.9941 -0.4921 5.315, 1.0531 -0.4889 5.3937, 1.1368 -0.4733 5.315, 0.8514 0.5915 5.315, 0.935 0.6071 5.3937, 0.9941 0.6102 5.315, 0.9941 0.6102 5.3937, 1.1368 0.5915 5.315, 1.2697 0.5364 5.4331, 1.2697 0.5364 5.315, 1.3838 0.4488 5.4331, 1.3838 0.4488 5.315, 1.4714 0.3347 5.4331, 1.4714 0.3347 5.315, 1.5265 0.2017 5.4331, 1.5265 0.2017 5.315, 1.5453 0.0591 5.4331, 1.5453 0.0591 5.315, 1.5265 -0.0836 5.4331, 1.5265 -0.0836 5.315, 1.4714 -0.2165 5.4331, 1.4714 -0.2165 5.315, 1.3838 -0.3307 5.4331, 1.3838 -0.3307 5.315, 1.2697 -0.4183 5.4331, 1.2697 -0.4183 5.315, 1.1368 -0.4733 5.4331, 1.0531 -0.4889 5.4331, 0.7185 -0.4183 5.4331, 0.7185 -0.4183 5.315, 0.6044 -0.3307 5.4331, 0.6044 -0.3307 5.315, 0.5168 -0.2165 5.4331, 0.5168 -0.2165 5.315, 0.4617 -0.0836 5.4331, 0.4617 -0.0836 5.315, 0.4429 0.0591 5.4331, 0.4429 0.0591 5.315, 0.4617 0.2017 5.4331, 0.4617 0.2017 5.315, 0.5168 0.3347 5.4331, 0.5168 0.3347 5.315, 0.6044 0.4488 5.4331, 0.6044 0.4488 5.315, 0.7185 0.5364 5.4331, 0.7185 0.5364 5.315, 0.8514 0.5915 5.4331, 0.935 0.6071 5.4331
            ]
        }
        coordIndex [
            0,1,2,-1,3,4,5,-1,3,6,7,-1,7,6,8,-1,7,8,9,-1,9,8,10,-1,11,12,13,-1,13,12,14,-1,13,14,15,-1,15,14,0,-1,0,2,15,-1,15,2,16,-1,15,16,17,-1,17,16,18,-1,17,18,19,-1,19,18,20,-1,19,20,21,-1,21,20,22,-1,21,22,23,-1,23,22,24,-1,23,24,25,-1,25,24,26,-1,25,26,27,-1,27,26,28,-1,27,28,29,-1,29,28,30,-1,29,30,31,-1,31,30,32,-1,31,32,33,-1,33,32,34,-1,33,34,10,-1,10,34,35,-1,10,35,9,-1,3,5,6,-1,6,5,36,-1,6,36,37,-1,37,36,38,-1,37,38,39,-1,39,38,40,-1,39,40,41,-1,41,40,42,-1,41,42,43,-1,43,42,44,-1,43,44,45,-1,45,44,46,-1,45,46,47,-1,47,46,48,-1,47,48,49,-1,49,48,50,-1,49,50,51,-1,51,50,52,-1,51,52,53,-1,53,52,54,-1,53,54,11,-1,11,54,55,-1,11,55,12,-1,5,4,54,-1,54,4,55,-1,5,54,36,-1,36,54,52,-1,36,52,50,-1,42,40,44,-1,44,40,46,-1,50,48,36,-1,36,48,46,-1,36,46,38,-1,38,46,40,-1,0,9,1,-1,1,9,35,-1,3,12,4,-1,4,12,55,-1,9,0,7,-1,7,0,14,-1,7,14,3,-1,3,14,12,-1,
        ]
    }
}
Shape{
    appearance Appearance {
        material  Material {
            diffuseColor 0.7529411764705882 1.0 0.7529411764705882
            specularColor 0.3764705882352941 0.5019607843137255 0.3764705882352941
            ambientIntensity 0.898
            transparency 0.0
            shininess 0.5
        }
    }
    geometry IndexedFaceSet {
        ccw TRUE
        solid FALSE
        coord DEF co Coordinate {
            point [
                1.4469 1.6732 2.074, 1.4469 1.6732 2.7559, 1.4316 1.7751 2.7425, 1.4 1.9856 2.6019, 1.3958 2.0133 2.5585, 1.3946 2.0217 2.5454, 1.4469 1.6732 1.1024, 1.3946 2.0217 0.7874, 1.4469 1.6732 0.7874, 1.4173 1.8701 2.7032, 1.4051 1.9516 2.6406, 0.5413 1.6732 2.074, 0.5413 1.6732 2.7559, 0.5936 2.0217 2.5454, 0.5936 2.0217 0.7874, 0.5413 1.6732 1.1024, 0.5413 1.6732 0.7874, 0.5925 2.0142 2.5591, 0.5882 1.9856 2.6019, 0.5831 1.9516 2.6406, 0.5709 1.8701 2.7032, 0.5566 1.7751 2.7425, 0.5811 2.0567 0.7874, 0.5874 2.0494 0.7874, 0.5918 2.0408 0.7874, 1.3964 2.0408 0.7874, 1.4008 2.0494 0.7874, 0.5547 2.0669 0.7874, 1.4071 2.0567 0.7874, 1.4149 2.0623 0.7874, 1.4239 2.0658 0.7874, 1.4335 2.0669 0.7874, 1.3943 2.0314 0.7874, 0.5643 2.0658 0.7874, 0.5733 2.0623 0.7874, 0.5939 2.0314 0.7874, 1.4151 2.0618 2.4224, 1.4242 2.0648 2.3924, 1.4301 2.0668 2.3729, 1.4328 2.0669 2.3646, 1.4335 2.0669 2.3622, 1.4046 2.0526 2.4639, 1.4078 2.056 2.4505, 1.4126 2.0609 2.4309, 1.4012 2.0491 2.4779, 1.3994 2.0473 2.4851, 1.3965 2.0407 2.5032, 1.396 2.0394 2.5069, 1.3953 2.0313 2.5245, 0.5938 2.0314 2.5256, 0.591 2.0405 2.5024, 0.5938 2.032 2.5244, 0.5805 2.056 2.4507, 0.584 2.0531 2.464, 0.5859 2.0515 2.4714, 0.5874 2.0494 2.4783, 0.5888 2.0473 2.4851, 0.5731 2.0621 2.4224, 0.564 2.0648 2.3925, 0.5723 2.0628 2.4193, 0.5547 2.0669 2.3622, 0.5554 2.0669 2.3646, 1.5059 -1.5551 2.074, 1.5059 1.6732 2.074, 1.5059 -1.5551 1.1024, 1.5059 1.6732 1.1024, 0.4823 -1.5551 1.1024, 0.4823 1.6732 1.1024, 0.4823 -1.5551 2.074, 0.4823 1.6732 2.074, 1.7332 -1.9488 2.7559, 0.255 -1.9488 2.7559, 1.5059 -1.3189 -0.0, 1.5059 -1.3189 0.7874, 1.5059 1.1574 -0.0, 1.5059 1.437 0.7874, 1.5059 1.3567 -0.0, 1.5059 1.437 -0.0, 0.4823 1.437 0.7874, 0.4823 1.437 -0.0, 0.4823 -1.3189 0.7874, 0.4823 -1.3189 -0.0, 0.4823 1.1574 -0.0, 0.4823 1.3567 -0.0, 0.8366 0.7677 0.7874, 1.1516 0.7677 0.7874, 1.1516 1.0039 0.7874, 0.8366 1.0039 0.7874
            ]
        }
        coordIndex [
            0,1,2,-1,3,4,0,-1,0,4,5,-1,0,5,6,-1,6,5,7,-1,6,7,8,-1,2,9,0,-1,0,9,10,-1,0,10,3,-1,11,12,0,-1,0,12,1,-1,13,11,14,-1,14,11,15,-1,14,15,16,-1,13,17,11,-1,11,17,18,-1,11,18,19,-1,19,20,11,-1,11,20,21,-1,11,21,12,-1,22,23,7,-1,7,23,24,-1,25,26,27,-1,27,26,28,-1,28,29,27,-1,27,29,30,-1,27,30,31,-1,25,27,32,-1,32,27,33,-1,32,33,7,-1,7,33,34,-1,7,34,22,-1,16,8,14,-1,14,8,7,-1,14,7,35,-1,35,7,24,-1,28,36,29,-1,29,36,37,-1,29,37,30,-1,30,37,38,-1,30,38,31,-1,31,38,39,-1,31,39,40,-1,41,42,28,-1,28,42,43,-1,28,43,36,-1,41,28,44,-1,44,28,26,-1,44,26,45,-1,45,26,25,-1,45,25,46,-1,46,25,47,-1,47,25,32,-1,47,32,48,-1,48,32,7,-1,48,7,5,-1,14,35,13,-1,13,35,49,-1,24,50,35,-1,35,50,51,-1,35,51,49,-1,52,53,23,-1,53,54,23,-1,23,54,55,-1,23,55,24,-1,24,55,56,-1,24,56,50,-1,23,22,52,-1,52,22,34,-1,52,34,57,-1,33,58,34,-1,34,58,59,-1,34,59,57,-1,27,60,33,-1,33,60,61,-1,33,61,58,-1,62,63,64,-1,64,63,65,-1,66,67,68,-1,68,67,69,-1,70,71,62,-1,62,71,68,-1,63,62,0,-1,0,62,68,-1,0,68,11,-1,11,68,69,-1,72,73,74,-1,74,73,75,-1,74,75,76,-1,76,75,77,-1,75,78,77,-1,77,78,79,-1,78,80,81,-1,81,82,78,-1,78,82,83,-1,78,83,79,-1,80,73,81,-1,81,73,72,-1,84,80,78,-1,80,84,73,-1,73,84,85,-1,73,85,75,-1,75,85,86,-1,75,86,78,-1,78,86,87,-1,78,87,84,-1,63,0,65,-1,65,0,6,-1,67,15,69,-1,69,15,11,-1,
        ]
    }
}
Shape{
    appearance Appearance {
        material  Material {
            diffuseColor 1.0 1.0 1.0
            specularColor 0.5019607843137255 0.5019607843137255 0.5019607843137255
            ambientIntensity 1.0
            transparency 0.0
            shininess 0.5
        }
    }
    geometry IndexedFaceSet {
        ccw TRUE
        solid FALSE
        coord DEF co Coordinate {
            point [
                0.8366 1.0039 0.2362, 1.1516 1.0039 0.2362, 1.1516 0.9959 0.1751, 0.8366 0.9959 0.1751, 1.1516 0.9723 0.1181, 0.8366 0.9723 0.1181, 1.1516 0.9348 0.0692, 0.8366 0.9348 0.0692, 1.1516 0.8858 0.0316, 0.8366 0.8858 0.0316, 1.1516 0.8289 0.008, 0.8366 0.8289 0.008, 1.1516 0.7677 -0.0, 0.8366 0.7677 -0.0, 0.8366 0.1378 -0.0, 1.1516 0.1378 -0.0, 0.8366 0.1378 -1.1811, 1.1516 0.1378 -1.1811, 0.9503 0.1378 -1.378, 1.0379 0.1378 -1.378, 1.0379 -0.0984 -1.378, 0.9503 -0.0984 -1.378, 0.8366 -0.0984 -1.1811, 1.1516 -0.0984 -1.1811, 0.8366 -0.0984 -0.0, 1.1516 -0.0984 -0.0, 1.1516 -0.0904 0.0611, 0.8366 -0.0904 0.0611, 1.1516 -0.0668 0.1181, 0.8366 -0.0668 0.1181, 1.1516 -0.0292 0.167, 0.8366 -0.0292 0.167, 1.1516 0.0197 0.2046, 0.8366 0.0197 0.2046, 1.1516 0.0767 0.2282, 0.8366 0.0767 0.2282, 1.1516 0.1378 0.2362, 0.8366 0.1378 0.2362, 0.8366 0.7677 0.2362, 1.1516 0.7677 0.2362, 0.8366 0.7677 0.7874, 0.8366 1.0039 0.7874, 1.1516 1.0039 0.7874, 1.1516 0.7677 0.7874, 0.6004 0.771 1.1024, 1.3878 0.771 1.1024, 1.3878 0.7865 1.1553, 0.6004 0.7865 1.1553, 1.3878 0.8138 1.2032, 0.6004 0.8138 1.2032, 1.3878 0.8515 1.2434, 0.6004 0.8515 1.2434, 1.3878 0.8974 1.2738, 0.6004 0.8974 1.2738, 1.3878 0.9492 1.2928, 0.6004 0.9492 1.2928, 1.3878 1.0039 1.2992, 0.6004 1.0039 1.2992, 0.6004 1.5945 1.2992, 1.3878 1.5945 1.2992, 1.3878 1.5874 1.2416, 0.6004 1.5874 1.2416, 1.3878 1.5664 1.1875, 0.6004 1.5664 1.1875, 1.3878 1.5329 1.1401, 0.6004 1.5329 1.1401, 1.3878 1.4888 1.1024, 0.6004 1.4888 1.1024, 1.3878 1.3583 1.2992, 0.6004 1.3583 1.2992, 1.3878 1.3583 1.758, 0.6004 1.3583 1.758, 1.3878 -0.7677 1.758, 0.6004 -0.7677 1.758, 1.3878 -0.7677 1.4037, 0.6004 -0.7677 1.4037, 1.3878 -1.0039 1.4037, 0.6004 -1.0039 1.4037, 1.3878 -1.0039 1.758, 0.6004 -1.0039 1.758, 1.3878 -0.9959 1.8192, 0.6004 -0.9959 1.8192, 1.3878 -0.9723 1.8761, 0.6004 -0.9723 1.8761, 1.3878 -0.9347 1.9251, 0.6004 -0.9347 1.9251, 1.3878 -0.8858 1.9626, 0.6004 -0.8858 1.9626, 1.3878 -0.8288 1.9862, 0.6004 -0.8288 1.9862, 1.3878 -0.7677 1.9942, 0.6004 -0.7677 1.9942, 1.3878 1.3583 1.9942, 0.6004 1.3583 1.9942, 1.3878 1.4194 1.9862, 0.6004 1.4194 1.9862, 1.3878 1.4764 1.9626, 0.6004 1.4764 1.9626, 1.3878 1.5253 1.9251, 0.6004 1.5253 1.9251, 1.3878 1.5628 1.8761, 0.6004 1.5628 1.8761, 1.3878 1.5864 1.8192, 0.6004 1.5864 1.8192, 1.3878 1.5945 1.758, 0.6004 1.5945 1.758
            ]
        }
        coordIndex [
            0,1,2,-1,0,2,3,-1,3,2,4,-1,3,4,5,-1,5,4,6,-1,5,6,7,-1,7,6,8,-1,7,8,9,-1,9,8,10,-1,9,10,11,-1,11,10,12,-1,11,12,13,-1,14,13,15,-1,15,13,12,-1,14,15,16,-1,16,15,17,-1,16,17,18,-1,18,17,19,-1,20,21,19,-1,19,21,18,-1,21,20,22,-1,22,20,23,-1,22,23,24,-1,24,23,25,-1,24,25,26,-1,24,26,27,-1,27,26,28,-1,27,28,29,-1,29,28,30,-1,29,30,31,-1,31,30,32,-1,31,32,33,-1,33,32,34,-1,33,34,35,-1,35,34,36,-1,35,36,37,-1,38,37,39,-1,39,37,36,-1,40,41,38,-1,38,41,0,-1,14,31,33,-1,16,22,14,-1,14,22,24,-1,0,3,38,-1,38,3,5,-1,38,5,7,-1,33,35,14,-1,14,35,37,-1,14,37,13,-1,13,37,38,-1,24,27,14,-1,14,27,29,-1,14,29,31,-1,7,9,38,-1,38,9,11,-1,38,11,13,-1,23,17,25,-1,25,17,15,-1,25,15,26,-1,26,15,28,-1,42,43,1,-1,1,43,39,-1,1,39,2,-1,2,39,4,-1,34,32,15,-1,15,32,30,-1,15,30,28,-1,39,12,10,-1,12,39,15,-1,15,39,36,-1,15,36,34,-1,10,8,39,-1,39,8,6,-1,39,6,4,-1,1,0,42,-1,42,0,41,-1,40,38,43,-1,43,38,39,-1,44,45,46,-1,44,46,47,-1,47,46,48,-1,47,48,49,-1,49,48,50,-1,49,50,51,-1,51,50,52,-1,51,52,53,-1,53,52,54,-1,53,54,55,-1,55,54,56,-1,55,56,57,-1,58,59,60,-1,58,60,61,-1,61,60,62,-1,61,62,63,-1,63,62,64,-1,63,64,65,-1,65,64,66,-1,65,66,67,-1,68,69,56,-1,56,69,57,-1,70,71,68,-1,68,71,69,-1,72,73,70,-1,70,73,71,-1,74,75,72,-1,72,75,73,-1,76,77,74,-1,74,77,75,-1,78,79,76,-1,76,79,77,-1,79,78,80,-1,79,80,81,-1,81,80,82,-1,81,82,83,-1,83,82,84,-1,83,84,85,-1,85,84,86,-1,85,86,87,-1,87,86,88,-1,87,88,89,-1,89,88,90,-1,89,90,91,-1,92,93,90,-1,90,93,91,-1,93,92,94,-1,93,94,95,-1,95,94,96,-1,95,96,97,-1,97,96,98,-1,97,98,99,-1,99,98,100,-1,99,100,101,-1,101,100,102,-1,101,102,103,-1,103,102,104,-1,103,104,105,-1,59,58,104,-1,104,58,105,-1,76,74,78,-1,78,74,72,-1,78,72,80,-1,80,72,82,-1,88,86,72,-1,72,86,84,-1,72,84,82,-1,96,94,70,-1,70,94,92,-1,70,92,72,-1,72,92,90,-1,72,90,88,-1,68,64,62,-1,102,100,70,-1,70,100,98,-1,70,98,96,-1,48,46,50,-1,50,46,45,-1,50,45,52,-1,62,60,68,-1,68,60,59,-1,68,59,70,-1,70,59,104,-1,70,104,102,-1,64,68,66,-1,66,68,56,-1,66,56,45,-1,45,56,54,-1,45,54,52,-1,55,57,44,-1,47,49,51,-1,61,63,69,-1,69,63,65,-1,69,65,57,-1,57,65,67,-1,57,67,44,-1,47,51,44,-1,44,51,53,-1,44,53,55,-1,75,77,73,-1,73,77,79,-1,73,79,81,-1,101,103,71,-1,71,103,105,-1,71,105,69,-1,69,105,58,-1,69,58,61,-1,87,89,73,-1,73,89,91,-1,73,91,71,-1,71,91,93,-1,71,93,95,-1,81,83,73,-1,73,83,85,-1,73,85,87,-1,95,97,71,-1,71,97,99,-1,71,99,101,-1,19,17,20,-1,20,17,23,-1,16,18,22,-1,22,18,21,-1,
        ]
    }
}
Shape{
    appearance Appearance {
        material  Material {
            diffuseColor 0.7529411764705882 1.0 0.7529411764705882
            specularColor 0.3764705882352941 0.5019607843137255 0.3764705882352941
            ambientIntensity 0.898
            transparency 0.0
            shininess 0.5
        }
    }
    geometry IndexedFaceSet {
        ccw TRUE
        solid FALSE
        coord DEF co Coordinate {
            point [
                -0.4154 0.0591 5.315, -0.4154 0.0591 5.5118, -0.4355 0.2119 5.315, -0.4355 0.2119 5.5118, -0.4945 0.3543 5.315, -0.4945 0.3543 5.5118, -0.5883 0.4766 5.315, -0.5883 0.4766 5.5118, -0.7106 0.5705 5.315, -0.7106 0.5705 5.5118, -0.8531 0.6295 5.315, -0.8531 0.6295 5.5118, -1.0059 0.6496 5.315, -1.0059 0.6496 5.5118, -1.1588 0.6295 5.315, -1.1588 0.6295 5.5118, -1.3012 0.5705 5.315, -1.3012 0.5705 5.5118, -1.4235 0.4766 5.315, -1.4235 0.4766 5.5118, -1.5173 0.3543 5.315, -1.5173 0.3543 5.5118, -1.5763 0.2119 5.315, -1.5763 0.2119 5.5118, -1.5965 0.0591 5.315, -1.5965 0.0591 5.5118, -1.5763 -0.0938 5.315, -1.5763 -0.0938 5.5118, -1.5173 -0.2362 5.315, -1.5173 -0.2362 5.5118, -1.4235 -0.3585 5.315, -1.4235 -0.3585 5.5118, -1.3012 -0.4524 5.315, -1.3012 -0.4524 5.5118, -1.1588 -0.5114 5.315, -1.1588 -0.5114 5.5118, -1.0059 -0.5315 5.315, -1.0059 -0.5315 5.5118, -0.8531 -0.5114 5.315, -0.8531 -0.5114 5.5118, -0.7106 -0.4524 5.315, -0.7106 -0.4524 5.5118, -0.5883 -0.3585 5.315, -0.5883 -0.3585 5.5118, -0.4945 -0.2362 5.315, -0.4945 -0.2362 5.5118, -0.4355 -0.0938 5.315, -0.4355 -0.0938 5.5118, -0.6162 0.4488 5.315, -0.7303 0.5364 5.315, -0.8632 0.5915 5.315, -1.0059 0.6102 5.315, -1.1486 0.5915 5.315, -1.2815 0.5364 5.315, -1.3956 0.4488 5.315, -1.4832 0.3347 5.315, -1.5383 0.2017 5.315, -1.5571 0.0591 5.315, -1.5383 -0.0836 5.315, -1.4832 -0.2165 5.315, -1.3956 -0.3307 5.315, -1.2815 -0.4183 5.315, -1.1486 -0.4733 5.315, -1.0059 -0.4921 5.315, -0.8632 -0.4733 5.315, -0.7303 -0.4183 5.315, -0.6162 -0.3307 5.315, -0.5286 -0.2165 5.315, -0.4735 -0.0836 5.315, -0.4547 0.0591 5.315, -0.4735 0.2017 5.315, -0.5286 0.3347 5.315
            ]
        }
        coordIndex [
            0,1,2,-1,2,1,3,-1,2,3,4,-1,4,3,5,-1,4,5,6,-1,6,5,7,-1,6,7,8,-1,8,7,9,-1,8,9,10,-1,10,9,11,-1,10,11,12,-1,12,11,13,-1,12,13,14,-1,14,13,15,-1,14,15,16,-1,16,15,17,-1,16,17,18,-1,18,17,19,-1,18,19,20,-1,20,19,21,-1,20,21,22,-1,22,21,23,-1,22,23,24,-1,24,23,25,-1,24,25,26,-1,26,25,27,-1,26,27,28,-1,28,27,29,-1,28,29,30,-1,30,29,31,-1,30,31,32,-1,32,31,33,-1,32,33,34,-1,34,33,35,-1,34,35,36,-1,36,35,37,-1,36,37,38,-1,38,37,39,-1,38,39,40,-1,40,39,41,-1,40,41,42,-1,42,41,43,-1,42,43,44,-1,44,43,45,-1,44,45,46,-1,46,45,47,-1,46,47,0,-1,0,47,1,-1,48,6,49,-1,49,6,8,-1,49,8,50,-1,50,8,10,-1,50,10,51,-1,51,10,12,-1,51,12,52,-1,52,12,14,-1,52,14,53,-1,53,14,16,-1,53,16,54,-1,54,16,18,-1,54,18,55,-1,55,18,20,-1,55,20,56,-1,56,20,22,-1,56,22,57,-1,57,22,24,-1,57,24,58,-1,58,24,26,-1,58,26,59,-1,59,26,28,-1,59,28,60,-1,60,28,30,-1,60,30,61,-1,61,30,32,-1,61,32,62,-1,62,32,34,-1,62,34,63,-1,63,34,36,-1,63,36,64,-1,64,36,38,-1,64,38,65,-1,65,38,40,-1,65,40,66,-1,66,40,42,-1,66,42,67,-1,67,42,44,-1,67,44,68,-1,68,44,46,-1,68,46,69,-1,69,46,0,-1,69,0,70,-1,70,0,2,-1,70,2,71,-1,71,2,4,-1,71,4,48,-1,48,4,6,-1,
        ]
    }
}
Shape{
    appearance Appearance {
        material  Material {
            diffuseColor 1.0 1.0 1.0
            specularColor 0.5019607843137255 0.5019607843137255 0.5019607843137255
            ambientIntensity 1.0
            transparency 0.0
            shininess 0.5
        }
    }
    geometry IndexedFaceSet {
        ccw TRUE
        solid FALSE
        coord DEF co Coordinate {
            point [
                -0.9469 0.6071 5.3937, -0.9469 0.6071 5.4331, -0.8632 0.5915 5.4331, -1.065 -0.4889 5.3937, -1.065 -0.4889 5.4331, -1.1486 -0.4733 5.4331, -1.1486 -0.4733 5.315, -1.0059 -0.4921 5.3937, -1.0059 -0.4921 5.315, -0.9469 -0.4889 5.3937, -0.8632 -0.4733 5.315, -1.1486 0.5915 5.315, -1.065 0.6071 5.3937, -1.0059 0.6102 5.315, -1.0059 0.6102 5.3937, -0.8632 0.5915 5.315, -0.7303 0.5364 5.4331, -0.7303 0.5364 5.315, -0.6162 0.4488 5.4331, -0.6162 0.4488 5.315, -0.5286 0.3347 5.4331, -0.5286 0.3347 5.315, -0.4735 0.2017 5.4331, -0.4735 0.2017 5.315, -0.4547 0.0591 5.4331, -0.4547 0.0591 5.315, -0.4735 -0.0836 5.4331, -0.4735 -0.0836 5.315, -0.5286 -0.2165 5.4331, -0.5286 -0.2165 5.315, -0.6162 -0.3307 5.4331, -0.6162 -0.3307 5.315, -0.7303 -0.4183 5.4331, -0.7303 -0.4183 5.315, -0.8632 -0.4733 5.4331, -0.9469 -0.4889 5.4331, -1.2815 -0.4183 5.4331, -1.2815 -0.4183 5.315, -1.3956 -0.3307 5.4331, -1.3956 -0.3307 5.315, -1.4832 -0.2165 5.4331, -1.4832 -0.2165 5.315, -1.5383 -0.0836 5.4331, -1.5383 -0.0836 5.315, -1.5571 0.0591 5.4331, -1.5571 0.0591 5.315, -1.5383 0.2017 5.4331, -1.5383 0.2017 5.315, -1.4832 0.3347 5.4331, -1.4832 0.3347 5.315, -1.3956 0.4488 5.4331, -1.3956 0.4488 5.315, -1.2815 0.5364 5.4331, -1.2815 0.5364 5.315, -1.1486 0.5915 5.4331, -1.065 0.6071 5.4331
            ]
        }
        coordIndex [
            0,1,2,-1,3,4,5,-1,3,6,7,-1,7,6,8,-1,7,8,9,-1,9,8,10,-1,11,12,13,-1,13,12,14,-1,13,14,15,-1,15,14,0,-1,0,2,15,-1,15,2,16,-1,15,16,17,-1,17,16,18,-1,17,18,19,-1,19,18,20,-1,19,20,21,-1,21,20,22,-1,21,22,23,-1,23,22,24,-1,23,24,25,-1,25,24,26,-1,25,26,27,-1,27,26,28,-1,27,28,29,-1,29,28,30,-1,29,30,31,-1,31,30,32,-1,31,32,33,-1,33,32,34,-1,33,34,10,-1,10,34,35,-1,10,35,9,-1,3,5,6,-1,6,5,36,-1,6,36,37,-1,37,36,38,-1,37,38,39,-1,39,38,40,-1,39,40,41,-1,41,40,42,-1,41,42,43,-1,43,42,44,-1,43,44,45,-1,45,44,46,-1,45,46,47,-1,47,46,48,-1,47,48,49,-1,49,48,50,-1,49,50,51,-1,51,50,52,-1,51,52,53,-1,53,52,54,-1,53,54,11,-1,11,54,55,-1,11,55,12,-1,5,4,54,-1,54,4,55,-1,40,38,54,-1,54,38,36,-1,54,36,5,-1,54,52,40,-1,40,52,50,-1,40,50,48,-1,48,46,40,-1,40,46,44,-1,40,44,42,-1,0,9,1,-1,1,9,35,-1,3,12,4,-1,4,12,55,-1,9,0,7,-1,7,0,14,-1,7,14,3,-1,3,14,12,-1,
        ]
    }
}
Shape{
    appearance Appearance {
        material  Material {
            diffuseColor 0.7529411764705882 1.0 0.7529411764705882
            specularColor 0.3764705882352941 0.5019607843137255 0.3764705882352941
            ambientIntensity 0.898
            transparency 0.0
            shininess 0.5
        }
    }
    geometry IndexedFaceSet {
        ccw TRUE
        solid FALSE
        coord DEF co Coordinate {
            point [
                -0.5531 1.6732 2.074, -0.5531 1.6732 2.7559, -0.5684 1.7751 2.7425, -0.6 1.9856 2.6019, -0.6042 2.0133 2.5585, -0.6054 2.0217 2.5454, -0.5531 1.6732 1.1024, -0.6054 2.0217 0.7874, -0.5531 1.6732 0.7874, -0.5827 1.8701 2.7032, -0.5949 1.9516 2.6406, -1.4587 1.6732 2.074, -1.4587 1.6732 2.7559, -1.4064 2.0217 2.5454, -1.4064 2.0217 0.7874, -1.4587 1.6732 1.1024, -1.4587 1.6732 0.7874, -1.4075 2.0142 2.5591, -1.4118 1.9856 2.6019, -1.4169 1.9516 2.6406, -1.4291 1.8701 2.7032, -1.4434 1.7751 2.7425, -1.4189 2.0567 0.7874, -1.4126 2.0494 0.7874, -1.4082 2.0408 0.7874, -0.6036 2.0408 0.7874, -0.5992 2.0494 0.7874, -1.4453 2.0669 0.7874, -0.5929 2.0567 0.7874, -0.5851 2.0623 0.7874, -0.5761 2.0658 0.7874, -0.5665 2.0669 0.7874, -0.6057 2.0314 0.7874, -1.4357 2.0658 0.7874, -1.4267 2.0623 0.7874, -1.4061 2.0314 0.7874, -0.5849 2.0618 2.4224, -0.5758 2.0648 2.3924, -0.5699 2.0668 2.3729, -0.5672 2.0669 2.3646, -0.5665 2.0669 2.3622, -0.5954 2.0526 2.4639, -0.5922 2.056 2.4505, -0.5874 2.0609 2.4309, -0.5988 2.0491 2.4779, -0.6006 2.0473 2.4851, -0.6035 2.0407 2.5032, -0.604 2.0394 2.5069, -0.6047 2.0313 2.5245, -1.4062 2.0314 2.5256, -1.409 2.0405 2.5024, -1.4062 2.032 2.5244, -1.4195 2.056 2.4507, -1.416 2.0531 2.464, -1.4141 2.0515 2.4714, -1.4126 2.0494 2.4783, -1.4112 2.0473 2.4851, -1.4269 2.0621 2.4224, -1.436 2.0648 2.3925, -1.4277 2.0628 2.4193, -1.4453 2.0669 2.3622, -1.4446 2.0669 2.3646, -0.4941 -1.5551 2.074, -0.4941 1.6732 2.074, -0.4941 -1.5551 1.1024, -0.4941 1.6732 1.1024, -1.5177 -1.5551 1.1024, -1.5177 1.6732 1.1024, -1.5177 -1.5551 2.074, -1.5177 1.6732 2.074, -0.2668 -1.9488 2.7559, -1.745 -1.9488 2.7559, -0.4941 -1.3189 -0.0, -0.4941 -1.3189 0.7874, -0.4941 1.1574 -0.0, -0.4941 1.437 0.7874, -0.4941 1.3567 -0.0, -0.4941 1.437 -0.0, -1.5177 1.437 0.7874, -1.5177 1.437 -0.0, -1.5177 -1.3189 0.7874, -1.5177 -1.3189 -0.0, -1.5177 1.1574 -0.0, -1.5177 1.3567 -0.0, -1.1634 0.7677 0.7874, -0.8484 0.7677 0.7874, -0.8484 1.0039 0.7874, -1.1634 1.0039 0.7874
            ]
        }
        coordIndex [
            0,1,2,-1,3,4,0,-1,0,4,5,-1,0,5,6,-1,6,5,7,-1,6,7,8,-1,2,9,0,-1,0,9,10,-1,0,10,3,-1,11,12,0,-1,0,12,1,-1,13,11,14,-1,14,11,15,-1,14,15,16,-1,13,17,11,-1,11,17,18,-1,11,18,19,-1,19,20,11,-1,11,20,21,-1,11,21,12,-1,22,23,7,-1,7,23,24,-1,25,26,27,-1,27,26,28,-1,28,29,27,-1,27,29,30,-1,27,30,31,-1,25,27,32,-1,32,27,33,-1,32,33,7,-1,7,33,34,-1,7,34,22,-1,16,8,14,-1,14,8,7,-1,14,7,35,-1,35,7,24,-1,28,36,29,-1,29,36,37,-1,29,37,30,-1,30,37,38,-1,30,38,31,-1,31,38,39,-1,31,39,40,-1,41,42,28,-1,28,42,43,-1,28,43,36,-1,41,28,44,-1,44,28,26,-1,44,26,45,-1,45,26,25,-1,45,25,46,-1,46,25,47,-1,47,25,32,-1,47,32,48,-1,48,32,7,-1,48,7,5,-1,14,35,13,-1,13,35,49,-1,24,50,35,-1,35,50,51,-1,35,51,49,-1,52,53,23,-1,53,54,23,-1,23,54,55,-1,23,55,24,-1,24,55,56,-1,24,56,50,-1,23,22,52,-1,52,22,34,-1,52,34,57,-1,33,58,34,-1,34,58,59,-1,34,59,57,-1,27,60,33,-1,33,60,61,-1,33,61,58,-1,62,63,64,-1,64,63,65,-1,66,67,68,-1,68,67,69,-1,70,71,62,-1,62,71,68,-1,63,62,0,-1,0,62,68,-1,0,68,11,-1,11,68,69,-1,72,73,74,-1,74,73,75,-1,74,75,76,-1,76,75,77,-1,75,78,77,-1,77,78,79,-1,78,80,81,-1,81,82,78,-1,78,82,83,-1,78,83,79,-1,80,73,81,-1,81,73,72,-1,84,80,78,-1,80,84,73,-1,73,84,85,-1,73,85,75,-1,75,85,86,-1,75,86,78,-1,78,86,87,-1,78,87,84,-1,63,0,65,-1,65,0,6,-1,67,15,69,-1,69,15,11,-1,
        ]
    }
}
Shape{
    appearance Appearance {
        material  Material {
            diffuseColor 1.0 1.0 1.0
            specularColor 0.5019607843137255 0.5019607843137255 0.5019607843137255
            ambientIntensity 1.0
            transparency 0.0
            shininess 0.5
        }
    }
    geometry IndexedFaceSet {
        ccw TRUE
        solid FALSE
        coord DEF co Coordinate {
            point [
                -1.1634 1.0039 0.2362, -0.8484 1.0039 0.2362, -0.8484 0.9959 0.1751, -1.1634 0.9959 0.1751, -0.8484 0.9723 0.1181, -1.1634 0.9723 0.1181, -0.8484 0.9348 0.0692, -1.1634 0.9348 0.0692, -0.8484 0.8858 0.0316, -1.1634 0.8858 0.0316, -0.8484 0.8289 0.008, -1.1634 0.8289 0.008, -0.8484 0.7677 -0.0, -1.1634 0.7677 -0.0, -1.1634 0.1378 -0.0, -0.8484 0.1378 -0.0, -0.9621 0.1378 -1.378, -1.0497 0.1378 -1.378, -0.8484 0.1378 -1.1811, -1.1634 0.1378 -1.1811, -0.9621 -0.0984 -1.378, -1.0497 -0.0984 -1.378, -0.8484 -0.0984 -0.0, -1.1634 -0.0984 -0.0, -0.8484 -0.0984 -1.1811, -1.1634 -0.0984 -1.1811, -0.8484 -0.0904 0.0611, -1.1634 -0.0904 0.0611, -0.8484 -0.0668 0.1181, -1.1634 -0.0668 0.1181, -0.8484 -0.0292 0.167, -1.1634 -0.0292 0.167, -0.8484 0.0197 0.2046, -1.1634 0.0197 0.2046, -0.8484 0.0767 0.2282, -1.1634 0.0767 0.2282, -0.8484 0.1378 0.2362, -1.1634 0.1378 0.2362, -1.1634 0.7677 0.2362, -0.8484 0.7677 0.2362, -1.1634 0.7677 0.7874, -1.1634 1.0039 0.7874, -0.8484 1.0039 0.7874, -0.8484 0.7677 0.7874, -1.3996 0.771 1.1024, -0.6122 0.771 1.1024, -0.6122 0.7865 1.1553, -1.3996 0.7865 1.1553, -0.6122 0.8138 1.2032, -1.3996 0.8138 1.2032, -0.6122 0.8515 1.2434, -1.3996 0.8515 1.2434, -0.6122 0.8974 1.2738, -1.3996 0.8974 1.2738, -0.6122 0.9492 1.2928, -1.3996 0.9492 1.2928, -0.6122 1.0039 1.2992, -1.3996 1.0039 1.2992, -1.3996 1.5945 1.2992, -0.6122 1.5945 1.2992, -0.6122 1.5874 1.2416, -1.3996 1.5874 1.2416, -0.6122 1.5664 1.1875, -1.3996 1.5664 1.1875, -0.6122 1.5329 1.1401, -1.3996 1.5329 1.1401, -0.6122 1.4888 1.1024, -1.3996 1.4888 1.1024, -0.6122 1.3583 1.2992, -1.3996 1.3583 1.2992, -0.6122 1.3583 1.758, -1.3996 1.3583 1.758, -0.6122 -0.7677 1.758, -1.3996 -0.7677 1.758, -0.6122 -0.7677 1.4037, -1.3996 -0.7677 1.4037, -0.6122 -1.0039 1.4037, -1.3996 -1.0039 1.4037, -0.6122 -1.0039 1.758, -1.3996 -1.0039 1.758, -0.6122 -0.9959 1.8192, -1.3996 -0.9959 1.8192, -0.6122 -0.9723 1.8761, -1.3996 -0.9723 1.8761, -0.6122 -0.9347 1.9251, -1.3996 -0.9347 1.9251, -0.6122 -0.8858 1.9626, -1.3996 -0.8858 1.9626, -0.6122 -0.8288 1.9862, -1.3996 -0.8288 1.9862, -0.6122 -0.7677 1.9942, -1.3996 -0.7677 1.9942, -0.6122 1.3583 1.9942, -1.3996 1.3583 1.9942, -0.6122 1.4194 1.9862, -1.3996 1.4194 1.9862, -0.6122 1.4764 1.9626, -1.3996 1.4764 1.9626, -0.6122 1.5253 1.9251, -1.3996 1.5253 1.9251, -0.6122 1.5628 1.8761, -1.3996 1.5628 1.8761, -0.6122 1.5864 1.8192, -1.3996 1.5864 1.8192, -0.6122 1.5945 1.758, -1.3996 1.5945 1.758
            ]
        }
        coordIndex [
            0,1,2,-1,0,2,3,-1,3,2,4,-1,3,4,5,-1,5,4,6,-1,5,6,7,-1,7,6,8,-1,7,8,9,-1,9,8,10,-1,9,10,11,-1,11,10,12,-1,11,12,13,-1,14,13,15,-1,15,13,12,-1,16,17,18,-1,18,17,19,-1,18,19,15,-1,15,19,14,-1,20,21,16,-1,16,21,17,-1,22,23,24,-1,24,23,25,-1,24,25,20,-1,20,25,21,-1,23,22,26,-1,23,26,27,-1,27,26,28,-1,27,28,29,-1,29,28,30,-1,29,30,31,-1,31,30,32,-1,31,32,33,-1,33,32,34,-1,33,34,35,-1,35,34,36,-1,35,36,37,-1,38,37,39,-1,39,37,36,-1,40,41,38,-1,38,41,0,-1,14,31,33,-1,19,25,14,-1,14,25,23,-1,0,3,38,-1,38,3,5,-1,38,5,7,-1,33,35,14,-1,14,35,37,-1,14,37,13,-1,13,37,38,-1,23,27,14,-1,14,27,29,-1,14,29,31,-1,7,9,38,-1,38,9,11,-1,38,11,13,-1,24,18,22,-1,22,18,15,-1,22,15,26,-1,26,15,28,-1,42,43,1,-1,1,43,39,-1,1,39,2,-1,2,39,4,-1,34,32,15,-1,15,32,30,-1,15,30,28,-1,39,12,10,-1,12,39,15,-1,15,39,36,-1,15,36,34,-1,10,8,39,-1,39,8,6,-1,39,6,4,-1,1,0,42,-1,42,0,41,-1,40,38,43,-1,43,38,39,-1,44,45,46,-1,44,46,47,-1,47,46,48,-1,47,48,49,-1,49,48,50,-1,49,50,51,-1,51,50,52,-1,51,52,53,-1,53,52,54,-1,53,54,55,-1,55,54,56,-1,55,56,57,-1,58,59,60,-1,58,60,61,-1,61,60,62,-1,61,62,63,-1,63,62,64,-1,63,64,65,-1,65,64,66,-1,65,66,67,-1,68,69,56,-1,56,69,57,-1,70,71,68,-1,68,71,69,-1,72,73,70,-1,70,73,71,-1,74,75,72,-1,72,75,73,-1,76,77,74,-1,74,77,75,-1,78,79,76,-1,76,79,77,-1,79,78,80,-1,79,80,81,-1,81,80,82,-1,81,82,83,-1,83,82,84,-1,83,84,85,-1,85,84,86,-1,85,86,87,-1,87,86,88,-1,87,88,89,-1,89,88,90,-1,89,90,91,-1,92,93,90,-1,90,93,91,-1,93,92,94,-1,93,94,95,-1,95,94,96,-1,95,96,97,-1,97,96,98,-1,97,98,99,-1,99,98,100,-1,99,100,101,-1,101,100,102,-1,101,102,103,-1,103,102,104,-1,103,104,105,-1,59,58,104,-1,104,58,105,-1,76,74,78,-1,78,74,72,-1,78,72,80,-1,80,72,82,-1,88,86,72,-1,72,86,84,-1,72,84,82,-1,96,94,70,-1,70,94,92,-1,70,92,72,-1,72,92,90,-1,72,90,88,-1,54,52,50,-1,102,100,70,-1,70,100,98,-1,70,98,96,-1,46,45,56,-1,56,45,66,-1,56,66,68,-1,68,66,64,-1,68,64,62,-1,62,60,68,-1,68,60,59,-1,68,59,70,-1,70,59,104,-1,70,104,102,-1,54,50,56,-1,56,50,48,-1,56,48,46,-1,55,57,44,-1,47,49,51,-1,61,63,69,-1,69,63,65,-1,69,65,57,-1,57,65,67,-1,57,67,44,-1,47,51,44,-1,44,51,53,-1,44,53,55,-1,75,77,73,-1,73,77,79,-1,73,79,81,-1,101,103,71,-1,71,103,105,-1,71,105,69,-1,69,105,58,-1,69,58,61,-1,87,89,73,-1,73,89,91,-1,73,91,71,-1,71,91,93,-1,71,93,95,-1,81,83,73,-1,73,83,85,-1,73,85,87,-1,95,97,71,-1,71,97,99,-1,71,99,101,-1,16,18,20,-1,20,18,24,-1,19,17,25,-1,25,17,21,-1,
        ]
    }
}
Shape{
    appearance Appearance {
        material  Material {
            diffuseColor 0.7529411764705882 1.0 0.7529411764705882
            specularColor 0.3764705882352941 0.5019607843137255 0.3764705882352941
            ambientIntensity 0.898
            transparency 0.0
            shininess 0.5
        }
    }
    geometry IndexedFaceSet {
        ccw TRUE
        solid FALSE
        coord DEF co Coordinate {
            point [
                -0.4941 -1.5551 1.1024, -0.2668 -1.9488 0.8751, -0.4941 -1.5551 2.074, -0.2668 -1.9488 2.7559, -1.5177 -1.5551 1.1024, -1.745 -1.9488 0.8751, -1.745 -1.9488 2.7559, -1.5177 -1.5551 2.074, 0.255 -1.9488 0.8751, 0.4823 -1.5551 1.1024, 0.255 -1.9488 2.7559, 0.4823 -1.5551 2.074, 1.7332 -1.9488 0.8751, 1.5059 -1.5551 1.1024, 1.7332 -1.9488 2.7559, 1.5059 -1.5551 2.074, -2.1438 1.7064 1.5748, -2.0059 1.6339 1.5748, -2.1438 1.7064 -0.0, -2.0059 1.6339 -0.0, -2.1579 1.7117 -0.0, -2.1579 1.7117 1.5748, -2.173 1.7132 -0.0, -2.173 1.7132 1.5748, -2.1879 1.7108 -0.0, -2.1879 1.7108 1.5748, -2.2018 1.7047 -0.0, -2.2018 1.7047 1.5748, -2.2136 1.6953 -0.0, -2.2136 1.6953 1.5748, -2.2227 1.6832 -0.0, -2.2227 1.6832 1.5748, -2.2284 1.6692 -0.0, -2.2284 1.6692 1.5748, -2.2303 1.6542 -0.0, -2.2303 1.6542 1.5748, -2.2303 1.5348 1.5748, -2.2303 1.5348 -0.0, -2.2284 1.5198 -0.0, -2.2284 1.5198 1.5748, -2.2227 1.5058 -0.0, -2.2227 1.5058 1.5748, -2.2136 1.4937 -0.0, -2.2136 1.4937 1.5748, -2.2018 1.4843 -0.0, -2.2018 1.4843 1.5748, -2.1879 1.4782 -0.0, -2.1879 1.4782 1.5748, -2.173 1.4758 -0.0, -2.173 1.4758 1.5748, -2.1579 1.4773 -0.0, -2.1579 1.4773 1.5748, -2.1438 1.4826 -0.0, -2.1438 1.4826 1.5748, -2.0059 1.5551 1.5748, -2.0059 1.5551 -0.0, -2.2303 -1.536 1.5748, -2.2303 -1.536 -0.0, -2.2284 -1.551 -0.0, -2.2284 -1.551 1.5748, -2.2227 -1.5651 -0.0, -2.2227 -1.5651 1.5748, -2.2136 -1.5772 -0.0, -2.2136 -1.5772 1.5748, -2.2018 -1.5866 -0.0, -2.2018 -1.5866 1.5748, -2.1879 -1.5927 -0.0, -2.1879 -1.5927 1.5748, -2.173 -1.5951 -0.0, -2.173 -1.5951 1.5748, -2.1579 -1.5936 -0.0, -2.1579 -1.5936 1.5748, -2.1438 -1.5883 -0.0, -2.1438 -1.5883 1.5748, -2.0059 -1.5157 1.5748, -2.0059 -1.5157 -0.0, -2.1438 -1.3645 1.5748, -2.0059 -1.437 1.5748, -2.1438 -1.3645 -0.0, -2.0059 -1.437 -0.0, -2.1579 -1.3592 -0.0, -2.1579 -1.3592 1.5748, -2.173 -1.3577 -0.0, -2.173 -1.3577 1.5748, -2.1879 -1.3601 -0.0, -2.1879 -1.3601 1.5748, -2.2018 -1.3662 -0.0, -2.2018 -1.3662 1.5748, -2.2136 -1.3756 -0.0, -2.2136 -1.3756 1.5748, -2.2227 -1.3877 -0.0, -2.2227 -1.3877 1.5748, -2.2284 -1.4017 -0.0, -2.2284 -1.4017 1.5748, -2.2303 -1.4167 -0.0, -2.2303 -1.4167 1.5748, 1.9941 1.6339 1.5748, 1.8562 1.7064 1.5748, 1.9941 1.6339 -0.0, 1.8562 1.7064 -0.0, 1.7697 1.6542 1.5748, 1.7697 1.6542 -0.0, 1.7716 1.6692 1.5748, 1.7716 1.6692 -0.0, 1.7773 1.6832 1.5748, 1.7773 1.6832 -0.0, 1.7864 1.6953 1.5748, 1.7864 1.6953 -0.0, 1.7982 1.7047 1.5748, 1.7982 1.7047 -0.0, 1.8121 1.7108 1.5748, 1.8121 1.7108 -0.0, 1.827 1.7132 1.5748, 1.827 1.7132 -0.0, 1.8421 1.7117 1.5748, 1.8421 1.7117 -0.0, 1.7697 1.5348 1.5748, 1.7697 1.5348 -0.0, 1.8562 1.4826 1.5748, 1.8562 1.4826 -0.0, 1.8421 1.4773 1.5748, 1.8421 1.4773 -0.0, 1.827 1.4758 1.5748, 1.827 1.4758 -0.0, 1.8121 1.4782 1.5748, 1.8121 1.4782 -0.0, 1.7982 1.4843 1.5748, 1.7982 1.4843 -0.0, 1.7864 1.4937 1.5748, 1.7864 1.4937 -0.0, 1.7773 1.5058 1.5748, 1.7773 1.5058 -0.0, 1.7716 1.5198 1.5748, 1.7716 1.5198 -0.0, 1.9941 1.5551 1.5748, 1.9941 1.5551 -0.0, 1.9941 -1.437 1.5748, 1.8562 -1.3645 1.5748, 1.9941 -1.437 -0.0, 1.8562 -1.3645 -0.0, 1.7697 -1.4167 1.5748, 1.7697 -1.4167 -0.0, 1.7716 -1.4017 1.5748, 1.7716 -1.4017 -0.0, 1.7773 -1.3877 1.5748, 1.7773 -1.3877 -0.0, 1.7864 -1.3756 1.5748, 1.7864 -1.3756 -0.0, 1.7982 -1.3662 1.5748, 1.7982 -1.3662 -0.0, 1.8121 -1.3601 1.5748, 1.8121 -1.3601 -0.0, 1.827 -1.3577 1.5748, 1.827 -1.3577 -0.0, 1.8421 -1.3592 1.5748, 1.8421 -1.3592 -0.0, 1.7697 -1.536 1.5748, 1.7697 -1.536 -0.0, 1.8562 -1.5883 1.5748, 1.8562 -1.5883 -0.0, 1.8421 -1.5936 1.5748, 1.8421 -1.5936 -0.0, 1.827 -1.5951 1.5748, 1.827 -1.5951 -0.0, 1.8121 -1.5927 1.5748, 1.8121 -1.5927 -0.0, 1.7982 -1.5866 1.5748, 1.7982 -1.5866 -0.0, 1.7864 -1.5772 1.5748, 1.7864 -1.5772 -0.0, 1.7773 -1.5651 1.5748, 1.7773 -1.5651 -0.0, 1.7716 -1.551 1.5748, 1.7716 -1.551 -0.0, 1.9941 -1.5157 1.5748, 1.9941 -1.5157 -0.0
            ]
        }
        coordIndex [
            0,1,2,-1,2,1,3,-1,4,5,0,-1,0,5,1,-1,5,4,6,-1,6,4,7,-1,8,9,10,-1,10,9,11,-1,12,13,8,-1,8,13,9,-1,14,15,12,-1,12,15,13,-1,16,17,18,-1,18,17,19,-1,16,18,20,-1,16,20,21,-1,21,20,22,-1,21,22,23,-1,23,22,24,-1,23,24,25,-1,25,24,26,-1,25,26,27,-1,27,26,28,-1,27,28,29,-1,29,28,30,-1,29,30,31,-1,31,30,32,-1,31,32,33,-1,33,32,34,-1,33,34,35,-1,36,35,37,-1,37,35,34,-1,36,37,38,-1,36,38,39,-1,39,38,40,-1,39,40,41,-1,41,40,42,-1,41,42,43,-1,43,42,44,-1,43,44,45,-1,45,44,46,-1,45,46,47,-1,47,46,48,-1,47,48,49,-1,49,48,50,-1,49,50,51,-1,51,50,52,-1,51,52,53,-1,54,53,55,-1,55,53,52,-1,25,27,29,-1,47,49,51,-1,39,53,36,-1,36,53,54,-1,36,54,35,-1,25,29,23,-1,54,17,35,-1,35,17,16,-1,35,16,33,-1,33,16,31,-1,39,41,53,-1,53,41,43,-1,53,43,51,-1,51,43,45,-1,51,45,47,-1,31,16,29,-1,29,16,21,-1,29,21,23,-1,56,57,58,-1,56,58,59,-1,59,58,60,-1,59,60,61,-1,61,60,62,-1,61,62,63,-1,63,62,64,-1,63,64,65,-1,65,64,66,-1,65,66,67,-1,67,66,68,-1,67,68,69,-1,69,68,70,-1,69,70,71,-1,71,70,72,-1,71,72,73,-1,74,73,75,-1,75,73,72,-1,76,77,78,-1,78,77,79,-1,76,78,80,-1,76,80,81,-1,81,80,82,-1,81,82,83,-1,83,82,84,-1,83,84,85,-1,85,84,86,-1,85,86,87,-1,87,86,88,-1,87,88,89,-1,89,88,90,-1,89,90,91,-1,91,90,92,-1,91,92,93,-1,93,92,94,-1,93,94,95,-1,56,95,57,-1,57,95,94,-1,56,74,95,-1,95,74,77,-1,63,65,67,-1,81,83,85,-1,59,71,56,-1,56,71,73,-1,56,73,74,-1,59,61,71,-1,71,61,63,-1,71,63,69,-1,69,63,67,-1,85,87,81,-1,81,87,89,-1,81,89,91,-1,77,76,95,-1,95,76,81,-1,95,81,93,-1,93,81,91,-1,96,97,98,-1,98,97,99,-1,100,101,102,-1,102,101,103,-1,102,103,104,-1,104,103,105,-1,104,105,106,-1,106,105,107,-1,106,107,108,-1,108,107,109,-1,108,109,110,-1,110,109,111,-1,110,111,112,-1,112,111,113,-1,112,113,114,-1,114,113,115,-1,114,115,97,-1,97,115,99,-1,100,116,101,-1,101,116,117,-1,118,119,120,-1,120,119,121,-1,120,121,122,-1,122,121,123,-1,122,123,124,-1,124,123,125,-1,124,125,126,-1,126,125,127,-1,126,127,128,-1,128,127,129,-1,128,129,130,-1,130,129,131,-1,130,131,132,-1,132,131,133,-1,132,133,116,-1,116,133,117,-1,118,134,119,-1,119,134,135,-1,110,112,100,-1,112,114,100,-1,100,114,97,-1,100,97,96,-1,96,134,100,-1,100,134,118,-1,100,118,116,-1,116,118,120,-1,116,120,122,-1,100,102,104,-1,104,106,100,-1,100,106,108,-1,100,108,110,-1,128,122,126,-1,126,122,124,-1,128,130,122,-1,122,130,132,-1,122,132,116,-1,136,137,138,-1,138,137,139,-1,140,141,142,-1,142,141,143,-1,142,143,144,-1,144,143,145,-1,144,145,146,-1,146,145,147,-1,146,147,148,-1,148,147,149,-1,148,149,150,-1,150,149,151,-1,150,151,152,-1,152,151,153,-1,152,153,154,-1,154,153,155,-1,154,155,137,-1,137,155,139,-1,140,156,141,-1,141,156,157,-1,158,159,160,-1,160,159,161,-1,160,161,162,-1,162,161,163,-1,162,163,164,-1,164,163,165,-1,164,165,166,-1,166,165,167,-1,166,167,168,-1,168,167,169,-1,168,169,170,-1,170,169,171,-1,170,171,172,-1,172,171,173,-1,172,173,156,-1,156,173,157,-1,158,174,159,-1,159,174,175,-1,140,137,156,-1,156,137,172,-1,140,142,137,-1,137,142,144,-1,137,144,146,-1,136,174,137,-1,137,174,158,-1,137,158,160,-1,166,168,137,-1,137,168,170,-1,137,170,172,-1,146,148,137,-1,137,148,150,-1,137,150,154,-1,154,150,152,-1,160,162,137,-1,137,162,164,-1,137,164,166,-1,
        ]
    }
}
Shape{
    appearance Appearance {
        material  Material {
            diffuseColor 0.0 0.0 0.0
            specularColor 0.0 0.0 0.0
            ambientIntensity 0.0
            transparency 0.0
            shininess 0.5
        }
    }
    geometry IndexedFaceSet {
        ccw TRUE
        solid FALSE
        coord DEF co Coordinate {
            point [
                -0.3755 1.3555 0.0004, -0.4523 1.1586 0.0004, -0.3755 1.3555 -0.0, -0.4523 1.1586 -0.0, -0.4235 1.1586 0.0004, -0.4235 1.1586 -0.0, -0.4036 1.2138 0.0004, -0.4036 1.2138 -0.0, -0.3223 1.2138 0.0004, -0.3223 1.2138 -0.0, -0.3035 1.1586 0.0004, -0.3035 1.1586 -0.0, -0.2747 1.1586 0.0004, -0.2747 1.1586 -0.0, -0.3491 1.3555 0.0004, -0.3491 1.3555 -0.0, -0.3289 1.2354 0.0004, -0.3947 1.2354 0.0004, -0.3583 1.3177 0.0004, -0.3602 1.3245 0.0004, -0.3614 1.3315 0.0004, -0.3621 1.3315 0.0004, -0.3634 1.3245 0.0004, -0.3651 1.3177 0.0004, -0.3289 1.2354 -0.0, -0.3947 1.2354 -0.0, -0.3583 1.3177 -0.0, -0.3602 1.3245 -0.0, -0.3614 1.3315 -0.0, -0.3621 1.3315 -0.0, -0.3634 1.3245 -0.0, -0.3651 1.3177 -0.0, -0.1554 1.1586 0.0004, -0.1018 1.1586 0.0004, -0.1554 1.1586 -0.0, -0.1018 1.1586 -0.0, -0.1018 1.3555 0.0004, -0.1018 1.3555 -0.0, -0.1574 1.3555 0.0004, -0.1574 1.3555 -0.0, -0.2603 1.2595 0.0004, -0.2603 1.2595 -0.0, -0.2588 1.278 -0.0, -0.2588 1.278 0.0004, -0.2536 1.2974 -0.0, -0.2536 1.2974 0.0004, -0.2444 1.3144 -0.0, -0.2444 1.3144 0.0004, -0.2305 1.3298 -0.0, -0.2305 1.3298 0.0004, -0.2303 1.33 -0.0, -0.2303 1.33 0.0004, -0.2089 1.3443 -0.0, -0.2089 1.3443 0.0004, -0.1858 1.3524 -0.0, -0.1858 1.3524 0.0004, -0.1797 1.1607 -0.0, -0.1797 1.1607 0.0004, -0.2024 1.1675 -0.0, -0.2024 1.1675 0.0004, -0.223 1.1795 -0.0, -0.223 1.1795 0.0004, -0.2392 1.195 -0.0, -0.2392 1.195 0.0004, -0.2504 1.2126 -0.0, -0.2504 1.2126 0.0004, -0.2575 1.2332 -0.0, -0.2575 1.2332 0.0004, -0.2208 1.3063 0.0004, -0.2112 1.3164 0.0004, -0.1968 1.3257 0.0004, -0.1806 1.3314 0.0004, -0.1573 1.3339 0.0004, -0.1282 1.3339 0.0004, -0.1282 1.1802 0.0004, -0.1562 1.1802 0.0004, -0.177 1.1822 0.0004, -0.1935 1.1873 0.0004, -0.2069 1.1953 0.0004, -0.218 1.2062 0.0004, -0.2263 1.2198 0.0004, -0.2321 1.2383 0.0004, -0.2339 1.259 0.0004, -0.2322 1.2786 0.0004, -0.2276 1.2941 0.0004, -0.1573 1.3339 -0.0, -0.1282 1.3339 -0.0, -0.1806 1.3314 -0.0, -0.1968 1.3257 -0.0, -0.2112 1.3164 -0.0, -0.2208 1.3063 -0.0, -0.2276 1.2941 -0.0, -0.2322 1.2786 -0.0, -0.2339 1.259 -0.0, -0.2321 1.2383 -0.0, -0.2263 1.2198 -0.0, -0.218 1.2062 -0.0, -0.2069 1.1953 -0.0, -0.1935 1.1873 -0.0, -0.177 1.1822 -0.0, -0.1562 1.1802 -0.0, -0.1282 1.1802 -0.0, -0.0634 1.1802 0.0004, -0.0634 1.1586 0.0004, -0.0634 1.1802 -0.0, -0.0634 1.1586 -0.0, 0.0422 1.1586 0.0004, 0.0422 1.1586 -0.0, 0.0422 1.3555 0.0004, 0.0422 1.3555 -0.0, -0.0586 1.3555 0.0004, -0.0586 1.3555 -0.0, -0.0586 1.3339 0.0004, -0.0586 1.3339 -0.0, 0.0158 1.3339 0.0004, 0.0158 1.3339 -0.0, 0.0158 1.269 0.0004, 0.0158 1.269 -0.0, -0.0538 1.269 0.0004, -0.0538 1.269 -0.0, -0.0538 1.2474 0.0004, -0.0538 1.2474 -0.0, 0.0158 1.2474 0.0004, 0.0158 1.2474 -0.0, 0.0158 1.1802 0.0004, 0.0158 1.1802 -0.0, 0.0806 1.1904 0.0004, 0.0806 1.1688 0.0004, 0.0806 1.1904 -0.0, 0.0806 1.1688 -0.0, 0.1016 1.1602 0.0004, 0.1348 1.1562 0.0004, 0.1348 1.1562 -0.0, 0.1294 1.1563 -0.0, 0.1294 1.1563 0.0004, 0.1215 1.1574 -0.0, 0.1016 1.1602 -0.0, 0.1464 1.1574 -0.0, 0.159 1.1587 0.0004, 0.159 1.1587 -0.0, 0.1781 1.1653 0.0004, 0.1781 1.1653 -0.0, 0.1939 1.1754 0.0004, 0.1939 1.1754 -0.0, 0.2087 1.191 0.0004, 0.2087 1.191 -0.0, 0.2192 1.2097 0.0004, 0.2192 1.2097 -0.0, 0.2251 1.2305 0.0004, 0.2251 1.2305 -0.0, 0.227 1.2533 0.0004, 0.227 1.2533 -0.0, 0.1467 1.3563 0.0004, 0.1269 1.3579 0.0004, 0.1416 1.3567 -0.0, 0.1269 1.3579 -0.0, 0.1467 1.3563 -0.0, 0.1687 1.3499 -0.0, 0.1687 1.3499 0.0004, 0.1874 1.3391 -0.0, 0.1874 1.3391 0.0004, 0.2051 1.322 -0.0, 0.2051 1.322 0.0004, 0.2167 1.3036 -0.0, 0.2167 1.3036 0.0004, 0.2242 1.2813 -0.0, 0.2242 1.2813 0.0004, 0.1095 1.3567 -0.0, 0.1034 1.3562 0.0004, 0.1034 1.3562 -0.0, 0.0806 1.3501 0.0004, 0.0806 1.3501 -0.0, 0.0806 1.3237 0.0004, 0.0806 1.3237 -0.0, 0.1267 1.3363 0.0004, 0.1267 1.3363 -0.0, 0.1028 1.3332 -0.0, 0.1028 1.3332 0.0004, 0.2006 1.2549 0.0004, 0.2006 1.2549 -0.0, 0.1997 1.2703 -0.0, 0.1997 1.2703 0.0004, 0.1945 1.2913 -0.0, 0.1945 1.2913 0.0004, 0.1863 1.3065 -0.0, 0.1863 1.3065 0.0004, 0.1745 1.3197 -0.0, 0.1745 1.3197 0.0004, 0.1608 1.3288 -0.0, 0.1608 1.3288 0.0004, 0.1461 1.3341 -0.0, 0.1461 1.3341 0.0004, 0.1311 1.1778 0.0004, 0.1311 1.1778 -0.0, 0.1495 1.1799 -0.0, 0.1495 1.1799 0.0004, 0.1638 1.1852 -0.0, 0.1638 1.1852 0.0004, 0.1759 1.1933 -0.0, 0.1759 1.1933 0.0004, 0.1852 1.2031 -0.0, 0.1852 1.2031 0.0004, 0.1933 1.2167 -0.0, 0.1933 1.2167 0.0004, 0.1986 1.2336 -0.0, 0.1986 1.2336 0.0004, 0.0841 1.1885 -0.0, 0.0841 1.1885 0.0004, 0.105 1.1807 -0.0, 0.105 1.1807 0.0004, 0.2439 1.1802 0.0004, 0.2439 1.1586 0.0004, 0.2439 1.1802 -0.0, 0.2439 1.1586 -0.0, 0.3447 1.1586 0.0004, 0.3447 1.1586 -0.0, 0.3447 1.3555 0.0004, 0.3447 1.3555 -0.0, 0.3183 1.3555 0.0004, 0.3183 1.3555 -0.0, 0.3183 1.1802 0.0004, 0.3183 1.1802 -0.0
            ]
        }
        coordIndex [
            0,1,2,-1,2,1,3,-1,1,4,3,-1,3,4,5,-1,4,6,5,-1,5,6,7,-1,6,8,7,-1,7,8,9,-1,8,10,9,-1,9,10,11,-1,10,12,11,-1,11,12,13,-1,12,14,13,-1,13,14,15,-1,14,0,15,-1,15,0,2,-1,16,8,17,-1,17,8,6,-1,18,14,16,-1,16,14,12,-1,16,12,8,-1,8,12,10,-1,18,19,14,-1,14,19,20,-1,14,20,0,-1,0,20,21,-1,0,21,22,-1,22,23,0,-1,0,23,17,-1,0,17,1,-1,1,17,6,-1,1,6,4,-1,16,17,24,-1,24,17,25,-1,18,16,26,-1,26,16,24,-1,18,26,27,-1,18,27,19,-1,19,27,28,-1,19,28,20,-1,21,20,29,-1,29,20,28,-1,21,29,30,-1,21,30,22,-1,22,30,31,-1,22,31,23,-1,17,23,25,-1,25,23,31,-1,32,33,34,-1,34,33,35,-1,33,36,35,-1,35,36,37,-1,36,38,37,-1,37,38,39,-1,40,41,42,-1,40,42,43,-1,43,42,44,-1,43,44,45,-1,45,44,46,-1,45,46,47,-1,47,46,48,-1,47,48,49,-1,49,48,50,-1,49,50,51,-1,51,50,52,-1,51,52,53,-1,53,52,54,-1,53,54,55,-1,55,54,39,-1,55,39,38,-1,32,34,56,-1,32,56,57,-1,57,56,58,-1,57,58,59,-1,59,58,60,-1,59,60,61,-1,61,60,62,-1,61,62,63,-1,63,62,64,-1,63,64,65,-1,65,64,66,-1,65,66,67,-1,67,66,41,-1,67,41,40,-1,45,47,68,-1,68,47,49,-1,68,49,69,-1,69,49,51,-1,69,51,70,-1,70,51,53,-1,70,53,71,-1,71,53,55,-1,71,55,72,-1,72,55,38,-1,72,38,73,-1,73,38,36,-1,73,36,74,-1,74,36,33,-1,74,33,75,-1,75,33,32,-1,75,32,76,-1,76,32,57,-1,76,57,77,-1,77,57,59,-1,77,59,78,-1,78,59,61,-1,78,61,79,-1,79,61,63,-1,79,63,80,-1,80,63,65,-1,80,65,81,-1,81,65,67,-1,81,67,82,-1,82,67,40,-1,82,40,83,-1,83,40,43,-1,83,43,84,-1,84,43,45,-1,84,45,68,-1,72,73,85,-1,85,73,86,-1,72,85,87,-1,72,87,71,-1,71,87,88,-1,71,88,70,-1,70,88,89,-1,70,89,69,-1,69,89,90,-1,69,90,68,-1,68,90,91,-1,68,91,84,-1,84,91,92,-1,84,92,83,-1,83,92,93,-1,83,93,82,-1,82,93,94,-1,82,94,81,-1,81,94,95,-1,81,95,80,-1,80,95,96,-1,80,96,79,-1,79,96,97,-1,79,97,78,-1,78,97,98,-1,78,98,77,-1,77,98,99,-1,77,99,76,-1,76,99,100,-1,76,100,75,-1,74,75,101,-1,101,75,100,-1,73,74,86,-1,86,74,101,-1,102,103,104,-1,104,103,105,-1,103,106,105,-1,105,106,107,-1,106,108,107,-1,107,108,109,-1,108,110,109,-1,109,110,111,-1,110,112,111,-1,111,112,113,-1,112,114,113,-1,113,114,115,-1,114,116,115,-1,115,116,117,-1,116,118,117,-1,117,118,119,-1,118,120,119,-1,119,120,121,-1,120,122,121,-1,121,122,123,-1,122,124,123,-1,123,124,125,-1,124,102,125,-1,125,102,104,-1,106,103,102,-1,102,124,106,-1,106,124,122,-1,106,122,108,-1,112,110,114,-1,114,110,108,-1,114,108,116,-1,116,108,122,-1,116,122,118,-1,118,122,120,-1,126,127,128,-1,128,127,129,-1,129,127,130,-1,131,132,133,-1,131,133,134,-1,134,133,135,-1,134,135,130,-1,130,135,136,-1,130,136,129,-1,132,131,137,-1,137,131,138,-1,137,138,139,-1,139,138,140,-1,139,140,141,-1,141,140,142,-1,141,142,143,-1,143,142,144,-1,143,144,145,-1,145,144,146,-1,145,146,147,-1,147,146,148,-1,147,148,149,-1,149,148,150,-1,149,150,151,-1,152,153,154,-1,154,153,155,-1,154,156,152,-1,152,156,157,-1,152,157,158,-1,158,157,159,-1,158,159,160,-1,160,159,161,-1,160,161,162,-1,162,161,163,-1,162,163,164,-1,164,163,165,-1,164,165,166,-1,166,165,151,-1,166,151,150,-1,155,153,167,-1,167,153,168,-1,167,168,169,-1,169,168,170,-1,169,170,171,-1,170,172,171,-1,171,172,173,-1,174,175,176,-1,174,176,177,-1,177,176,173,-1,177,173,172,-1,178,179,180,-1,178,180,181,-1,181,180,182,-1,181,182,183,-1,183,182,184,-1,183,184,185,-1,185,184,186,-1,185,186,187,-1,187,186,188,-1,187,188,189,-1,189,188,190,-1,189,190,191,-1,191,190,175,-1,191,175,174,-1,192,193,194,-1,192,194,195,-1,195,194,196,-1,195,196,197,-1,197,196,198,-1,197,198,199,-1,199,198,200,-1,199,200,201,-1,201,200,202,-1,201,202,203,-1,203,202,204,-1,203,204,205,-1,205,204,179,-1,205,179,178,-1,126,128,206,-1,126,206,207,-1,207,206,208,-1,207,208,209,-1,209,208,193,-1,209,193,192,-1,195,131,192,-1,192,131,134,-1,192,134,209,-1,209,134,130,-1,209,130,207,-1,207,130,127,-1,207,127,126,-1,172,170,177,-1,177,170,168,-1,177,168,174,-1,174,168,153,-1,174,153,191,-1,191,153,152,-1,191,152,189,-1,189,152,158,-1,189,158,187,-1,187,158,160,-1,187,160,185,-1,185,160,162,-1,185,162,183,-1,183,162,164,-1,183,164,181,-1,181,164,166,-1,181,166,178,-1,178,166,150,-1,178,150,205,-1,205,150,148,-1,205,148,203,-1,203,148,146,-1,203,146,201,-1,201,146,144,-1,201,144,199,-1,199,144,142,-1,199,142,197,-1,197,142,140,-1,197,140,195,-1,195,140,138,-1,195,138,131,-1,210,211,212,-1,212,211,213,-1,211,214,213,-1,213,214,215,-1,214,216,215,-1,215,216,217,-1,216,218,217,-1,217,218,219,-1,218,220,219,-1,219,220,221,-1,220,210,221,-1,221,210,212,-1,218,216,220,-1,220,216,214,-1,220,214,210,-1,210,214,211,-1,
        ]
    }
}
Shape{
    appearance Appearance {
        material  Material {
            diffuseColor 0.7529411764705882 1.0 0.7529411764705882
            specularColor 0.3764705882352941 0.5019607843137255 0.3764705882352941
            ambientIntensity 0.898
            transparency 0.0
            shininess 0.5
        }
    }
    geometry IndexedFaceSet {
        ccw TRUE
        solid FALSE
        coord DEF co Coordinate {
            point [
                -0.3289 1.2354 -0.0, -0.3947 1.2354 -0.0, -0.3583 1.3177 -0.0, -0.3651 1.3177 -0.0, -0.3602 1.3245 -0.0, -0.3634 1.3245 -0.0, -0.3614 1.3315 -0.0, -0.3621 1.3315 -0.0, -0.1282 1.3339 -0.0, -0.1282 1.1802 -0.0, -0.1573 1.3339 -0.0, -0.1562 1.1802 -0.0, -0.177 1.1822 -0.0, -0.2339 1.259 -0.0, -0.2322 1.2786 -0.0, -0.2276 1.2941 -0.0, -0.1806 1.3314 -0.0, -0.1935 1.1873 -0.0, -0.2069 1.1953 -0.0, -0.218 1.2062 -0.0, -0.2263 1.2198 -0.0, -0.2321 1.2383 -0.0, -0.2208 1.3063 -0.0, -0.2112 1.3164 -0.0, -0.1968 1.3257 -0.0, -1.4195 2.056 2.4507, -1.4269 2.0621 2.4224, -2.0059 2.0535 2.4641, -1.4277 2.0628 2.4193, -1.4453 2.0669 2.3622, -2.0059 2.0669 2.3622, -1.4446 2.0669 2.3646, -1.436 2.0648 2.3925, -1.4062 2.0314 2.5256, -2.0059 2.0142 2.5591, -1.4064 2.0217 2.5454, -1.4075 2.0142 2.5591, -1.4062 2.032 2.5244, -1.409 2.0405 2.5024, -1.4112 2.0473 2.4851, -1.4126 2.0494 2.4783, -1.4141 2.0515 2.4714, -1.416 2.0531 2.464, -1.4118 1.9856 2.6019, -2.0059 1.9516 2.6406, -1.4169 1.9516 2.6406, -2.0059 1.8701 2.7032, -1.4291 1.8701 2.7032, -2.0059 1.7751 2.7425, -1.4434 1.7751 2.7425, -2.0059 1.6732 2.7559, -1.4587 1.6732 2.7559, 1.9941 2.0142 2.5591, 1.9941 2.0535 2.4641, 1.4046 2.0526 2.4639, 1.4012 2.0491 2.4779, 1.3994 2.0473 2.4851, 1.3965 2.0407 2.5032, 1.396 2.0394 2.5069, 1.3953 2.0313 2.5245, 1.3946 2.0217 2.5454, 1.9941 2.0669 2.3622, 1.4335 2.0669 2.3622, 1.4328 2.0669 2.3646, 1.4301 2.0668 2.3729, 1.4242 2.0648 2.3924, 1.4151 2.0618 2.4224, 1.4126 2.0609 2.4309, 1.4078 2.056 2.4505, 1.9941 1.9516 2.6406, 1.4173 1.8701 2.7032, 1.9941 1.8701 2.7032, 1.4316 1.7751 2.7425, 1.9941 1.7751 2.7425, 1.4469 1.6732 2.7559, 1.9941 1.6732 2.7559, 1.3958 2.0133 2.5585, 1.4 1.9856 2.6019, 1.4051 1.9516 2.6406, 0.5888 2.0473 2.4851, -0.5988 2.0491 2.4779, 0.591 2.0405 2.5024, -0.6006 2.0473 2.4851, -0.6035 2.0407 2.5032, 0.5938 2.0314 2.5256, 0.5938 2.032 2.5244, -0.6047 2.0313 2.5245, -0.604 2.0394 2.5069, 0.5805 2.056 2.4507, 0.5731 2.0621 2.4224, -0.5758 2.0648 2.3924, 0.5723 2.0628 2.4193, 0.564 2.0648 2.3925, 0.5547 2.0669 2.3622, -0.5665 2.0669 2.3622, 0.5554 2.0669 2.3646, -0.5672 2.0669 2.3646, -0.5699 2.0668 2.3729, 0.5874 2.0494 2.4783, 0.5859 2.0515 2.4714, -0.5954 2.0526 2.4639, 0.584 2.0531 2.464, -0.5922 2.056 2.4505, -0.5874 2.0609 2.4309, -0.5849 2.0618 2.4224, 0.5936 2.0217 2.5454, -0.6054 2.0217 2.5454, 0.5925 2.0142 2.5591, -0.6042 2.0133 2.5585, 0.5882 1.9856 2.6019, -0.6 1.9856 2.6019, 0.5831 1.9516 2.6406, -0.5949 1.9516 2.6406, -0.5827 1.8701 2.7032, 0.5709 1.8701 2.7032, -0.5684 1.7751 2.7425, 0.5566 1.7751 2.7425, -0.5531 1.6732 2.7559, 0.5413 1.6732 2.7559
            ]
        }
        coordIndex [
            0,1,2,-1,2,1,3,-1,2,3,4,-1,4,3,5,-1,4,5,6,-1,6,5,7,-1,8,9,10,-1,10,9,11,-1,10,11,12,-1,13,14,10,-1,10,14,15,-1,10,15,16,-1,12,17,10,-1,10,17,18,-1,10,18,19,-1,19,20,10,-1,10,20,21,-1,10,21,13,-1,22,23,15,-1,15,23,24,-1,15,24,16,-1,25,26,27,-1,27,26,28,-1,29,30,31,-1,31,30,27,-1,31,27,32,-1,32,27,28,-1,33,34,35,-1,35,34,36,-1,33,37,34,-1,34,37,38,-1,34,38,39,-1,39,40,34,-1,34,40,41,-1,34,41,27,-1,27,41,42,-1,27,42,25,-1,36,34,43,-1,43,34,44,-1,43,44,45,-1,45,44,46,-1,45,46,47,-1,47,46,48,-1,47,48,49,-1,49,48,50,-1,49,50,51,-1,52,53,54,-1,54,55,52,-1,52,55,56,-1,52,56,57,-1,57,58,52,-1,52,58,59,-1,52,59,60,-1,61,62,53,-1,53,62,63,-1,63,64,53,-1,53,64,65,-1,53,65,66,-1,66,67,53,-1,53,67,68,-1,53,68,54,-1,69,70,71,-1,71,70,72,-1,71,72,73,-1,73,72,74,-1,73,74,75,-1,60,76,52,-1,52,76,77,-1,52,77,69,-1,69,77,78,-1,69,78,70,-1,79,80,81,-1,81,80,82,-1,81,82,83,-1,84,85,86,-1,86,85,81,-1,86,81,87,-1,87,81,83,-1,88,89,90,-1,90,89,91,-1,90,91,92,-1,93,94,95,-1,95,94,96,-1,95,96,92,-1,92,96,97,-1,92,97,90,-1,79,98,80,-1,80,98,99,-1,80,99,100,-1,100,99,101,-1,100,101,102,-1,102,101,103,-1,88,90,101,-1,101,90,104,-1,101,104,103,-1,84,86,105,-1,105,86,106,-1,105,106,107,-1,107,106,108,-1,107,108,109,-1,109,108,110,-1,109,110,111,-1,110,112,111,-1,111,112,113,-1,111,113,114,-1,114,113,115,-1,114,115,116,-1,116,115,117,-1,116,117,118,-1,
        ]
    }
}