#VRML V2.0 utf8
# 3D model generated by kicad-lcsc-manager
# Based on easyeda2kicad.py v1.0.1

Shape{
    appearance Appearance {
        material  Material {
            diffuseColor 0.5294117647058824 1.0 0.9607843137254902
            specularColor 0.26666666666666666 0.5019607843137255 0.47843137254901963
            ambientIntensity 0.8548
            transparency 0.0
            shininess 0.5
        }
    }
    geometry IndexedFaceSet {
        ccw TRUE
        solid FALSE
        coord DEF co Coordinate {
            point [
                -4.7047 0.7874 3.0871, -3.2953 0.7874 3.0871, -4.8031 0.2717 2.969, -3.1969 0.2717 2.969, -4.7047 0.7874 3.3981, -3.2953 0.7874 3.3981, -4.8031 0.2717 3.5831, -3.1969 0.2717 3.5831, -4.4886 -3.5197 1.8543, -4.7047 -3.5197 2.0705, -3.5114 -3.5197 1.8543, -4.7047 -3.5197 2.969, -3.2953 -3.5197 2.0705, -3.2953 -3.5197 2.969, -4.566 -3.5197 0.411, -4.7047 -3.5197 0.3627, -4.7047 -3.5197 1.0476, -4.2008 -3.5197 0.6614, -4.4886 -3.5197 1.2638, -3.7992 -3.5197 0.6614, -3.5114 -3.5197 1.2638, -3.434 -3.5197 0.411, -3.2953 -3.5197 1.0476, -3.2953 -3.5197 0.3627, -3.5114 -2.3386 1.8543, -4.4886 -2.3386 1.8543, -3.5114 -2.3386 1.2638, -4.4886 -2.3386 1.2638, -6.7047 -3.5197 2.969, -5.2953 -3.5197 2.969, -5.2953 -3.5197 2.0705, -5.5114 -3.5197 1.8543, -6.4886 -3.5197 1.8543, -6.7047 -3.5197 2.0705, -6.566 -3.5197 0.411, -6.7047 -3.5197 0.3627, -6.7047 -3.5197 1.0476, -6.2008 -3.5197 0.6614, -6.4886 -3.5197 1.2638, -5.7992 -3.5197 0.6614, -5.5114 -3.5197 1.2638, -5.434 -3.5197 0.411, -5.2953 -3.5197 1.0476, -5.2953 -3.5197 0.3627, -6.4886 -2.3386 1.8543, -5.5114 -2.3386 1.8543, -6.4886 -2.3386 1.2638, -5.5114 -2.3386 1.2638, -6.4094 -2.3386 1.5591, -5.5906 -2.3386 1.5591, -4.7047 -2.3386 1.0476, -4.7047 -2.3386 0.3627, -5.0 -2.3386 0.9685, -5.0 -2.3386 0.3228, -5.2953 -2.3386 1.0476, -5.2953 -2.3386 0.3627, -4.4094 -2.3386 1.5591, -3.5906 -2.3386 1.5591, -4.7047 -2.3386 2.969, -4.7047 -2.3386 2.0705, -5.2953 -2.3386 2.969, -5.0 -2.3386 2.1496, -5.2953 -2.3386 2.0705, -5.7992 0.7874 0.6614, -6.2008 0.7874 0.6614, 7.8032 -3.5197 2.969, 7.2953 -3.5197 2.969, 7.2953 -2.3386 2.969, -7.8031 0.2717 2.969, -7.1969 0.2717 2.969, 6.7047 -3.5197 2.969, 5.2953 -3.5197 2.969, 6.7047 -2.3386 2.969, 5.2953 -2.3386 2.969, -7.2953 -3.5197 2.969, -7.8031 -3.5197 2.969, -7.2953 -2.3386 2.969, -6.7047 -2.3386 2.969, 5.1969 0.2717 2.969, 6.8032 0.2717 2.969, 7.1969 0.2717 2.969, 7.8032 0.2717 2.969, 4.7047 -3.5197 2.969, 3.2953 -3.5197 2.969, 4.7047 -2.3386 2.969, 3.2953 -2.3386 2.969, -6.8031 0.2717 2.969, -5.1968 0.2717 2.969, -2.8031 0.2717 2.969, -1.1968 0.2717 2.969, 2.7047 -3.5197 2.969, 1.2953 -3.5197 2.969, 2.7047 -2.3386 2.969, 1.2953 -2.3386 2.969, 0.7047 -2.3386 2.969, -0.8031 0.2717 2.969, 0.8032 0.2717 2.969, 1.1969 0.2717 2.969, 2.8032 0.2717 2.969, 3.1969 0.2717 2.969, 4.8032 0.2717 2.969, -3.2953 -2.3386 2.969, 0.7047 -3.5197 2.969, -0.7047 -3.5197 2.969, -0.7047 -2.3386 2.969, -1.2953 -2.3386 2.969, -1.2953 -3.5197 2.969, -2.7047 -3.5197 2.969, -2.7047 -2.3386 2.969, -5.2953 0.7874 3.0871, -6.7047 0.7874 3.0871, -5.2953 0.7874 3.3981, -6.7047 0.7874 3.3981, -5.1968 0.2717 3.5831, -6.8031 0.2717 3.5831, -7.1969 0.2717 3.5831, -8.0 0.2717 3.5831, -8.0 -0.4016 3.5831, 8.0 0.2717 3.5831, 7.1969 0.2717 3.5831, 8.0 -0.4016 3.5831, 6.8032 0.2717 3.5831, 5.1969 0.2717 3.5831, 4.8032 0.2717 3.5831, 3.1969 0.2717 3.5831, 2.8032 0.2717 3.5831, 1.1969 0.2717 3.5831, 0.8032 0.2717 3.5831, -0.8031 0.2717 3.5831, -1.1968 0.2717 3.5831, -2.8031 0.2717 3.5831, -8.0 -0.4016 3.3858, 8.0 -0.4016 3.3858, -8.0 -3.937 3.3858, 8.0 -3.937 3.3858, -8.0 -3.937 -0.0, -7.2165 -3.937 -0.0, -4.7835 -3.937 1.7874, -4.7835 -3.937 -0.0, -3.2165 -3.937 -0.0, -3.2165 -3.937 1.7874, -2.7835 -3.937 1.7874, -7.2165 -3.937 1.7874, -6.7835 -3.937 1.7874, -5.2165 -3.937 1.7874, -5.2165 -3.937 -0.0, -6.7835 -3.937 -0.0, -0.7835 -3.937 1.7874, -0.7835 -3.937 -0.0, 0.7835 -3.937 -0.0, 0.7835 -3.937 1.7874, 1.2165 -3.937 1.7874, -1.2165 -3.937 1.7874, -1.2165 -3.937 -0.0, -2.7835 -3.937 -0.0, 3.2165 -3.937 1.7874, 3.2165 -3.937 -0.0, 4.7835 -3.937 -0.0, 4.7835 -3.937 1.7874, 5.2165 -3.937 1.7874, 2.7835 -3.937 1.7874, 2.7835 -3.937 -0.0, 1.2165 -3.937 -0.0, 6.6132 -3.937 -0.0, 6.7835 -3.937 -0.0, 6.7835 -3.937 1.7874, 7.2165 -3.937 -0.0, 8.0 -3.937 -0.0, 7.2165 -3.937 1.7874, 5.2165 -3.937 -0.0, 6.5224 -1.4939 -0.0, 6.5223 -1.4944 -0.0, -8.0 -1.4944 -0.0, 6.6793 -1.4939 -0.0, 6.6792 -1.4944 -0.0, 6.6132 -1.4944 -0.0, 6.7164 -1.5217 -0.0, 6.7173 -1.5335 -0.0, 6.678 -1.5503 -0.0, 6.7142 -1.5562 -0.0, 6.682 -1.5605 -0.0, 6.6406 -1.5327 -0.0, 6.6537 -1.5327 -0.0, 6.6537 -1.5668 -0.0, 6.6972 -1.4971 -0.0, 6.7046 -1.4991 -0.0, 6.7099 -1.5041 -0.0, 6.6612 -1.5668 -0.0, 6.6612 -1.5019 -0.0, 6.6752 -1.5517 -0.0, 7.2165 -2.9488 -0.0, 6.7365 -1.5737 -0.0, 6.7839 -1.5737 -0.0, 6.6976 -1.5694 -0.0, 6.6886 -1.567 -0.0, 6.7047 -1.568 -0.0, 6.7093 -1.5649 -0.0, 6.7618 -1.4982 -0.0, 6.7649 -1.5705 -0.0, 6.7525 -1.5705 -0.0, 6.7673 -1.4987 -0.0, 6.7684 -1.4996 -0.0, 6.765 -1.4982 -0.0, 6.769 -1.5011 -0.0, 6.7691 -1.5019 -0.0, 6.7691 -1.5668 -0.0, 6.7687 -1.5686 -0.0, 6.7679 -1.5696 -0.0, 6.7807 -1.4982 -0.0, 6.7834 -1.4982 -0.0, 6.7839 -1.5705 -0.0, 8.0 -1.4944 -0.0, 6.7662 -1.5704 -0.0, 6.7443 -1.5685 -0.0, 6.7385 -1.5631 -0.0, 6.7347 -1.5543 -0.0, 6.678 -1.5144 -0.0, 6.6846 -1.5023 -0.0, 6.6909 -1.4981 -0.0, 6.6653 -1.5705 -0.0, 6.6631 -1.5702 -0.0, 6.662 -1.5695 -0.0, 6.7208 -1.5102 -0.0, 6.7129 -1.4997 -0.0, 6.7618 -1.495 -0.0, 6.6615 -1.5 -0.0, 6.6623 -1.499 -0.0, 6.6635 -1.4984 -0.0, 6.6653 -1.4982 -0.0, 6.6676 -1.4982 -0.0, 6.6614 -1.5684 -0.0, 6.668 -1.5705 -0.0, 6.668 -1.5737 -0.0, 6.7259 -1.5341 -0.0, 6.7027 -1.4946 -0.0, 6.7012 -1.4944 -0.0, 6.7834 -1.495 -0.0, 6.6531 -1.4998 -0.0, 6.6536 -1.5011 -0.0, 6.6321 -1.5176 -0.0, 6.6537 -1.5018 -0.0, 6.6321 -1.5204 -0.0, 6.7766 -1.5019 -0.0, 6.7769 -1.5 -0.0, 6.7777 -1.499 -0.0, 6.6406 -1.5295 -0.0, 6.6363 -1.5288 -0.0, 6.634 -1.5272 -0.0, 6.6364 -1.4982 -0.0, 6.6495 -1.4982 -0.0, 6.6519 -1.4987 -0.0, 6.6382 -1.533 -0.0, 6.7785 -1.5702 -0.0, 6.7775 -1.5695 -0.0, 6.7807 -1.5705 -0.0, 6.7768 -1.5684 -0.0, 6.7766 -1.5668 -0.0, 6.7789 -1.4984 -0.0, 6.6537 -1.5295 -0.0, 6.6326 -1.5245 -0.0, 6.6327 -1.4987 -0.0, 6.626 -1.5028 -0.0, 6.6193 -1.5122 -0.0, 6.6288 -1.5176 -0.0, 6.617 -1.5112 -0.0, 6.6288 -1.5446 -0.0, 6.6752 -1.5133 -0.0, 6.6676 -1.495 -0.0, 6.6221 -1.495 -0.0, 6.6508 -1.5704 -0.0, 6.6495 -1.5705 -0.0, 6.6321 -1.5446 -0.0, 6.6375 -1.5705 -0.0, 6.6829 -1.5668 -0.0, 6.6919 -1.5727 -0.0, 6.6981 -1.5737 -0.0, 6.7112 -1.5704 -0.0, 6.7324 -1.5554 -0.0, 6.7198 -1.5622 -0.0, 6.621 -1.5737 -0.0, 6.7835 -2.9488 -0.0, 6.6159 -1.5554 -0.0, 6.6533 -1.5686 -0.0, 6.6525 -1.5696 -0.0, 6.7228 -1.5559 -0.0, 6.635 -1.5344 -0.0, 6.6331 -1.537 -0.0, 6.6321 -1.5428 -0.0, 8.0 0.7874 -0.0, 6.6132 0.7874 -0.0, 6.6962 -1.4939 -0.0, 6.693 -1.4941 -0.0, 6.6798 -1.4944 -0.0, 6.6914 -1.4944 -0.0, 6.6898 -1.4948 -0.0, 6.6872 -1.4957 -0.0, 6.6844 -1.4961 -0.0, 6.6798 -1.4945 -0.0, 6.6815 -1.4957 -0.0, 6.5174 -1.5446 -0.0, 6.5379 -1.5446 -0.0, 6.5379 -1.5705 -0.0, 4.7835 -2.9488 -0.0, 5.2165 -2.9488 -0.0, 3.2165 -2.9488 -0.0, 2.7835 -2.9488 -0.0, 6.6105 -1.5737 -0.0, 6.6105 -1.5705 -0.0, 6.5416 -1.569 -0.0, 6.5407 -1.5699 -0.0, 6.5424 -1.565 -0.0, 6.539 -1.5704 -0.0, 6.5423 -1.5632 -0.0, 6.542 -1.5614 -0.0, 6.4983 -1.5705 -0.0, 6.4983 -1.5737 -0.0, 6.5179 -1.5737 -0.0, 6.6285 -1.5684 -0.0, 6.6224 -1.5629 -0.0, 6.6182 -1.5543 -0.0, 6.5033 -1.569 -0.0, 6.5014 -1.5702 -0.0, 6.5052 -1.5655 -0.0, 6.4997 -1.5705 -0.0, 6.5179 -1.5705 -0.0, 6.5365 -1.5705 -0.0, 6.5365 -1.5737 -0.0, 6.5533 -1.5737 -0.0, 0.7835 -2.9488 -0.0, 6.5292 -1.495 -0.0, 6.5745 -1.4985 -0.0, 6.5655 -1.5062 -0.0, -0.7835 -2.9488 -0.0, -1.2165 -2.9488 -0.0, 6.6105 -1.495 -0.0, 6.5899 -1.495 -0.0, 6.552 -1.5705 -0.0, 6.563 -1.5574 -0.0, 6.5533 -1.5705 -0.0, 6.5714 -1.5681 -0.0, 6.5837 -1.5731 -0.0, 6.591 -1.5737 -0.0, 1.2165 -2.9488 -0.0, 6.5129 -1.5642 -0.0, 6.5161 -1.5705 -0.0, 6.5125 -1.5657 -0.0, 6.5124 -1.5673 -0.0, 6.6048 -1.5701 -0.0, 6.6038 -1.5695 -0.0, 6.6072 -1.5705 -0.0, 6.6032 -1.5684 -0.0, 6.603 -1.5668 -0.0, 6.5597 -1.5209 -0.0, 6.5587 -1.5327 -0.0, 6.547 -1.5656 -0.0, 6.5471 -1.566 -0.0, 6.5496 -1.5699 -0.0, 6.5481 -1.5686 -0.0, -3.2165 -2.9488 -0.0, 6.6105 -1.4982 -0.0, 6.6075 -1.4982 -0.0, 6.6074 -1.4982 -0.0, 6.603 -1.5019 -0.0, -4.7835 -2.9488 -0.0, -5.2165 -2.9488 -0.0, 6.6033 -1.5 -0.0, 6.6041 -1.499 -0.0, 6.6046 -1.4987 -0.0, 6.5139 -1.5702 -0.0, 6.5132 -1.5698 -0.0, 6.5127 -1.569 -0.0, -2.7835 -2.9488 -0.0, -7.2165 -2.9488 -0.0, -6.7835 -2.9488 -0.0, -8.0 0.7874 -0.0, 6.5258 -1.4944 -0.0, -8.0 0.7874 3.3981, -7.2953 0.7874 3.3981, -7.2953 0.7874 3.0871, -7.8031 0.7874 3.0871, -7.8031 0.7874 0.6614, 7.2953 0.7874 3.0871, 7.2953 0.7874 3.3981, 7.8032 0.7874 3.0871, 8.0 0.7874 3.3981, 7.8032 0.7874 0.6614, -7.7992 0.7874 0.6614, -7.434 0.7874 0.411, -7.0 0.7874 0.3228, -6.566 0.7874 0.411, -5.434 0.7874 0.411, -5.0 0.7874 0.3228, -4.2008 0.7874 0.6614, -3.7992 0.7874 0.6614, -4.566 0.7874 0.411, -3.434 0.7874 0.411, -3.0 0.7874 0.3228, -2.2008 0.7874 0.6614, -1.7992 0.7874 0.6614, -2.566 0.7874 0.411, -1.434 0.7874 0.411, 1.7992 0.7874 0.6614, 2.2008 0.7874 0.6614, 1.434 0.7874 0.411, 2.566 0.7874 0.411, 1.0 0.7874 0.3228, 3.0 0.7874 0.3228, -1.0 0.7874 0.3228, 3.7992 0.7874 0.6614, 4.2008 0.7874 0.6614, 3.434 0.7874 0.411, 4.566 0.7874 0.411, 5.0 0.7874 0.3228, 5.434 0.7874 0.411, 5.7992 0.7874 0.6614, -0.2008 0.7874 0.6614, 0.2008 0.7874 0.6614, -0.566 0.7874 0.411, 0.566 0.7874 0.411, 7.7992 0.7874 0.6614, 7.434 0.7874 0.411, 7.0 0.7874 0.3228, 6.566 0.7874 0.411, 6.2008 0.7874 0.6614, -4.4886 -1.9449 1.2638, -4.7047 -1.9449 1.0476, -5.0 -1.9449 0.9685, -5.2953 -1.9449 1.0476, -5.5114 -1.9449 1.2638, -5.5906 -1.9449 1.5591, -5.5114 -1.9449 1.8543, -5.2953 -1.9449 2.0705, -5.0 -1.9449 2.1496, -4.7047 -1.9449 2.0705, -4.4886 -1.9449 1.8543, -4.4094 -1.9449 1.5591, -5.1968 -1.9449 1.3622, -5.1968 -1.9449 1.7559, -4.8031 -1.9449 1.3622, -4.8031 -1.9449 1.7559, -4.7835 -2.9488 1.7874, -4.8031 -2.9488 1.6527, -4.8031 -2.9488 1.024, -5.1968 -2.9488 1.6527, -5.2165 -2.9488 1.7874, -5.1968 -2.9488 1.024
            ]
        }
        coordIndex [
            0,1,2,-1,2,1,3,-1,4,5,0,-1,0,5,1,-1,6,7,4,-1,4,7,5,-1,8,9,10,-1,10,9,11,-1,10,11,12,-1,12,11,13,-1,14,15,16,-1,14,16,17,-1,17,16,18,-1,17,18,19,-1,19,18,20,-1,19,20,21,-1,21,20,22,-1,21,22,23,-1,10,24,8,-1,8,24,25,-1,26,20,27,-1,27,20,18,-1,28,29,30,-1,31,32,30,-1,30,32,33,-1,30,33,28,-1,34,35,36,-1,34,36,37,-1,37,36,38,-1,37,38,39,-1,39,38,40,-1,39,40,41,-1,41,40,42,-1,41,42,43,-1,44,32,45,-1,45,32,31,-1,38,46,40,-1,40,46,47,-1,44,45,48,-1,48,45,49,-1,48,49,46,-1,46,49,47,-1,50,51,52,-1,52,51,53,-1,52,53,54,-1,54,53,55,-1,25,24,56,-1,56,24,57,-1,56,57,27,-1,27,57,26,-1,58,59,60,-1,60,59,61,-1,60,61,62,-1,16,15,50,-1,50,15,51,-1,54,55,42,-1,42,55,43,-1,59,58,9,-1,9,58,11,-1,30,29,62,-1,62,29,60,-1,63,64,39,-1,39,64,37,-1,65,66,67,-1,60,68,69,-1,70,71,72,-1,72,71,73,-1,74,75,76,-1,76,75,68,-1,76,68,77,-1,77,68,60,-1,77,60,28,-1,28,60,29,-1,78,79,72,-1,72,79,80,-1,72,80,67,-1,67,80,81,-1,67,81,65,-1,82,83,84,-1,84,83,85,-1,69,86,60,-1,60,86,87,-1,60,87,58,-1,58,87,2,-1,2,3,58,-1,58,3,88,-1,58,88,89,-1,90,91,92,-1,92,91,93,-1,94,89,93,-1,93,89,95,-1,93,95,92,-1,92,95,96,-1,92,96,85,-1,85,96,97,-1,85,97,84,-1,84,97,98,-1,84,98,73,-1,73,98,99,-1,73,99,72,-1,72,99,100,-1,72,100,78,-1,101,13,11,-1,102,103,94,-1,94,103,104,-1,94,104,89,-1,89,104,105,-1,106,107,105,-1,105,107,108,-1,105,108,89,-1,89,108,101,-1,89,101,58,-1,58,101,11,-1,87,86,109,-1,109,86,110,-1,109,110,111,-1,111,110,112,-1,111,112,113,-1,113,112,114,-1,115,116,117,-1,118,119,120,-1,120,119,121,-1,120,121,122,-1,122,123,120,-1,120,123,124,-1,120,124,125,-1,125,126,120,-1,120,126,127,-1,120,127,117,-1,117,127,128,-1,117,128,129,-1,129,130,117,-1,117,130,7,-1,117,7,6,-1,6,113,117,-1,117,113,114,-1,117,114,115,-1,131,132,117,-1,117,132,120,-1,133,134,131,-1,131,134,132,-1,133,135,136,-1,137,138,139,-1,140,141,134,-1,136,142,133,-1,133,142,143,-1,133,143,134,-1,139,140,137,-1,137,140,134,-1,137,134,144,-1,144,134,143,-1,144,143,145,-1,145,143,146,-1,147,148,149,-1,150,151,134,-1,149,150,147,-1,147,150,134,-1,147,134,152,-1,152,134,141,-1,152,141,153,-1,153,141,154,-1,155,156,157,-1,158,159,134,-1,157,158,155,-1,155,158,134,-1,155,134,160,-1,160,134,151,-1,160,151,161,-1,161,151,162,-1,163,164,165,-1,166,167,168,-1,168,167,134,-1,168,134,165,-1,165,134,159,-1,165,159,163,-1,163,159,169,-1,170,171,172,-1,173,174,175,-1,176,177,178,-1,178,177,179,-1,178,179,180,-1,181,182,183,-1,184,185,178,-1,178,185,186,-1,178,186,176,-1,187,188,189,-1,190,191,192,-1,193,194,195,-1,195,194,180,-1,195,180,196,-1,196,180,179,-1,197,198,199,-1,200,201,202,-1,202,201,203,-1,202,203,204,-1,205,206,207,-1,208,209,210,-1,210,209,211,-1,210,211,192,-1,192,211,167,-1,192,167,190,-1,190,167,166,-1,207,212,205,-1,205,212,198,-1,205,198,204,-1,204,198,197,-1,204,197,202,-1,199,213,197,-1,197,213,214,-1,197,214,215,-1,216,217,178,-1,178,217,218,-1,178,218,184,-1,219,220,221,-1,222,223,224,-1,225,226,188,-1,188,226,227,-1,188,227,189,-1,189,227,228,-1,189,228,178,-1,178,228,229,-1,221,230,219,-1,219,230,187,-1,219,187,231,-1,231,187,189,-1,231,189,232,-1,222,224,233,-1,223,234,224,-1,224,234,235,-1,224,235,236,-1,237,238,239,-1,239,238,240,-1,239,240,241,-1,242,243,244,-1,245,246,247,-1,248,249,239,-1,239,249,250,-1,239,250,237,-1,181,183,251,-1,252,253,254,-1,254,253,255,-1,254,255,256,-1,244,257,242,-1,242,257,208,-1,242,208,256,-1,256,208,210,-1,256,210,254,-1,240,258,241,-1,241,258,245,-1,241,245,259,-1,259,245,247,-1,260,248,261,-1,261,248,239,-1,261,239,262,-1,262,239,263,-1,262,263,264,-1,264,263,265,-1,216,178,266,-1,266,178,229,-1,266,229,174,-1,174,229,267,-1,174,267,175,-1,175,267,268,-1,175,268,264,-1,269,270,271,-1,271,270,272,-1,273,274,190,-1,190,274,275,-1,190,275,191,-1,191,275,276,-1,191,276,277,-1,277,276,278,-1,189,273,232,-1,232,273,190,-1,232,190,279,-1,279,190,280,-1,279,280,281,-1,281,280,164,-1,281,164,163,-1,183,282,271,-1,271,282,283,-1,271,283,269,-1,278,284,277,-1,277,284,233,-1,277,233,215,-1,215,233,224,-1,215,224,197,-1,285,251,286,-1,286,251,183,-1,286,183,287,-1,287,183,271,-1,209,236,211,-1,211,236,235,-1,211,235,288,-1,288,235,289,-1,289,235,290,-1,289,290,291,-1,175,289,173,-1,173,289,291,-1,173,291,292,-1,292,291,293,-1,292,293,294,-1,294,295,292,-1,292,295,296,-1,292,296,297,-1,297,296,298,-1,299,300,301,-1,302,157,156,-1,163,169,303,-1,304,305,172,-1,306,307,175,-1,308,309,310,-1,310,309,311,-1,310,311,312,-1,312,311,301,-1,312,301,313,-1,313,301,300,-1,302,314,303,-1,303,314,315,-1,303,315,316,-1,272,317,271,-1,271,317,318,-1,271,318,265,-1,265,318,319,-1,265,319,264,-1,264,319,281,-1,264,281,175,-1,175,281,163,-1,175,163,306,-1,320,321,322,-1,322,321,323,-1,322,323,171,-1,171,323,314,-1,171,314,172,-1,172,314,302,-1,172,302,304,-1,304,302,156,-1,324,325,316,-1,316,325,326,-1,316,326,303,-1,303,326,327,-1,303,327,163,-1,328,149,148,-1,329,330,331,-1,332,333,172,-1,175,334,335,-1,336,337,338,-1,338,337,339,-1,338,339,327,-1,327,339,340,-1,327,340,163,-1,163,340,341,-1,163,341,306,-1,148,332,328,-1,328,332,172,-1,328,172,342,-1,342,172,305,-1,342,305,162,-1,162,305,161,-1,301,325,299,-1,299,325,324,-1,299,324,343,-1,343,324,344,-1,343,344,345,-1,345,344,346,-1,347,348,349,-1,349,348,350,-1,349,350,351,-1,331,352,329,-1,329,352,353,-1,329,353,354,-1,354,353,337,-1,354,337,355,-1,336,356,337,-1,337,356,357,-1,337,357,355,-1,358,139,138,-1,334,175,359,-1,359,175,307,-1,359,307,360,-1,360,307,349,-1,360,349,361,-1,361,349,351,-1,361,351,362,-1,363,364,172,-1,362,365,361,-1,361,365,366,-1,361,366,367,-1,368,369,344,-1,344,369,370,-1,344,370,346,-1,138,363,358,-1,358,363,172,-1,358,172,371,-1,371,172,333,-1,371,333,154,-1,154,333,153,-1,136,135,372,-1,372,135,172,-1,372,172,373,-1,373,172,364,-1,373,364,146,-1,146,364,145,-1,172,374,170,-1,170,374,289,-1,170,289,375,-1,375,289,175,-1,375,175,329,-1,329,175,335,-1,329,335,330,-1,376,377,378,-1,378,379,376,-1,376,379,380,-1,376,380,374,-1,381,382,383,-1,383,382,384,-1,383,384,385,-1,385,384,288,-1,380,386,374,-1,374,386,387,-1,374,387,388,-1,64,63,389,-1,389,63,390,-1,391,374,390,-1,390,374,388,-1,390,388,389,-1,392,393,394,-1,394,393,395,-1,396,374,395,-1,395,374,391,-1,395,391,394,-1,397,398,399,-1,399,398,400,-1,401,402,403,-1,403,402,404,-1,403,404,405,-1,405,404,406,-1,407,374,400,-1,400,374,396,-1,400,396,399,-1,408,409,410,-1,410,409,411,-1,410,411,406,-1,406,411,412,-1,289,413,414,-1,415,416,417,-1,417,416,418,-1,417,418,407,-1,407,418,405,-1,407,405,374,-1,374,405,406,-1,374,406,289,-1,289,406,412,-1,289,412,413,-1,419,385,420,-1,420,385,288,-1,420,288,421,-1,421,288,289,-1,421,289,422,-1,422,289,414,-1,422,414,423,-1,17,19,392,-1,392,19,393,-1,51,15,14,-1,390,55,391,-1,391,55,53,-1,391,53,394,-1,17,392,14,-1,14,392,394,-1,14,394,51,-1,51,394,53,-1,43,55,41,-1,41,55,390,-1,41,390,39,-1,39,390,63,-1,42,40,54,-1,54,40,47,-1,31,30,45,-1,45,30,62,-1,9,8,59,-1,59,8,25,-1,18,16,27,-1,27,16,50,-1,424,50,425,-1,425,50,52,-1,425,52,426,-1,426,52,54,-1,426,54,427,-1,427,54,47,-1,427,47,428,-1,428,47,49,-1,428,49,429,-1,429,49,45,-1,429,45,430,-1,430,45,62,-1,430,62,431,-1,431,62,61,-1,431,61,432,-1,432,61,59,-1,432,59,433,-1,433,59,25,-1,433,25,434,-1,434,25,56,-1,434,56,435,-1,435,56,27,-1,435,27,424,-1,424,27,50,-1,432,433,434,-1,427,428,436,-1,436,428,429,-1,436,429,437,-1,437,429,430,-1,427,436,426,-1,426,436,438,-1,426,438,425,-1,430,431,437,-1,437,431,432,-1,437,432,439,-1,439,432,434,-1,439,434,438,-1,438,434,435,-1,438,435,425,-1,425,435,424,-1,4,0,6,-1,6,0,2,-1,113,87,111,-1,111,87,109,-1,113,6,87,-1,87,6,2,-1,137,440,138,-1,138,440,363,-1,440,441,442,-1,441,440,443,-1,443,440,444,-1,443,444,445,-1,445,444,364,-1,445,364,442,-1,442,364,363,-1,442,363,440,-1,444,144,364,-1,364,144,145,-1,144,444,137,-1,137,444,440,-1,
        ]
    }
}
Shape{
    appearance Appearance {
        material  Material {
            diffuseColor 0.7529411764705882 0.7529411764705882 0.7529411764705882
            specularColor 0.3764705882352941 0.3764705882352941 0.3764705882352941
            ambientIntensity 0.7529
            transparency 0.0
            shininess 0.5
        }
    }
    geometry IndexedFaceSet {
        ccw TRUE
        solid FALSE
        coord DEF co Coordinate {
            point [
                -5.1968 -2.9528 -1.2205, -5.1968 -2.9528 0.9685, -4.8031 -2.9528 -1.2205, -4.8031 -2.9528 0.9685, -5.1968 -3.3465 -1.2205, -5.1968 -3.3465 0.9685, -4.8031 -3.3465 -1.2205, -4.8031 -3.3465 0.9685, -5.0394 -3.189 -1.378, -5.0394 -3.1102 -1.378, -4.9606 -3.189 -1.378, -4.9606 -3.1102 -1.378, -5.1968 -2.9488 1.024, -4.8031 -2.9488 1.024, -5.1968 -3.1603 1.4769, -5.1968 -2.9488 1.6527, -5.1968 -3.2985 1.2392, -4.8031 -3.2985 1.2392, -4.8031 -3.1603 1.4769, -4.8031 -2.9488 1.6527, -5.0394 0.315 1.5197, -5.0394 0.315 1.5984, -4.9606 0.315 1.5197, -4.9606 0.315 1.5984, -4.8031 0.1575 1.7559, -4.8031 -1.9449 1.7559, -4.8031 0.1575 1.3622, -4.8031 -1.9449 1.3622, -5.1968 0.1575 1.7559, -5.1968 -1.9449 1.7559, -5.1968 0.1575 1.3622, -5.1968 -1.9449 1.3622
            ]
        }
        coordIndex [
            0,1,2,-1,2,1,3,-1,4,5,0,-1,0,5,1,-1,6,7,4,-1,4,7,5,-1,2,3,6,-1,6,3,7,-1,8,9,10,-1,10,9,11,-1,12,13,1,-1,1,13,3,-1,14,15,16,-1,16,15,12,-1,16,12,5,-1,5,12,1,-1,5,7,17,-1,5,17,16,-1,16,17,18,-1,16,18,14,-1,14,18,19,-1,14,19,15,-1,7,3,13,-1,17,7,18,-1,18,7,13,-1,18,13,19,-1,20,21,22,-1,22,21,23,-1,24,25,26,-1,26,25,27,-1,28,29,24,-1,24,29,25,-1,30,31,28,-1,28,31,29,-1,26,27,30,-1,30,27,31,-1,21,28,23,-1,23,28,24,-1,20,30,21,-1,21,30,28,-1,26,22,24,-1,24,22,23,-1,22,26,20,-1,20,26,30,-1,2,11,0,-1,0,11,9,-1,6,10,2,-1,2,10,11,-1,8,4,9,-1,9,4,0,-1,4,8,6,-1,6,8,10,-1,
        ]
    }
}
Shape{
    appearance Appearance {
        material  Material {
            diffuseColor 0.5294117647058824 1.0 0.9607843137254902
            specularColor 0.26666666666666666 0.5019607843137255 0.47843137254901963
            ambientIntensity 0.8548
            transparency 0.0
            shininess 0.5
        }
    }
    geometry IndexedFaceSet {
        ccw TRUE
        solid FALSE
        coord DEF co Coordinate {
            point [
                -7.2953 0.7874 3.0871, -7.1969 0.2717 2.969, -7.8031 0.7874 3.0871, -7.8031 0.2717 2.969, -7.5114 -3.5197 1.8543, -7.8031 -3.5197 1.8543, -7.2953 -3.5197 2.0705, -7.8031 -3.5197 2.969, -7.2953 -3.5197 2.969, -7.8031 -3.5197 0.6614, -7.8031 -3.5197 1.2638, -7.7992 -3.5197 0.6614, -7.5114 -3.5197 1.2638, -7.434 -3.5197 0.411, -7.2953 -3.5197 1.0476, -7.2953 -3.5197 0.3627, -7.5114 -2.3386 1.8543, -7.8031 -2.3386 1.8543, -7.5114 -2.3386 1.2638, -7.8031 -2.3386 1.2638, -7.5906 -2.3386 1.5591, -7.7992 0.7874 0.6614, -7.8031 0.7874 0.6614, -6.7047 -2.3386 1.0476, -6.7047 -2.3386 0.3627, -7.0 -2.3386 0.9685, -7.0 -2.3386 0.3228, -7.2953 -2.3386 1.0476, -7.2953 -2.3386 0.3627, -7.2953 -2.3386 2.0705, -7.2953 -2.3386 2.969, -7.0 -2.3386 2.1496, -6.7047 -2.3386 2.969, -6.7047 -2.3386 2.0705, -6.7047 -3.5197 1.0476, -6.7047 -3.5197 0.3627, -6.7047 -3.5197 2.0705, -6.7047 -3.5197 2.969, -7.2953 0.7874 3.3981, -8.0 0.7874 3.3981, -7.1969 0.2717 3.5831, -8.0 0.2717 3.5831, -8.0 -0.4016 3.3858, -8.0 -0.4016 3.5831, -8.0 -3.937 -0.0, -8.0 -3.937 3.3858, -8.0 -1.4944 -0.0, -8.0 0.7874 -0.0, -6.566 -3.5197 0.411, -7.434 0.7874 0.411, -7.0 0.7874 0.3228, -6.566 0.7874 0.411, -6.2008 -3.5197 0.6614, -6.2008 0.7874 0.6614, -6.4886 -3.5197 1.8543, -6.4886 -2.3386 1.8543, -6.4886 -3.5197 1.2638, -6.4886 -2.3386 1.2638, -6.4886 -1.9449 1.2638, -6.7047 -1.9449 1.0476, -7.0 -1.9449 0.9685, -7.2953 -1.9449 1.0476, -7.5114 -1.9449 1.2638, -7.5906 -1.9449 1.5591, -7.5114 -1.9449 1.8543, -7.2953 -1.9449 2.0705, -7.0 -1.9449 2.1496, -6.7047 -1.9449 2.0705, -6.4886 -1.9449 1.8543, -6.4094 -2.3386 1.5591, -6.4094 -1.9449 1.5591, -7.1969 -1.9449 1.3622, -7.1969 -1.9449 1.7559, -6.8031 -1.9449 1.3622, -6.8031 -1.9449 1.7559, -6.7047 0.7874 3.3981, -6.7047 0.7874 3.0871, -6.8031 0.2717 3.5831, -6.8031 0.2717 2.969, -6.7835 -3.937 1.7874, -6.7835 -2.9488 1.7874, -6.7835 -3.937 -0.0, -6.7835 -2.9488 -0.0, -6.8031 -2.9488 1.6527, -6.8031 -2.9488 1.024, -7.1969 -2.9488 1.6527, -7.2165 -2.9488 1.7874, -7.1969 -2.9488 1.024, -7.2165 -2.9488 -0.0, -7.2165 -3.937 1.7874, -7.2165 -3.937 -0.0
            ]
        }
        coordIndex [
            0,1,2,-1,2,1,3,-1,4,5,6,-1,6,5,7,-1,6,7,8,-1,9,10,11,-1,11,10,12,-1,11,12,13,-1,13,12,14,-1,13,14,15,-1,4,16,5,-1,5,16,17,-1,18,12,19,-1,19,12,10,-1,18,19,20,-1,20,19,17,-1,20,17,16,-1,11,21,9,-1,9,21,22,-1,23,24,25,-1,25,24,26,-1,25,26,27,-1,27,26,28,-1,29,30,31,-1,31,30,32,-1,31,32,33,-1,34,35,23,-1,23,35,24,-1,27,28,14,-1,14,28,15,-1,33,32,36,-1,36,32,37,-1,6,8,29,-1,29,8,30,-1,38,39,40,-1,40,39,41,-1,42,43,41,-1,44,45,46,-1,46,45,42,-1,46,42,47,-1,47,42,41,-1,47,41,39,-1,24,35,48,-1,49,28,50,-1,50,28,26,-1,50,26,51,-1,52,53,48,-1,48,53,51,-1,48,51,24,-1,24,51,26,-1,15,28,13,-1,13,28,49,-1,13,49,11,-1,11,49,21,-1,14,12,27,-1,27,12,18,-1,4,6,16,-1,16,6,29,-1,36,54,33,-1,33,54,55,-1,56,34,57,-1,57,34,23,-1,58,23,59,-1,59,23,25,-1,59,25,60,-1,60,25,27,-1,60,27,61,-1,61,27,18,-1,61,18,62,-1,62,18,20,-1,62,20,63,-1,63,20,16,-1,63,16,64,-1,64,16,29,-1,64,29,65,-1,65,29,31,-1,65,31,66,-1,66,31,33,-1,66,33,67,-1,67,33,55,-1,67,55,68,-1,68,55,69,-1,68,69,70,-1,70,69,57,-1,70,57,58,-1,58,57,23,-1,66,67,68,-1,61,62,71,-1,71,62,63,-1,71,63,72,-1,72,63,64,-1,61,71,60,-1,60,71,73,-1,60,73,59,-1,64,65,72,-1,72,65,66,-1,72,66,74,-1,74,66,68,-1,74,68,73,-1,73,68,70,-1,73,70,59,-1,59,70,58,-1,75,76,77,-1,77,76,78,-1,40,1,38,-1,38,1,0,-1,40,77,1,-1,1,77,78,-1,79,80,81,-1,81,80,82,-1,80,83,84,-1,83,80,85,-1,85,80,86,-1,85,86,87,-1,87,86,88,-1,87,88,84,-1,84,88,82,-1,84,82,80,-1,86,89,88,-1,88,89,90,-1,89,86,79,-1,79,86,80,-1,
        ]
    }
}
Shape{
    appearance Appearance {
        material  Material {
            diffuseColor 0.7529411764705882 0.7529411764705882 0.7529411764705882
            specularColor 0.3764705882352941 0.3764705882352941 0.3764705882352941
            ambientIntensity 0.7529
            transparency 0.0
            shininess 0.5
        }
    }
    geometry IndexedFaceSet {
        ccw TRUE
        solid FALSE
        coord DEF co Coordinate {
            point [
                -7.1969 -2.9528 -1.2205, -7.1969 -2.9528 0.9685, -6.8031 -2.9528 -1.2205, -6.8031 -2.9528 0.9685, -7.1969 -3.3465 -1.2205, -7.1969 -3.3465 0.9685, -6.8031 -3.3465 -1.2205, -6.8031 -3.3465 0.9685, -7.0394 -3.189 -1.378, -7.0394 -3.1102 -1.378, -6.9606 -3.189 -1.378, -6.9606 -3.1102 -1.378, -7.1969 -2.9488 1.024, -6.8031 -2.9488 1.024, -7.1969 -3.1603 1.4769, -7.1969 -2.9488 1.6527, -7.1969 -3.2985 1.2392, -6.8031 -3.2985 1.2392, -6.8031 -3.1603 1.4769, -6.8031 -2.9488 1.6527, -7.0394 0.315 1.5197, -7.0394 0.315 1.5984, -6.9606 0.315 1.5197, -6.9606 0.315 1.5984, -6.8031 0.1575 1.7559, -6.8031 -1.9449 1.7559, -6.8031 0.1575 1.3622, -6.8031 -1.9449 1.3622, -7.1969 0.1575 1.7559, -7.1969 -1.9449 1.7559, -7.1969 0.1575 1.3622, -7.1969 -1.9449 1.3622
            ]
        }
        coordIndex [
            0,1,2,-1,2,1,3,-1,4,5,0,-1,0,5,1,-1,6,7,4,-1,4,7,5,-1,2,3,6,-1,6,3,7,-1,8,9,10,-1,10,9,11,-1,12,13,1,-1,1,13,3,-1,14,15,16,-1,16,15,12,-1,16,12,5,-1,5,12,1,-1,5,7,17,-1,5,17,16,-1,16,17,18,-1,16,18,14,-1,14,18,19,-1,14,19,15,-1,7,3,13,-1,17,7,18,-1,18,7,13,-1,18,13,19,-1,20,21,22,-1,22,21,23,-1,24,25,26,-1,26,25,27,-1,28,29,24,-1,24,29,25,-1,30,31,28,-1,28,31,29,-1,26,27,30,-1,30,27,31,-1,21,28,23,-1,23,28,24,-1,20,30,21,-1,21,30,28,-1,26,22,24,-1,24,22,23,-1,22,26,20,-1,20,26,30,-1,2,11,0,-1,0,11,9,-1,6,10,2,-1,2,10,11,-1,8,4,9,-1,9,4,0,-1,4,8,6,-1,6,8,10,-1,
        ]
    }
}
Shape{
    appearance Appearance {
        material  Material {
            diffuseColor 0.5294117647058824 1.0 0.9607843137254902
            specularColor 0.26666666666666666 0.5019607843137255 0.47843137254901963
            ambientIntensity 0.8548
            transparency 0.0
            shininess 0.5
        }
    }
    geometry IndexedFaceSet {
        ccw TRUE
        solid FALSE
        coord DEF co Coordinate {
            point [
                -7.8031 -2.3386 1.2638, -7.8031 -3.5197 1.2638, -7.8031 -3.5197 0.6614, -7.8031 0.2717 2.969, -7.8031 -3.5197 2.969, -7.8031 -3.5197 1.8543, -7.8031 0.7874 0.6614, -7.8031 0.7874 3.0871, -7.8031 -2.3386 1.8543, -2.7047 0.7874 3.0871, -1.2953 0.7874 3.0871, -2.8031 0.2717 2.969, -1.1968 0.2717 2.969, -2.7047 0.7874 3.3981, -1.2953 0.7874 3.3981, -2.8031 0.2717 3.5831, -1.1968 0.2717 3.5831, -2.4886 -3.5197 1.8543, -2.7047 -3.5197 2.0705, -1.5114 -3.5197 1.8543, -2.7047 -3.5197 2.969, -1.2953 -3.5197 2.0705, -1.2953 -3.5197 2.969, -2.566 -3.5197 0.411, -2.7047 -3.5197 0.3627, -2.7047 -3.5197 1.0476, -2.2008 -3.5197 0.6614, -2.4886 -3.5197 1.2638, -1.7992 -3.5197 0.6614, -1.5114 -3.5197 1.2638, -1.434 -3.5197 0.411, -1.2953 -3.5197 1.0476, -1.2953 -3.5197 0.3627, -1.5114 -2.3386 1.8543, -2.4886 -2.3386 1.8543, -1.5114 -2.3386 1.2638, -2.4886 -2.3386 1.2638, -2.7047 -2.3386 1.0476, -2.7047 -2.3386 0.3627, -3.0 -2.3386 0.9685, -3.0 -2.3386 0.3228, -3.2953 -2.3386 1.0476, -3.2953 -2.3386 0.3627, -2.4094 -2.3386 1.5591, -1.5906 -2.3386 1.5591, -2.7047 -2.3386 2.969, -2.7047 -2.3386 2.0705, -3.2953 -2.3386 2.969, -3.0 -2.3386 2.1496, -3.2953 -2.3386 2.0705, -3.2953 -3.5197 1.0476, -3.2953 -3.5197 0.3627, -3.2953 -3.5197 2.0705, -3.2953 -3.5197 2.969, -2.2008 0.7874 0.6614, -1.7992 0.7874 0.6614, -3.434 0.7874 0.411, -3.0 0.7874 0.3228, -2.566 0.7874 0.411, -3.434 -3.5197 0.411, -3.7992 -3.5197 0.6614, -3.7992 0.7874 0.6614, -3.5114 -3.5197 1.2638, -3.5114 -2.3386 1.2638, -3.5114 -3.5197 1.8543, -3.5114 -2.3386 1.8543, -2.4886 -1.9449 1.2638, -2.7047 -1.9449 1.0476, -3.0 -1.9449 0.9685, -3.2953 -1.9449 1.0476, -3.5114 -1.9449 1.2638, -3.5906 -2.3386 1.5591, -3.5906 -1.9449 1.5591, -3.5114 -1.9449 1.8543, -3.2953 -1.9449 2.0705, -3.0 -1.9449 2.1496, -2.7047 -1.9449 2.0705, -2.4886 -1.9449 1.8543, -2.4094 -1.9449 1.5591, -3.1969 -1.9449 1.3622, -3.1969 -1.9449 1.7559, -2.8031 -1.9449 1.3622, -2.8031 -1.9449 1.7559, -3.1969 0.2717 3.5831, -3.1969 0.2717 2.969, -3.2953 0.7874 3.3981, -3.2953 0.7874 3.0871, -2.7835 -3.937 1.7874, -2.7835 -2.9488 1.7874, -2.7835 -3.937 -0.0, -2.7835 -2.9488 -0.0, -2.8031 -2.9488 1.6527, -2.8031 -2.9488 1.024, -3.1969 -2.9488 1.6527, -3.2165 -2.9488 1.7874, -3.1969 -2.9488 1.024, -3.2165 -2.9488 -0.0, -3.2165 -3.937 1.7874, -3.2165 -3.937 -0.0
            ]
        }
        coordIndex [
            0,1,2,-1,3,4,5,-1,6,7,3,-1,2,6,0,-1,0,6,3,-1,0,3,8,-1,8,3,5,-1,9,10,11,-1,11,10,12,-1,13,14,9,-1,9,14,10,-1,15,16,13,-1,13,16,14,-1,17,18,19,-1,19,18,20,-1,19,20,21,-1,21,20,22,-1,23,24,25,-1,23,25,26,-1,26,25,27,-1,26,27,28,-1,28,27,29,-1,28,29,30,-1,30,29,31,-1,30,31,32,-1,19,33,17,-1,17,33,34,-1,35,29,36,-1,36,29,27,-1,37,38,39,-1,39,38,40,-1,39,40,41,-1,41,40,42,-1,34,33,43,-1,43,33,44,-1,43,44,36,-1,36,44,35,-1,45,46,47,-1,47,46,48,-1,47,48,49,-1,25,24,37,-1,37,24,38,-1,41,42,50,-1,50,42,51,-1,46,45,18,-1,18,45,20,-1,52,53,49,-1,49,53,47,-1,26,28,54,-1,54,28,55,-1,38,24,23,-1,56,42,57,-1,57,42,40,-1,57,40,58,-1,26,54,23,-1,23,54,58,-1,23,58,38,-1,38,58,40,-1,51,42,59,-1,59,42,56,-1,59,56,60,-1,60,56,61,-1,50,62,41,-1,41,62,63,-1,64,52,65,-1,65,52,49,-1,18,17,46,-1,46,17,34,-1,27,25,36,-1,36,25,37,-1,66,37,67,-1,67,37,39,-1,67,39,68,-1,68,39,41,-1,68,41,69,-1,69,41,63,-1,69,63,70,-1,70,63,71,-1,70,71,72,-1,72,71,65,-1,72,65,73,-1,73,65,49,-1,73,49,74,-1,74,49,48,-1,74,48,75,-1,75,48,46,-1,75,46,76,-1,76,46,34,-1,76,34,77,-1,77,34,43,-1,77,43,78,-1,78,43,36,-1,78,36,66,-1,66,36,37,-1,75,76,77,-1,69,70,79,-1,79,70,72,-1,79,72,80,-1,80,72,73,-1,69,79,68,-1,68,79,81,-1,68,81,67,-1,73,74,80,-1,80,74,75,-1,80,75,82,-1,82,75,77,-1,82,77,81,-1,81,77,78,-1,81,78,67,-1,67,78,66,-1,13,9,15,-1,15,9,11,-1,83,84,85,-1,85,84,86,-1,83,15,84,-1,84,15,11,-1,87,88,89,-1,89,88,90,-1,88,91,92,-1,91,88,93,-1,93,88,94,-1,93,94,95,-1,95,94,96,-1,95,96,92,-1,92,96,90,-1,92,90,88,-1,94,97,96,-1,96,97,98,-1,97,94,87,-1,87,94,88,-1,
        ]
    }
}
Shape{
    appearance Appearance {
        material  Material {
            diffuseColor 0.7529411764705882 0.7529411764705882 0.7529411764705882
            specularColor 0.3764705882352941 0.3764705882352941 0.3764705882352941
            ambientIntensity 0.7529
            transparency 0.0
            shininess 0.5
        }
    }
    geometry IndexedFaceSet {
        ccw TRUE
        solid FALSE
        coord DEF co Coordinate {
            point [
                -3.1969 -2.9528 -1.2205, -3.1969 -2.9528 0.9685, -2.8031 -2.9528 -1.2205, -2.8031 -2.9528 0.9685, -3.1969 -3.3465 -1.2205, -3.1969 -3.3465 0.9685, -2.8031 -3.3465 -1.2205, -2.8031 -3.3465 0.9685, -3.0394 -3.189 -1.378, -3.0394 -3.1102 -1.378, -2.9606 -3.189 -1.378, -2.9606 -3.1102 -1.378, -3.1969 -2.9488 1.024, -2.8031 -2.9488 1.024, -3.1969 -3.1603 1.4769, -3.1969 -2.9488 1.6527, -3.1969 -3.2985 1.2392, -2.8031 -3.2985 1.2392, -2.8031 -3.1603 1.4769, -2.8031 -2.9488 1.6527, -3.0394 0.315 1.5197, -3.0394 0.315 1.5984, -2.9606 0.315 1.5197, -2.9606 0.315 1.5984, -2.8031 0.1575 1.7559, -2.8031 -1.9449 1.7559, -2.8031 0.1575 1.3622, -2.8031 -1.9449 1.3622, -3.1969 0.1575 1.7559, -3.1969 -1.9449 1.7559, -3.1969 0.1575 1.3622, -3.1969 -1.9449 1.3622
            ]
        }
        coordIndex [
            0,1,2,-1,2,1,3,-1,4,5,0,-1,0,5,1,-1,6,7,4,-1,4,7,5,-1,2,3,6,-1,6,3,7,-1,8,9,10,-1,10,9,11,-1,12,13,1,-1,1,13,3,-1,14,15,16,-1,16,15,12,-1,16,12,5,-1,5,12,1,-1,5,7,17,-1,5,17,16,-1,16,17,18,-1,16,18,14,-1,14,18,19,-1,14,19,15,-1,7,3,13,-1,17,7,18,-1,18,7,13,-1,18,13,19,-1,20,21,22,-1,22,21,23,-1,24,25,26,-1,26,25,27,-1,28,29,24,-1,24,29,25,-1,30,31,28,-1,28,31,29,-1,26,27,30,-1,30,27,31,-1,21,28,23,-1,23,28,24,-1,20,30,21,-1,21,30,28,-1,26,22,24,-1,24,22,23,-1,22,26,20,-1,20,26,30,-1,2,11,0,-1,0,11,9,-1,6,10,2,-1,2,10,11,-1,8,4,9,-1,9,4,0,-1,4,8,6,-1,6,8,10,-1,
        ]
    }
}
Shape{
    appearance Appearance {
        material  Material {
            diffuseColor 0.5294117647058824 1.0 0.9607843137254902
            specularColor 0.26666666666666666 0.5019607843137255 0.47843137254901963
            ambientIntensity 0.8548
            transparency 0.0
            shininess 0.5
        }
    }
    geometry IndexedFaceSet {
        ccw TRUE
        solid FALSE
        coord DEF co Coordinate {
            point [
                -0.7047 0.7874 3.0871, 0.7047 0.7874 3.0871, -0.8031 0.2717 2.969, 0.8032 0.2717 2.969, -0.7047 0.7874 3.3981, 0.7047 0.7874 3.3981, -0.8031 0.2717 3.5831, 0.8032 0.2717 3.5831, -0.4886 -3.5197 1.8543, -0.7047 -3.5197 2.0705, 0.4886 -3.5197 1.8543, -0.7047 -3.5197 2.969, 0.7047 -3.5197 2.0705, 0.7047 -3.5197 2.969, -0.566 -3.5197 0.411, -0.7047 -3.5197 0.3627, -0.7047 -3.5197 1.0476, -0.2008 -3.5197 0.6614, -0.4886 -3.5197 1.2638, 0.2008 -3.5197 0.6614, 0.4886 -3.5197 1.2638, 0.566 -3.5197 0.411, 0.7047 -3.5197 1.0476, 0.7047 -3.5197 0.3627, 0.4886 -2.3386 1.8543, -0.4886 -2.3386 1.8543, 0.4886 -2.3386 1.2638, -0.4886 -2.3386 1.2638, -0.7047 -2.3386 1.0476, -0.7047 -2.3386 0.3627, -1.0 -2.3386 0.9685, -1.0 -2.3386 0.3228, -1.2953 -2.3386 1.0476, -1.2953 -2.3386 0.3627, -0.4094 -2.3386 1.5591, 0.4094 -2.3386 1.5591, -0.7047 -2.3386 2.969, -0.7047 -2.3386 2.0705, -1.2953 -2.3386 2.969, -1.0 -2.3386 2.1496, -1.2953 -2.3386 2.0705, -1.2953 -3.5197 1.0476, -1.2953 -3.5197 0.3627, -1.2953 -3.5197 2.0705, -1.2953 -3.5197 2.969, -0.2008 0.7874 0.6614, 0.2008 0.7874 0.6614, -1.434 0.7874 0.411, -1.0 0.7874 0.3228, -0.566 0.7874 0.411, -1.434 -3.5197 0.411, -1.7992 -3.5197 0.6614, -1.7992 0.7874 0.6614, -1.5114 -3.5197 1.2638, -1.5114 -2.3386 1.2638, -1.5114 -3.5197 1.8543, -1.5114 -2.3386 1.8543, -0.4886 -1.9449 1.2638, -0.7047 -1.9449 1.0476, -1.0 -1.9449 0.9685, -1.2953 -1.9449 1.0476, -1.5114 -1.9449 1.2638, -1.5906 -2.3386 1.5591, -1.5906 -1.9449 1.5591, -1.5114 -1.9449 1.8543, -1.2953 -1.9449 2.0705, -1.0 -1.9449 2.1496, -0.7047 -1.9449 2.0705, -0.4886 -1.9449 1.8543, -0.4094 -1.9449 1.5591, -1.1968 -1.9449 1.3622, -1.1968 -1.9449 1.7559, -0.8031 -1.9449 1.3622, -0.8031 -1.9449 1.7559, -1.1968 0.2717 3.5831, -1.1968 0.2717 2.969, -1.2953 0.7874 3.3981, -1.2953 0.7874 3.0871, -0.7835 -3.937 1.7874, -0.7835 -2.9488 1.7874, -0.7835 -3.937 -0.0, -0.7835 -2.9488 -0.0, -0.8031 -2.9488 1.6527, -0.8031 -2.9488 1.024, -1.1968 -2.9488 1.6527, -1.2165 -2.9488 1.7874, -1.1968 -2.9488 1.024, -1.2165 -2.9488 -0.0, -1.2165 -3.937 1.7874, -1.2165 -3.937 -0.0
            ]
        }
        coordIndex [
            0,1,2,-1,2,1,3,-1,4,5,0,-1,0,5,1,-1,6,7,4,-1,4,7,5,-1,8,9,10,-1,10,9,11,-1,10,11,12,-1,12,11,13,-1,14,15,16,-1,14,16,17,-1,17,16,18,-1,17,18,19,-1,19,18,20,-1,19,20,21,-1,21,20,22,-1,21,22,23,-1,10,24,8,-1,8,24,25,-1,26,20,27,-1,27,20,18,-1,28,29,30,-1,30,29,31,-1,30,31,32,-1,32,31,33,-1,25,24,34,-1,34,24,35,-1,34,35,27,-1,27,35,26,-1,36,37,38,-1,38,37,39,-1,38,39,40,-1,16,15,28,-1,28,15,29,-1,32,33,41,-1,41,33,42,-1,37,36,9,-1,9,36,11,-1,43,44,40,-1,40,44,38,-1,17,19,45,-1,45,19,46,-1,29,15,14,-1,47,33,48,-1,48,33,31,-1,48,31,49,-1,17,45,14,-1,14,45,49,-1,14,49,29,-1,29,49,31,-1,42,33,50,-1,50,33,47,-1,50,47,51,-1,51,47,52,-1,41,53,32,-1,32,53,54,-1,55,43,56,-1,56,43,40,-1,9,8,37,-1,37,8,25,-1,18,16,27,-1,27,16,28,-1,57,28,58,-1,58,28,30,-1,58,30,59,-1,59,30,32,-1,59,32,60,-1,60,32,54,-1,60,54,61,-1,61,54,62,-1,61,62,63,-1,63,62,56,-1,63,56,64,-1,64,56,40,-1,64,40,65,-1,65,40,39,-1,65,39,66,-1,66,39,37,-1,66,37,67,-1,67,37,25,-1,67,25,68,-1,68,25,34,-1,68,34,69,-1,69,34,27,-1,69,27,57,-1,57,27,28,-1,66,67,68,-1,60,61,70,-1,70,61,63,-1,70,63,71,-1,71,63,64,-1,60,70,59,-1,59,70,72,-1,59,72,58,-1,64,65,71,-1,71,65,66,-1,71,66,73,-1,73,66,68,-1,73,68,72,-1,72,68,69,-1,72,69,58,-1,58,69,57,-1,4,0,6,-1,6,0,2,-1,74,75,76,-1,76,75,77,-1,74,6,75,-1,75,6,2,-1,78,79,80,-1,80,79,81,-1,79,82,83,-1,82,79,84,-1,84,79,85,-1,84,85,86,-1,86,85,87,-1,86,87,83,-1,83,87,81,-1,83,81,79,-1,85,88,87,-1,87,88,89,-1,88,85,78,-1,78,85,79,-1,
        ]
    }
}
Shape{
    appearance Appearance {
        material  Material {
            diffuseColor 0.7529411764705882 0.7529411764705882 0.7529411764705882
            specularColor 0.3764705882352941 0.3764705882352941 0.3764705882352941
            ambientIntensity 0.7529
            transparency 0.0
            shininess 0.5
        }
    }
    geometry IndexedFaceSet {
        ccw TRUE
        solid FALSE
        coord DEF co Coordinate {
            point [
                -1.1968 -2.9528 -1.2205, -1.1968 -2.9528 0.9685, -0.8031 -2.9528 -1.2205, -0.8031 -2.9528 0.9685, -1.1968 -3.3465 -1.2205, -1.1968 -3.3465 0.9685, -0.8031 -3.3465 -1.2205, -0.8031 -3.3465 0.9685, -1.0394 -3.189 -1.378, -1.0394 -3.1102 -1.378, -0.9606 -3.189 -1.378, -0.9606 -3.1102 -1.378, -1.1968 -2.9488 1.024, -0.8031 -2.9488 1.024, -1.1968 -3.1603 1.4769, -1.1968 -2.9488 1.6527, -1.1968 -3.2985 1.2392, -0.8031 -3.2985 1.2392, -0.8031 -3.1603 1.4769, -0.8031 -2.9488 1.6527, -1.0394 0.315 1.5197, -1.0394 0.315 1.5984, -0.9606 0.315 1.5197, -0.9606 0.315 1.5984, -0.8031 0.1575 1.7559, -0.8031 -1.9449 1.7559, -0.8031 0.1575 1.3622, -0.8031 -1.9449 1.3622, -1.1968 0.1575 1.7559, -1.1968 -1.9449 1.7559, -1.1968 0.1575 1.3622, -1.1968 -1.9449 1.3622
            ]
        }
        coordIndex [
            0,1,2,-1,2,1,3,-1,4,5,0,-1,0,5,1,-1,6,7,4,-1,4,7,5,-1,2,3,6,-1,6,3,7,-1,8,9,10,-1,10,9,11,-1,12,13,1,-1,1,13,3,-1,14,15,16,-1,16,15,12,-1,16,12,5,-1,5,12,1,-1,5,7,17,-1,5,17,16,-1,16,17,18,-1,16,18,14,-1,14,18,19,-1,14,19,15,-1,7,3,13,-1,17,7,18,-1,18,7,13,-1,18,13,19,-1,20,21,22,-1,22,21,23,-1,24,25,26,-1,26,25,27,-1,28,29,24,-1,24,29,25,-1,30,31,28,-1,28,31,29,-1,26,27,30,-1,30,27,31,-1,21,28,23,-1,23,28,24,-1,20,30,21,-1,21,30,28,-1,26,22,24,-1,24,22,23,-1,22,26,20,-1,20,26,30,-1,2,11,0,-1,0,11,9,-1,6,10,2,-1,2,10,11,-1,8,4,9,-1,9,4,0,-1,4,8,6,-1,6,8,10,-1,
        ]
    }
}
Shape{
    appearance Appearance {
        material  Material {
            diffuseColor 0.5294117647058824 1.0 0.9607843137254902
            specularColor 0.26666666666666666 0.5019607843137255 0.47843137254901963
            ambientIntensity 0.8548
            transparency 0.0
            shininess 0.5
        }
    }
    geometry IndexedFaceSet {
        ccw TRUE
        solid FALSE
        coord DEF co Coordinate {
            point [
                1.2953 0.7874 3.0871, 2.7047 0.7874 3.0871, 1.1969 0.2717 2.969, 2.8032 0.2717 2.969, 1.2953 0.7874 3.3981, 2.7047 0.7874 3.3981, 1.1969 0.2717 3.5831, 2.8032 0.2717 3.5831, 2.4886 -3.5197 1.8543, 1.5114 -3.5197 1.8543, 2.7047 -3.5197 2.0705, 1.2953 -3.5197 2.0705, 2.7047 -3.5197 2.969, 1.2953 -3.5197 2.969, 1.434 -3.5197 0.411, 1.2953 -3.5197 0.3627, 1.2953 -3.5197 1.0476, 1.7992 -3.5197 0.6614, 1.5114 -3.5197 1.2638, 2.2008 -3.5197 0.6614, 2.4886 -3.5197 1.2638, 2.566 -3.5197 0.411, 2.7047 -3.5197 1.0476, 2.7047 -3.5197 0.3627, 2.4886 -2.3386 1.8543, 1.5114 -2.3386 1.8543, 2.4886 -2.3386 1.2638, 1.5114 -2.3386 1.2638, 1.2953 -2.3386 1.0476, 1.2953 -2.3386 0.3627, 1.0 -2.3386 0.9685, 1.0 -2.3386 0.3228, 0.7047 -2.3386 1.0476, 0.7047 -2.3386 0.3627, 1.5906 -2.3386 1.5591, 2.4094 -2.3386 1.5591, 1.2953 -2.3386 2.969, 1.2953 -2.3386 2.0705, 0.7047 -2.3386 2.969, 1.0 -2.3386 2.1496, 0.7047 -2.3386 2.0705, 0.7047 -3.5197 1.0476, 0.7047 -3.5197 0.3627, 0.7047 -3.5197 2.0705, 0.7047 -3.5197 2.969, 1.7992 0.7874 0.6614, 2.2008 0.7874 0.6614, 0.566 0.7874 0.411, 1.0 0.7874 0.3228, 1.434 0.7874 0.411, 0.566 -3.5197 0.411, 0.2008 -3.5197 0.6614, 0.2008 0.7874 0.6614, 0.4886 -3.5197 1.2638, 0.4886 -2.3386 1.2638, 0.4886 -3.5197 1.8543, 0.4886 -2.3386 1.8543, 1.5114 -1.9449 1.2638, 1.2953 -1.9449 1.0476, 1.0 -1.9449 0.9685, 0.7047 -1.9449 1.0476, 0.4886 -1.9449 1.2638, 0.4094 -2.3386 1.5591, 0.4094 -1.9449 1.5591, 0.4886 -1.9449 1.8543, 0.7047 -1.9449 2.0705, 1.0 -1.9449 2.1496, 1.2953 -1.9449 2.0705, 1.5114 -1.9449 1.8543, 1.5906 -1.9449 1.5591, 0.8032 -1.9449 1.3622, 0.8032 -1.9449 1.7559, 1.1969 -1.9449 1.3622, 1.1969 -1.9449 1.7559, 0.8032 0.2717 3.5831, 0.8032 0.2717 2.969, 0.7047 0.7874 3.3981, 0.7047 0.7874 3.0871, 1.2165 -3.937 1.7874, 1.2165 -2.9488 1.7874, 1.2165 -3.937 -0.0, 1.2165 -2.9488 -0.0, 1.1969 -2.9488 1.6527, 1.1969 -2.9488 1.024, 0.8032 -2.9488 1.6527, 0.7835 -2.9488 1.7874, 0.8032 -2.9488 1.024, 0.7835 -2.9488 -0.0, 0.7835 -3.937 1.7874, 0.7835 -3.937 -0.0
            ]
        }
        coordIndex [
            0,1,2,-1,2,1,3,-1,4,5,0,-1,0,5,1,-1,6,7,4,-1,4,7,5,-1,8,9,10,-1,10,9,11,-1,10,11,12,-1,12,11,13,-1,14,15,16,-1,14,16,17,-1,17,16,18,-1,17,18,19,-1,19,18,20,-1,19,20,21,-1,21,20,22,-1,21,22,23,-1,8,24,9,-1,9,24,25,-1,26,20,27,-1,27,20,18,-1,28,29,30,-1,30,29,31,-1,30,31,32,-1,32,31,33,-1,25,24,34,-1,34,24,35,-1,34,35,27,-1,27,35,26,-1,36,37,38,-1,38,37,39,-1,38,39,40,-1,16,15,28,-1,28,15,29,-1,32,33,41,-1,41,33,42,-1,37,36,11,-1,11,36,13,-1,43,44,40,-1,40,44,38,-1,17,19,45,-1,45,19,46,-1,29,15,14,-1,47,33,48,-1,48,33,31,-1,48,31,49,-1,17,45,14,-1,14,45,49,-1,14,49,29,-1,29,49,31,-1,42,33,50,-1,50,33,47,-1,50,47,51,-1,51,47,52,-1,41,53,32,-1,32,53,54,-1,55,43,56,-1,56,43,40,-1,11,9,37,-1,37,9,25,-1,18,16,27,-1,27,16,28,-1,57,28,58,-1,58,28,30,-1,58,30,59,-1,59,30,32,-1,59,32,60,-1,60,32,54,-1,60,54,61,-1,61,54,62,-1,61,62,63,-1,63,62,56,-1,63,56,64,-1,64,56,40,-1,64,40,65,-1,65,40,39,-1,65,39,66,-1,66,39,37,-1,66,37,67,-1,67,37,25,-1,67,25,68,-1,68,25,34,-1,68,34,69,-1,69,34,27,-1,69,27,57,-1,57,27,28,-1,66,67,68,-1,60,61,70,-1,70,61,63,-1,70,63,71,-1,71,63,64,-1,60,70,59,-1,59,70,72,-1,59,72,58,-1,64,65,71,-1,71,65,66,-1,71,66,73,-1,73,66,68,-1,73,68,72,-1,72,68,69,-1,72,69,58,-1,58,69,57,-1,4,0,6,-1,6,0,2,-1,74,75,76,-1,76,75,77,-1,74,6,75,-1,75,6,2,-1,78,79,80,-1,80,79,81,-1,79,82,83,-1,82,79,84,-1,84,79,85,-1,84,85,86,-1,86,85,87,-1,86,87,83,-1,83,87,81,-1,83,81,79,-1,85,88,87,-1,87,88,89,-1,88,85,78,-1,78,85,79,-1,
        ]
    }
}
Shape{
    appearance Appearance {
        material  Material {
            diffuseColor 0.7529411764705882 0.7529411764705882 0.7529411764705882
            specularColor 0.3764705882352941 0.3764705882352941 0.3764705882352941
            ambientIntensity 0.7529
            transparency 0.0
            shininess 0.5
        }
    }
    geometry IndexedFaceSet {
        ccw TRUE
        solid FALSE
        coord DEF co Coordinate {
            point [
                0.8032 -2.9528 -1.2205, 0.8032 -2.9528 0.9685, 1.1969 -2.9528 -1.2205, 1.1969 -2.9528 0.9685, 0.8032 -3.3465 -1.2205, 0.8032 -3.3465 0.9685, 1.1969 -3.3465 -1.2205, 1.1969 -3.3465 0.9685, 0.9606 -3.189 -1.378, 0.9606 -3.1102 -1.378, 1.0394 -3.189 -1.378, 1.0394 -3.1102 -1.378, 0.8032 -2.9488 1.024, 1.1969 -2.9488 1.024, 0.8032 -3.1603 1.4769, 0.8032 -2.9488 1.6527, 0.8032 -3.2985 1.2392, 1.1969 -3.2985 1.2392, 1.1969 -3.1603 1.4769, 1.1969 -2.9488 1.6527, 0.9606 0.315 1.5197, 0.9606 0.315 1.5984, 1.0394 0.315 1.5197, 1.0394 0.315 1.5984, 1.1969 0.1575 1.7559, 1.1969 -1.9449 1.7559, 1.1969 0.1575 1.3622, 1.1969 -1.9449 1.3622, 0.8032 0.1575 1.7559, 0.8032 -1.9449 1.7559, 0.8032 0.1575 1.3622, 0.8032 -1.9449 1.3622
            ]
        }
        coordIndex [
            0,1,2,-1,2,1,3,-1,4,5,0,-1,0,5,1,-1,6,7,4,-1,4,7,5,-1,2,3,6,-1,6,3,7,-1,8,9,10,-1,10,9,11,-1,12,13,1,-1,1,13,3,-1,14,15,16,-1,16,15,12,-1,16,12,5,-1,5,12,1,-1,5,7,17,-1,5,17,16,-1,16,17,18,-1,16,18,14,-1,14,18,19,-1,14,19,15,-1,7,3,13,-1,17,7,18,-1,18,7,13,-1,18,13,19,-1,20,21,22,-1,22,21,23,-1,24,25,26,-1,26,25,27,-1,28,29,24,-1,24,29,25,-1,30,31,28,-1,28,31,29,-1,26,27,30,-1,30,27,31,-1,21,28,23,-1,23,28,24,-1,20,30,21,-1,21,30,28,-1,26,22,24,-1,24,22,23,-1,22,26,20,-1,20,26,30,-1,2,11,0,-1,0,11,9,-1,6,10,2,-1,2,10,11,-1,8,4,9,-1,9,4,0,-1,4,8,6,-1,6,8,10,-1,
        ]
    }
}
Shape{
    appearance Appearance {
        material  Material {
            diffuseColor 0.5294117647058824 1.0 0.9607843137254902
            specularColor 0.26666666666666666 0.5019607843137255 0.47843137254901963
            ambientIntensity 0.8548
            transparency 0.0
            shininess 0.5
        }
    }
    geometry IndexedFaceSet {
        ccw TRUE
        solid FALSE
        coord DEF co Coordinate {
            point [
                3.2953 0.7874 3.0871, 4.7047 0.7874 3.0871, 3.1969 0.2717 2.969, 4.8032 0.2717 2.969, 3.2953 0.7874 3.3981, 4.7047 0.7874 3.3981, 3.1969 0.2717 3.5831, 4.8032 0.2717 3.5831, 4.4886 -3.5197 1.8543, 3.5114 -3.5197 1.8543, 4.7047 -3.5197 2.0705, 3.2953 -3.5197 2.0705, 4.7047 -3.5197 2.969, 3.2953 -3.5197 2.969, 3.434 -3.5197 0.411, 3.2953 -3.5197 0.3627, 3.2953 -3.5197 1.0476, 3.7992 -3.5197 0.6614, 3.5114 -3.5197 1.2638, 4.2008 -3.5197 0.6614, 4.4886 -3.5197 1.2638, 4.566 -3.5197 0.411, 4.7047 -3.5197 1.0476, 4.7047 -3.5197 0.3627, 4.4886 -2.3386 1.8543, 3.5114 -2.3386 1.8543, 4.4886 -2.3386 1.2638, 3.5114 -2.3386 1.2638, 3.2953 -2.3386 1.0476, 3.2953 -2.3386 0.3627, 3.0 -2.3386 0.9685, 3.0 -2.3386 0.3228, 2.7047 -2.3386 1.0476, 2.7047 -2.3386 0.3627, 4.4094 -2.3386 1.5591, 3.5906 -2.3386 1.5591, 3.2953 -2.3386 2.969, 3.2953 -2.3386 2.0705, 2.7047 -2.3386 2.969, 3.0 -2.3386 2.1496, 2.7047 -2.3386 2.0705, 2.7047 -3.5197 1.0476, 2.7047 -3.5197 0.3627, 2.7047 -3.5197 2.0705, 2.7047 -3.5197 2.969
            ]
        }
        coordIndex [
            0,1,2,-1,2,1,3,-1,4,5,0,-1,0,5,1,-1,6,7,4,-1,4,7,5,-1,8,9,10,-1,10,9,11,-1,10,11,12,-1,12,11,13,-1,14,15,16,-1,14,16,17,-1,17,16,18,-1,17,18,19,-1,19,18,20,-1,19,20,21,-1,21,20,22,-1,21,22,23,-1,8,24,9,-1,9,24,25,-1,26,20,27,-1,27,20,18,-1,28,29,30,-1,30,29,31,-1,30,31,32,-1,32,31,33,-1,26,27,34,-1,34,27,35,-1,34,35,24,-1,24,35,25,-1,36,37,38,-1,38,37,39,-1,38,39,40,-1,16,15,28,-1,28,15,29,-1,32,33,41,-1,41,33,42,-1,37,36,11,-1,11,36,13,-1,43,44,40,-1,40,44,38,-1,
        ]
    }
}
Shape{
    appearance Appearance {
        material  Material {
            diffuseColor 0.7529411764705882 0.7529411764705882 0.7529411764705882
            specularColor 0.3764705882352941 0.3764705882352941 0.3764705882352941
            ambientIntensity 0.7529
            transparency 0.0
            shininess 0.5
        }
    }
    geometry IndexedFaceSet {
        ccw TRUE
        solid FALSE
        coord DEF co Coordinate {
            point [
                3.7992 -3.5197 0.6614, 4.2008 -3.5197 0.6614, 3.7992 0.7874 0.6614, 4.2008 0.7874 0.6614
            ]
        }
        coordIndex [
            0,1,2,-1,2,1,3,-1,
        ]
    }
}
Shape{
    appearance Appearance {
        material  Material {
            diffuseColor 0.5294117647058824 1.0 0.9607843137254902
            specularColor 0.26666666666666666 0.5019607843137255 0.47843137254901963
            ambientIntensity 0.8548
            transparency 0.0
            shininess 0.5
        }
    }
    geometry IndexedFaceSet {
        ccw TRUE
        solid FALSE
        coord DEF co Coordinate {
            point [
                3.2953 -2.3386 0.3627, 3.2953 -3.5197 0.3627, 3.434 -3.5197 0.411, 2.566 0.7874 0.411, 2.7047 -2.3386 0.3627, 3.0 0.7874 0.3228, 3.0 -2.3386 0.3228, 3.434 0.7874 0.411, 3.7992 -3.5197 0.6614, 3.7992 0.7874 0.6614, 2.7047 -3.5197 0.3627, 2.566 -3.5197 0.411, 2.2008 -3.5197 0.6614, 2.2008 0.7874 0.6614, 3.2953 -1.9449 1.0476, 3.2953 -2.3386 1.0476, 3.0 -2.3386 0.9685, 3.5114 -2.3386 1.2638, 3.5114 -1.9449 1.2638, 3.5906 -1.9449 1.5591, 3.5906 -2.3386 1.5591, 3.5114 -1.9449 1.8543, 3.5114 -2.3386 1.8543, 2.7047 -3.5197 1.0476, 2.4886 -3.5197 1.2638, 2.7047 -2.3386 1.0476, 2.4886 -2.3386 1.2638, 2.4886 -3.5197 1.8543, 2.7047 -3.5197 2.0705, 2.4886 -2.3386 1.8543, 2.7047 -2.3386 2.0705, 3.0 -1.9449 0.9685, 2.7047 -1.9449 1.0476, 2.4886 -1.9449 1.2638, 2.4094 -2.3386 1.5591, 2.4094 -1.9449 1.5591, 2.4886 -1.9449 1.8543, 2.7047 -1.9449 2.0705, 3.0 -2.3386 2.1496, 3.0 -1.9449 2.1496, 3.2953 -2.3386 2.0705, 3.2953 -1.9449 2.0705, 3.2953 -3.5197 2.0705, 3.5114 -3.5197 1.8543, 3.5114 -3.5197 1.2638, 3.2953 -3.5197 1.0476, 2.8032 -1.9449 1.3622, 2.8032 -1.9449 1.7559, 3.1969 -1.9449 1.3622, 3.1969 -1.9449 1.7559, 3.2953 0.7874 3.3981, 3.2953 0.7874 3.0871, 3.1969 0.2717 3.5831, 3.1969 0.2717 2.969, 2.8032 0.2717 3.5831, 2.8032 0.2717 2.969, 2.7047 0.7874 3.3981, 2.7047 0.7874 3.0871, 3.2165 -3.937 1.7874, 3.2165 -2.9488 1.7874, 3.2165 -3.937 -0.0, 3.2165 -2.9488 -0.0, 3.1969 -2.9488 1.6527, 3.1969 -2.9488 1.024, 2.8032 -2.9488 1.6527, 2.7835 -2.9488 1.7874, 2.8032 -2.9488 1.024, 2.7835 -2.9488 -0.0, 2.7835 -3.937 1.7874, 2.7835 -3.937 -0.0
            ]
        }
        coordIndex [
            0,1,2,-1,3,4,5,-1,5,4,6,-1,5,6,7,-1,8,9,2,-1,2,9,7,-1,2,7,0,-1,0,7,6,-1,10,4,11,-1,11,4,3,-1,11,3,12,-1,12,3,13,-1,14,15,16,-1,17,18,19,-1,17,19,20,-1,20,19,21,-1,20,21,22,-1,23,24,25,-1,25,24,26,-1,27,28,29,-1,29,28,30,-1,14,16,31,-1,31,16,25,-1,31,25,32,-1,32,25,26,-1,32,26,33,-1,33,26,34,-1,33,34,35,-1,35,34,29,-1,35,29,36,-1,36,29,30,-1,36,30,37,-1,37,30,38,-1,37,38,39,-1,39,38,40,-1,39,40,41,-1,42,43,40,-1,40,43,22,-1,40,22,41,-1,41,22,21,-1,44,45,17,-1,17,45,15,-1,17,15,18,-1,18,15,14,-1,39,41,21,-1,32,33,46,-1,46,33,35,-1,46,35,47,-1,47,35,36,-1,32,46,31,-1,31,46,48,-1,31,48,14,-1,36,37,47,-1,47,37,39,-1,47,39,49,-1,49,39,21,-1,49,21,48,-1,48,21,19,-1,48,19,14,-1,14,19,18,-1,50,51,52,-1,52,51,53,-1,54,55,56,-1,56,55,57,-1,54,52,55,-1,55,52,53,-1,58,59,60,-1,60,59,61,-1,59,62,63,-1,62,59,64,-1,64,59,65,-1,64,65,66,-1,66,65,67,-1,66,67,63,-1,63,67,61,-1,63,61,59,-1,65,68,67,-1,67,68,69,-1,68,65,58,-1,58,65,59,-1,
        ]
    }
}
Shape{
    appearance Appearance {
        material  Material {
            diffuseColor 0.7529411764705882 0.7529411764705882 0.7529411764705882
            specularColor 0.3764705882352941 0.3764705882352941 0.3764705882352941
            ambientIntensity 0.7529
            transparency 0.0
            shininess 0.5
        }
    }
    geometry IndexedFaceSet {
        ccw TRUE
        solid FALSE
        coord DEF co Coordinate {
            point [
                2.8032 -2.9528 -1.2205, 2.8032 -2.9528 0.9685, 3.1969 -2.9528 -1.2205, 3.1969 -2.9528 0.9685, 2.8032 -3.3465 -1.2205, 2.8032 -3.3465 0.9685, 3.1969 -3.3465 -1.2205, 3.1969 -3.3465 0.9685, 2.9606 -3.189 -1.378, 2.9606 -3.1102 -1.378, 3.0394 -3.189 -1.378, 3.0394 -3.1102 -1.378, 2.8032 -2.9488 1.024, 3.1969 -2.9488 1.024, 2.8032 -3.1603 1.4769, 2.8032 -2.9488 1.6527, 2.8032 -3.2985 1.2392, 3.1969 -3.2985 1.2392, 3.1969 -3.1603 1.4769, 3.1969 -2.9488 1.6527, 2.9606 0.315 1.5197, 2.9606 0.315 1.5984, 3.0394 0.315 1.5197, 3.0394 0.315 1.5984, 3.1969 0.1575 1.7559, 3.1969 -1.9449 1.7559, 3.1969 0.1575 1.3622, 3.1969 -1.9449 1.3622, 2.8032 0.1575 1.7559, 2.8032 -1.9449 1.7559, 2.8032 0.1575 1.3622, 2.8032 -1.9449 1.3622
            ]
        }
        coordIndex [
            0,1,2,-1,2,1,3,-1,4,5,0,-1,0,5,1,-1,6,7,4,-1,4,7,5,-1,2,3,6,-1,6,3,7,-1,8,9,10,-1,10,9,11,-1,12,13,1,-1,1,13,3,-1,14,15,16,-1,16,15,12,-1,16,12,5,-1,5,12,1,-1,5,7,17,-1,5,17,16,-1,16,17,18,-1,16,18,14,-1,14,18,19,-1,14,19,15,-1,7,3,13,-1,17,7,18,-1,18,7,13,-1,18,13,19,-1,20,21,22,-1,22,21,23,-1,24,25,26,-1,26,25,27,-1,28,29,24,-1,24,29,25,-1,30,31,28,-1,28,31,29,-1,26,27,30,-1,30,27,31,-1,21,28,23,-1,23,28,24,-1,20,30,21,-1,21,30,28,-1,26,22,24,-1,24,22,23,-1,22,26,20,-1,20,26,30,-1,2,11,0,-1,0,11,9,-1,6,10,2,-1,2,10,11,-1,8,4,9,-1,9,4,0,-1,4,8,6,-1,6,8,10,-1,
        ]
    }
}
Shape{
    appearance Appearance {
        material  Material {
            diffuseColor 0.5294117647058824 1.0 0.9607843137254902
            specularColor 0.26666666666666666 0.5019607843137255 0.47843137254901963
            ambientIntensity 0.8548
            transparency 0.0
            shininess 0.5
        }
    }
    geometry IndexedFaceSet {
        ccw TRUE
        solid FALSE
        coord DEF co Coordinate {
            point [
                5.2953 0.7874 3.0871, 6.7047 0.7874 3.0871, 5.1969 0.2717 2.969, 6.8032 0.2717 2.969, 5.2953 0.7874 3.3981, 6.7047 0.7874 3.3981, 5.1969 0.2717 3.5831, 6.8032 0.2717 3.5831, 5.2953 -3.5197 2.0705, 5.2953 -3.5197 2.969, 6.7047 -3.5197 2.969, 5.5114 -3.5197 1.8543, 6.4886 -3.5197 1.8543, 6.7047 -3.5197 2.0705, 5.434 -3.5197 0.411, 5.2953 -3.5197 0.3627, 5.2953 -3.5197 1.0476, 5.7992 -3.5197 0.6614, 5.5114 -3.5197 1.2638, 6.2008 -3.5197 0.6614, 6.4886 -3.5197 1.2638, 6.566 -3.5197 0.411, 6.7047 -3.5197 1.0476, 6.7047 -3.5197 0.3627, 6.4886 -2.3386 1.8543, 5.5114 -2.3386 1.8543, 6.4886 -2.3386 1.2638, 5.5114 -2.3386 1.2638, 5.2953 -2.3386 1.0476, 5.2953 -2.3386 0.3627, 5.0 -2.3386 0.9685, 5.0 -2.3386 0.3228, 4.7047 -2.3386 1.0476, 4.7047 -2.3386 0.3627, 6.4094 -2.3386 1.5591, 5.5906 -2.3386 1.5591, 4.7047 -2.3386 2.0705, 4.7047 -2.3386 2.969, 5.0 -2.3386 2.1496, 5.2953 -2.3386 2.969, 5.2953 -2.3386 2.0705, 4.7047 -3.5197 1.0476, 4.7047 -3.5197 0.3627, 4.7047 -3.5197 2.0705, 4.7047 -3.5197 2.969, 5.7992 0.7874 0.6614, 6.2008 0.7874 0.6614, 4.566 0.7874 0.411, 5.0 0.7874 0.3228, 5.434 0.7874 0.411, 4.566 -3.5197 0.411, 4.2008 -3.5197 0.6614, 4.2008 0.7874 0.6614, 5.2953 -1.9449 1.0476, 5.5114 -1.9449 1.2638, 5.5906 -1.9449 1.5591, 5.5114 -1.9449 1.8543, 4.4886 -3.5197 1.2638, 4.4886 -2.3386 1.2638, 4.4886 -3.5197 1.8543, 4.4886 -2.3386 1.8543, 5.0 -1.9449 0.9685, 4.7047 -1.9449 1.0476, 4.4886 -1.9449 1.2638, 4.4094 -2.3386 1.5591, 4.4094 -1.9449 1.5591, 4.4886 -1.9449 1.8543, 4.7047 -1.9449 2.0705, 5.0 -1.9449 2.1496, 5.2953 -1.9449 2.0705, 4.8032 -1.9449 1.3622, 4.8032 -1.9449 1.7559, 5.1969 -1.9449 1.3622, 5.1969 -1.9449 1.7559, 4.8032 0.2717 3.5831, 4.8032 0.2717 2.969, 4.7047 0.7874 3.3981, 4.7047 0.7874 3.0871, 5.2165 -3.937 1.7874, 5.2165 -2.9488 1.7874, 5.2165 -3.937 -0.0, 5.2165 -2.9488 -0.0, 5.1969 -2.9488 1.6527, 5.1969 -2.9488 1.024, 4.8032 -2.9488 1.6527, 4.7835 -2.9488 1.7874, 4.8032 -2.9488 1.024, 4.7835 -2.9488 -0.0, 4.7835 -3.937 1.7874, 4.7835 -3.937 -0.0
            ]
        }
        coordIndex [
            0,1,2,-1,2,1,3,-1,4,5,0,-1,0,5,1,-1,6,7,4,-1,4,7,5,-1,8,9,10,-1,11,8,12,-1,12,8,10,-1,12,10,13,-1,14,15,16,-1,14,16,17,-1,17,16,18,-1,17,18,19,-1,19,18,20,-1,19,20,21,-1,21,20,22,-1,21,22,23,-1,12,24,11,-1,11,24,25,-1,26,20,27,-1,27,20,18,-1,28,29,30,-1,30,29,31,-1,30,31,32,-1,32,31,33,-1,26,27,34,-1,34,27,35,-1,34,35,24,-1,24,35,25,-1,36,37,38,-1,38,37,39,-1,38,39,40,-1,16,15,28,-1,28,15,29,-1,32,33,41,-1,41,33,42,-1,40,39,8,-1,8,39,9,-1,43,44,36,-1,36,44,37,-1,17,19,45,-1,45,19,46,-1,29,15,14,-1,47,33,48,-1,48,33,31,-1,48,31,49,-1,17,45,14,-1,14,45,49,-1,14,49,29,-1,29,49,31,-1,42,33,50,-1,50,33,47,-1,50,47,51,-1,51,47,52,-1,53,28,30,-1,27,54,55,-1,27,55,35,-1,35,55,56,-1,35,56,25,-1,41,57,32,-1,32,57,58,-1,59,43,60,-1,60,43,36,-1,53,30,61,-1,61,30,32,-1,61,32,62,-1,62,32,58,-1,62,58,63,-1,63,58,64,-1,63,64,65,-1,65,64,60,-1,65,60,66,-1,66,60,36,-1,66,36,67,-1,67,36,38,-1,67,38,68,-1,68,38,40,-1,68,40,69,-1,8,11,40,-1,40,11,25,-1,40,25,69,-1,69,25,56,-1,18,16,27,-1,27,16,28,-1,27,28,54,-1,54,28,53,-1,68,69,56,-1,62,63,70,-1,70,63,65,-1,70,65,71,-1,71,65,66,-1,62,70,61,-1,61,70,72,-1,61,72,53,-1,66,67,71,-1,71,67,68,-1,71,68,73,-1,73,68,56,-1,73,56,72,-1,72,56,55,-1,72,55,53,-1,53,55,54,-1,4,0,6,-1,6,0,2,-1,74,75,76,-1,76,75,77,-1,74,6,75,-1,75,6,2,-1,78,79,80,-1,80,79,81,-1,79,82,83,-1,82,79,84,-1,84,79,85,-1,84,85,86,-1,86,85,87,-1,86,87,83,-1,83,87,81,-1,83,81,79,-1,85,88,87,-1,87,88,89,-1,88,85,78,-1,78,85,79,-1,
        ]
    }
}
Shape{
    appearance Appearance {
        material  Material {
            diffuseColor 0.7529411764705882 0.7529411764705882 0.7529411764705882
            specularColor 0.3764705882352941 0.3764705882352941 0.3764705882352941
            ambientIntensity 0.7529
            transparency 0.0
            shininess 0.5
        }
    }
    geometry IndexedFaceSet {
        ccw TRUE
        solid FALSE
        coord DEF co Coordinate {
            point [
                4.8032 -2.9528 -1.2205, 4.8032 -2.9528 0.9685, 5.1969 -2.9528 -1.2205, 5.1969 -2.9528 0.9685, 4.8032 -3.3465 -1.2205, 4.8032 -3.3465 0.9685, 5.1969 -3.3465 -1.2205, 5.1969 -3.3465 0.9685, 4.9606 -3.189 -1.378, 4.9606 -3.1102 -1.378, 5.0394 -3.189 -1.378, 5.0394 -3.1102 -1.378, 4.8032 -2.9488 1.024, 5.1969 -2.9488 1.024, 4.8032 -3.1603 1.4769, 4.8032 -2.9488 1.6527, 4.8032 -3.2985 1.2392, 5.1969 -3.2985 1.2392, 5.1969 -3.1603 1.4769, 5.1969 -2.9488 1.6527, 4.9606 0.315 1.5197, 4.9606 0.315 1.5984, 5.0394 0.315 1.5197, 5.0394 0.315 1.5984, 5.1969 0.1575 1.7559, 5.1969 -1.9449 1.7559, 5.1969 0.1575 1.3622, 5.1969 -1.9449 1.3622, 4.8032 0.1575 1.7559, 4.8032 -1.9449 1.7559, 4.8032 0.1575 1.3622, 4.8032 -1.9449 1.3622
            ]
        }
        coordIndex [
            0,1,2,-1,2,1,3,-1,4,5,0,-1,0,5,1,-1,6,7,4,-1,4,7,5,-1,2,3,6,-1,6,3,7,-1,8,9,10,-1,10,9,11,-1,12,13,1,-1,1,13,3,-1,14,15,16,-1,16,15,12,-1,16,12,5,-1,5,12,1,-1,5,7,17,-1,5,17,16,-1,16,17,18,-1,16,18,14,-1,14,18,19,-1,14,19,15,-1,7,3,13,-1,17,7,18,-1,18,7,13,-1,18,13,19,-1,20,21,22,-1,22,21,23,-1,24,25,26,-1,26,25,27,-1,28,29,24,-1,24,29,25,-1,30,31,28,-1,28,31,29,-1,26,27,30,-1,30,27,31,-1,21,28,23,-1,23,28,24,-1,20,30,21,-1,21,30,28,-1,26,22,24,-1,24,22,23,-1,22,26,20,-1,20,26,30,-1,2,11,0,-1,0,11,9,-1,6,10,2,-1,2,10,11,-1,8,4,9,-1,9,4,0,-1,4,8,6,-1,6,8,10,-1,
        ]
    }
}
Shape{
    appearance Appearance {
        material  Material {
            diffuseColor 0.5294117647058824 1.0 0.9607843137254902
            specularColor 0.26666666666666666 0.5019607843137255 0.47843137254901963
            ambientIntensity 0.8548
            transparency 0.0
            shininess 0.5
        }
    }
    geometry IndexedFaceSet {
        ccw TRUE
        solid FALSE
        coord DEF co Coordinate {
            point [
                7.1969 0.2717 2.969, 7.2953 0.7874 3.0871, 7.8032 0.2717 2.969, 7.8032 0.7874 3.0871, 7.8032 -3.5197 1.8543, 7.5114 -3.5197 1.8543, 7.8032 -3.5197 2.969, 7.2953 -3.5197 2.0705, 7.2953 -3.5197 2.969, 7.8032 -3.5197 1.2638, 7.8032 -3.5197 0.6614, 7.5114 -3.5197 1.2638, 7.7992 -3.5197 0.6614, 7.2953 -3.5197 1.0476, 7.434 -3.5197 0.411, 7.2953 -3.5197 0.3627, 7.5114 -2.3386 1.8543, 7.8032 -2.3386 1.8543, 7.5114 -2.3386 1.2638, 7.8032 -2.3386 1.2638, 7.5906 -2.3386 1.5591, 7.7992 0.7874 0.6614, 7.8032 0.7874 0.6614, 7.1969 0.2717 3.5831, 8.0 0.2717 3.5831, 7.2953 0.7874 3.3981, 8.0 0.7874 3.3981, 7.2953 -2.3386 1.0476, 7.2953 -2.3386 0.3627, 7.0 -2.3386 0.9685, 7.0 -2.3386 0.3228, 6.7047 -2.3386 1.0476, 6.7047 -2.3386 0.3627, 6.7047 -2.3386 2.0705, 6.7047 -2.3386 2.969, 7.0 -2.3386 2.1496, 7.2953 -2.3386 2.969, 7.2953 -2.3386 2.0705, 6.7047 -3.5197 1.0476, 6.7047 -3.5197 0.3627, 6.7047 -3.5197 2.0705, 6.7047 -3.5197 2.969, 8.0 0.7874 -0.0, 8.0 -0.4016 3.3858, 8.0 -1.4944 -0.0, 8.0 -3.937 3.3858, 8.0 -3.937 -0.0, 8.0 -0.4016 3.5831, 6.566 0.7874 0.411, 7.0 0.7874 0.3228, 7.434 0.7874 0.411, 6.566 -3.5197 0.411, 6.2008 -3.5197 0.6614, 6.2008 0.7874 0.6614, 6.4886 -3.5197 1.2638, 6.4886 -2.3386 1.2638, 6.4886 -3.5197 1.8543, 6.4886 -2.3386 1.8543, 7.5114 -1.9449 1.2638, 7.2953 -1.9449 1.0476, 7.0 -1.9449 0.9685, 6.7047 -1.9449 1.0476, 6.4886 -1.9449 1.2638, 6.4094 -2.3386 1.5591, 6.4094 -1.9449 1.5591, 6.4886 -1.9449 1.8543, 6.7047 -1.9449 2.0705, 7.0 -1.9449 2.1496, 7.2953 -1.9449 2.0705, 7.5114 -1.9449 1.8543, 7.5906 -1.9449 1.5591, 6.8032 -1.9449 1.3622, 6.8032 -1.9449 1.7559, 7.1969 -1.9449 1.3622, 7.1969 -1.9449 1.7559, 6.8032 0.2717 3.5831, 6.8032 0.2717 2.969, 6.7047 0.7874 3.3981, 6.7047 0.7874 3.0871, 7.2165 -3.937 1.7874, 7.2165 -2.9488 1.7874, 7.2165 -3.937 -0.0, 7.2165 -2.9488 -0.0, 7.1969 -2.9488 1.6527, 7.1969 -2.9488 1.024, 6.8032 -2.9488 1.6527, 6.7835 -2.9488 1.7874, 6.8032 -2.9488 1.024, 6.7835 -2.9488 -0.0, 6.7835 -3.937 1.7874, 6.7835 -3.937 -0.0
            ]
        }
        coordIndex [
            0,1,2,-1,2,1,3,-1,4,5,6,-1,6,5,7,-1,6,7,8,-1,9,10,11,-1,11,10,12,-1,11,12,13,-1,13,12,14,-1,13,14,15,-1,16,5,17,-1,17,5,4,-1,11,18,9,-1,9,18,19,-1,16,17,20,-1,20,17,19,-1,20,19,18,-1,21,12,22,-1,22,12,10,-1,23,24,25,-1,25,24,26,-1,27,28,29,-1,29,28,30,-1,29,30,31,-1,31,30,32,-1,33,34,35,-1,35,34,36,-1,35,36,37,-1,13,15,27,-1,27,15,28,-1,31,32,38,-1,38,32,39,-1,37,36,7,-1,7,36,8,-1,40,41,33,-1,33,41,34,-1,42,43,44,-1,44,43,45,-1,44,45,46,-1,42,26,43,-1,43,26,24,-1,43,24,47,-1,28,15,14,-1,48,32,49,-1,49,32,30,-1,49,30,50,-1,12,21,14,-1,14,21,50,-1,14,50,28,-1,28,50,30,-1,39,32,51,-1,51,32,48,-1,51,48,52,-1,52,48,53,-1,38,54,31,-1,31,54,55,-1,56,40,57,-1,57,40,33,-1,7,5,37,-1,37,5,16,-1,11,13,18,-1,18,13,27,-1,58,27,59,-1,59,27,29,-1,59,29,60,-1,60,29,31,-1,60,31,61,-1,61,31,55,-1,61,55,62,-1,62,55,63,-1,62,63,64,-1,64,63,57,-1,64,57,65,-1,65,57,33,-1,65,33,66,-1,66,33,35,-1,66,35,67,-1,67,35,37,-1,67,37,68,-1,68,37,16,-1,68,16,69,-1,69,16,20,-1,69,20,70,-1,70,20,18,-1,70,18,58,-1,58,18,27,-1,67,68,69,-1,61,62,71,-1,71,62,64,-1,71,64,72,-1,72,64,65,-1,61,71,60,-1,60,71,73,-1,60,73,59,-1,65,66,72,-1,72,66,67,-1,72,67,74,-1,74,67,69,-1,74,69,73,-1,73,69,70,-1,73,70,59,-1,59,70,58,-1,25,1,23,-1,23,1,0,-1,75,76,77,-1,77,76,78,-1,75,23,76,-1,76,23,0,-1,79,80,81,-1,81,80,82,-1,80,83,84,-1,83,80,85,-1,85,80,86,-1,85,86,87,-1,87,86,88,-1,87,88,84,-1,84,88,82,-1,84,82,80,-1,86,89,88,-1,88,89,90,-1,89,86,79,-1,79,86,80,-1,
        ]
    }
}
Shape{
    appearance Appearance {
        material  Material {
            diffuseColor 0.7529411764705882 0.7529411764705882 0.7529411764705882
            specularColor 0.3764705882352941 0.3764705882352941 0.3764705882352941
            ambientIntensity 0.7529
            transparency 0.0
            shininess 0.5
        }
    }
    geometry IndexedFaceSet {
        ccw TRUE
        solid FALSE
        coord DEF co Coordinate {
            point [
                6.8032 -2.9528 -1.2205, 6.8032 -2.9528 0.9685, 7.1969 -2.9528 -1.2205, 7.1969 -2.9528 0.9685, 6.8032 -3.3465 -1.2205, 6.8032 -3.3465 0.9685, 7.1969 -3.3465 -1.2205, 7.1969 -3.3465 0.9685, 6.9606 -3.189 -1.378, 6.9606 -3.1102 -1.378, 7.0394 -3.189 -1.378, 7.0394 -3.1102 -1.378, 6.8032 -2.9488 1.024, 7.1969 -2.9488 1.024, 6.8032 -3.1603 1.4769, 6.8032 -2.9488 1.6527, 6.8032 -3.2985 1.2392, 7.1969 -3.2985 1.2392, 7.1969 -3.1603 1.4769, 7.1969 -2.9488 1.6527, 6.9606 0.315 1.5197, 6.9606 0.315 1.5984, 7.0394 0.315 1.5197, 7.0394 0.315 1.5984, 7.1969 0.1575 1.7559, 7.1969 -1.9449 1.7559, 7.1969 0.1575 1.3622, 7.1969 -1.9449 1.3622, 6.8032 0.1575 1.7559, 6.8032 -1.9449 1.7559, 6.8032 0.1575 1.3622, 6.8032 -1.9449 1.3622, 6.7691 -1.5019 0.0039, 6.7691 -1.5668 0.0039, 6.7691 -1.5019 -0.0, 6.7691 -1.5668 -0.0, 6.7649 -1.5705 0.0039, 6.7649 -1.5705 -0.0, 6.7662 -1.5704 -0.0, 6.7662 -1.5704 0.0039, 6.7679 -1.5696 -0.0, 6.7679 -1.5696 0.0039, 6.7687 -1.5686 -0.0, 6.7687 -1.5686 0.0039, 6.7525 -1.5705 0.0039, 6.7525 -1.5705 -0.0, 6.7347 -1.5543 0.0039, 6.7347 -1.5543 -0.0, 6.7385 -1.5631 -0.0, 6.7385 -1.5631 0.0039, 6.7443 -1.5685 -0.0, 6.7443 -1.5685 0.0039, 6.7324 -1.5554 0.0039, 6.7324 -1.5554 -0.0, 6.7365 -1.5737 0.0039, 6.7365 -1.5737 -0.0, 6.7839 -1.5737 0.0039, 6.7839 -1.5737 -0.0, 6.7839 -1.5705 0.0039, 6.7839 -1.5705 -0.0, 6.7807 -1.5705 0.0039, 6.7807 -1.5705 -0.0, 6.7766 -1.5668 0.0039, 6.7766 -1.5668 -0.0, 6.7768 -1.5684 -0.0, 6.7768 -1.5684 0.0039, 6.7775 -1.5695 -0.0, 6.7775 -1.5695 0.0039, 6.7785 -1.5702 -0.0, 6.7785 -1.5702 0.0039, 6.7766 -1.5019 0.0039, 6.7766 -1.5019 -0.0, 6.7807 -1.4982 0.0039, 6.7807 -1.4982 -0.0, 6.7789 -1.4984 -0.0, 6.7789 -1.4984 0.0039, 6.7777 -1.499 -0.0, 6.7777 -1.499 0.0039, 6.7769 -1.5 -0.0, 6.7769 -1.5 0.0039, 6.7834 -1.4982 0.0039, 6.7834 -1.4982 -0.0, 6.7834 -1.495 0.0039, 6.7834 -1.495 -0.0, 6.7618 -1.495 0.0039, 6.7618 -1.495 -0.0, 6.7618 -1.4982 0.0039, 6.7618 -1.4982 -0.0, 6.765 -1.4982 0.0039, 6.765 -1.4982 -0.0, 6.769 -1.5011 -0.0, 6.769 -1.5011 0.0039, 6.7684 -1.4996 -0.0, 6.7684 -1.4996 0.0039, 6.7673 -1.4987 -0.0, 6.7673 -1.4987 0.0039, 6.5129 -1.5642 0.0039, 6.5174 -1.5446 0.0039, 6.5129 -1.5642 -0.0, 6.5174 -1.5446 -0.0, 6.5379 -1.5446 0.0039, 6.5379 -1.5446 -0.0, 6.542 -1.5614 0.0039, 6.542 -1.5614 -0.0, 6.5424 -1.565 0.0039, 6.5424 -1.565 -0.0, 6.5423 -1.5632 -0.0, 6.5423 -1.5632 0.0039, 6.5379 -1.5705 0.0039, 6.5379 -1.5705 -0.0, 6.539 -1.5704 -0.0, 6.539 -1.5704 0.0039, 6.5407 -1.5699 -0.0, 6.5407 -1.5699 0.0039, 6.5416 -1.569 -0.0, 6.5416 -1.569 0.0039, 6.5365 -1.5705 0.0039, 6.5365 -1.5705 -0.0, 6.5365 -1.5737 0.0039, 6.5365 -1.5737 -0.0, 6.5533 -1.5737 0.0039, 6.5533 -1.5737 -0.0, 6.5533 -1.5705 0.0039, 6.5533 -1.5705 -0.0, 6.552 -1.5705 0.0039, 6.552 -1.5705 -0.0, 6.547 -1.5656 0.0039, 6.547 -1.5656 -0.0, 6.5471 -1.566 -0.0, 6.5471 -1.566 0.0039, 6.5481 -1.5686 -0.0, 6.5481 -1.5686 0.0039, 6.5496 -1.5699 -0.0, 6.5496 -1.5699 0.0039, 6.5292 -1.495 0.0039, 6.5292 -1.495 -0.0, 6.5224 -1.4939 0.0039, 6.5224 -1.4939 -0.0, 6.5258 -1.4944 -0.0, 6.5223 -1.4944 -0.0, 6.5052 -1.5655 0.0039, 6.5052 -1.5655 -0.0, 6.4997 -1.5705 0.0039, 6.4997 -1.5705 -0.0, 6.5014 -1.5702 -0.0, 6.5014 -1.5702 0.0039, 6.5033 -1.569 -0.0, 6.5033 -1.569 0.0039, 6.4983 -1.5705 0.0039, 6.4983 -1.5705 -0.0, 6.4983 -1.5737 0.0039, 6.4983 -1.5737 -0.0, 6.5179 -1.5737 0.0039, 6.5179 -1.5737 -0.0, 6.5179 -1.5705 0.0039, 6.5179 -1.5705 -0.0, 6.5161 -1.5705 0.0039, 6.5161 -1.5705 -0.0, 6.5124 -1.5673 0.0039, 6.5124 -1.5673 -0.0, 6.5127 -1.569 -0.0, 6.5127 -1.569 0.0039, 6.5132 -1.5698 -0.0, 6.5132 -1.5698 0.0039, 6.5139 -1.5702 -0.0, 6.5139 -1.5702 0.0039, 6.5125 -1.5657 -0.0, 6.5125 -1.5657 0.0039, 6.5179 -1.5414 0.0039, 6.537 -1.5414 0.0039, 6.5274 -1.5027 0.0039, 6.527 -1.5027 0.0039, 6.5179 -1.5414 -0.0, 6.527 -1.5027 -0.0, 6.537 -1.5414 -0.0, 6.5274 -1.5027 -0.0, 6.603 -1.5668 0.0039, 6.603 -1.5019 0.0039, 6.603 -1.5668 -0.0, 6.603 -1.5019 -0.0, 6.6075 -1.4982 0.0039, 6.6075 -1.4982 -0.0, 6.6074 -1.4982 -0.0, 6.6074 -1.4982 0.0039, 6.6046 -1.4987 -0.0, 6.6046 -1.4987 0.0039, 6.6041 -1.499 -0.0, 6.6041 -1.499 0.0039, 6.6033 -1.5 -0.0, 6.6033 -1.5 0.0039, 6.6105 -1.4982 0.0039, 6.6105 -1.4982 -0.0, 6.6105 -1.495 0.0039, 6.6105 -1.495 -0.0, 6.5899 -1.495 0.0039, 6.5899 -1.495 -0.0, 6.5587 -1.5327 0.0039, 6.5587 -1.5327 -0.0, 6.5597 -1.5209 -0.0, 6.5597 -1.5209 0.0039, 6.5655 -1.5062 -0.0, 6.5655 -1.5062 0.0039, 6.5745 -1.4985 -0.0, 6.5745 -1.4985 0.0039, 6.591 -1.5737 0.0039, 6.591 -1.5737 -0.0, 6.5837 -1.5731 -0.0, 6.5837 -1.5731 0.0039, 6.5714 -1.5681 -0.0, 6.5714 -1.5681 0.0039, 6.563 -1.5574 -0.0, 6.563 -1.5574 0.0039, 6.6105 -1.5737 0.0039, 6.6105 -1.5737 -0.0, 6.6105 -1.5705 0.0039, 6.6105 -1.5705 -0.0, 6.6072 -1.5705 0.0039, 6.6072 -1.5705 -0.0, 6.6032 -1.5684 -0.0, 6.6032 -1.5684 0.0039, 6.6038 -1.5695 -0.0, 6.6038 -1.5695 0.0039, 6.6048 -1.5701 -0.0, 6.6048 -1.5701 0.0039, 6.5802 -1.568 0.0039, 6.595 -1.5686 0.0039, 6.5932 -1.4988 0.0039, 6.575 -1.564 0.0039, 6.5701 -1.5558 0.0039, 6.5674 -1.5337 0.0039, 6.5905 -1.5705 0.0039, 6.5915 -1.5704 0.0039, 6.5938 -1.5697 0.0039, 6.5892 -1.4982 0.0039, 6.5837 -1.4989 0.0039, 6.5763 -1.5027 0.0039, 6.5708 -1.5105 0.0039, 6.5954 -1.5668 0.0039, 6.5954 -1.5019 0.0039, 6.5952 -1.5006 0.0039, 6.5947 -1.4998 0.0039, 6.5674 -1.5337 -0.0, 6.5701 -1.5558 -0.0, 6.575 -1.564 -0.0, 6.5802 -1.568 -0.0, 6.5905 -1.5705 -0.0, 6.5915 -1.5704 -0.0, 6.5938 -1.5697 -0.0, 6.595 -1.5686 -0.0, 6.5954 -1.5668 -0.0, 6.5954 -1.5019 -0.0, 6.5952 -1.5006 -0.0, 6.5947 -1.4998 -0.0, 6.5932 -1.4988 -0.0, 6.5892 -1.4982 -0.0, 6.5837 -1.4989 -0.0, 6.5763 -1.5027 -0.0, 6.5708 -1.5105 -0.0, 6.6653 -1.4982 0.0039, 6.6676 -1.4982 0.0039, 6.6653 -1.4982 -0.0, 6.6676 -1.4982 -0.0, 6.6676 -1.495 0.0039, 6.6676 -1.495 -0.0, 6.6221 -1.495 0.0039, 6.6221 -1.495 -0.0, 6.617 -1.5112 0.0039, 6.617 -1.5112 -0.0, 6.6193 -1.5122 0.0039, 6.6193 -1.5122 -0.0, 6.6364 -1.4982 0.0039, 6.6364 -1.4982 -0.0, 6.6327 -1.4987 -0.0, 6.6327 -1.4987 0.0039, 6.626 -1.5028 -0.0, 6.626 -1.5028 0.0039, 6.6495 -1.4982 0.0039, 6.6495 -1.4982 -0.0, 6.6537 -1.5018 0.0039, 6.6537 -1.5018 -0.0, 6.6536 -1.5011 -0.0, 6.6536 -1.5011 0.0039, 6.6531 -1.4998 -0.0, 6.6531 -1.4998 0.0039, 6.6519 -1.4987 -0.0, 6.6519 -1.4987 0.0039, 6.6537 -1.5295 0.0039, 6.6537 -1.5295 -0.0, 6.6406 -1.5295 0.0039, 6.6406 -1.5295 -0.0, 6.6321 -1.5204 0.0039, 6.6321 -1.5204 -0.0, 6.6326 -1.5245 -0.0, 6.6326 -1.5245 0.0039, 6.634 -1.5272 -0.0, 6.634 -1.5272 0.0039, 6.6363 -1.5288 -0.0, 6.6363 -1.5288 0.0039, 6.6321 -1.5176 0.0039, 6.6321 -1.5176 -0.0, 6.6288 -1.5176 0.0039, 6.6288 -1.5176 -0.0, 6.6288 -1.5446 0.0039, 6.6288 -1.5446 -0.0, 6.6321 -1.5446 0.0039, 6.6321 -1.5446 -0.0, 6.6321 -1.5428 0.0039, 6.6321 -1.5428 -0.0, 6.6406 -1.5327 0.0039, 6.6406 -1.5327 -0.0, 6.6382 -1.533 -0.0, 6.6382 -1.533 0.0039, 6.635 -1.5344 -0.0, 6.635 -1.5344 0.0039, 6.6331 -1.537 -0.0, 6.6331 -1.537 0.0039, 6.6537 -1.5327 0.0039, 6.6537 -1.5327 -0.0, 6.6537 -1.5668 0.0039, 6.6537 -1.5668 -0.0, 6.6495 -1.5705 0.0039, 6.6495 -1.5705 -0.0, 6.6508 -1.5704 -0.0, 6.6508 -1.5704 0.0039, 6.6525 -1.5696 -0.0, 6.6525 -1.5696 0.0039, 6.6533 -1.5686 -0.0, 6.6533 -1.5686 0.0039, 6.6375 -1.5705 0.0039, 6.6375 -1.5705 -0.0, 6.6182 -1.5543 0.0039, 6.6182 -1.5543 -0.0, 6.6224 -1.5629 -0.0, 6.6224 -1.5629 0.0039, 6.6285 -1.5684 -0.0, 6.6285 -1.5684 0.0039, 6.6159 -1.5554 0.0039, 6.6159 -1.5554 -0.0, 6.621 -1.5737 0.0039, 6.621 -1.5737 -0.0, 6.668 -1.5737 0.0039, 6.668 -1.5737 -0.0, 6.668 -1.5705 0.0039, 6.668 -1.5705 -0.0, 6.6653 -1.5705 0.0039, 6.6653 -1.5705 -0.0, 6.6612 -1.5668 0.0039, 6.6612 -1.5668 -0.0, 6.6614 -1.5684 -0.0, 6.6614 -1.5684 0.0039, 6.662 -1.5695 -0.0, 6.662 -1.5695 0.0039, 6.6631 -1.5702 -0.0, 6.6631 -1.5702 0.0039, 6.6612 -1.5019 0.0039, 6.6612 -1.5019 -0.0, 6.6635 -1.4984 -0.0, 6.6635 -1.4984 0.0039, 6.6623 -1.499 -0.0, 6.6623 -1.499 0.0039, 6.6615 -1.5 -0.0, 6.6615 -1.5 0.0039, 6.6981 -1.5737 0.0039, 6.6981 -1.5737 -0.0, 6.6919 -1.5727 -0.0, 6.6919 -1.5727 0.0039, 6.6829 -1.5668 -0.0, 6.6829 -1.5668 0.0039, 6.6752 -1.5517 -0.0, 6.6752 -1.5517 0.0039, 6.7259 -1.5341 0.0039, 6.7259 -1.5341 -0.0, 6.7228 -1.5559 -0.0, 6.7228 -1.5559 0.0039, 6.7198 -1.5622 -0.0, 6.7198 -1.5622 0.0039, 6.7112 -1.5704 -0.0, 6.7112 -1.5704 0.0039, 6.6962 -1.4939 -0.0, 6.7012 -1.4944 -0.0, 6.6962 -1.4939 0.0039, 6.7027 -1.4946 0.0039, 6.7027 -1.4946 -0.0, 6.7129 -1.4997 -0.0, 6.7129 -1.4997 0.0039, 6.7208 -1.5102 -0.0, 6.7208 -1.5102 0.0039, 6.693 -1.4941 0.0039, 6.6898 -1.4948 0.0039, 6.6898 -1.4948 -0.0, 6.6914 -1.4944 -0.0, 6.693 -1.4941 -0.0, 6.6844 -1.4961 0.0039, 6.6844 -1.4961 -0.0, 6.6872 -1.4957 -0.0, 6.6872 -1.4957 0.0039, 6.6793 -1.4939 -0.0, 6.6798 -1.4944 -0.0, 6.6793 -1.4939 0.0039, 6.6798 -1.4945 0.0039, 6.6798 -1.4945 -0.0, 6.6815 -1.4957 -0.0, 6.6815 -1.4957 0.0039, 6.6792 -1.4944 -0.0, 6.6752 -1.5133 0.0039, 6.6752 -1.5133 -0.0, 6.678 -1.5144 0.0039, 6.678 -1.5144 -0.0, 6.6972 -1.4971 0.0039, 6.6972 -1.4971 -0.0, 6.6909 -1.4981 -0.0, 6.6909 -1.4981 0.0039, 6.6846 -1.5023 -0.0, 6.6846 -1.5023 0.0039, 6.7173 -1.5335 0.0039, 6.7173 -1.5335 -0.0, 6.7164 -1.5217 -0.0, 6.7164 -1.5217 0.0039, 6.7099 -1.5041 -0.0, 6.7099 -1.5041 0.0039, 6.7046 -1.4991 -0.0, 6.7046 -1.4991 0.0039, 6.6976 -1.5694 0.0039, 6.6976 -1.5694 -0.0, 6.7047 -1.568 -0.0, 6.7047 -1.568 0.0039, 6.7093 -1.5649 -0.0, 6.7093 -1.5649 0.0039, 6.7142 -1.5562 -0.0, 6.7142 -1.5562 0.0039, 6.678 -1.5503 0.0039, 6.678 -1.5503 -0.0, 6.682 -1.5605 -0.0, 6.682 -1.5605 0.0039, 6.6886 -1.567 -0.0, 6.6886 -1.567 0.0039
            ]
        }
        coordIndex [
            0,1,2,-1,2,1,3,-1,4,5,0,-1,0,5,1,-1,6,7,4,-1,4,7,5,-1,2,3,6,-1,6,3,7,-1,8,9,10,-1,10,9,11,-1,12,13,1,-1,1,13,3,-1,14,15,16,-1,16,15,12,-1,16,12,5,-1,5,12,1,-1,5,7,17,-1,5,17,16,-1,16,17,18,-1,16,18,14,-1,14,18,19,-1,14,19,15,-1,7,3,13,-1,17,7,18,-1,18,7,13,-1,18,13,19,-1,20,21,22,-1,22,21,23,-1,24,25,26,-1,26,25,27,-1,28,29,24,-1,24,29,25,-1,30,31,28,-1,28,31,29,-1,26,27,30,-1,30,27,31,-1,21,28,23,-1,23,28,24,-1,20,30,21,-1,21,30,28,-1,26,22,24,-1,24,22,23,-1,22,26,20,-1,20,26,30,-1,2,11,0,-1,0,11,9,-1,6,10,2,-1,2,10,11,-1,8,4,9,-1,9,4,0,-1,4,8,6,-1,6,8,10,-1,32,33,34,-1,34,33,35,-1,36,37,38,-1,36,38,39,-1,39,38,40,-1,39,40,41,-1,41,40,42,-1,41,42,43,-1,43,42,35,-1,43,35,33,-1,36,44,37,-1,37,44,45,-1,46,47,48,-1,46,48,49,-1,49,48,50,-1,49,50,51,-1,51,50,45,-1,51,45,44,-1,46,52,47,-1,47,52,53,-1,52,54,53,-1,53,54,55,-1,54,56,55,-1,55,56,57,-1,56,58,57,-1,57,58,59,-1,58,60,59,-1,59,60,61,-1,62,63,64,-1,62,64,65,-1,65,64,66,-1,65,66,67,-1,67,66,68,-1,67,68,69,-1,69,68,61,-1,69,61,60,-1,62,70,63,-1,63,70,71,-1,72,73,74,-1,72,74,75,-1,75,74,76,-1,75,76,77,-1,77,76,78,-1,77,78,79,-1,79,78,71,-1,79,71,70,-1,72,80,73,-1,73,80,81,-1,80,82,81,-1,81,82,83,-1,82,84,83,-1,83,84,85,-1,84,86,85,-1,85,86,87,-1,86,88,87,-1,87,88,89,-1,32,34,90,-1,32,90,91,-1,91,90,92,-1,91,92,93,-1,93,92,94,-1,93,94,95,-1,95,94,89,-1,95,89,88,-1,41,43,56,-1,52,46,54,-1,54,46,49,-1,54,49,51,-1,75,82,72,-1,72,82,80,-1,75,93,82,-1,82,93,95,-1,82,95,84,-1,84,95,88,-1,84,88,86,-1,43,69,56,-1,56,69,60,-1,56,60,58,-1,51,44,54,-1,54,44,36,-1,54,36,56,-1,56,36,39,-1,56,39,41,-1,70,62,33,-1,33,62,65,-1,33,65,43,-1,43,65,67,-1,43,67,69,-1,75,77,93,-1,93,77,79,-1,93,79,91,-1,91,79,70,-1,91,70,32,-1,32,70,33,-1,96,97,98,-1,98,97,99,-1,97,100,99,-1,99,100,101,-1,100,102,101,-1,101,102,103,-1,104,105,106,-1,104,106,107,-1,107,106,103,-1,107,103,102,-1,108,109,110,-1,108,110,111,-1,111,110,112,-1,111,112,113,-1,113,112,114,-1,113,114,115,-1,115,114,105,-1,115,105,104,-1,108,116,109,-1,109,116,117,-1,116,118,117,-1,117,118,119,-1,118,120,119,-1,119,120,121,-1,120,122,121,-1,121,122,123,-1,122,124,123,-1,123,124,125,-1,126,127,128,-1,126,128,129,-1,129,128,130,-1,129,130,131,-1,131,130,132,-1,131,132,133,-1,133,132,125,-1,133,125,124,-1,126,134,127,-1,127,134,135,-1,136,137,134,-1,134,137,138,-1,134,138,135,-1,137,136,139,-1,139,136,140,-1,139,140,141,-1,142,143,144,-1,142,144,145,-1,145,144,146,-1,145,146,147,-1,147,146,141,-1,147,141,140,-1,142,148,143,-1,143,148,149,-1,148,150,149,-1,149,150,151,-1,150,152,151,-1,151,152,153,-1,152,154,153,-1,153,154,155,-1,154,156,155,-1,155,156,157,-1,158,159,160,-1,158,160,161,-1,161,160,162,-1,161,162,163,-1,163,162,164,-1,163,164,165,-1,165,164,157,-1,165,157,156,-1,96,98,166,-1,96,166,167,-1,167,166,159,-1,167,159,158,-1,168,140,136,-1,161,163,147,-1,147,163,145,-1,145,150,142,-1,142,150,148,-1,145,163,150,-1,150,163,165,-1,150,165,152,-1,152,165,156,-1,152,156,154,-1,116,108,118,-1,118,108,111,-1,118,111,120,-1,120,111,113,-1,120,113,115,-1,115,133,120,-1,120,133,124,-1,120,124,122,-1,140,167,147,-1,147,167,158,-1,147,158,161,-1,126,129,115,-1,115,129,131,-1,115,131,133,-1,115,104,126,-1,126,104,107,-1,126,107,102,-1,169,100,168,-1,168,100,97,-1,168,97,140,-1,140,97,96,-1,140,96,167,-1,102,100,126,-1,126,100,169,-1,126,169,134,-1,134,169,170,-1,134,170,136,-1,136,170,171,-1,136,171,168,-1,168,171,172,-1,172,171,173,-1,169,168,174,-1,174,168,172,-1,170,169,175,-1,175,169,174,-1,171,170,173,-1,173,170,175,-1,176,177,178,-1,178,177,179,-1,180,181,182,-1,180,182,183,-1,183,182,184,-1,183,184,185,-1,185,184,186,-1,185,186,187,-1,187,186,188,-1,187,188,189,-1,189,188,179,-1,189,179,177,-1,180,190,181,-1,181,190,191,-1,190,192,191,-1,191,192,193,-1,192,194,193,-1,193,194,195,-1,196,197,198,-1,196,198,199,-1,199,198,200,-1,199,200,201,-1,201,200,202,-1,201,202,203,-1,203,202,195,-1,203,195,194,-1,204,205,206,-1,204,206,207,-1,207,206,208,-1,207,208,209,-1,209,208,210,-1,209,210,211,-1,211,210,197,-1,211,197,196,-1,204,212,205,-1,205,212,213,-1,212,214,213,-1,213,214,215,-1,214,216,215,-1,215,216,217,-1,176,178,218,-1,176,218,219,-1,219,218,220,-1,219,220,221,-1,221,220,222,-1,221,222,223,-1,223,222,217,-1,223,217,216,-1,187,189,194,-1,204,207,224,-1,225,223,212,-1,212,223,216,-1,212,216,214,-1,194,189,226,-1,224,207,227,-1,227,207,209,-1,227,209,228,-1,228,209,211,-1,228,211,229,-1,224,230,204,-1,204,230,231,-1,204,231,212,-1,212,231,232,-1,212,232,225,-1,190,180,192,-1,192,180,183,-1,192,183,194,-1,194,183,185,-1,194,185,187,-1,226,233,194,-1,194,233,234,-1,194,234,203,-1,203,234,235,-1,203,235,201,-1,201,235,236,-1,201,236,199,-1,199,236,229,-1,199,229,196,-1,196,229,211,-1,237,238,177,-1,177,238,239,-1,177,239,189,-1,189,239,240,-1,189,240,226,-1,177,176,237,-1,237,176,219,-1,237,219,225,-1,225,219,221,-1,225,221,223,-1,229,241,242,-1,229,242,228,-1,228,242,243,-1,228,243,227,-1,227,243,244,-1,227,244,224,-1,224,244,245,-1,224,245,230,-1,230,245,246,-1,230,246,231,-1,231,246,247,-1,231,247,232,-1,232,247,248,-1,232,248,225,-1,225,248,249,-1,225,249,237,-1,238,237,250,-1,250,237,249,-1,238,250,251,-1,238,251,239,-1,239,251,252,-1,239,252,240,-1,240,252,253,-1,240,253,226,-1,226,253,254,-1,226,254,233,-1,233,254,255,-1,233,255,234,-1,234,255,256,-1,234,256,235,-1,235,256,257,-1,235,257,236,-1,236,257,241,-1,236,241,229,-1,258,259,260,-1,260,259,261,-1,259,262,261,-1,261,262,263,-1,262,264,263,-1,263,264,265,-1,264,266,265,-1,265,266,267,-1,266,268,267,-1,267,268,269,-1,270,271,272,-1,270,272,273,-1,273,272,274,-1,273,274,275,-1,275,274,269,-1,275,269,268,-1,270,276,271,-1,271,276,277,-1,278,279,280,-1,278,280,281,-1,281,280,282,-1,281,282,283,-1,283,282,284,-1,283,284,285,-1,285,284,277,-1,285,277,276,-1,278,286,279,-1,279,286,287,-1,286,288,287,-1,287,288,289,-1,290,291,292,-1,290,292,293,-1,293,292,294,-1,293,294,295,-1,295,294,296,-1,295,296,297,-1,297,296,289,-1,297,289,288,-1,290,298,291,-1,291,298,299,-1,298,300,299,-1,299,300,301,-1,300,302,301,-1,301,302,303,-1,302,304,303,-1,303,304,305,-1,304,306,305,-1,305,306,307,-1,308,309,310,-1,308,310,311,-1,311,310,312,-1,311,312,313,-1,313,312,314,-1,313,314,315,-1,315,314,307,-1,315,307,306,-1,308,316,309,-1,309,316,317,-1,316,318,317,-1,317,318,319,-1,320,321,322,-1,320,322,323,-1,323,322,324,-1,323,324,325,-1,325,324,326,-1,325,326,327,-1,327,326,319,-1,327,319,318,-1,320,328,321,-1,321,328,329,-1,330,331,332,-1,330,332,333,-1,333,332,334,-1,333,334,335,-1,335,334,329,-1,335,329,328,-1,330,336,331,-1,331,336,337,-1,336,338,337,-1,337,338,339,-1,338,340,339,-1,339,340,341,-1,340,342,341,-1,341,342,343,-1,342,344,343,-1,343,344,345,-1,346,347,348,-1,346,348,349,-1,349,348,350,-1,349,350,351,-1,351,350,352,-1,351,352,353,-1,353,352,345,-1,353,345,344,-1,346,354,347,-1,347,354,355,-1,258,260,356,-1,258,356,357,-1,357,356,358,-1,357,358,359,-1,359,358,360,-1,359,360,361,-1,361,360,355,-1,361,355,354,-1,325,327,340,-1,336,330,338,-1,338,330,333,-1,338,333,335,-1,293,295,313,-1,313,295,297,-1,327,353,340,-1,340,353,344,-1,340,344,342,-1,293,300,290,-1,290,300,298,-1,293,313,300,-1,300,313,315,-1,300,315,302,-1,302,315,306,-1,302,306,304,-1,259,258,262,-1,262,258,357,-1,262,357,283,-1,357,359,283,-1,283,359,361,-1,283,361,281,-1,281,361,278,-1,268,266,275,-1,275,266,264,-1,275,264,273,-1,335,328,338,-1,338,328,320,-1,338,320,340,-1,340,320,323,-1,340,323,325,-1,318,316,354,-1,354,316,361,-1,354,346,318,-1,318,346,349,-1,318,349,327,-1,327,349,351,-1,327,351,353,-1,278,361,286,-1,286,361,316,-1,286,316,288,-1,288,316,308,-1,288,308,297,-1,297,308,311,-1,297,311,313,-1,283,285,262,-1,262,285,276,-1,262,276,264,-1,264,276,270,-1,264,270,273,-1,362,363,364,-1,362,364,365,-1,365,364,366,-1,365,366,367,-1,367,366,368,-1,367,368,369,-1,370,371,372,-1,370,372,373,-1,373,372,374,-1,373,374,375,-1,375,374,376,-1,375,376,377,-1,377,376,363,-1,377,363,362,-1,378,379,380,-1,380,379,381,-1,379,382,381,-1,381,382,383,-1,381,383,384,-1,384,383,385,-1,384,385,386,-1,386,385,371,-1,386,371,370,-1,378,380,387,-1,388,389,390,-1,388,390,387,-1,387,390,391,-1,387,391,378,-1,392,393,394,-1,392,394,395,-1,395,394,389,-1,395,389,388,-1,396,397,398,-1,398,397,399,-1,397,400,399,-1,399,400,401,-1,399,401,402,-1,402,401,393,-1,402,393,392,-1,396,398,403,-1,403,398,404,-1,403,404,405,-1,404,406,405,-1,405,406,407,-1,408,409,410,-1,408,410,411,-1,411,410,412,-1,411,412,413,-1,413,412,407,-1,413,407,406,-1,414,415,416,-1,414,416,417,-1,417,416,418,-1,417,418,419,-1,419,418,420,-1,419,420,421,-1,421,420,409,-1,421,409,408,-1,422,423,424,-1,422,424,425,-1,425,424,426,-1,425,426,427,-1,427,426,428,-1,427,428,429,-1,429,428,415,-1,429,415,414,-1,430,431,432,-1,430,432,433,-1,433,432,434,-1,433,434,435,-1,435,434,423,-1,435,423,422,-1,430,369,431,-1,431,369,368,-1,413,406,404,-1,369,430,433,-1,369,433,367,-1,367,433,435,-1,367,435,365,-1,404,398,413,-1,413,398,399,-1,413,399,402,-1,365,435,362,-1,362,435,422,-1,362,422,377,-1,422,425,377,-1,377,425,427,-1,377,427,375,-1,375,427,429,-1,402,392,413,-1,413,392,395,-1,413,395,411,-1,395,388,411,-1,411,388,387,-1,411,387,408,-1,408,387,380,-1,408,380,421,-1,421,380,381,-1,421,381,419,-1,419,381,384,-1,419,384,417,-1,417,384,386,-1,417,386,414,-1,414,386,370,-1,414,370,429,-1,429,370,373,-1,429,373,375,-1,
        ]
    }
}
Shape{
    appearance Appearance {
        material  Material {
            diffuseColor 0.5294117647058824 1.0 0.9607843137254902
            specularColor 0.26666666666666666 0.5019607843137255 0.47843137254901963
            ambientIntensity 0.8548
            transparency 0.0
            shininess 0.5
        }
    }
    geometry IndexedFaceSet {
        ccw TRUE
        solid FALSE
        coord DEF co Coordinate {
            point [
                6.5274 -1.5027 -0.0, 6.537 -1.5414 -0.0, 6.527 -1.5027 -0.0, 6.5179 -1.5414 -0.0, 6.5892 -1.4982 -0.0, 6.5932 -1.4988 -0.0, 6.5947 -1.4998 -0.0, 6.5954 -1.5668 -0.0, 6.595 -1.5686 -0.0, 6.5938 -1.5697 -0.0, 6.5763 -1.5027 -0.0, 6.5837 -1.4989 -0.0, 6.5954 -1.5019 -0.0, 6.5952 -1.5006 -0.0, 6.575 -1.564 -0.0, 6.5701 -1.5558 -0.0, 6.5674 -1.5337 -0.0, 6.5708 -1.5105 -0.0, 6.5802 -1.568 -0.0, 6.5905 -1.5705 -0.0, 6.5915 -1.5704 -0.0, 7.8032 0.2717 2.969, 7.8032 0.7874 3.0871, 7.8032 0.7874 0.6614, 7.8032 -3.5197 0.6614, 7.8032 -3.5197 1.2638, 7.8032 -2.3386 1.2638, 7.8032 -3.5197 1.8543, 7.8032 -3.5197 2.969, 7.8032 -2.3386 1.8543
            ]
        }
        coordIndex [
            0,1,2,-1,2,1,3,-1,4,5,6,-1,7,8,9,-1,10,11,12,-1,12,11,4,-1,12,4,13,-1,13,4,6,-1,14,15,7,-1,7,15,16,-1,7,16,12,-1,12,16,17,-1,12,17,10,-1,18,14,19,-1,19,14,7,-1,19,7,20,-1,20,7,9,-1,21,22,23,-1,24,25,26,-1,27,28,29,-1,29,28,21,-1,29,21,26,-1,26,21,23,-1,26,23,24,-1,
        ]
    }
}