#VRML V2.0 utf8
# 3D model generated by kicad-lcsc-manager
# Based on easyeda2kicad.py v1.0.1

Shape{
    appearance Appearance {
        material  Material {
            diffuseColor 0.2235294117647059 0.2235294117647059 0.2235294117647059
            specularColor 0.11372549019607843 0.11372549019607843 0.11372549019607843
            ambientIntensity 0.2235
            transparency 0.0
            shininess 0.5
        }
    }
    geometry IndexedFaceSet {
        ccw TRUE
        solid FALSE
        coord DEF co Coordinate {
            point [
                -0.1673 -0.1489 0.0039, -0.1883 -0.1489 0.0039, -0.1673 -0.1378 0.0039, -0.1883 -0.0199 0.0039, -0.1083 -0.1378 0.0039, -0.0082 -0.0199 0.0039, -0.1083 -0.1489 0.0039, -0.0082 -0.1489 0.0039, 0.1883 -0.1489 0.0039, 0.1673 -0.1489 0.0039, 0.1673 -0.1378 0.0039, 0.0327 -0.0199 0.0039, 0.0342 -0.0201 0.0039, 0.1083 -0.1378 0.0039, 0.0353 -0.0202 0.0039, 0.0376 -0.0199 0.0039, 0.1883 -0.0199 0.0039, 0.0295 0.1378 0.0039, 0.0295 0.1489 0.0039, 0.1883 0.1489 0.0039, -0.0082 0.1378 0.0039, -0.0043 -0.0154 0.0039, -0.0043 -0.0197 0.0039, 0.0168 -0.0197 0.0039, 0.0245 -0.0176 0.0039, 0.0245 -0.0133 0.0039, 0.0168 0.0197 0.0039, 0.1083 -0.1489 0.0039, 0.0287 -0.0194 0.0039, 0.0115 0.0154 0.0039, 0.0115 0.0024 0.0039, -0.0034 0.0154 0.0039, -0.0024 0.0024 0.0039, 0.0115 -0.0019 0.0039, 0.0115 -0.0154 0.0039, -0.0024 -0.0019 0.0039, 0.0773 0.0197 0.0039, 0.0773 -0.0197 0.0039, 0.0571 -0.0197 0.0039, 0.0402 -0.0197 0.0039, 0.044 -0.0183 0.0039, -0.0034 0.0197 0.0039, 0.0376 0.0154 0.0039, 0.0405 0.0143 0.0039, 0.0252 -0.0137 0.0039, 0.0433 0.0125 0.0039, 0.0456 0.0099 0.0039, 0.0485 -0.0004 0.0039, 0.0481 -0.0047 0.0039, 0.047 -0.0081 0.0039, 0.0383 -0.0154 0.0039, 0.0346 -0.0158 0.0039, 0.0411 -0.0144 0.0039, 0.0435 -0.0127 0.0039, 0.0454 -0.0108 0.0039, 0.0294 -0.0153 0.0039, 0.0517 0.0093 0.0039, 0.0494 0.013 0.0039, 0.072 0.0197 0.0039, 0.0473 0.0069 0.0039, 0.0483 0.0026 0.0039, 0.0458 0.0164 0.0039, 0.0472 -0.0163 0.0039, 0.0501 -0.0132 0.0039, 0.0571 -0.0154 0.0039, 0.0522 -0.0095 0.0039, 0.072 -0.0154 0.0039, 0.0534 -0.0053 0.0039, 0.0538 -0.0007 0.0039, 0.0532 0.0049 0.0039, 0.0421 0.0186 0.0039, 0.0377 0.0198 0.0039, 0.0338 0.0202 0.0039, 0.029 0.0198 0.0039, 0.0245 0.0186 0.0039, 0.0245 0.0133 0.0039, 0.0289 0.0152 0.0039, 0.0337 0.0158 0.0039, -0.1883 0.1489 0.0039, -0.0295 0.1489 0.0039, -0.0295 0.1378 0.0039, -0.0466 -0.0197 0.0039, -0.0417 -0.0089 0.0039, -0.0395 -0.0124 0.0039, -0.0362 -0.0155 0.0039, -0.0321 -0.0179 0.0039, -0.0276 -0.0193 0.0039, -0.0763 -0.0197 0.0039, -0.0821 -0.0197 0.0039, -0.0667 0.0197 0.0039, -0.0615 0.0197 0.0039, -0.0227 -0.0197 0.0039, -0.012 -0.0197 0.0039, -0.012 0.0197 0.0039, -0.0231 0.0197 0.0039, -0.0377 0.0145 0.0039, -0.0405 0.0115 0.0039, -0.0423 0.0081 0.0039, -0.0523 -0.0197 0.0039, -0.0561 -0.0086 0.0039, -0.0724 -0.0086 0.0039, -0.0288 0.0191 0.0039, -0.0334 0.0175 0.0039, -0.0377 0.0146 0.0039, -0.0434 0.0042 0.0039, -0.0437 0.0005 0.0039, -0.0431 -0.0048 0.0039, -0.0295 0.1567 0.0125, -0.1883 0.1567 0.0125, -0.0295 0.1544 0.0394, -0.1724 0.1409 0.1936, 0.0295 0.1544 0.0394, 0.1724 0.1409 0.1936, 0.0295 0.1567 0.0125, 0.1883 0.1567 0.0125, -0.0295 0.1567 0.0106, -0.0295 0.1562 0.0088, -0.1883 0.1562 0.0089, -0.1883 0.1563 0.0091, -0.1883 0.1566 0.0106, -0.1883 0.1567 0.0109, -0.0295 0.1553 0.0072, -0.0295 0.154 0.0058, -0.1883 0.154 0.0059, -0.1883 0.1541 0.0059, -0.1883 0.1553 0.0072, -0.1883 0.1554 0.0074, -0.1883 0.1507 0.0042, -0.1883 0.1508 0.0042, -0.0295 0.1525 0.0048, -0.1883 0.1525 0.0048, -0.1883 0.1526 0.0049, -0.0295 0.1507 0.0042, 0.1883 0.1567 0.0109, 0.0295 0.1567 0.0106, 0.1883 0.1566 0.0106, 0.1883 0.1563 0.0091, 0.0295 0.1562 0.0088, 0.1883 0.1562 0.0089, 0.1883 0.1554 0.0074, 0.0295 0.1553 0.0072, 0.1883 0.1553 0.0072, 0.1883 0.1541 0.0059, 0.0295 0.154 0.0058, 0.1883 0.154 0.0059, 0.1883 0.1526 0.0049, 0.0295 0.1525 0.0048, 0.1883 0.1525 0.0048, 0.1883 0.1508 0.0042, 0.0295 0.1507 0.0042, 0.1883 0.1507 0.0042, -0.1883 -0.1567 0.0125, -0.1673 -0.1567 0.0125, -0.1673 -0.1544 0.0394, -0.1083 -0.1544 0.0394, 0.1724 -0.1409 0.1936, -0.1724 -0.1409 0.1936, 0.1673 -0.1567 0.0125, 0.1883 -0.1567 0.0125, 0.1673 -0.1544 0.0394, 0.1083 -0.1544 0.0394, 0.1083 -0.1567 0.0125, -0.1083 -0.1567 0.0125, -0.1083 -0.1567 0.0106, -0.1083 -0.1507 0.0042, 0.1083 -0.1567 0.0106, -0.1083 -0.1562 0.0088, 0.1083 -0.1562 0.0088, -0.1083 -0.1553 0.0072, 0.1083 -0.1553 0.0072, -0.1083 -0.154 0.0058, 0.1083 -0.154 0.0058, -0.1083 -0.1525 0.0048, 0.1083 -0.1525 0.0048, 0.1083 -0.1507 0.0042, 0.1883 -0.1567 0.0109, 0.1673 -0.1567 0.0106, 0.1883 -0.1566 0.0106, 0.1883 -0.1563 0.0091, 0.1673 -0.1562 0.0088, 0.1883 -0.1562 0.0089, 0.1883 -0.1554 0.0074, 0.1673 -0.1553 0.0072, 0.1883 -0.1553 0.0072, 0.1883 -0.1541 0.0059, 0.1673 -0.154 0.0058, 0.1883 -0.154 0.0059, 0.1883 -0.1507 0.0042, 0.1883 -0.1508 0.0042, 0.1673 -0.1525 0.0048, 0.1883 -0.1525 0.0048, 0.1883 -0.1526 0.0049, 0.1673 -0.1507 0.0042, -0.1883 -0.1567 0.0109, -0.1673 -0.1567 0.0106, -0.1883 -0.1566 0.0106, -0.1883 -0.1563 0.0091, -0.1673 -0.1562 0.0088, -0.1883 -0.1562 0.0089, -0.1883 -0.1554 0.0074, -0.1673 -0.1553 0.0072, -0.1883 -0.1553 0.0072, -0.1883 -0.1541 0.0059, -0.1673 -0.154 0.0058, -0.1883 -0.154 0.0059, -0.1883 -0.1526 0.0049, -0.1673 -0.1525 0.0048, -0.1883 -0.1525 0.0048, -0.1883 -0.1508 0.0042, -0.1673 -0.1507 0.0042, -0.1883 -0.1507 0.0042, 0.1724 0.133 0.2008, -0.1724 0.133 0.2008, 0.1724 -0.133 0.2008, -0.1724 -0.133 0.2008, -0.1961 -0.1489 0.0125, -0.1803 -0.133 0.1936, -0.1961 0.1489 0.0125, -0.1803 0.133 0.1936, 0.1961 0.1489 0.0125, 0.1803 0.133 0.1936, 0.1961 -0.1489 0.0125, 0.1803 -0.133 0.1936, -0.1763 0.1398 0.1938, -0.1758 0.14 0.1938, -0.1903 0.1565 0.0126, -0.1744 0.1406 0.1938, -0.1742 0.1406 0.1937, -0.1903 0.1564 0.0126, -0.1922 0.1557 0.0127, -0.1772 0.1391 0.1939, -0.1779 0.1386 0.1939, -0.1922 0.1557 0.0127, -0.1938 0.1544 0.0128, -0.1785 0.1379 0.1939, -0.195 0.1528 0.0127, -0.1792 0.1369 0.1938, -0.195 0.1528 0.0127, -0.1794 0.1364 0.1938, -0.1958 0.1509 0.0126, -0.18 0.1351 0.1938, -0.1958 0.1509 0.0126, -0.18 0.1348 0.1937, -0.1887 0.1507 0.0042, -0.1918 0.1489 0.0048, -0.1919 0.1489 0.0049, -0.1918 0.1498 0.0049, -0.1934 0.1489 0.0059, -0.1935 0.1489 0.0059, -0.1933 0.1502 0.0059, -0.1946 0.1489 0.0072, -0.1948 0.1489 0.0074, -0.1945 0.1506 0.0074, -0.1954 0.1508 0.0091, -0.1958 0.1509 0.0109, -0.195 0.1528 0.0109, -0.1903 0.1564 0.0109, -0.1961 0.1489 0.0109, -0.196 0.1489 0.0106, -0.1956 0.1489 0.0091, -0.1955 0.1489 0.0089, -0.1902 0.156 0.0091, -0.1947 0.1526 0.0091, -0.1938 0.1544 0.0109, -0.1899 0.1552 0.0074, -0.1939 0.1521 0.0074, -0.1935 0.1541 0.0091, -0.1896 0.154 0.0059, -0.1928 0.1515 0.0059, -0.1929 0.1535 0.0074, -0.1892 0.1524 0.0049, -0.192 0.1526 0.0059, -0.1914 0.1507 0.0049, -0.1901 0.1494 0.0042, -0.1922 0.1557 0.0109, -0.192 0.1553 0.0091, -0.1915 0.1545 0.0074, -0.1909 0.1534 0.0059, -0.1901 0.1521 0.0049, -0.1892 0.1505 0.0042, -0.1901 0.1489 0.0042, -0.1902 0.1489 0.0042, -0.1909 0.1515 0.0049, -0.1899 0.1498 0.0042, -0.1896 0.1502 0.0042, -0.1798 0.133 0.1955, -0.179 0.133 0.1972, -0.1789 0.1345 0.1972, -0.179 0.133 0.1972, -0.1778 0.133 0.1987, -0.1776 0.1342 0.1987, -0.1761 0.1339 0.1998, -0.1743 0.1335 0.2005, -0.1742 0.1339 0.2005, -0.1733 0.1348 0.2005, -0.1736 0.1346 0.2005, -0.1728 0.1349 0.2005, -0.1743 0.133 0.2005, -0.1797 0.1347 0.1954, -0.1791 0.1363 0.1954, -0.1782 0.1377 0.1954, -0.1771 0.1389 0.1954, -0.1756 0.1398 0.1954, -0.1741 0.1403 0.1954, -0.1724 0.1405 0.1954, -0.1724 0.135 0.2005, -0.1777 0.133 0.1987, -0.1762 0.133 0.1998, -0.1761 0.133 0.1998, -0.1744 0.133 0.2005, -0.1754 0.1354 0.1998, -0.1748 0.136 0.1998, -0.174 0.1364 0.1998, -0.1732 0.1367 0.1998, -0.1758 0.1347 0.1998, -0.1739 0.1343 0.2005, -0.1724 0.135 0.2005, -0.1724 0.1368 0.1998, -0.1724 0.1368 0.1998, -0.1724 0.1384 0.1987, -0.1772 0.1354 0.1987, -0.1766 0.1364 0.1987, -0.1757 0.1372 0.1987, -0.1747 0.1379 0.1987, -0.1736 0.1383 0.1987, -0.1784 0.1359 0.1972, -0.1776 0.1372 0.1972, -0.1765 0.1382 0.1972, -0.1753 0.139 0.1972, -0.1739 0.1395 0.1972, -0.1799 0.133 0.1954, -0.1724 0.1384 0.1987, -0.1724 0.1396 0.1972, -0.1724 0.1396 0.1972, -0.1724 0.1405 0.1955, -0.1901 -0.1489 0.0042, -0.1961 -0.1489 0.0109, -0.196 -0.1489 0.0106, -0.1956 -0.1489 0.0091, -0.1955 -0.1489 0.0089, -0.1948 -0.1489 0.0074, -0.1946 -0.1489 0.0072, -0.1935 -0.1489 0.0059, -0.1934 -0.1489 0.0059, -0.1919 -0.1489 0.0049, -0.1918 -0.1489 0.0048, -0.1902 -0.1489 0.0042, -0.1958 -0.1509 0.0126, -0.18 -0.1351 0.1938, -0.18 -0.1351 0.1938, -0.1958 -0.1509 0.0126, -0.1792 -0.1369 0.1938, -0.195 -0.1528 0.0127, -0.1792 -0.137 0.1938, -0.195 -0.1528 0.0127, -0.1779 -0.1386 0.1939, -0.1938 -0.1544 0.0128, -0.1763 -0.1398 0.1938, -0.1922 -0.1557 0.0127, -0.1763 -0.1398 0.1938, -0.1922 -0.1557 0.0127, -0.1744 -0.1406 0.1938, -0.1903 -0.1564 0.0126, -0.1744 -0.1406 0.1938, -0.1903 -0.1565 0.0126, -0.1799 -0.133 0.1954, -0.1798 -0.133 0.1955, -0.179 -0.133 0.1972, -0.179 -0.133 0.1972, -0.1778 -0.133 0.1987, -0.1777 -0.133 0.1987, -0.1762 -0.133 0.1998, -0.1761 -0.133 0.1998, -0.1744 -0.133 0.2005, -0.1743 -0.133 0.2005, 0.1724 0.1405 0.1954, 0.1724 0.1405 0.1955, 0.1724 0.1396 0.1972, 0.1724 0.1396 0.1972, 0.1724 0.1384 0.1987, 0.1724 0.1384 0.1987, 0.1724 0.1368 0.1998, 0.1724 0.1368 0.1998, 0.1724 0.135 0.2005, 0.1724 0.135 0.2005, 0.1744 0.1406 0.1938, 0.1903 0.1565 0.0126, 0.1903 0.1564 0.0126, 0.1744 0.1406 0.1938, 0.1922 0.1557 0.0127, 0.1763 0.1398 0.1938, 0.1922 0.1557 0.0127, 0.1763 0.1398 0.1938, 0.1938 0.1544 0.0128, 0.1779 0.1386 0.1939, 0.195 0.1528 0.0127, 0.1792 0.137 0.1938, 0.195 0.1528 0.0127, 0.1792 0.1369 0.1938, 0.1958 0.1509 0.0126, 0.18 0.1351 0.1938, 0.1958 0.1509 0.0126, 0.18 0.1351 0.1938, 0.1901 0.1489 0.0042, 0.1901 0.1494 0.0042, 0.1892 0.1524 0.0049, 0.1896 0.154 0.0059, 0.1899 0.1552 0.0074, 0.1902 0.156 0.0091, 0.1903 0.1564 0.0109, 0.1922 0.1557 0.0109, 0.1961 0.1489 0.0109, 0.1958 0.1509 0.0109, 0.196 0.1489 0.0106, 0.1954 0.1508 0.0091, 0.192 0.1553 0.0091, 0.1938 0.1544 0.0109, 0.1956 0.1489 0.0091, 0.1955 0.1489 0.0089, 0.1945 0.1506 0.0074, 0.1915 0.1545 0.0074, 0.1935 0.1541 0.0091, 0.1948 0.1489 0.0074, 0.1946 0.1489 0.0072, 0.1933 0.1502 0.0059, 0.1909 0.1534 0.0059, 0.1929 0.1535 0.0074, 0.1935 0.1489 0.0059, 0.1934 0.1489 0.0059, 0.1918 0.1498 0.0049, 0.192 0.1526 0.0059, 0.1901 0.1521 0.0049, 0.1887 0.1507 0.0042, 0.195 0.1528 0.0109, 0.1947 0.1526 0.0091, 0.1939 0.1521 0.0074, 0.1928 0.1515 0.0059, 0.1914 0.1507 0.0049, 0.1899 0.1498 0.0042, 0.1909 0.1515 0.0049, 0.1892 0.1505 0.0042, 0.1896 0.1502 0.0042, 0.1919 0.1489 0.0049, 0.1918 0.1489 0.0048, 0.1902 0.1489 0.0042, -0.1901 -0.1494 0.0042, -0.1892 -0.1524 0.0049, -0.1896 -0.154 0.0059, -0.1899 -0.1552 0.0074, -0.1902 -0.156 0.0091, -0.1903 -0.1564 0.0109, -0.1922 -0.1557 0.0109, -0.1958 -0.1509 0.0109, -0.1954 -0.1508 0.0091, -0.192 -0.1553 0.0091, -0.1938 -0.1544 0.0109, -0.1945 -0.1506 0.0074, -0.1915 -0.1545 0.0074, -0.1935 -0.1541 0.0091, -0.1933 -0.1502 0.0059, -0.1909 -0.1534 0.0059, -0.1929 -0.1535 0.0074, -0.1918 -0.1498 0.0049, -0.192 -0.1526 0.0059, -0.1901 -0.1521 0.0049, -0.1887 -0.1507 0.0042, -0.195 -0.1528 0.0109, -0.1947 -0.1526 0.0091, -0.1939 -0.1521 0.0074, -0.1928 -0.1515 0.0059, -0.1914 -0.1507 0.0049, -0.1899 -0.1498 0.0042, -0.1909 -0.1515 0.0049, -0.1892 -0.1505 0.0042, -0.1896 -0.1502 0.0042, -0.1724 -0.1396 0.1972, -0.1724 -0.1384 0.1987, -0.1738 -0.1382 0.1987, -0.1734 -0.1367 0.1998, -0.1729 -0.1349 0.2005, -0.1734 -0.1347 0.2005, -0.1741 -0.134 0.2005, -0.1738 -0.1344 0.2005, -0.1743 -0.1335 0.2005, -0.1724 -0.135 0.2005, -0.1743 -0.1402 0.1954, -0.1761 -0.1395 0.1954, -0.1777 -0.1383 0.1954, -0.1789 -0.1368 0.1954, -0.1796 -0.135 0.1954, -0.1724 -0.1384 0.1987, -0.1724 -0.1368 0.1998, -0.1724 -0.1368 0.1998, -0.1724 -0.135 0.2005, -0.1743 -0.1363 0.1998, -0.1751 -0.1357 0.1998, -0.1757 -0.1349 0.1998, -0.176 -0.134 0.1998, -0.1751 -0.1377 0.1987, -0.1762 -0.1368 0.1987, -0.177 -0.1357 0.1987, -0.1776 -0.1344 0.1987, -0.1724 -0.1405 0.1955, -0.1724 -0.1396 0.1972, -0.1741 -0.1394 0.1972, -0.1757 -0.1388 0.1972, -0.1771 -0.1377 0.1972, -0.1781 -0.1363 0.1972, -0.1788 -0.1348 0.1972, -0.1724 -0.1405 0.1954, 0.1738 0.1382 0.1987, 0.1734 0.1367 0.1998, 0.1729 0.1349 0.2005, 0.1734 0.1347 0.2005, 0.1741 0.134 0.2005, 0.1738 0.1344 0.2005, 0.1743 0.1335 0.2005, 0.1743 0.1402 0.1954, 0.1761 0.1395 0.1954, 0.1777 0.1383 0.1954, 0.1789 0.1368 0.1954, 0.1796 0.135 0.1954, 0.1799 0.133 0.1954, 0.1743 0.133 0.2005, 0.1743 0.1363 0.1998, 0.1751 0.1357 0.1998, 0.1757 0.1349 0.1998, 0.176 0.134 0.1998, 0.1744 0.133 0.2005, 0.1761 0.133 0.1998, 0.1762 0.133 0.1998, 0.1777 0.133 0.1987, 0.1751 0.1377 0.1987, 0.1762 0.1368 0.1987, 0.177 0.1357 0.1987, 0.1776 0.1344 0.1987, 0.1741 0.1394 0.1972, 0.1757 0.1388 0.1972, 0.1771 0.1377 0.1972, 0.1781 0.1363 0.1972, 0.1788 0.1348 0.1972, 0.1778 0.133 0.1987, 0.179 0.133 0.1972, 0.179 0.133 0.1972, 0.1798 0.133 0.1955, 0.1901 -0.1489 0.0042, 0.1902 -0.1489 0.0042, 0.1918 -0.1489 0.0048, 0.1919 -0.1489 0.0049, 0.1934 -0.1489 0.0059, 0.1935 -0.1489 0.0059, 0.1946 -0.1489 0.0072, 0.1948 -0.1489 0.0074, 0.1955 -0.1489 0.0089, 0.1956 -0.1489 0.0091, 0.196 -0.1489 0.0106, 0.1961 -0.1489 0.0109, 0.1724 -0.1405 0.1954, 0.1724 -0.1405 0.1955, 0.1724 -0.1396 0.1972, 0.1724 -0.1396 0.1972, 0.1724 -0.1384 0.1987, 0.1724 -0.1384 0.1987, 0.1724 -0.1368 0.1998, 0.1724 -0.1368 0.1998, 0.1724 -0.135 0.2005, 0.1724 -0.135 0.2005, 0.1799 -0.133 0.1954, 0.1798 -0.133 0.1955, 0.179 -0.133 0.1972, 0.179 -0.133 0.1972, 0.1778 -0.133 0.1987, 0.1777 -0.133 0.1987, 0.1762 -0.133 0.1998, 0.1761 -0.133 0.1998, 0.1744 -0.133 0.2005, 0.1743 -0.133 0.2005, 0.1887 -0.1507 0.0042, 0.1918 -0.1498 0.0049, 0.1933 -0.1502 0.0059, 0.1945 -0.1506 0.0074, 0.1954 -0.1508 0.0091, 0.1958 -0.1509 0.0109, 0.195 -0.1528 0.0109, 0.1903 -0.1565 0.0126, 0.1922 -0.1557 0.0127, 0.1903 -0.1564 0.0126, 0.1903 -0.1564 0.0109, 0.1958 -0.1509 0.0126, 0.1958 -0.1509 0.0126, 0.195 -0.1528 0.0127, 0.195 -0.1528 0.0127, 0.1938 -0.1544 0.0128, 0.1902 -0.156 0.0091, 0.1947 -0.1526 0.0091, 0.1938 -0.1544 0.0109, 0.1899 -0.1552 0.0074, 0.1939 -0.1521 0.0074, 0.1935 -0.1541 0.0091, 0.1896 -0.154 0.0059, 0.1928 -0.1515 0.0059, 0.1929 -0.1535 0.0074, 0.1892 -0.1524 0.0049, 0.192 -0.1526 0.0059, 0.1914 -0.1507 0.0049, 0.1901 -0.1494 0.0042, 0.1922 -0.1557 0.0127, 0.1922 -0.1557 0.0109, 0.192 -0.1553 0.0091, 0.1915 -0.1545 0.0074, 0.1909 -0.1534 0.0059, 0.1901 -0.1521 0.0049, 0.1892 -0.1505 0.0042, 0.1909 -0.1515 0.0049, 0.1899 -0.1498 0.0042, 0.1896 -0.1502 0.0042, 0.1776 -0.1344 0.1987, 0.176 -0.134 0.1998, 0.1743 -0.1335 0.2005, 0.1741 -0.134 0.2005, 0.1734 -0.1347 0.2005, 0.1738 -0.1344 0.2005, 0.1729 -0.1349 0.2005, 0.1796 -0.135 0.1954, 0.18 -0.1351 0.1938, 0.18 -0.1351 0.1938, 0.1792 -0.1369 0.1938, 0.1789 -0.1368 0.1954, 0.1792 -0.137 0.1938, 0.1777 -0.1383 0.1954, 0.1779 -0.1386 0.1939, 0.1761 -0.1395 0.1954, 0.1763 -0.1398 0.1938, 0.1763 -0.1398 0.1938, 0.1743 -0.1402 0.1954, 0.1744 -0.1406 0.1938, 0.1744 -0.1406 0.1938, 0.1757 -0.1349 0.1998, 0.1751 -0.1357 0.1998, 0.1743 -0.1363 0.1998, 0.1734 -0.1367 0.1998, 0.177 -0.1357 0.1987, 0.1762 -0.1368 0.1987, 0.1751 -0.1377 0.1987, 0.1738 -0.1382 0.1987, 0.1788 -0.1348 0.1972, 0.1781 -0.1363 0.1972, 0.1771 -0.1377 0.1972, 0.1757 -0.1388 0.1972, 0.1741 -0.1394 0.1972
            ]
        }
        coordIndex [
            0,1,2,-1,2,1,3,-1,2,3,4,-1,4,3,5,-1,4,5,6,-1,6,5,7,-1,8,9,10,-1,11,12,13,-1,12,14,13,-1,13,14,15,-1,13,15,10,-1,10,15,16,-1,10,16,8,-1,17,18,19,-1,20,21,5,-1,5,21,22,-1,5,22,23,-1,24,23,25,-1,25,23,26,-1,27,7,13,-1,13,7,5,-1,13,5,11,-1,11,5,23,-1,11,23,28,-1,28,23,24,-1,29,30,31,-1,31,30,32,-1,33,34,35,-1,35,34,21,-1,36,16,37,-1,37,16,15,-1,37,15,38,-1,38,15,39,-1,38,39,40,-1,26,41,20,-1,20,41,31,-1,20,31,21,-1,21,31,32,-1,21,32,35,-1,42,43,44,-1,44,43,45,-1,44,45,46,-1,47,48,44,-1,44,48,49,-1,50,51,52,-1,52,51,53,-1,49,54,44,-1,44,54,53,-1,44,53,55,-1,55,53,51,-1,56,57,58,-1,46,59,44,-1,44,59,60,-1,44,60,47,-1,57,61,58,-1,58,61,20,-1,58,20,36,-1,36,20,17,-1,36,17,16,-1,16,17,19,-1,40,62,38,-1,38,62,63,-1,38,63,64,-1,64,63,65,-1,64,65,66,-1,65,67,66,-1,66,67,68,-1,66,68,58,-1,58,68,69,-1,58,69,56,-1,61,70,20,-1,20,70,71,-1,20,71,72,-1,72,73,20,-1,20,73,74,-1,20,74,26,-1,26,74,75,-1,26,75,25,-1,25,75,76,-1,25,76,44,-1,44,76,77,-1,44,77,42,-1,78,79,3,-1,3,79,80,-1,81,82,83,-1,83,84,81,-1,81,84,85,-1,81,85,86,-1,87,5,88,-1,88,5,3,-1,88,3,89,-1,89,3,80,-1,89,80,90,-1,90,80,20,-1,91,92,5,-1,5,92,93,-1,5,93,20,-1,20,93,94,-1,95,96,90,-1,90,96,97,-1,86,91,81,-1,81,91,5,-1,81,5,98,-1,98,5,87,-1,98,87,99,-1,99,87,100,-1,94,101,20,-1,20,101,102,-1,20,102,90,-1,90,102,103,-1,90,103,95,-1,97,104,90,-1,90,104,105,-1,90,105,81,-1,81,105,106,-1,81,106,82,-1,107,108,109,-1,109,108,110,-1,109,110,111,-1,111,110,112,-1,111,112,113,-1,113,112,114,-1,115,116,117,-1,117,118,115,-1,115,118,119,-1,115,119,107,-1,107,119,120,-1,107,120,108,-1,121,122,123,-1,123,124,121,-1,121,124,125,-1,121,125,116,-1,116,125,126,-1,116,126,117,-1,127,128,129,-1,129,128,130,-1,129,130,122,-1,122,130,131,-1,122,131,123,-1,129,132,127,-1,127,132,79,-1,127,79,78,-1,114,133,113,-1,113,133,134,-1,133,135,134,-1,134,135,136,-1,134,136,137,-1,136,138,137,-1,137,138,139,-1,137,139,140,-1,139,141,140,-1,140,141,142,-1,140,142,143,-1,142,144,143,-1,143,144,145,-1,143,145,146,-1,145,147,146,-1,146,147,148,-1,146,148,149,-1,148,150,149,-1,149,150,19,-1,149,19,18,-1,151,152,153,-1,154,155,153,-1,153,155,156,-1,153,156,151,-1,157,158,159,-1,159,158,155,-1,159,155,160,-1,160,155,154,-1,160,154,161,-1,161,154,162,-1,161,162,163,-1,164,6,7,-1,161,163,165,-1,165,163,166,-1,165,166,167,-1,167,166,168,-1,167,168,169,-1,169,168,170,-1,169,170,171,-1,171,170,172,-1,171,172,173,-1,173,172,164,-1,173,164,174,-1,174,164,7,-1,174,7,27,-1,158,157,175,-1,175,157,176,-1,175,176,177,-1,177,176,178,-1,178,176,179,-1,178,179,180,-1,180,179,181,-1,181,179,182,-1,181,182,183,-1,183,182,184,-1,184,182,185,-1,184,185,186,-1,187,188,189,-1,189,188,190,-1,189,190,185,-1,185,190,191,-1,185,191,186,-1,189,192,187,-1,187,192,9,-1,187,9,8,-1,151,193,152,-1,152,193,194,-1,193,195,194,-1,194,195,196,-1,194,196,197,-1,196,198,197,-1,197,198,199,-1,197,199,200,-1,199,201,200,-1,200,201,202,-1,200,202,203,-1,202,204,203,-1,203,204,205,-1,203,205,206,-1,205,207,206,-1,206,207,208,-1,206,208,209,-1,208,210,209,-1,209,210,1,-1,209,1,0,-1,211,212,213,-1,213,212,214,-1,215,216,217,-1,217,216,218,-1,219,220,221,-1,221,220,222,-1,223,224,225,-1,225,224,226,-1,225,226,108,-1,108,226,227,-1,108,227,110,-1,225,228,223,-1,223,228,229,-1,223,229,230,-1,230,229,231,-1,229,232,231,-1,231,232,233,-1,231,233,234,-1,234,233,235,-1,234,235,236,-1,236,235,237,-1,236,237,238,-1,238,237,239,-1,238,239,240,-1,240,239,241,-1,240,241,242,-1,242,241,217,-1,242,217,218,-1,127,78,243,-1,244,245,246,-1,247,248,249,-1,250,251,252,-1,253,254,255,-1,225,108,120,-1,229,228,256,-1,256,228,225,-1,241,239,254,-1,254,239,237,-1,254,237,255,-1,255,237,235,-1,255,235,233,-1,217,241,257,-1,257,241,254,-1,257,254,258,-1,258,254,253,-1,258,253,259,-1,259,253,260,-1,225,120,256,-1,256,120,119,-1,256,119,261,-1,251,260,252,-1,252,260,253,-1,252,253,262,-1,262,253,255,-1,262,255,263,-1,263,255,233,-1,119,118,261,-1,261,118,117,-1,261,117,264,-1,248,250,249,-1,249,250,252,-1,249,252,265,-1,265,252,262,-1,265,262,266,-1,266,262,263,-1,117,126,264,-1,264,126,125,-1,264,125,267,-1,245,247,246,-1,246,247,249,-1,246,249,268,-1,268,249,265,-1,268,265,269,-1,269,265,266,-1,125,124,267,-1,267,124,123,-1,267,123,270,-1,269,271,268,-1,268,271,272,-1,268,272,246,-1,246,272,273,-1,246,273,244,-1,232,229,274,-1,274,229,256,-1,274,256,275,-1,275,256,261,-1,275,261,276,-1,276,261,264,-1,276,264,277,-1,277,264,267,-1,277,267,278,-1,278,267,270,-1,278,270,279,-1,279,270,243,-1,279,243,78,-1,78,280,273,-1,273,280,281,-1,273,281,244,-1,271,282,272,-1,272,282,283,-1,272,283,273,-1,273,283,78,-1,282,284,283,-1,283,284,78,-1,123,131,270,-1,270,131,130,-1,270,130,243,-1,243,130,128,-1,243,128,127,-1,233,232,263,-1,263,232,274,-1,263,274,266,-1,266,274,275,-1,266,275,269,-1,269,275,276,-1,269,276,271,-1,271,276,277,-1,271,277,282,-1,282,277,278,-1,282,278,284,-1,284,278,279,-1,284,279,78,-1,285,286,287,-1,288,289,290,-1,291,292,293,-1,212,294,295,-1,296,294,212,-1,293,292,212,-1,297,212,292,-1,242,298,240,-1,240,298,299,-1,240,299,238,-1,238,299,236,-1,236,299,300,-1,236,300,234,-1,234,300,231,-1,231,300,301,-1,231,301,230,-1,230,301,223,-1,223,301,302,-1,223,302,224,-1,224,302,226,-1,226,302,303,-1,226,303,227,-1,227,303,304,-1,227,304,110,-1,305,296,212,-1,306,307,291,-1,291,307,308,-1,291,308,292,-1,292,308,309,-1,292,309,297,-1,310,295,311,-1,311,295,294,-1,311,294,312,-1,312,294,296,-1,312,296,313,-1,289,306,290,-1,290,306,291,-1,290,291,314,-1,314,291,293,-1,314,293,315,-1,315,293,212,-1,305,316,296,-1,296,316,317,-1,296,317,313,-1,313,317,318,-1,313,318,319,-1,320,310,321,-1,321,310,311,-1,321,311,322,-1,322,311,312,-1,322,312,323,-1,323,312,313,-1,323,313,324,-1,324,313,319,-1,287,320,325,-1,325,320,321,-1,325,321,326,-1,326,321,322,-1,326,322,327,-1,327,322,323,-1,327,323,328,-1,328,323,324,-1,328,324,329,-1,286,288,287,-1,287,288,290,-1,287,290,320,-1,320,290,314,-1,320,314,310,-1,310,314,315,-1,310,315,295,-1,295,315,212,-1,242,218,298,-1,298,218,330,-1,298,330,285,-1,319,331,324,-1,324,331,332,-1,324,332,329,-1,329,332,333,-1,329,333,334,-1,285,287,298,-1,298,287,325,-1,298,325,299,-1,299,325,326,-1,299,326,300,-1,300,326,327,-1,300,327,301,-1,301,327,328,-1,301,328,302,-1,302,328,329,-1,302,329,303,-1,303,329,334,-1,303,334,304,-1,3,1,335,-1,215,217,336,-1,336,217,257,-1,336,257,337,-1,337,257,258,-1,337,258,338,-1,338,258,259,-1,338,259,339,-1,339,259,260,-1,339,260,340,-1,340,260,251,-1,340,251,341,-1,341,251,250,-1,341,250,342,-1,342,250,248,-1,342,248,343,-1,343,248,247,-1,343,247,344,-1,344,247,245,-1,344,245,345,-1,345,245,244,-1,345,244,346,-1,346,244,281,-1,346,281,335,-1,335,281,280,-1,335,280,3,-1,3,280,78,-1,215,347,216,-1,216,347,348,-1,348,347,349,-1,349,347,350,-1,349,350,351,-1,351,350,352,-1,351,352,353,-1,353,352,354,-1,353,354,355,-1,355,354,356,-1,355,356,357,-1,357,356,358,-1,357,358,359,-1,359,358,360,-1,359,360,361,-1,361,360,362,-1,361,362,363,-1,362,364,363,-1,363,364,151,-1,363,151,156,-1,218,216,330,-1,330,216,365,-1,330,365,285,-1,285,365,366,-1,285,366,286,-1,286,366,367,-1,286,367,288,-1,288,367,368,-1,288,368,289,-1,289,368,369,-1,289,369,306,-1,306,369,370,-1,306,370,307,-1,307,370,371,-1,307,371,308,-1,308,371,372,-1,308,372,309,-1,309,372,373,-1,309,373,297,-1,373,374,297,-1,297,374,214,-1,297,214,212,-1,112,110,375,-1,375,110,304,-1,375,304,376,-1,376,304,334,-1,376,334,377,-1,377,334,333,-1,377,333,378,-1,378,333,332,-1,378,332,379,-1,379,332,331,-1,379,331,380,-1,380,331,319,-1,380,319,381,-1,381,319,318,-1,381,318,382,-1,382,318,317,-1,382,317,383,-1,383,317,316,-1,383,316,384,-1,316,305,384,-1,384,305,212,-1,384,212,211,-1,112,385,114,-1,114,385,386,-1,386,385,387,-1,387,385,388,-1,387,388,389,-1,389,388,390,-1,389,390,391,-1,391,390,392,-1,391,392,393,-1,393,392,394,-1,393,394,395,-1,395,394,396,-1,395,396,397,-1,397,396,398,-1,397,398,399,-1,399,398,400,-1,399,400,401,-1,400,402,401,-1,401,402,220,-1,401,220,219,-1,403,19,404,-1,147,145,405,-1,144,142,406,-1,141,139,407,-1,408,409,410,-1,401,219,411,-1,397,399,412,-1,412,399,401,-1,386,387,409,-1,409,387,389,-1,409,389,410,-1,410,389,391,-1,410,391,393,-1,114,386,133,-1,133,386,409,-1,133,409,135,-1,135,409,408,-1,135,408,136,-1,136,408,138,-1,401,411,412,-1,412,411,413,-1,412,413,414,-1,139,138,407,-1,407,138,408,-1,407,408,415,-1,415,408,410,-1,415,410,416,-1,416,410,393,-1,413,417,414,-1,414,417,418,-1,414,418,419,-1,142,141,406,-1,406,141,407,-1,406,407,420,-1,420,407,415,-1,420,415,421,-1,421,415,416,-1,418,422,419,-1,419,422,423,-1,419,423,424,-1,145,144,405,-1,405,144,406,-1,405,406,425,-1,425,406,420,-1,425,420,426,-1,426,420,421,-1,423,427,424,-1,424,427,428,-1,424,428,429,-1,426,430,425,-1,425,430,431,-1,425,431,405,-1,405,431,432,-1,405,432,147,-1,395,397,433,-1,433,397,412,-1,433,412,434,-1,434,412,414,-1,434,414,435,-1,435,414,419,-1,435,419,436,-1,436,419,424,-1,436,424,437,-1,437,424,429,-1,437,429,438,-1,438,429,404,-1,438,404,19,-1,19,150,432,-1,432,150,148,-1,432,148,147,-1,430,439,431,-1,431,439,440,-1,431,440,432,-1,432,440,19,-1,439,441,440,-1,440,441,19,-1,428,442,429,-1,429,442,443,-1,429,443,404,-1,404,443,444,-1,404,444,403,-1,393,395,416,-1,416,395,433,-1,416,433,421,-1,421,433,434,-1,421,434,426,-1,426,434,435,-1,426,435,430,-1,430,435,436,-1,430,436,439,-1,439,436,437,-1,439,437,441,-1,441,437,438,-1,441,438,19,-1,335,1,445,-1,207,205,446,-1,204,202,447,-1,201,199,448,-1,449,450,451,-1,347,215,336,-1,352,350,452,-1,452,350,347,-1,364,362,450,-1,450,362,360,-1,450,360,451,-1,451,360,358,-1,451,358,356,-1,151,364,193,-1,193,364,450,-1,193,450,195,-1,195,450,449,-1,195,449,196,-1,196,449,198,-1,347,336,452,-1,452,336,337,-1,452,337,453,-1,199,198,448,-1,448,198,449,-1,448,449,454,-1,454,449,451,-1,454,451,455,-1,455,451,356,-1,337,338,453,-1,453,338,339,-1,453,339,456,-1,202,201,447,-1,447,201,448,-1,447,448,457,-1,457,448,454,-1,457,454,458,-1,458,454,455,-1,339,340,456,-1,456,340,341,-1,456,341,459,-1,205,204,446,-1,446,204,447,-1,446,447,460,-1,460,447,457,-1,460,457,461,-1,461,457,458,-1,341,342,459,-1,459,342,343,-1,459,343,462,-1,461,463,460,-1,460,463,464,-1,460,464,446,-1,446,464,465,-1,446,465,207,-1,354,352,466,-1,466,352,452,-1,466,452,467,-1,467,452,453,-1,467,453,468,-1,468,453,456,-1,468,456,469,-1,469,456,459,-1,469,459,470,-1,470,459,462,-1,470,462,471,-1,471,462,445,-1,471,445,1,-1,1,210,465,-1,465,210,208,-1,465,208,207,-1,463,472,464,-1,464,472,473,-1,464,473,465,-1,465,473,1,-1,472,474,473,-1,473,474,1,-1,343,344,462,-1,462,344,345,-1,462,345,445,-1,445,345,346,-1,445,346,335,-1,356,354,455,-1,455,354,466,-1,455,466,458,-1,458,466,467,-1,458,467,461,-1,461,467,468,-1,461,468,463,-1,463,468,469,-1,463,469,472,-1,472,469,470,-1,472,470,474,-1,474,470,471,-1,474,471,1,-1,475,476,477,-1,478,479,480,-1,214,481,482,-1,483,481,214,-1,480,479,214,-1,484,214,479,-1,485,361,363,-1,361,485,359,-1,359,485,486,-1,359,486,357,-1,357,486,487,-1,357,487,355,-1,355,487,488,-1,355,488,353,-1,353,488,351,-1,351,488,489,-1,351,489,349,-1,349,489,348,-1,348,489,365,-1,348,365,216,-1,374,483,214,-1,490,491,478,-1,478,491,492,-1,478,492,479,-1,479,492,493,-1,479,493,484,-1,494,482,495,-1,495,482,481,-1,495,481,496,-1,496,481,483,-1,496,483,497,-1,374,373,483,-1,483,373,372,-1,483,372,497,-1,497,372,371,-1,497,371,370,-1,477,494,498,-1,498,494,495,-1,498,495,499,-1,499,495,496,-1,499,496,500,-1,500,496,497,-1,500,497,501,-1,501,497,370,-1,502,503,504,-1,504,503,475,-1,475,477,504,-1,504,477,498,-1,504,498,505,-1,505,498,499,-1,505,499,506,-1,506,499,500,-1,506,500,507,-1,507,500,501,-1,507,501,508,-1,476,490,477,-1,477,490,478,-1,477,478,494,-1,494,478,480,-1,494,480,482,-1,482,480,214,-1,502,485,509,-1,509,485,363,-1,509,363,156,-1,370,369,501,-1,501,369,368,-1,501,368,508,-1,508,368,367,-1,508,367,366,-1,502,504,485,-1,485,504,505,-1,485,505,486,-1,486,505,506,-1,486,506,487,-1,487,506,507,-1,487,507,488,-1,488,507,508,-1,488,508,489,-1,489,508,366,-1,489,366,365,-1,378,379,510,-1,511,512,513,-1,211,514,515,-1,516,514,211,-1,513,512,211,-1,384,211,512,-1,517,388,385,-1,388,517,390,-1,390,517,518,-1,390,518,392,-1,392,518,519,-1,392,519,394,-1,394,519,520,-1,394,520,396,-1,396,520,398,-1,398,520,521,-1,398,521,400,-1,400,521,402,-1,402,521,522,-1,402,522,220,-1,523,516,211,-1,380,381,511,-1,511,381,382,-1,511,382,512,-1,512,382,383,-1,512,383,384,-1,524,515,525,-1,525,515,514,-1,525,514,526,-1,526,514,516,-1,526,516,527,-1,523,528,516,-1,516,528,529,-1,516,529,527,-1,527,529,530,-1,527,530,531,-1,510,524,532,-1,532,524,525,-1,532,525,533,-1,533,525,526,-1,533,526,534,-1,534,526,527,-1,534,527,535,-1,535,527,531,-1,376,377,536,-1,536,377,378,-1,378,510,536,-1,536,510,532,-1,536,532,537,-1,537,532,533,-1,537,533,538,-1,538,533,534,-1,538,534,539,-1,539,534,535,-1,539,535,540,-1,379,380,510,-1,510,380,511,-1,510,511,524,-1,524,511,513,-1,524,513,515,-1,515,513,211,-1,376,517,375,-1,375,517,385,-1,375,385,112,-1,531,541,535,-1,535,541,542,-1,535,542,540,-1,540,542,543,-1,540,543,544,-1,376,536,517,-1,517,536,537,-1,517,537,518,-1,518,537,538,-1,518,538,519,-1,519,538,539,-1,519,539,520,-1,520,539,540,-1,520,540,521,-1,521,540,544,-1,521,544,522,-1,16,19,403,-1,8,16,545,-1,545,16,403,-1,545,403,546,-1,546,403,444,-1,546,444,547,-1,547,444,443,-1,547,443,548,-1,548,443,442,-1,548,442,549,-1,549,442,428,-1,549,428,550,-1,550,428,427,-1,550,427,551,-1,551,427,423,-1,551,423,552,-1,552,423,422,-1,552,422,553,-1,553,422,418,-1,553,418,554,-1,554,418,417,-1,554,417,555,-1,555,417,413,-1,555,413,556,-1,556,413,411,-1,556,411,221,-1,221,411,219,-1,156,155,509,-1,509,155,557,-1,509,557,502,-1,502,557,558,-1,502,558,503,-1,503,558,559,-1,503,559,475,-1,475,559,560,-1,475,560,476,-1,476,560,561,-1,476,561,490,-1,490,561,562,-1,490,562,491,-1,491,562,563,-1,491,563,492,-1,492,563,564,-1,492,564,493,-1,493,564,565,-1,493,565,484,-1,565,566,484,-1,484,566,213,-1,484,213,214,-1,222,220,567,-1,567,220,522,-1,567,522,568,-1,568,522,544,-1,568,544,569,-1,569,544,543,-1,569,543,570,-1,570,543,542,-1,570,542,571,-1,571,542,541,-1,571,541,572,-1,572,541,531,-1,572,531,573,-1,573,531,530,-1,573,530,574,-1,574,530,529,-1,574,529,575,-1,575,529,528,-1,575,528,576,-1,528,523,576,-1,576,523,211,-1,576,211,213,-1,187,8,577,-1,547,548,578,-1,549,550,579,-1,551,552,580,-1,581,582,583,-1,584,158,175,-1,585,586,587,-1,587,586,584,-1,588,589,582,-1,582,589,590,-1,582,590,583,-1,583,590,591,-1,583,591,592,-1,221,588,556,-1,556,588,582,-1,556,582,555,-1,555,582,581,-1,555,581,554,-1,554,581,553,-1,584,175,587,-1,587,175,177,-1,587,177,593,-1,552,553,580,-1,580,553,581,-1,580,581,594,-1,594,581,583,-1,594,583,595,-1,595,583,592,-1,177,178,593,-1,593,178,180,-1,593,180,596,-1,550,551,579,-1,579,551,580,-1,579,580,597,-1,597,580,594,-1,597,594,598,-1,598,594,595,-1,180,181,596,-1,596,181,183,-1,596,183,599,-1,548,549,578,-1,578,549,579,-1,578,579,600,-1,600,579,597,-1,600,597,601,-1,601,597,598,-1,183,184,599,-1,599,184,186,-1,599,186,602,-1,601,603,600,-1,600,603,604,-1,600,604,578,-1,578,604,605,-1,578,605,547,-1,606,585,607,-1,607,585,587,-1,607,587,608,-1,608,587,593,-1,608,593,609,-1,609,593,596,-1,609,596,610,-1,610,596,599,-1,610,599,611,-1,611,599,602,-1,611,602,612,-1,612,602,577,-1,612,577,8,-1,8,545,605,-1,605,545,546,-1,605,546,547,-1,603,613,604,-1,604,613,614,-1,604,614,605,-1,605,614,8,-1,613,615,614,-1,614,615,8,-1,186,191,602,-1,602,191,190,-1,602,190,577,-1,577,190,188,-1,577,188,187,-1,592,606,595,-1,595,606,607,-1,595,607,598,-1,598,607,608,-1,598,608,601,-1,601,608,609,-1,601,609,603,-1,603,609,610,-1,603,610,613,-1,613,610,611,-1,613,611,615,-1,615,611,612,-1,615,612,8,-1,570,571,616,-1,617,618,619,-1,213,620,621,-1,622,620,213,-1,619,618,213,-1,576,213,618,-1,623,624,625,-1,624,623,626,-1,626,623,627,-1,626,627,628,-1,628,627,629,-1,628,629,630,-1,630,629,631,-1,630,631,632,-1,632,631,633,-1,633,631,634,-1,633,634,635,-1,635,634,636,-1,636,634,557,-1,636,557,155,-1,566,622,213,-1,572,573,617,-1,617,573,574,-1,617,574,618,-1,618,574,575,-1,618,575,576,-1,637,621,638,-1,638,621,620,-1,638,620,639,-1,639,620,622,-1,639,622,640,-1,566,565,622,-1,622,565,564,-1,622,564,640,-1,640,564,563,-1,640,563,562,-1,616,637,641,-1,641,637,638,-1,641,638,642,-1,642,638,639,-1,642,639,643,-1,643,639,640,-1,643,640,644,-1,644,640,562,-1,568,569,645,-1,645,569,570,-1,570,616,645,-1,645,616,641,-1,645,641,646,-1,646,641,642,-1,646,642,647,-1,647,642,643,-1,647,643,648,-1,648,643,644,-1,648,644,649,-1,571,572,616,-1,616,572,617,-1,616,617,637,-1,637,617,619,-1,637,619,621,-1,621,619,213,-1,568,623,567,-1,567,623,625,-1,567,625,222,-1,562,561,644,-1,644,561,560,-1,644,560,649,-1,649,560,559,-1,649,559,558,-1,568,645,623,-1,623,645,646,-1,623,646,627,-1,627,646,647,-1,627,647,629,-1,629,647,648,-1,629,648,631,-1,631,648,649,-1,631,649,634,-1,634,649,558,-1,634,558,557,-1,222,625,221,-1,221,625,588,-1,588,625,589,-1,589,625,624,-1,589,624,590,-1,590,624,626,-1,590,626,591,-1,591,626,628,-1,591,628,592,-1,592,628,630,-1,592,630,606,-1,606,630,632,-1,606,632,585,-1,585,632,633,-1,585,633,586,-1,586,633,635,-1,586,635,584,-1,635,636,584,-1,584,636,155,-1,584,155,158,-1,
        ]
    }
}
Shape{
    appearance Appearance {
        material  Material {
            diffuseColor 0.8509803921568627 0.8509803921568627 0.8509803921568627
            specularColor 0.4235294117647059 0.4235294117647059 0.4235294117647059
            ambientIntensity 0.851
            transparency 0.0
            shininess 0.5
        }
    }
    geometry IndexedFaceSet {
        ccw TRUE
        solid FALSE
        coord DEF co Coordinate {
            point [
                -0.1083 -0.1378 0.0039, -0.1083 -0.1378 0.0, -0.1673 -0.1378 0.0039, -0.1673 -0.1378 0.0, -0.1673 -0.1567 0.0106, -0.1673 -0.1562 0.0088, -0.1673 -0.1969 0.0, -0.1673 -0.1553 0.0072, -0.1673 -0.154 0.0058, -0.1673 -0.1525 0.0048, -0.1673 -0.1507 0.0042, -0.1673 -0.1489 0.0039, -0.1673 -0.1969 0.0394, -0.1673 -0.1544 0.0394, -0.1673 -0.1567 0.0125, -0.1083 -0.1489 0.0039, -0.1083 -0.1507 0.0042, -0.1083 -0.1969 0.0, -0.1083 -0.1525 0.0048, -0.1083 -0.154 0.0058, -0.1083 -0.1553 0.0072, -0.1083 -0.1562 0.0088, -0.1083 -0.1544 0.0394, -0.1083 -0.1969 0.0394, -0.1083 -0.1567 0.0125, -0.1083 -0.1567 0.0106, 0.1673 -0.1378 0.0039, 0.1673 -0.1378 0.0, 0.1083 -0.1378 0.0039, 0.1083 -0.1378 0.0, 0.1083 -0.1969 0.0394, 0.1083 -0.1544 0.0394, 0.1083 -0.1969 0.0, 0.1083 -0.1567 0.0125, 0.1083 -0.1567 0.0106, 0.1083 -0.1562 0.0088, 0.1083 -0.1553 0.0072, 0.1083 -0.154 0.0058, 0.1083 -0.1525 0.0048, 0.1083 -0.1507 0.0042, 0.1083 -0.1489 0.0039, 0.1673 -0.1489 0.0039, 0.1673 -0.1507 0.0042, 0.1673 -0.1969 0.0, 0.1673 -0.1525 0.0048, 0.1673 -0.154 0.0058, 0.1673 -0.1553 0.0072, 0.1673 -0.1562 0.0088, 0.1673 -0.1544 0.0394, 0.1673 -0.1969 0.0394, 0.1673 -0.1567 0.0125, 0.1673 -0.1567 0.0106, -0.0295 0.1378 0.0039, -0.0295 0.1378 0.0, -0.0082 0.1378 0.0039, 0.0295 0.1378 0.0, 0.0295 0.1378 0.0039, -0.0295 0.1562 0.0088, -0.0295 0.1969 0.0, -0.0295 0.1553 0.0072, -0.0295 0.154 0.0058, -0.0295 0.1544 0.0394, -0.0295 0.1969 0.0394, -0.0295 0.1567 0.0125, -0.0295 0.1567 0.0106, -0.0295 0.1489 0.0039, -0.0295 0.1507 0.0042, -0.0295 0.1525 0.0048, 0.0295 0.1969 0.0394, 0.0295 0.1544 0.0394, 0.0295 0.1969 0.0, 0.0295 0.1567 0.0125, 0.0295 0.1567 0.0106, 0.0295 0.1562 0.0088, 0.0295 0.1553 0.0072, 0.0295 0.154 0.0058, 0.0295 0.1525 0.0048, 0.0295 0.1507 0.0042, 0.0295 0.1489 0.0039
            ]
        }
        coordIndex [
            0,1,2,-1,2,1,3,-1,4,5,6,-1,6,5,7,-1,6,7,8,-1,8,9,6,-1,6,9,10,-1,6,10,3,-1,3,10,11,-1,3,11,2,-1,12,13,6,-1,6,13,14,-1,6,14,4,-1,0,15,1,-1,1,15,16,-1,1,16,17,-1,17,16,18,-1,18,19,17,-1,17,19,20,-1,17,20,21,-1,22,23,24,-1,24,23,17,-1,24,17,25,-1,25,17,21,-1,23,12,17,-1,17,12,6,-1,13,12,22,-1,22,12,23,-1,1,17,3,-1,3,17,6,-1,26,27,28,-1,28,27,29,-1,30,31,32,-1,32,31,33,-1,32,33,34,-1,34,35,32,-1,32,35,36,-1,32,36,37,-1,37,38,32,-1,32,38,39,-1,32,39,29,-1,29,39,40,-1,29,40,28,-1,26,41,27,-1,27,41,42,-1,27,42,43,-1,43,42,44,-1,44,45,43,-1,43,45,46,-1,43,46,47,-1,48,49,50,-1,50,49,43,-1,50,43,51,-1,51,43,47,-1,49,30,43,-1,43,30,32,-1,31,30,48,-1,48,30,49,-1,27,43,29,-1,29,43,32,-1,52,53,54,-1,54,53,55,-1,54,55,56,-1,57,58,59,-1,59,58,60,-1,61,62,63,-1,63,62,58,-1,63,58,64,-1,64,58,57,-1,52,65,53,-1,53,65,66,-1,53,66,58,-1,58,66,67,-1,58,67,60,-1,68,69,70,-1,70,69,71,-1,70,71,72,-1,72,73,70,-1,70,73,74,-1,70,74,75,-1,75,76,70,-1,70,76,77,-1,70,77,55,-1,55,77,78,-1,55,78,56,-1,62,68,58,-1,58,68,70,-1,69,68,61,-1,61,68,62,-1,70,55,58,-1,58,55,53,-1,
        ]
    }
}
Shape{
    appearance Appearance {
        material  Material {
            diffuseColor 1.0 1.0 1.0
            specularColor 0.8784313725490196 0.8784313725490196 0.8784313725490196
            ambientIntensity 1.0
            transparency 0.0
            shininess 0.5
        }
    }
    geometry IndexedFaceSet {
        ccw TRUE
        solid FALSE
        coord DEF co Coordinate {
            point [
                -0.0667 0.0197 0.0079, -0.0821 -0.0197 0.0079, -0.0667 0.0197 0.0039, -0.0821 -0.0197 0.0039, -0.0763 -0.0197 0.0079, -0.0763 -0.0197 0.0039, -0.0724 -0.0086 0.0079, -0.0724 -0.0086 0.0039, -0.0561 -0.0086 0.0079, -0.0561 -0.0086 0.0039, -0.0523 -0.0197 0.0079, -0.0523 -0.0197 0.0039, -0.0466 -0.0197 0.0079, -0.0466 -0.0197 0.0039, -0.0615 0.0197 0.0079, -0.0615 0.0197 0.0039, -0.0574 -0.0043 0.0079, -0.0706 -0.0043 0.0079, -0.0633 0.0121 0.0079, -0.0637 0.0135 0.0079, -0.0639 0.0149 0.0079, -0.0641 0.0149 0.0079, -0.0643 0.0135 0.0079, -0.0647 0.0121 0.0079, -0.0574 -0.0043 0.0039, -0.0706 -0.0043 0.0039, -0.0633 0.0121 0.0039, -0.0637 0.0135 0.0039, -0.0639 0.0149 0.0039, -0.0641 0.0149 0.0039, -0.0643 0.0135 0.0039, -0.0647 0.0121 0.0039, -0.0227 -0.0197 0.0079, -0.012 -0.0197 0.0079, -0.0227 -0.0197 0.0039, -0.012 -0.0197 0.0039, -0.012 0.0197 0.0079, -0.012 0.0197 0.0039, -0.0231 0.0197 0.0079, -0.0231 0.0197 0.0039, -0.0437 0.0005 0.0079, -0.0437 0.0005 0.0039, -0.0434 0.0042 0.0039, -0.0434 0.0042 0.0079, -0.0423 0.0081 0.0039, -0.0423 0.0081 0.0079, -0.0405 0.0115 0.0039, -0.0405 0.0115 0.0079, -0.0377 0.0145 0.0039, -0.0377 0.0145 0.0079, -0.0377 0.0146 0.0039, -0.0377 0.0146 0.0079, -0.0334 0.0175 0.0039, -0.0334 0.0175 0.0079, -0.0288 0.0191 0.0039, -0.0288 0.0191 0.0079, -0.0276 -0.0193 0.0039, -0.0276 -0.0193 0.0079, -0.0321 -0.0179 0.0039, -0.0321 -0.0179 0.0079, -0.0362 -0.0155 0.0039, -0.0362 -0.0155 0.0079, -0.0395 -0.0124 0.0039, -0.0395 -0.0124 0.0079, -0.0417 -0.0089 0.0039, -0.0417 -0.0089 0.0079, -0.0431 -0.0048 0.0039, -0.0431 -0.0048 0.0079, -0.0358 0.0098 0.0079, -0.0339 0.0119 0.0079, -0.031 0.0137 0.0079, -0.0278 0.0149 0.0079, -0.0231 0.0154 0.0079, -0.0173 0.0154 0.0079, -0.0173 -0.0154 0.0079, -0.0229 -0.0154 0.0079, -0.027 -0.015 0.0079, -0.0303 -0.0139 0.0079, -0.033 -0.0123 0.0079, -0.0352 -0.0102 0.0079, -0.0369 -0.0075 0.0079, -0.038 -0.0038 0.0079, -0.0384 0.0004 0.0079, -0.0381 0.0043 0.0079, -0.0372 0.0074 0.0079, -0.0231 0.0154 0.0039, -0.0173 0.0154 0.0039, -0.0278 0.0149 0.0039, -0.031 0.0137 0.0039, -0.0339 0.0119 0.0039, -0.0358 0.0098 0.0039, -0.0372 0.0074 0.0039, -0.0381 0.0043 0.0039, -0.0384 0.0004 0.0039, -0.038 -0.0038 0.0039, -0.0369 -0.0075 0.0039, -0.0352 -0.0102 0.0039, -0.033 -0.0123 0.0039, -0.0303 -0.0139 0.0039, -0.027 -0.015 0.0039, -0.0229 -0.0154 0.0039, -0.0173 -0.0154 0.0039, -0.0043 -0.0154 0.0079, -0.0043 -0.0197 0.0079, -0.0043 -0.0154 0.0039, -0.0043 -0.0197 0.0039, 0.0168 -0.0197 0.0079, 0.0168 -0.0197 0.0039, 0.0168 0.0197 0.0079, 0.0168 0.0197 0.0039, -0.0034 0.0197 0.0079, -0.0034 0.0197 0.0039, -0.0034 0.0154 0.0079, -0.0034 0.0154 0.0039, 0.0115 0.0154 0.0079, 0.0115 0.0154 0.0039, 0.0115 0.0024 0.0079, 0.0115 0.0024 0.0039, -0.0024 0.0024 0.0079, -0.0024 0.0024 0.0039, -0.0024 -0.0019 0.0079, -0.0024 -0.0019 0.0039, 0.0115 -0.0019 0.0079, 0.0115 -0.0019 0.0039, 0.0115 -0.0154 0.0079, 0.0115 -0.0154 0.0039, 0.0245 -0.0133 0.0079, 0.0245 -0.0176 0.0079, 0.0245 -0.0133 0.0039, 0.0245 -0.0176 0.0039, 0.0287 -0.0194 0.0079, 0.0353 -0.0202 0.0079, 0.0353 -0.0202 0.0039, 0.0342 -0.0201 0.0039, 0.0342 -0.0201 0.0079, 0.0327 -0.0199 0.0039, 0.0287 -0.0194 0.0039, 0.0538 -0.0007 0.0079, 0.0538 -0.0007 0.0039, 0.0534 -0.0053 0.0039, 0.0534 -0.0053 0.0079, 0.0522 -0.0095 0.0039, 0.0522 -0.0095 0.0079, 0.0501 -0.0132 0.0039, 0.0501 -0.0132 0.0079, 0.0472 -0.0163 0.0039, 0.0472 -0.0163 0.0079, 0.044 -0.0183 0.0039, 0.044 -0.0183 0.0079, 0.0402 -0.0197 0.0039, 0.0402 -0.0197 0.0079, 0.0376 -0.0199 0.0039, 0.0338 0.0202 0.0079, 0.0338 0.0202 0.0039, 0.0377 0.0198 0.0039, 0.0377 0.0198 0.0079, 0.0421 0.0186 0.0039, 0.0421 0.0186 0.0079, 0.0458 0.0164 0.0039, 0.0458 0.0164 0.0079, 0.0494 0.013 0.0039, 0.0494 0.013 0.0079, 0.0517 0.0093 0.0039, 0.0517 0.0093 0.0079, 0.0532 0.0049 0.0039, 0.0532 0.0049 0.0079, 0.0245 0.0186 0.0079, 0.0245 0.0186 0.0039, 0.029 0.0198 0.0039, 0.029 0.0198 0.0079, 0.0245 0.0133 0.0079, 0.0245 0.0133 0.0039, 0.0337 0.0158 0.0079, 0.0337 0.0158 0.0039, 0.0289 0.0152 0.0039, 0.0289 0.0152 0.0079, 0.0485 -0.0004 0.0079, 0.0485 -0.0004 0.0039, 0.0483 0.0026 0.0039, 0.0483 0.0026 0.0079, 0.0473 0.0069 0.0039, 0.0473 0.0069 0.0079, 0.0456 0.0099 0.0039, 0.0456 0.0099 0.0079, 0.0433 0.0125 0.0039, 0.0433 0.0125 0.0079, 0.0405 0.0143 0.0039, 0.0405 0.0143 0.0079, 0.0376 0.0154 0.0039, 0.0376 0.0154 0.0079, 0.0346 -0.0158 0.0079, 0.0346 -0.0158 0.0039, 0.0383 -0.0154 0.0039, 0.0383 -0.0154 0.0079, 0.0411 -0.0144 0.0039, 0.0411 -0.0144 0.0079, 0.0435 -0.0127 0.0039, 0.0435 -0.0127 0.0079, 0.0454 -0.0108 0.0039, 0.0454 -0.0108 0.0079, 0.047 -0.0081 0.0039, 0.047 -0.0081 0.0079, 0.0481 -0.0047 0.0039, 0.0481 -0.0047 0.0079, 0.0252 -0.0137 0.0039, 0.0252 -0.0137 0.0079, 0.0294 -0.0153 0.0039, 0.0294 -0.0153 0.0079, 0.0571 -0.0154 0.0079, 0.0571 -0.0197 0.0079, 0.0571 -0.0154 0.0039, 0.0571 -0.0197 0.0039, 0.0773 -0.0197 0.0079, 0.0773 -0.0197 0.0039, 0.0773 0.0197 0.0079, 0.0773 0.0197 0.0039, 0.072 0.0197 0.0079, 0.072 0.0197 0.0039, 0.072 -0.0154 0.0079, 0.072 -0.0154 0.0039
            ]
        }
        coordIndex [
            0,1,2,-1,2,1,3,-1,1,4,3,-1,3,4,5,-1,4,6,5,-1,5,6,7,-1,6,8,7,-1,7,8,9,-1,8,10,9,-1,9,10,11,-1,10,12,11,-1,11,12,13,-1,12,14,13,-1,13,14,15,-1,14,0,15,-1,15,0,2,-1,16,8,17,-1,17,8,6,-1,18,14,16,-1,16,14,12,-1,16,12,8,-1,8,12,10,-1,18,19,14,-1,14,19,20,-1,14,20,0,-1,0,20,21,-1,0,21,22,-1,22,23,0,-1,0,23,17,-1,0,17,1,-1,1,17,6,-1,1,6,4,-1,16,17,24,-1,24,17,25,-1,18,16,26,-1,26,16,24,-1,18,26,27,-1,18,27,19,-1,19,27,28,-1,19,28,20,-1,21,20,29,-1,29,20,28,-1,21,29,30,-1,21,30,22,-1,22,30,31,-1,22,31,23,-1,17,23,25,-1,25,23,31,-1,32,33,34,-1,34,33,35,-1,33,36,35,-1,35,36,37,-1,36,38,37,-1,37,38,39,-1,40,41,42,-1,40,42,43,-1,43,42,44,-1,43,44,45,-1,45,44,46,-1,45,46,47,-1,47,46,48,-1,47,48,49,-1,49,48,50,-1,49,50,51,-1,51,50,52,-1,51,52,53,-1,53,52,54,-1,53,54,55,-1,55,54,39,-1,55,39,38,-1,32,34,56,-1,32,56,57,-1,57,56,58,-1,57,58,59,-1,59,58,60,-1,59,60,61,-1,61,60,62,-1,61,62,63,-1,63,62,64,-1,63,64,65,-1,65,64,66,-1,65,66,67,-1,67,66,41,-1,67,41,40,-1,45,47,68,-1,68,47,49,-1,68,49,69,-1,69,49,51,-1,69,51,70,-1,70,51,53,-1,70,53,71,-1,71,53,55,-1,71,55,72,-1,72,55,38,-1,72,38,73,-1,73,38,36,-1,73,36,74,-1,74,36,33,-1,74,33,75,-1,75,33,32,-1,75,32,76,-1,76,32,57,-1,76,57,77,-1,77,57,59,-1,77,59,78,-1,78,59,61,-1,78,61,79,-1,79,61,63,-1,79,63,80,-1,80,63,65,-1,80,65,81,-1,81,65,67,-1,81,67,82,-1,82,67,40,-1,82,40,83,-1,83,40,43,-1,83,43,84,-1,84,43,45,-1,84,45,68,-1,72,73,85,-1,85,73,86,-1,72,85,87,-1,72,87,71,-1,71,87,88,-1,71,88,70,-1,70,88,89,-1,70,89,69,-1,69,89,90,-1,69,90,68,-1,68,90,91,-1,68,91,84,-1,84,91,92,-1,84,92,83,-1,83,92,93,-1,83,93,82,-1,82,93,94,-1,82,94,81,-1,81,94,95,-1,81,95,80,-1,80,95,96,-1,80,96,79,-1,79,96,97,-1,79,97,78,-1,78,97,98,-1,78,98,77,-1,77,98,99,-1,77,99,76,-1,76,99,100,-1,76,100,75,-1,74,75,101,-1,101,75,100,-1,73,74,86,-1,86,74,101,-1,102,103,104,-1,104,103,105,-1,103,106,105,-1,105,106,107,-1,106,108,107,-1,107,108,109,-1,108,110,109,-1,109,110,111,-1,110,112,111,-1,111,112,113,-1,112,114,113,-1,113,114,115,-1,114,116,115,-1,115,116,117,-1,116,118,117,-1,117,118,119,-1,118,120,119,-1,119,120,121,-1,120,122,121,-1,121,122,123,-1,122,124,123,-1,123,124,125,-1,124,102,125,-1,125,102,104,-1,106,103,102,-1,102,124,106,-1,106,124,122,-1,106,122,108,-1,112,110,114,-1,114,110,108,-1,114,108,116,-1,116,108,122,-1,116,122,118,-1,118,122,120,-1,126,127,128,-1,128,127,129,-1,129,127,130,-1,131,132,133,-1,131,133,134,-1,134,133,135,-1,134,135,130,-1,130,135,136,-1,130,136,129,-1,137,138,139,-1,137,139,140,-1,140,139,141,-1,140,141,142,-1,142,141,143,-1,142,143,144,-1,144,143,145,-1,144,145,146,-1,146,145,147,-1,146,147,148,-1,148,147,149,-1,148,149,150,-1,150,149,131,-1,131,149,151,-1,131,151,132,-1,152,153,154,-1,152,154,155,-1,155,154,156,-1,155,156,157,-1,157,156,158,-1,157,158,159,-1,159,158,160,-1,159,160,161,-1,161,160,162,-1,161,162,163,-1,163,162,164,-1,163,164,165,-1,165,164,138,-1,165,138,137,-1,166,167,168,-1,166,168,169,-1,169,168,153,-1,169,153,152,-1,166,170,167,-1,167,170,171,-1,172,173,174,-1,172,174,175,-1,175,174,171,-1,175,171,170,-1,176,177,178,-1,176,178,179,-1,179,178,180,-1,179,180,181,-1,181,180,182,-1,181,182,183,-1,183,182,184,-1,183,184,185,-1,185,184,186,-1,185,186,187,-1,187,186,188,-1,187,188,189,-1,189,188,173,-1,189,173,172,-1,190,191,192,-1,190,192,193,-1,193,192,194,-1,193,194,195,-1,195,194,196,-1,195,196,197,-1,197,196,198,-1,197,198,199,-1,199,198,200,-1,199,200,201,-1,201,200,202,-1,201,202,203,-1,203,202,177,-1,203,177,176,-1,126,128,204,-1,126,204,205,-1,205,204,206,-1,205,206,207,-1,207,206,191,-1,207,191,190,-1,193,131,190,-1,190,131,134,-1,190,134,207,-1,207,134,130,-1,207,130,205,-1,205,130,127,-1,205,127,126,-1,170,166,175,-1,175,166,169,-1,175,169,172,-1,172,169,152,-1,172,152,189,-1,189,152,155,-1,189,155,187,-1,187,155,157,-1,187,157,185,-1,185,157,159,-1,185,159,183,-1,183,159,161,-1,183,161,181,-1,181,161,163,-1,181,163,179,-1,179,163,165,-1,179,165,176,-1,176,165,137,-1,176,137,203,-1,203,137,140,-1,203,140,201,-1,201,140,142,-1,201,142,199,-1,199,142,144,-1,199,144,197,-1,197,144,146,-1,197,146,195,-1,195,146,148,-1,195,148,193,-1,193,148,150,-1,193,150,131,-1,208,209,210,-1,210,209,211,-1,209,212,211,-1,211,212,213,-1,212,214,213,-1,213,214,215,-1,214,216,215,-1,215,216,217,-1,216,218,217,-1,217,218,219,-1,218,208,219,-1,219,208,210,-1,216,214,218,-1,218,214,212,-1,218,212,208,-1,208,212,209,-1,
        ]
    }
}
Shape{
    appearance Appearance {
        material  Material {
            diffuseColor 0.2235294117647059 0.2235294117647059 0.2235294117647059
            specularColor 0.11372549019607843 0.11372549019607843 0.11372549019607843
            ambientIntensity 0.2235
            transparency 0.0
            shininess 0.5
        }
    }
    geometry IndexedFaceSet {
        ccw TRUE
        solid FALSE
        coord DEF co Coordinate {
            point [
                -0.0574 -0.0043 0.0039, -0.0706 -0.0043 0.0039, -0.0633 0.0121 0.0039, -0.0647 0.0121 0.0039, -0.0637 0.0135 0.0039, -0.0643 0.0135 0.0039, -0.0639 0.0149 0.0039, -0.0641 0.0149 0.0039, -0.0173 0.0154 0.0039, -0.0173 -0.0154 0.0039, -0.0231 0.0154 0.0039, -0.0229 -0.0154 0.0039, -0.027 -0.015 0.0039, -0.0384 0.0004 0.0039, -0.0381 0.0043 0.0039, -0.0372 0.0074 0.0039, -0.0278 0.0149 0.0039, -0.0303 -0.0139 0.0039, -0.033 -0.0123 0.0039, -0.0352 -0.0102 0.0039, -0.0369 -0.0075 0.0039, -0.038 -0.0038 0.0039, -0.0358 0.0098 0.0039, -0.0339 0.0119 0.0039, -0.031 0.0137 0.0039
            ]
        }
        coordIndex [
            0,1,2,-1,2,1,3,-1,2,3,4,-1,4,3,5,-1,4,5,6,-1,6,5,7,-1,8,9,10,-1,10,9,11,-1,10,11,12,-1,13,14,10,-1,10,14,15,-1,10,15,16,-1,12,17,10,-1,10,17,18,-1,10,18,19,-1,19,20,10,-1,10,20,21,-1,10,21,13,-1,22,23,15,-1,15,23,24,-1,15,24,16,-1,
        ]
    }
}