%TF.GenerationSoftware,KiCad,Pcbnew,10.0.5*%
%TF.CreationDate,2026-08-16T10:05:52+02:00*%
%TF.ProjectId,IrrigationController,49727269-6761-4746-996f-6e436f6e7472,rev?*%
%TF.SameCoordinates,Original*%
%TF.FileFunction,Legend,Bot*%
%TF.FilePolarity,Positive*%
%FSLAX46Y46*%
G04 Gerber Fmt 4.6, Leading zero omitted, Abs format (unit mm)*
G04 Created by KiCad (PCBNEW 10.0.5) date 2026-08-16 10:05:52*
%MOMM*%
%LPD*%
G01*
G04 APERTURE LIST*
G04 Aperture macros list*
%AMRoundRect*
0 Rectangle with rounded corners*
0 $1 Rounding radius*
0 $2 $3 $4 $5 $6 $7 $8 $9 X,Y pos of 4 corners*
0 Add a 4 corners polygon primitive as box body*
4,1,4,$2,$3,$4,$5,$6,$7,$8,$9,$2,$3,0*
0 Add four circle primitives for the rounded corners*
1,1,$1+$1,$2,$3*
1,1,$1+$1,$4,$5*
1,1,$1+$1,$6,$7*
1,1,$1+$1,$8,$9*
0 Add four rect primitives between the rounded corners*
20,1,$1+$1,$2,$3,$4,$5,0*
20,1,$1+$1,$4,$5,$6,$7,0*
20,1,$1+$1,$6,$7,$8,$9,0*
20,1,$1+$1,$8,$9,$2,$3,0*%
G04 Aperture macros list end*
%ADD10C,3.200000*%
%ADD11R,2.500000X2.500000*%
%ADD12O,2.500000X2.500000*%
%ADD13RoundRect,0.249999X-0.790001X-1.550001X0.790001X-1.550001X0.790001X1.550001X-0.790001X1.550001X0*%
%ADD14O,2.080000X3.600000*%
%ADD15RoundRect,0.249999X1.550001X-0.790001X1.550001X0.790001X-1.550001X0.790001X-1.550001X-0.790001X0*%
%ADD16O,3.600000X2.080000*%
%ADD17R,1.800000X1.800000*%
%ADD18C,1.800000*%
%ADD19C,0.650000*%
%ADD20O,2.100000X1.000000*%
%ADD21O,1.800000X1.000000*%
%ADD22R,3.000000X3.000000*%
%ADD23C,3.000000*%
%ADD24C,2.700000*%
%ADD25C,0.600000*%
G04 APERTURE END LIST*
%LPC*%
D10*
%TO.C,REF\u002A\u002A*%
X231500000Y-38500000D03*
%TD*%
%TO.C,REF\u002A\u002A*%
X231500000Y-151000000D03*
%TD*%
%TO.C,REF\u002A\u002A*%
X60000000Y-151000000D03*
%TD*%
%TO.C,REF\u002A\u002A*%
X60000000Y-38500000D03*
%TD*%
D11*
%TO.C,K608*%
X225500000Y-109627500D03*
D12*
X219500000Y-111627500D03*
X219500000Y-123827500D03*
X231500000Y-123827500D03*
X231500000Y-111627500D03*
%TD*%
D13*
%TO.C,J703*%
X76955000Y-140722500D03*
D14*
X82035000Y-140722500D03*
%TD*%
D11*
%TO.C,K603*%
X115857143Y-109627500D03*
D12*
X109857143Y-111627500D03*
X109857143Y-123827500D03*
X121857143Y-123827500D03*
X121857143Y-111627500D03*
%TD*%
D15*
%TO.C,J101*%
X67472500Y-68085000D03*
D16*
X67472500Y-63005000D03*
X67472500Y-57925000D03*
%TD*%
D13*
%TO.C,J102*%
X86130000Y-61722500D03*
D14*
X91210000Y-61722500D03*
X96290000Y-61722500D03*
X101370000Y-61722500D03*
%TD*%
D17*
%TO.C,D301*%
X156960000Y-38000000D03*
D18*
X159500000Y-38000000D03*
%TD*%
D19*
%TO.C,J301*%
X231175000Y-79070000D03*
X231175000Y-73290000D03*
D20*
X230675000Y-80500000D03*
D21*
X234855000Y-80500000D03*
D20*
X230675000Y-71860000D03*
D21*
X234855000Y-71860000D03*
%TD*%
D17*
%TO.C,D201*%
X139920000Y-38000000D03*
D18*
X142460000Y-38000000D03*
%TD*%
D17*
%TO.C,D202*%
X148420000Y-38000000D03*
D18*
X150960000Y-38000000D03*
%TD*%
%TO.C,RV101*%
X92000000Y-50000000D03*
X99500000Y-52000000D03*
%TD*%
D11*
%TO.C,K601*%
X72000000Y-109627500D03*
D12*
X66000000Y-111627500D03*
X66000000Y-123827500D03*
X78000000Y-123827500D03*
X78000000Y-111627500D03*
%TD*%
D22*
%TO.C,U201*%
X123092500Y-39500000D03*
D23*
X112342500Y-39500000D03*
X112342500Y-78000000D03*
X120342500Y-78000000D03*
%TD*%
D11*
%TO.C,K607*%
X203571429Y-109627500D03*
D12*
X197571429Y-111627500D03*
X197571429Y-123827500D03*
X209571429Y-123827500D03*
X209571429Y-111627500D03*
%TD*%
D13*
%TO.C,J702*%
X127000000Y-141000000D03*
D14*
X132080000Y-141000000D03*
X137160000Y-141000000D03*
X142240000Y-141000000D03*
X147320000Y-141000000D03*
X152400000Y-141000000D03*
X157480000Y-141000000D03*
X162560000Y-141000000D03*
%TD*%
D24*
%TO.C,F101*%
X78750000Y-41000000D03*
D23*
X67500000Y-41000000D03*
X90000000Y-41000000D03*
%TD*%
D25*
%TO.C,U301*%
X187992500Y-69670000D03*
X187992500Y-71070000D03*
X188692500Y-68970000D03*
X188692500Y-70370000D03*
X188692500Y-71770000D03*
X189392500Y-69670000D03*
X189392500Y-71070000D03*
X190092500Y-68970000D03*
X190092500Y-70370000D03*
X190092500Y-71770000D03*
X190792500Y-69670000D03*
X190792500Y-71070000D03*
%TD*%
D13*
%TO.C,J704*%
X91175000Y-140722500D03*
D14*
X96255000Y-140722500D03*
%TD*%
D11*
%TO.C,K604*%
X137785714Y-109627500D03*
D12*
X131785714Y-111627500D03*
X131785714Y-123827500D03*
X143785714Y-123827500D03*
X143785714Y-111627500D03*
%TD*%
D11*
%TO.C,K602*%
X93928571Y-109627500D03*
D12*
X87928571Y-111627500D03*
X87928571Y-123827500D03*
X99928571Y-123827500D03*
X99928571Y-111627500D03*
%TD*%
D11*
%TO.C,K606*%
X181642857Y-109627500D03*
D12*
X175642857Y-111627500D03*
X175642857Y-123827500D03*
X187642857Y-123827500D03*
X187642857Y-111627500D03*
%TD*%
D13*
%TO.C,J701*%
X108455000Y-141222500D03*
D14*
X113535000Y-141222500D03*
%TD*%
D11*
%TO.C,K605*%
X159714286Y-109627500D03*
D12*
X153714286Y-111627500D03*
X153714286Y-123827500D03*
X165714286Y-123827500D03*
X165714286Y-111627500D03*
%TD*%
%LPD*%
M02*
