M48
; DRILL file KiCad 10.0.5 date 2026-08-16T10:07:37
; FORMAT={-:-/ absolute / metric / decimal}
; #@! TF.CreationDate,2026-08-16T10:07:37+02:00
; #@! TF.GenerationSoftware,Kicad,Pcbnew,10.0.5
; #@! TF.FileFunction,Plated,1,2,PTH
FMAT,2
METRIC
; #@! TA.AperFunction,Plated,PTH,ComponentDrill
T1C0.200
; #@! TA.AperFunction,Plated,PTH,ViaDrill
T2C0.400
; #@! TA.AperFunction,Plated,PTH,ComponentDrill
T3C0.600
; #@! TA.AperFunction,Plated,PTH,ComponentDrill
T4C0.800
; #@! TA.AperFunction,Plated,PTH,ComponentDrill
T5C0.900
; #@! TA.AperFunction,Plated,PTH,ComponentDrill
T6C1.300
; #@! TA.AperFunction,Plated,PTH,ComponentDrill
T7C1.400
; #@! TA.AperFunction,Plated,PTH,ComponentDrill
T8C1.500
%
G90
G05
T1
X187.992Y-69.67
X187.992Y-71.07
X188.692Y-68.97
X188.692Y-70.37
X188.692Y-71.77
X189.392Y-69.67
X189.392Y-71.07
X190.093Y-68.97
X190.093Y-70.37
X190.093Y-71.77
X190.792Y-69.67
X190.792Y-71.07
T2
X66.0Y-99.5
X72.0Y-116.0
X88.0Y-108.0
X93.5Y-114.5
X106.0Y-96.0
X106.0Y-97.5
X110.0Y-96.0
X110.0Y-97.5
X110.0Y-108.5
X111.0Y-89.5
X111.0Y-139.0
X116.0Y-114.5
X132.0Y-108.5
X137.5Y-114.5
X154.0Y-94.0
X154.5Y-109.0
X159.0Y-97.5
X159.5Y-41.5
X160.0Y-115.0
X162.934Y-97.566
X163.004Y-98.563
X165.487Y-95.987
X165.571Y-94.878
X167.5Y-71.5
X170.5Y-99.5
X172.5Y-67.5
X175.5Y-63.0
X176.0Y-89.0
X176.0Y-108.5
X176.5Y-67.5
X176.5Y-69.0
X177.0Y-66.0
X177.0Y-70.0
X177.0Y-102.0
X178.0Y-102.6
X179.0Y-97.5
X180.5Y-69.0
X180.5Y-70.5
X180.5Y-96.5
X181.5Y-115.0
X182.125Y-96.125
X183.5Y-63.0
X183.585Y-94.665
X184.625Y-93.625
X185.0Y-81.5
X185.5Y-77.0
X185.501Y-78.024
X185.697Y-92.553
X188.5Y-76.5
X188.5Y-84.0
X197.5Y-84.0
X197.5Y-90.5
X197.5Y-109.0
X198.5Y-87.5
X201.0Y-63.0
X201.5Y-66.5
X201.5Y-67.5
X203.0Y-81.5
X203.5Y-115.0
X219.5Y-82.5
X219.5Y-108.5
X220.5Y-66.0
X222.0Y-86.0
X224.0Y-79.225
X225.45Y-77.575
X225.5Y-73.5
X225.5Y-115.0
X225.945Y-81.75
X226.5Y-77.575
X226.537Y-84.693
X227.5Y-76.5
X227.5Y-78.5
X228.5Y-72.5
X228.925Y-77.992
X233.0Y-74.5
X233.0Y-77.0
X233.0Y-83.5
X234.5Y-76.0
X234.5Y-79.0
T4
X92.0Y-50.0
X99.5Y-52.0
T5
X139.92Y-38.0
X142.46Y-38.0
X148.42Y-38.0
X150.96Y-38.0
X156.96Y-38.0
X159.5Y-38.0
T6
X66.0Y-111.627
X66.0Y-123.828
X67.5Y-41.0
X72.0Y-109.627
X78.0Y-111.627
X78.0Y-123.828
X87.929Y-111.627
X87.929Y-123.828
X90.0Y-41.0
X93.929Y-109.627
X99.929Y-111.627
X99.929Y-123.828
X109.857Y-111.627
X109.857Y-123.828
X115.857Y-109.627
X121.857Y-111.627
X121.857Y-123.828
X131.786Y-111.627
X131.786Y-123.828
X137.786Y-109.627
X143.786Y-111.627
X143.786Y-123.828
X153.714Y-111.627
X153.714Y-123.828
X159.714Y-109.627
X165.714Y-111.627
X165.714Y-123.828
X175.643Y-111.627
X175.643Y-123.828
X181.643Y-109.627
X187.643Y-111.627
X187.643Y-123.828
X197.571Y-111.627
X197.571Y-123.828
X203.571Y-109.627
X209.571Y-111.627
X209.571Y-123.828
X219.5Y-111.627
X219.5Y-123.828
X225.5Y-109.627
X231.5Y-111.627
X231.5Y-123.828
T7
X67.472Y-57.925
X67.472Y-63.005
X67.472Y-68.085
X76.955Y-140.722
X82.035Y-140.722
X86.13Y-61.722
X91.175Y-140.722
X91.21Y-61.722
X96.255Y-140.722
X96.29Y-61.722
X101.37Y-61.722
X108.455Y-141.222
X113.535Y-141.222
X127.0Y-141.0
X132.08Y-141.0
X137.16Y-141.0
X142.24Y-141.0
X147.32Y-141.0
X152.4Y-141.0
X157.48Y-141.0
X162.56Y-141.0
T8
X112.343Y-39.5
X112.343Y-78.0
X120.343Y-78.0
X123.093Y-39.5
T3
G00X230.125Y-71.86
M15
G01X231.225Y-71.86
M16
G05
G00X230.125Y-80.5
M15
G01X231.225Y-80.5
M16
G05
G00X234.455Y-71.86
M15
G01X235.255Y-71.86
M16
G05
G00X234.455Y-80.5
M15
G01X235.255Y-80.5
M16
G05
M30
