%TF.GenerationSoftware,KiCad,Pcbnew,10.0.5*%
%TF.CreationDate,2026-08-16T10:05:52+02:00*%
%TF.ProjectId,IrrigationController,49727269-6761-4746-996f-6e436f6e7472,rev?*%
%TF.SameCoordinates,Original*%
%TF.FileFunction,Paste,Top*%
%TF.FilePolarity,Positive*%
%FSLAX46Y46*%
G04 Gerber Fmt 4.6, Leading zero omitted, Abs format (unit mm)*
G04 Created by KiCad (PCBNEW 10.0.5) date 2026-08-16 10:05:52*
%MOMM*%
%LPD*%
G01*
G04 APERTURE LIST*
G04 Aperture macros list*
%AMRoundRect*
0 Rectangle with rounded corners*
0 $1 Rounding radius*
0 $2 $3 $4 $5 $6 $7 $8 $9 X,Y pos of 4 corners*
0 Add a 4 corners polygon primitive as box body*
4,1,4,$2,$3,$4,$5,$6,$7,$8,$9,$2,$3,0*
0 Add four circle primitives for the rounded corners*
1,1,$1+$1,$2,$3*
1,1,$1+$1,$4,$5*
1,1,$1+$1,$6,$7*
1,1,$1+$1,$8,$9*
0 Add four rect primitives between the rounded corners*
20,1,$1+$1,$2,$3,$4,$5,0*
20,1,$1+$1,$4,$5,$6,$7,0*
20,1,$1+$1,$6,$7,$8,$9,0*
20,1,$1+$1,$8,$9,$2,$3,0*%
G04 Aperture macros list end*
%ADD10RoundRect,0.200000X0.200000X0.275000X-0.200000X0.275000X-0.200000X-0.275000X0.200000X-0.275000X0*%
%ADD11RoundRect,0.100000X-0.850000X-0.100000X0.850000X-0.100000X0.850000X0.100000X-0.850000X0.100000X0*%
%ADD12RoundRect,0.218750X-0.218750X-0.256250X0.218750X-0.256250X0.218750X0.256250X-0.218750X0.256250X0*%
%ADD13RoundRect,0.150000X-0.587500X-0.150000X0.587500X-0.150000X0.587500X0.150000X-0.587500X0.150000X0*%
%ADD14RoundRect,0.200000X-0.200000X-0.275000X0.200000X-0.275000X0.200000X0.275000X-0.200000X0.275000X0*%
%ADD15RoundRect,0.150000X0.425000X-0.150000X0.425000X0.150000X-0.425000X0.150000X-0.425000X-0.150000X0*%
%ADD16RoundRect,0.075000X0.500000X-0.075000X0.500000X0.075000X-0.500000X0.075000X-0.500000X-0.075000X0*%
%ADD17O,2.100000X1.000000*%
%ADD18O,1.800000X1.000000*%
%ADD19RoundRect,0.150000X0.587500X0.150000X-0.587500X0.150000X-0.587500X-0.150000X0.587500X-0.150000X0*%
%ADD20RoundRect,0.250000X0.325000X0.650000X-0.325000X0.650000X-0.325000X-0.650000X0.325000X-0.650000X0*%
%ADD21R,1.700000X1.000000*%
%ADD22RoundRect,0.225000X0.225000X0.250000X-0.225000X0.250000X-0.225000X-0.250000X0.225000X-0.250000X0*%
%ADD23RoundRect,0.250000X-0.275000X-0.275000X0.275000X-0.275000X0.275000X0.275000X-0.275000X0.275000X0*%
%ADD24RoundRect,0.062500X-0.350000X-0.062500X0.350000X-0.062500X0.350000X0.062500X-0.350000X0.062500X0*%
%ADD25RoundRect,0.062500X-0.062500X-0.350000X0.062500X-0.350000X0.062500X0.350000X-0.062500X0.350000X0*%
%ADD26R,1.500000X0.900000*%
%ADD27R,0.900000X1.500000*%
%ADD28R,0.900000X0.900000*%
%ADD29RoundRect,0.250000X1.500000X0.550000X-1.500000X0.550000X-1.500000X-0.550000X1.500000X-0.550000X0*%
%ADD30RoundRect,0.225000X-0.225000X-0.250000X0.225000X-0.250000X0.225000X0.250000X-0.225000X0.250000X0*%
%ADD31RoundRect,0.075000X0.075000X-0.075000X0.075000X0.075000X-0.075000X0.075000X-0.075000X-0.075000X0*%
%ADD32RoundRect,0.150000X-0.512500X-0.150000X0.512500X-0.150000X0.512500X0.150000X-0.512500X0.150000X0*%
%ADD33RoundRect,0.200000X0.275000X-0.200000X0.275000X0.200000X-0.275000X0.200000X-0.275000X-0.200000X0*%
%ADD34RoundRect,0.150000X-0.150000X0.875000X-0.150000X-0.875000X0.150000X-0.875000X0.150000X0.875000X0*%
G04 APERTURE END LIST*
D10*
%TO.C,R607*%
X205825000Y-132500000D03*
X204175000Y-132500000D03*
%TD*%
%TO.C,R308*%
X179412500Y-74000000D03*
X177762500Y-74000000D03*
%TD*%
D11*
%TO.C,U401*%
X161000000Y-90500000D03*
X161000000Y-91150000D03*
X161000000Y-91800000D03*
X161000000Y-92450000D03*
X161000000Y-93100000D03*
X161000000Y-93750000D03*
X161000000Y-94400000D03*
X161000000Y-95050000D03*
X161000000Y-95700000D03*
X161000000Y-96350000D03*
X161000000Y-97000000D03*
X161000000Y-97650000D03*
X161000000Y-98300000D03*
X161000000Y-98950000D03*
X168000000Y-98950000D03*
X168000000Y-98300000D03*
X168000000Y-97650000D03*
X168000000Y-97000000D03*
X168000000Y-96350000D03*
X168000000Y-95700000D03*
X168000000Y-95050000D03*
X168000000Y-94400000D03*
X168000000Y-93750000D03*
X168000000Y-93100000D03*
X168000000Y-92450000D03*
X168000000Y-91800000D03*
X168000000Y-91150000D03*
X168000000Y-90500000D03*
%TD*%
D12*
%TO.C,D603*%
X112718571Y-132545000D03*
X114293571Y-132545000D03*
%TD*%
D10*
%TO.C,R303*%
X191912500Y-90500000D03*
X190262500Y-90500000D03*
%TD*%
D13*
%TO.C,Q302*%
X195125000Y-88500000D03*
X195125000Y-90400000D03*
X197000000Y-89450000D03*
%TD*%
D14*
%TO.C,R201*%
X140762500Y-43000000D03*
X142412500Y-43000000D03*
%TD*%
D10*
%TO.C,R703*%
X157012500Y-84000000D03*
X155362500Y-84000000D03*
%TD*%
D15*
%TO.C,J301*%
X230100000Y-79380000D03*
X230100000Y-78580000D03*
D16*
X230100000Y-77430000D03*
X230100000Y-76430000D03*
X230100000Y-75930000D03*
X230100000Y-74930000D03*
D15*
X230100000Y-73780000D03*
X230100000Y-72980000D03*
X230100000Y-72980000D03*
X230100000Y-73780000D03*
D16*
X230100000Y-74430000D03*
X230100000Y-75430000D03*
X230100000Y-76930000D03*
X230100000Y-77930000D03*
D15*
X230100000Y-78580000D03*
X230100000Y-79380000D03*
D17*
X230675000Y-80500000D03*
D18*
X234855000Y-80500000D03*
D17*
X230675000Y-71860000D03*
D18*
X234855000Y-71860000D03*
%TD*%
D10*
%TO.C,R306*%
X227500000Y-74500000D03*
X225850000Y-74500000D03*
%TD*%
D12*
%TO.C,D607*%
X200855714Y-132545000D03*
X202430714Y-132545000D03*
%TD*%
%TO.C,D605*%
X156787143Y-132545000D03*
X158362143Y-132545000D03*
%TD*%
D19*
%TO.C,Q301*%
X190437500Y-86400000D03*
X190437500Y-84500000D03*
X188562500Y-85450000D03*
%TD*%
D20*
%TO.C,C402*%
X158500000Y-93500000D03*
X155550000Y-93500000D03*
%TD*%
D10*
%TO.C,R606*%
X183825000Y-132500000D03*
X182175000Y-132500000D03*
%TD*%
D21*
%TO.C,SW301*%
X167442500Y-69950000D03*
X161142500Y-69950000D03*
X167442500Y-66150000D03*
X161142500Y-66150000D03*
%TD*%
D22*
%TO.C,C305*%
X221775000Y-80000000D03*
X220225000Y-80000000D03*
%TD*%
D23*
%TO.C,U302*%
X225295000Y-81100000D03*
X225295000Y-82400000D03*
X226595000Y-81100000D03*
X226595000Y-82400000D03*
D24*
X224007500Y-80500000D03*
X224007500Y-81000000D03*
X224007500Y-81500000D03*
X224007500Y-82000000D03*
X224007500Y-82500000D03*
X224007500Y-83000000D03*
D25*
X224695000Y-83687500D03*
X225195000Y-83687500D03*
X225695000Y-83687500D03*
X226195000Y-83687500D03*
X226695000Y-83687500D03*
X227195000Y-83687500D03*
D24*
X227882500Y-83000000D03*
X227882500Y-82500000D03*
X227882500Y-82000000D03*
X227882500Y-81500000D03*
X227882500Y-81000000D03*
X227882500Y-80500000D03*
D25*
X227195000Y-79812500D03*
X226695000Y-79812500D03*
X226195000Y-79812500D03*
X225695000Y-79812500D03*
X225195000Y-79812500D03*
X224695000Y-79812500D03*
%TD*%
D14*
%TO.C,R406*%
X156762500Y-100500000D03*
X158412500Y-100500000D03*
%TD*%
D10*
%TO.C,R602*%
X95325000Y-132500000D03*
X93675000Y-132500000D03*
%TD*%
D26*
%TO.C,U301*%
X182142500Y-62650000D03*
X182142500Y-63920000D03*
X182142500Y-65190000D03*
X182142500Y-66460000D03*
X182142500Y-67730000D03*
X182142500Y-69000000D03*
X182142500Y-70270000D03*
X182142500Y-71540000D03*
X182142500Y-72810000D03*
X182142500Y-74080000D03*
X182142500Y-75350000D03*
X182142500Y-76620000D03*
X182142500Y-77890000D03*
X182142500Y-79160000D03*
D27*
X185177500Y-80410000D03*
X186447500Y-80410000D03*
X187717500Y-80410000D03*
X188987500Y-80410000D03*
X190257500Y-80410000D03*
X191527500Y-80410000D03*
X192797500Y-80410000D03*
X194067500Y-80410000D03*
X195337500Y-80410000D03*
X196607500Y-80410000D03*
D26*
X199642500Y-79160000D03*
X199642500Y-77890000D03*
X199642500Y-76620000D03*
X199642500Y-75350000D03*
X199642500Y-74080000D03*
X199642500Y-72810000D03*
X199642500Y-71540000D03*
X199642500Y-70270000D03*
X199642500Y-69000000D03*
X199642500Y-67730000D03*
X199642500Y-66460000D03*
X199642500Y-65190000D03*
X199642500Y-63920000D03*
X199642500Y-62650000D03*
D28*
X187992500Y-68970000D03*
X187992500Y-70370000D03*
X187992500Y-71770000D03*
X189392500Y-68970000D03*
X189392500Y-70370000D03*
X189392500Y-71770000D03*
X190792500Y-68970000D03*
X190792500Y-70370000D03*
X190792500Y-71770000D03*
%TD*%
D22*
%TO.C,C301*%
X179325000Y-66500000D03*
X177775000Y-66500000D03*
%TD*%
D14*
%TO.C,R704*%
X159187500Y-84000000D03*
X160837500Y-84000000D03*
%TD*%
D12*
%TO.C,D604*%
X134752857Y-132545000D03*
X136327857Y-132545000D03*
%TD*%
%TO.C,D606*%
X178821429Y-132545000D03*
X180396429Y-132545000D03*
%TD*%
D14*
%TO.C,R304*%
X194262500Y-84500000D03*
X195912500Y-84500000D03*
%TD*%
D10*
%TO.C,R605*%
X161825000Y-132500000D03*
X160175000Y-132500000D03*
%TD*%
D14*
%TO.C,R305*%
X230262500Y-83500000D03*
X231912500Y-83500000D03*
%TD*%
D22*
%TO.C,C303*%
X179275000Y-68500000D03*
X177725000Y-68500000D03*
%TD*%
D21*
%TO.C,SW302*%
X212692500Y-66100000D03*
X218992500Y-66100000D03*
X212692500Y-69900000D03*
X218992500Y-69900000D03*
%TD*%
D22*
%TO.C,C306*%
X221775000Y-82500000D03*
X220225000Y-82500000D03*
%TD*%
D29*
%TO.C,C201*%
X120300000Y-92500000D03*
X114700000Y-92500000D03*
%TD*%
D12*
%TO.C,D601*%
X68650000Y-132545000D03*
X70225000Y-132545000D03*
%TD*%
D14*
%TO.C,R405*%
X156175000Y-99000000D03*
X157825000Y-99000000D03*
%TD*%
D10*
%TO.C,R604*%
X139325000Y-132500000D03*
X137675000Y-132500000D03*
%TD*%
D30*
%TO.C,C204*%
X174675000Y-78500000D03*
X176225000Y-78500000D03*
%TD*%
D14*
%TO.C,R401*%
X166262500Y-102000000D03*
X167912500Y-102000000D03*
%TD*%
D30*
%TO.C,C703*%
X155482500Y-86030000D03*
X157032500Y-86030000D03*
%TD*%
D10*
%TO.C,R301*%
X173825000Y-66000000D03*
X172175000Y-66000000D03*
%TD*%
D31*
%TO.C,U303*%
X228375000Y-76850000D03*
X228375000Y-76150000D03*
X227525000Y-76500000D03*
%TD*%
D12*
%TO.C,D602*%
X90684286Y-132545000D03*
X92259286Y-132545000D03*
%TD*%
D22*
%TO.C,C203*%
X168275000Y-78450000D03*
X166725000Y-78450000D03*
%TD*%
D10*
%TO.C,R608*%
X227825000Y-132500000D03*
X226175000Y-132500000D03*
%TD*%
D22*
%TO.C,C704*%
X160825000Y-86000000D03*
X159275000Y-86000000D03*
%TD*%
D10*
%TO.C,R601*%
X73325000Y-132500000D03*
X71675000Y-132500000D03*
%TD*%
D14*
%TO.C,R307*%
X219262500Y-86000000D03*
X220912500Y-86000000D03*
%TD*%
D10*
%TO.C,R603*%
X117325000Y-132500000D03*
X115675000Y-132500000D03*
%TD*%
D12*
%TO.C,D608*%
X222890000Y-132545000D03*
X224465000Y-132545000D03*
%TD*%
D14*
%TO.C,R202*%
X149262500Y-43000000D03*
X150912500Y-43000000D03*
%TD*%
D32*
%TO.C,U202*%
X170362500Y-78050000D03*
X170362500Y-79000000D03*
X170362500Y-79950000D03*
X172637500Y-79950000D03*
X172637500Y-78050000D03*
%TD*%
D22*
%TO.C,C202*%
X120275000Y-84500000D03*
X118725000Y-84500000D03*
%TD*%
D20*
%TO.C,C302*%
X179500000Y-63000000D03*
X176550000Y-63000000D03*
%TD*%
D33*
%TO.C,R302*%
X220500000Y-76825000D03*
X220500000Y-75175000D03*
%TD*%
D22*
%TO.C,C401*%
X158825000Y-96000000D03*
X157275000Y-96000000D03*
%TD*%
D34*
%TO.C,U501*%
X185580000Y-90620000D03*
X184310000Y-90620000D03*
X183040000Y-90620000D03*
X181770000Y-90620000D03*
X180500000Y-90620000D03*
X179230000Y-90620000D03*
X177960000Y-90620000D03*
X176690000Y-90620000D03*
X175420000Y-90620000D03*
X175420000Y-99920000D03*
X176690000Y-99920000D03*
X177960000Y-99920000D03*
X179230000Y-99920000D03*
X180500000Y-99920000D03*
X181770000Y-99920000D03*
X183040000Y-99920000D03*
X184310000Y-99920000D03*
X185580000Y-99920000D03*
%TD*%
M02*
